M48
;DRILL file {KiCad 4.0.5} date 05/01/17 10:09:44
;FORMAT={-:-/ absolute / metric / decimal}
FMAT,2
METRIC,TZ
T1C0.400
T2C0.500
T3C0.550
T4C0.800
T5C1.000
T6C1.016
T7C1.200
T8C1.349
T9C3.200
%
G90
G05
M71
T1
X34.76Y-84.45
X35.96Y-32.55
X36.373Y-62.027
X36.576Y-57.76
X37.414Y-71.069
X38.987Y-70.895
X40.538Y-58.268
X41.76Y-29.95
X41.81Y-36.1
X42.26Y-41.45
X42.66Y-64.25
X43.01Y-40.7
X43.709Y-96.533
X44.552Y-88.392
X45.36Y-66.75
X48.56Y-28.4
X49.56Y-28.35
X49.581Y-64.745
X50.56Y-28.35
X51.56Y-28.35
X52.56Y-28.35
X53.56Y-28.35
X53.696Y-86.487
X53.96Y-98.8
X54.56Y-28.35
X54.96Y-74.95
X55.143Y-77.394
X55.22Y-76.225
X55.27Y-78.638
X55.56Y-71.95
X56.083Y-88.29
X56.76Y-84.25
X56.76Y-85.2
X57.01Y-82.2
X57.048Y-87.376
X57.563Y-63.925
X57.856Y-82.329
X57.86Y-51.25
X58.445Y-58.014
X58.682Y-65.375
X58.71Y-67.75
X58.81Y-70.55
X58.96Y-66.85
X59.46Y-37.9
X62.46Y-70.6
X63.21Y-60.55
X63.26Y-71.95
X63.41Y-54.8
X64.36Y-54.75
X64.91Y-58.45
X65.26Y-54.75
X66.21Y-54.75
X66.51Y-80.6
X67.06Y-54.75
X67.26Y-71.85
X67.666Y-66.218
X67.96Y-54.8
X68.06Y-71.196
X68.86Y-69.65
X68.91Y-54.85
X69.035Y-59.075
X69.66Y-71.8
X70.11Y-60.65
X70.46Y-71.85
X73.26Y-33.6
X73.26Y-37.25
X74.06Y-71.85
X74.16Y-69.45
X74.335Y-70.6
X74.66Y-63.95
X75.31Y-59.15
X76.53Y-59.944
X77.165Y-62.332
X78.11Y-60.75
X78.128Y-63.18
X78.152Y-61.592
X78.52Y-63.9
X79.41Y-61.55
X79.81Y-63.9
X80.06Y-60.75
X81.96Y-69.45
X84.46Y-69.55
X84.46Y-71.8
X86.36Y-112.15
X88.26Y-108.35
X95.326Y-90.526
X95.58Y-50.978
X95.656Y-70.942
X95.656Y-70.942
X95.733Y-30.937
X98.044Y-103.048
T4
X32.79Y-103.05
X40.41Y-103.05
T5
X37.81Y-89.9
X37.81Y-94.5
X40.35Y-89.9
X40.35Y-94.5
X66.06Y-30.25
X67.92Y-114.15
X70.46Y-114.15
X75.27Y-114.2
X77.81Y-114.2
X79.66Y-20.3
X112.Y-37.
X112.Y-39.54
X112.Y-42.08
X112.Y-57.
X112.Y-59.54
X112.Y-62.08
X112.Y-77.
X112.Y-79.54
X112.Y-82.08
X112.Y-97.
X112.Y-99.54
X112.Y-102.08
T6
X32.91Y-52.5
X32.91Y-55.04
X32.91Y-57.58
X32.91Y-60.12
X32.91Y-62.66
X32.91Y-65.2
X32.91Y-67.74
X32.91Y-70.28
X32.91Y-72.82
X32.91Y-75.36
X32.91Y-77.9
X32.91Y-80.44
X32.91Y-82.98
X48.57Y-20.6
X50.86Y-68.65
X50.86Y-71.19
X50.86Y-73.73
X51.11Y-20.6
X53.4Y-68.65
X53.4Y-71.19
X53.4Y-73.73
X53.65Y-20.6
X56.19Y-20.6
X58.73Y-20.6
X61.27Y-20.6
X63.81Y-20.6
X71.52Y-20.45
X74.06Y-20.45
T7
X114.5Y-112.
X114.51Y-22.
X118.Y-112.
X118.01Y-22.
X125.Y-37.5
X125.Y-41.
X125.Y-57.5
X125.Y-61.
X125.Y-77.5
X125.Y-81.
X125.Y-97.5
X125.Y-101.
T8
X108.339Y-27.46
X108.339Y-32.54
X108.339Y-47.46
X108.339Y-52.54
X108.339Y-67.46
X108.339Y-72.54
X108.339Y-87.46
X108.339Y-92.54
X123.661Y-27.46
X123.661Y-32.54
X123.661Y-47.46
X123.661Y-52.54
X123.661Y-67.46
X123.661Y-72.54
X123.661Y-87.46
X123.661Y-92.54
T9
X35.Y-21.
X35.Y-113.
X125.Y-22.
X125.Y-113.
T2
X30.685Y-26.85G85X31.335Y-26.85
G05
X30.685Y-33.85G85X31.335Y-33.85
G05
T3
X33.71Y-27.7G85X33.71Y-28.
G05
X33.71Y-32.7G85X33.71Y-33.
G05
T0
M30
