G04 #@! TF.FileFunction,Copper,L2,Bot,Signal*
%FSLAX46Y46*%
G04 Gerber Fmt 4.6, Leading zero omitted, Abs format (unit mm)*
G04 Created by KiCad (PCBNEW 4.0.5) date 05/01/17 10:10:00*
%MOMM*%
%LPD*%
G01*
G04 APERTURE LIST*
%ADD10C,0.100000*%
%ADD11R,1.727200X1.727200*%
%ADD12O,1.727200X1.727200*%
%ADD13R,1.800000X3.600000*%
%ADD14O,1.800000X3.600000*%
%ADD15O,0.950000X1.250000*%
%ADD16O,1.550000X1.000000*%
%ADD17R,2.032000X1.727200*%
%ADD18O,2.032000X1.727200*%
%ADD19C,2.349500*%
%ADD20R,1.700000X1.700000*%
%ADD21O,1.700000X1.700000*%
%ADD22R,1.600000X1.600000*%
%ADD23O,1.600000X1.600000*%
%ADD24R,3.600000X1.800000*%
%ADD25O,3.600000X1.800000*%
%ADD26R,1.727200X2.032000*%
%ADD27O,1.727200X2.032000*%
%ADD28R,2.032000X2.032000*%
%ADD29O,2.032000X2.032000*%
%ADD30R,1.800000X1.800000*%
%ADD31O,1.800000X1.800000*%
%ADD32C,0.600000*%
%ADD33C,0.250000*%
%ADD34C,1.000000*%
%ADD35C,2.000000*%
%ADD36C,0.254000*%
G04 APERTURE END LIST*
D10*
D11*
X50860000Y-68650000D03*
D12*
X53400000Y-68650000D03*
X50860000Y-71190000D03*
X53400000Y-71190000D03*
X50860000Y-73730000D03*
X53400000Y-73730000D03*
D13*
X114510000Y-22000000D03*
D14*
X118010000Y-22000000D03*
D15*
X33710000Y-27850000D03*
X33710000Y-32850000D03*
D16*
X31010000Y-26850000D03*
X31010000Y-33850000D03*
D17*
X32910000Y-52500000D03*
D18*
X32910000Y-55040000D03*
X32910000Y-57580000D03*
X32910000Y-60120000D03*
X32910000Y-62660000D03*
X32910000Y-65200000D03*
X32910000Y-67740000D03*
X32910000Y-70280000D03*
X32910000Y-72820000D03*
X32910000Y-75360000D03*
X32910000Y-77900000D03*
X32910000Y-80440000D03*
X32910000Y-82980000D03*
D19*
X123660640Y-27460000D03*
X123660640Y-32540000D03*
X108339360Y-27460000D03*
X108339360Y-32540000D03*
D20*
X37810000Y-94500000D03*
D21*
X40350000Y-94500000D03*
D20*
X37810000Y-89900000D03*
D21*
X40350000Y-89900000D03*
D22*
X40410000Y-103050000D03*
D23*
X32790000Y-103050000D03*
D19*
X123660640Y-47460000D03*
X123660640Y-52540000D03*
X108339360Y-47460000D03*
X108339360Y-52540000D03*
X123660640Y-67460000D03*
X123660640Y-72540000D03*
X108339360Y-67460000D03*
X108339360Y-72540000D03*
X123660640Y-87460000D03*
X123660640Y-92540000D03*
X108339360Y-87460000D03*
X108339360Y-92540000D03*
D24*
X125000000Y-61000000D03*
D25*
X125000000Y-57500000D03*
D24*
X125000000Y-81000000D03*
D25*
X125000000Y-77500000D03*
D13*
X118000000Y-112000000D03*
D14*
X114500000Y-112000000D03*
D24*
X125000000Y-41000000D03*
D25*
X125000000Y-37500000D03*
D24*
X125000000Y-101000000D03*
D25*
X125000000Y-97500000D03*
D26*
X63810000Y-20600000D03*
D27*
X61270000Y-20600000D03*
X58730000Y-20600000D03*
X56190000Y-20600000D03*
X53650000Y-20600000D03*
X51110000Y-20600000D03*
X48570000Y-20600000D03*
D28*
X74060000Y-20450000D03*
D29*
X71520000Y-20450000D03*
D30*
X112000000Y-37000000D03*
D31*
X112000000Y-39540000D03*
X112000000Y-42080000D03*
D30*
X112000000Y-57000000D03*
D31*
X112000000Y-59540000D03*
X112000000Y-62080000D03*
D30*
X112000000Y-77000000D03*
D31*
X112000000Y-79540000D03*
X112000000Y-82080000D03*
D30*
X112000000Y-97000000D03*
D31*
X112000000Y-99540000D03*
X112000000Y-102080000D03*
D20*
X79660000Y-20300000D03*
X77810000Y-114200000D03*
D21*
X75270000Y-114200000D03*
D20*
X70460000Y-114150000D03*
D21*
X67920000Y-114150000D03*
D20*
X66060000Y-30250000D03*
D32*
X35960000Y-32550000D03*
X55560000Y-71950000D03*
X88260000Y-108350000D03*
X95732600Y-30937200D03*
X95580200Y-50977800D03*
X95656400Y-70942200D03*
X95656400Y-70942200D03*
X95326200Y-90525600D03*
X98044000Y-103047800D03*
X66510000Y-80600000D03*
X59460000Y-37900000D03*
X53960000Y-98800000D03*
X69034987Y-59075013D03*
X70110000Y-60650000D03*
X64910000Y-58450000D03*
X63210000Y-60550000D03*
X45360000Y-66750000D03*
X57562751Y-63924990D03*
X58710000Y-67750000D03*
X70460000Y-71850000D03*
X74060000Y-71850000D03*
X36576000Y-57759600D03*
X55219600Y-76225400D03*
X68060000Y-71196200D03*
X36372800Y-62026800D03*
X55143400Y-77393800D03*
X67260000Y-71850000D03*
X58682001Y-65375010D03*
X58960000Y-66850000D03*
X57860000Y-51250000D03*
X42660000Y-64250000D03*
X63260000Y-71950000D03*
X54960000Y-74950000D03*
X54560000Y-28350000D03*
X68910000Y-54850000D03*
X53560000Y-28350000D03*
X67960000Y-54800000D03*
X52560000Y-28350000D03*
X67060000Y-54750000D03*
X51560000Y-28350000D03*
X66210000Y-54750000D03*
X50560000Y-28350000D03*
X65260000Y-54750000D03*
X49560000Y-28350000D03*
X64360000Y-54750000D03*
X48560000Y-28400000D03*
X63410000Y-54800000D03*
X86360000Y-112150000D03*
X81960000Y-69450000D03*
X74160000Y-69450000D03*
X68860000Y-69650000D03*
X40538400Y-58267600D03*
X49580800Y-64744600D03*
X67665600Y-66217800D03*
X69660000Y-71800000D03*
X55270400Y-78638400D03*
X43708738Y-96532636D03*
X76530200Y-59944000D03*
X56083200Y-88290400D03*
X78127698Y-63179809D03*
X57048400Y-87376000D03*
X38987165Y-70894667D03*
X58445400Y-58013600D03*
X34760000Y-84450000D03*
X77165200Y-62331600D03*
X53695600Y-86487000D03*
X37414200Y-71069200D03*
X44551600Y-88392000D03*
X56760000Y-85200000D03*
X78151949Y-61591949D03*
X79410000Y-61550000D03*
X56760000Y-84250000D03*
X78110000Y-60750000D03*
X80060000Y-60750000D03*
X74334968Y-70600000D03*
X58810000Y-70550000D03*
X62460000Y-70600000D03*
X78519621Y-63900000D03*
X74660000Y-63950000D03*
X57010000Y-82200000D03*
X79810000Y-63900000D03*
X84460000Y-69550000D03*
X84460000Y-71800000D03*
X57856192Y-82328844D03*
X75310000Y-59150000D03*
X41810000Y-36100000D03*
X42260000Y-41450000D03*
X41760000Y-29950000D03*
X43010000Y-40700000D03*
X73260000Y-37250000D03*
X73260000Y-33600000D03*
D33*
X31760000Y-53770000D02*
X31912400Y-53770000D01*
X70110000Y-60650000D02*
X70110000Y-60150026D01*
X70110000Y-60150026D02*
X69034987Y-59075013D01*
X63210000Y-60550000D02*
X64910000Y-58850000D01*
X64910000Y-58850000D02*
X64910000Y-58450000D01*
D34*
X53400000Y-68650000D02*
X53400000Y-67428686D01*
X53400000Y-67428686D02*
X52721314Y-66750000D01*
X52721314Y-66750000D02*
X45360000Y-66750000D01*
D33*
X57562751Y-66602751D02*
X57562751Y-64349254D01*
X58710000Y-67750000D02*
X57562751Y-66602751D01*
X57562751Y-64349254D02*
X57562751Y-63924990D01*
X74060000Y-71850000D02*
X70460000Y-71850000D01*
X36576000Y-57759600D02*
X33089600Y-57759600D01*
X33089600Y-57759600D02*
X32910000Y-57580000D01*
X66827400Y-71196200D02*
X61798200Y-76225400D01*
X61798200Y-76225400D02*
X55219600Y-76225400D01*
X68060000Y-71196200D02*
X66827400Y-71196200D01*
X30937200Y-85312202D02*
X30937200Y-59400400D01*
X30937200Y-59400400D02*
X32757600Y-57580000D01*
X32757600Y-57580000D02*
X32910000Y-57580000D01*
X40350000Y-94500000D02*
X39174999Y-93324999D01*
X39174999Y-93324999D02*
X38949997Y-93324999D01*
X38949997Y-93324999D02*
X30937200Y-85312202D01*
X32910000Y-57580000D02*
X33062400Y-57580000D01*
X36372800Y-62026800D02*
X34466000Y-60120000D01*
X34466000Y-60120000D02*
X32910000Y-60120000D01*
X61886464Y-77647800D02*
X55397400Y-77647800D01*
X55397400Y-77647800D02*
X55143400Y-77393800D01*
X67260000Y-71850000D02*
X67260000Y-72274264D01*
X67260000Y-72274264D02*
X61886464Y-77647800D01*
X35181799Y-88724999D02*
X31568990Y-85112190D01*
X31568990Y-85112190D02*
X31568990Y-61308610D01*
X31568990Y-61308610D02*
X32757600Y-60120000D01*
X32757600Y-60120000D02*
X32910000Y-60120000D01*
X40350000Y-89900000D02*
X39174999Y-88724999D01*
X39174999Y-88724999D02*
X35181799Y-88724999D01*
X32910000Y-60120000D02*
X33062400Y-60120000D01*
X58960000Y-66850000D02*
X58960000Y-65653009D01*
X58960000Y-65653009D02*
X58682001Y-65375010D01*
X42660000Y-64250000D02*
X44860000Y-64250000D01*
X44860000Y-64250000D02*
X57860000Y-51250000D01*
X54960000Y-74950000D02*
X60260000Y-74950000D01*
X60260000Y-74950000D02*
X63260000Y-71950000D01*
X68910000Y-54200000D02*
X54560000Y-39850000D01*
X54560000Y-39850000D02*
X54560000Y-28350000D01*
X68910000Y-54850000D02*
X68910000Y-54200000D01*
X63810000Y-20600000D02*
X63810000Y-20752400D01*
X67960000Y-54250000D02*
X53560000Y-39850000D01*
X53560000Y-39850000D02*
X53560000Y-28350000D01*
X67960000Y-54800000D02*
X67960000Y-54250000D01*
X61270000Y-20752400D02*
X61270000Y-20600000D01*
X67060000Y-54750000D02*
X67060000Y-54325736D01*
X67060000Y-54325736D02*
X52560000Y-39825736D01*
X52560000Y-39825736D02*
X52560000Y-28350000D01*
X58730000Y-20752400D02*
X58730000Y-20600000D01*
X66210000Y-54750000D02*
X51560000Y-40100000D01*
X51560000Y-40100000D02*
X51560000Y-28350000D01*
X56190000Y-20752400D02*
X56190000Y-20600000D01*
X65260000Y-54750000D02*
X50560000Y-40050000D01*
X50560000Y-40050000D02*
X50560000Y-28350000D01*
X53650000Y-20752400D02*
X53650000Y-20600000D01*
X64360000Y-54750000D02*
X49560000Y-39950000D01*
X49560000Y-39950000D02*
X49560000Y-28350000D01*
X51110000Y-20752400D02*
X51110000Y-20600000D01*
X63410000Y-54800000D02*
X48560000Y-39950000D01*
X48560000Y-39950000D02*
X48560000Y-28400000D01*
X48570000Y-20600000D02*
X48570000Y-20752400D01*
X81960000Y-69450000D02*
X81960000Y-107750000D01*
X81960000Y-107750000D02*
X86360000Y-112150000D01*
X68860000Y-69650000D02*
X73960000Y-69650000D01*
X73960000Y-69650000D02*
X74160000Y-69450000D01*
X40538400Y-58267600D02*
X34770800Y-52500000D01*
X34770800Y-52500000D02*
X32910000Y-52500000D01*
X58216800Y-68910200D02*
X54051200Y-64744600D01*
X54051200Y-64744600D02*
X49580800Y-64744600D01*
X64548936Y-68910200D02*
X58216800Y-68910200D01*
X67665600Y-66217800D02*
X67241336Y-66217800D01*
X67241336Y-66217800D02*
X64548936Y-68910200D01*
X69360001Y-72099999D02*
X69660000Y-71800000D01*
X62821600Y-78638400D02*
X69360001Y-72099999D01*
X55270400Y-78638400D02*
X62821600Y-78638400D01*
X76835000Y-59639200D02*
X76530200Y-59944000D01*
X80772000Y-59639200D02*
X76835000Y-59639200D01*
X56083200Y-88290400D02*
X71729600Y-88290400D01*
X80772000Y-63855600D02*
X80772000Y-59639200D01*
X78344622Y-66282978D02*
X80772000Y-63855600D01*
X78344622Y-81675378D02*
X78344622Y-66282978D01*
X71729600Y-88290400D02*
X78344622Y-81675378D01*
X43708738Y-96108372D02*
X43708738Y-96532636D01*
X43708738Y-88185548D02*
X43708738Y-96108372D01*
X36652200Y-81129010D02*
X43708738Y-88185548D01*
X33062400Y-62660000D02*
X36652200Y-66249800D01*
X36652200Y-66249800D02*
X36652200Y-81129010D01*
X32910000Y-62660000D02*
X33062400Y-62660000D01*
X32910000Y-62660000D02*
X32757600Y-62660000D01*
X77894611Y-63412896D02*
X78127698Y-63179809D01*
X77894611Y-80552000D02*
X77894611Y-63412896D01*
X71070611Y-87376000D02*
X77894611Y-80552000D01*
X57048400Y-87376000D02*
X71070611Y-87376000D01*
X51868232Y-58013600D02*
X39287164Y-70594668D01*
X39287164Y-70594668D02*
X38987165Y-70894667D01*
X58445400Y-58013600D02*
X51868232Y-58013600D01*
X34760000Y-84450000D02*
X34760000Y-69437600D01*
X34760000Y-69437600D02*
X33062400Y-67740000D01*
X33062400Y-67740000D02*
X32910000Y-67740000D01*
X71323200Y-86487000D02*
X77165200Y-80645000D01*
X77165200Y-80645000D02*
X77165200Y-62331600D01*
X53695600Y-86487000D02*
X71323200Y-86487000D01*
X44551600Y-88392000D02*
X37414200Y-81254600D01*
X37414200Y-81254600D02*
X37414200Y-71069200D01*
X77727685Y-61591949D02*
X78151949Y-61591949D01*
X76979847Y-61591949D02*
X77727685Y-61591949D01*
X76540198Y-80633592D02*
X76540198Y-62031598D01*
X56760000Y-85200000D02*
X71973790Y-85200000D01*
X71973790Y-85200000D02*
X76540198Y-80633592D01*
X76540198Y-62031598D02*
X76979847Y-61591949D01*
X78193898Y-61550000D02*
X78151949Y-61591949D01*
X79410000Y-61550000D02*
X78193898Y-61550000D01*
X77685736Y-60750000D02*
X78110000Y-60750000D01*
X77098585Y-60750000D02*
X77685736Y-60750000D01*
X72287380Y-84250000D02*
X75860000Y-80677380D01*
X75860000Y-80677380D02*
X75860000Y-61988585D01*
X56760000Y-84250000D02*
X72287380Y-84250000D01*
X75860000Y-61988585D02*
X77098585Y-60750000D01*
X80060000Y-60750000D02*
X78110000Y-60750000D01*
X74034969Y-70300001D02*
X74334968Y-70600000D01*
X62460000Y-70600000D02*
X62759999Y-70300001D01*
X62759999Y-70300001D02*
X74034969Y-70300001D01*
X58810000Y-70550000D02*
X62410000Y-70550000D01*
X62410000Y-70550000D02*
X62460000Y-70600000D01*
X57506157Y-81703843D02*
X73560717Y-81703843D01*
X73560717Y-81703843D02*
X74959978Y-80304582D01*
X79810000Y-63900000D02*
X78519621Y-63900000D01*
X74959978Y-80304582D02*
X74959978Y-64674242D01*
X74959978Y-64674242D02*
X74660000Y-64374264D01*
X74660000Y-64374264D02*
X74660000Y-63950000D01*
X57010000Y-82200000D02*
X57506157Y-81703843D01*
X74685001Y-63975001D02*
X74660000Y-63950000D01*
X84460000Y-71800000D02*
X84460000Y-69550000D01*
X75310000Y-59150000D02*
X75310000Y-62313611D01*
X73572126Y-82328844D02*
X58280456Y-82328844D01*
X58280456Y-82328844D02*
X57856192Y-82328844D01*
X75409989Y-62413600D02*
X75409989Y-80490981D01*
X75409989Y-80490981D02*
X73572126Y-82328844D01*
X75310000Y-62313611D02*
X75409989Y-62413600D01*
X42260000Y-41450000D02*
X42260000Y-36550000D01*
X42260000Y-36550000D02*
X41810000Y-36100000D01*
X43010000Y-40700000D02*
X43010000Y-31200000D01*
X43010000Y-31200000D02*
X41760000Y-29950000D01*
X73260000Y-33600000D02*
X73260000Y-37250000D01*
D35*
X112000000Y-37000000D02*
X124500000Y-37000000D01*
X124500000Y-37000000D02*
X125000000Y-37500000D01*
X112000000Y-57000000D02*
X124500000Y-57000000D01*
X124500000Y-57000000D02*
X125000000Y-57500000D01*
X112000000Y-77000000D02*
X124500000Y-77000000D01*
X124500000Y-77000000D02*
X125000000Y-77500000D01*
X112000000Y-97000000D02*
X124500000Y-97000000D01*
X124500000Y-97000000D02*
X125000000Y-97500000D01*
D36*
G36*
X128850000Y-116640000D02*
X105127000Y-116640000D01*
X105127000Y-112373000D01*
X112965000Y-112373000D01*
X112965000Y-113273000D01*
X113224586Y-113832026D01*
X113678342Y-114249160D01*
X113898663Y-114312310D01*
X114127000Y-114224740D01*
X114127000Y-112373000D01*
X114873000Y-112373000D01*
X114873000Y-114224740D01*
X115101337Y-114312310D01*
X115321658Y-114249160D01*
X115775414Y-113832026D01*
X116035000Y-113273000D01*
X116035000Y-112373000D01*
X114873000Y-112373000D01*
X114127000Y-112373000D01*
X112965000Y-112373000D01*
X105127000Y-112373000D01*
X105127000Y-110727000D01*
X112965000Y-110727000D01*
X112965000Y-111627000D01*
X114127000Y-111627000D01*
X114127000Y-109775260D01*
X114873000Y-109775260D01*
X114873000Y-111627000D01*
X116035000Y-111627000D01*
X116035000Y-110727000D01*
X115790286Y-110200000D01*
X116452560Y-110200000D01*
X116452560Y-113800000D01*
X116496838Y-114035317D01*
X116635910Y-114251441D01*
X116848110Y-114396431D01*
X117100000Y-114447440D01*
X118900000Y-114447440D01*
X119135317Y-114403162D01*
X119351441Y-114264090D01*
X119496431Y-114051890D01*
X119547440Y-113800000D01*
X119547440Y-113442619D01*
X122764613Y-113442619D01*
X123104155Y-114264372D01*
X123732321Y-114893636D01*
X124553481Y-115234611D01*
X125442619Y-115235387D01*
X126264372Y-114895845D01*
X126893636Y-114267679D01*
X127234611Y-113446519D01*
X127235387Y-112557381D01*
X126895845Y-111735628D01*
X126267679Y-111106364D01*
X125446519Y-110765389D01*
X124557381Y-110764613D01*
X123735628Y-111104155D01*
X123106364Y-111732321D01*
X122765389Y-112553481D01*
X122764613Y-113442619D01*
X119547440Y-113442619D01*
X119547440Y-110200000D01*
X119503162Y-109964683D01*
X119364090Y-109748559D01*
X119151890Y-109603569D01*
X118900000Y-109552560D01*
X117100000Y-109552560D01*
X116864683Y-109596838D01*
X116648559Y-109735910D01*
X116503569Y-109948110D01*
X116452560Y-110200000D01*
X115790286Y-110200000D01*
X115775414Y-110167974D01*
X115321658Y-109750840D01*
X115101337Y-109687690D01*
X114873000Y-109775260D01*
X114127000Y-109775260D01*
X113898663Y-109687690D01*
X113678342Y-109750840D01*
X113224586Y-110167974D01*
X112965000Y-110727000D01*
X105127000Y-110727000D01*
X105127000Y-97000000D01*
X110365000Y-97000000D01*
X110452560Y-97440193D01*
X110452560Y-97900000D01*
X110496838Y-98135317D01*
X110635910Y-98351441D01*
X110848110Y-98496431D01*
X110864344Y-98499719D01*
X110581845Y-98922509D01*
X110465000Y-99509928D01*
X110465000Y-99570072D01*
X110581845Y-100157491D01*
X110914591Y-100655481D01*
X111145845Y-100810000D01*
X110914591Y-100964519D01*
X110581845Y-101462509D01*
X110465000Y-102049928D01*
X110465000Y-102110072D01*
X110581845Y-102697491D01*
X110914591Y-103195481D01*
X111412581Y-103528227D01*
X112000000Y-103645072D01*
X112587419Y-103528227D01*
X113085409Y-103195481D01*
X113418155Y-102697491D01*
X113535000Y-102110072D01*
X113535000Y-102049928D01*
X113418155Y-101462509D01*
X113085409Y-100964519D01*
X112854155Y-100810000D01*
X113085409Y-100655481D01*
X113418155Y-100157491D01*
X113429590Y-100100000D01*
X122552560Y-100100000D01*
X122552560Y-101900000D01*
X122596838Y-102135317D01*
X122735910Y-102351441D01*
X122948110Y-102496431D01*
X123200000Y-102547440D01*
X126800000Y-102547440D01*
X127035317Y-102503162D01*
X127251441Y-102364090D01*
X127396431Y-102151890D01*
X127447440Y-101900000D01*
X127447440Y-100100000D01*
X127403162Y-99864683D01*
X127264090Y-99648559D01*
X127051890Y-99503569D01*
X126800000Y-99452560D01*
X123200000Y-99452560D01*
X122964683Y-99496838D01*
X122748559Y-99635910D01*
X122603569Y-99848110D01*
X122552560Y-100100000D01*
X113429590Y-100100000D01*
X113535000Y-99570072D01*
X113535000Y-99509928D01*
X113418155Y-98922509D01*
X113226048Y-98635000D01*
X123041105Y-98635000D01*
X123464877Y-98918155D01*
X124052296Y-99035000D01*
X124497265Y-99035000D01*
X125000000Y-99135001D01*
X125502735Y-99035000D01*
X125947704Y-99035000D01*
X126535123Y-98918155D01*
X127033113Y-98585409D01*
X127365859Y-98087419D01*
X127482704Y-97500000D01*
X127365859Y-96912581D01*
X127033113Y-96414591D01*
X126535123Y-96081845D01*
X125947704Y-95965000D01*
X125777240Y-95965000D01*
X125656120Y-95843880D01*
X125125688Y-95489457D01*
X124500000Y-95364999D01*
X124499995Y-95365000D01*
X112000000Y-95365000D01*
X111559807Y-95452560D01*
X111100000Y-95452560D01*
X110864683Y-95496838D01*
X110648559Y-95635910D01*
X110503569Y-95848110D01*
X110452560Y-96100000D01*
X110452560Y-96559807D01*
X110365000Y-97000000D01*
X105127000Y-97000000D01*
X105127000Y-92898402D01*
X106529297Y-92898402D01*
X106804234Y-93563802D01*
X107312881Y-94073337D01*
X107977799Y-94349435D01*
X108697762Y-94350063D01*
X109363162Y-94075126D01*
X109471755Y-93966722D01*
X122761420Y-93966722D01*
X122900210Y-94221228D01*
X123601472Y-94384256D01*
X124311743Y-94266513D01*
X124421070Y-94221228D01*
X124559860Y-93966722D01*
X123660640Y-93067502D01*
X122761420Y-93966722D01*
X109471755Y-93966722D01*
X109872697Y-93566479D01*
X110148795Y-92901561D01*
X110149161Y-92480832D01*
X121816384Y-92480832D01*
X121934127Y-93191103D01*
X121979412Y-93300430D01*
X122233918Y-93439220D01*
X123133138Y-92540000D01*
X124188142Y-92540000D01*
X125087362Y-93439220D01*
X125341868Y-93300430D01*
X125504896Y-92599168D01*
X125387153Y-91888897D01*
X125341868Y-91779570D01*
X125087362Y-91640780D01*
X124188142Y-92540000D01*
X123133138Y-92540000D01*
X122233918Y-91640780D01*
X121979412Y-91779570D01*
X121816384Y-92480832D01*
X110149161Y-92480832D01*
X110149423Y-92181598D01*
X109874486Y-91516198D01*
X109472269Y-91113278D01*
X122761420Y-91113278D01*
X123660640Y-92012498D01*
X124559860Y-91113278D01*
X124421070Y-90858772D01*
X123719808Y-90695744D01*
X123009537Y-90813487D01*
X122900210Y-90858772D01*
X122761420Y-91113278D01*
X109472269Y-91113278D01*
X109365839Y-91006663D01*
X108700921Y-90730565D01*
X107980958Y-90729937D01*
X107315558Y-91004874D01*
X106806023Y-91513521D01*
X106529925Y-92178439D01*
X106529297Y-92898402D01*
X105127000Y-92898402D01*
X105127000Y-87818402D01*
X106529297Y-87818402D01*
X106804234Y-88483802D01*
X107312881Y-88993337D01*
X107977799Y-89269435D01*
X108697762Y-89270063D01*
X109363162Y-88995126D01*
X109471755Y-88886722D01*
X122761420Y-88886722D01*
X122900210Y-89141228D01*
X123601472Y-89304256D01*
X124311743Y-89186513D01*
X124421070Y-89141228D01*
X124559860Y-88886722D01*
X123660640Y-87987502D01*
X122761420Y-88886722D01*
X109471755Y-88886722D01*
X109872697Y-88486479D01*
X110148795Y-87821561D01*
X110149161Y-87400832D01*
X121816384Y-87400832D01*
X121934127Y-88111103D01*
X121979412Y-88220430D01*
X122233918Y-88359220D01*
X123133138Y-87460000D01*
X124188142Y-87460000D01*
X125087362Y-88359220D01*
X125341868Y-88220430D01*
X125504896Y-87519168D01*
X125387153Y-86808897D01*
X125341868Y-86699570D01*
X125087362Y-86560780D01*
X124188142Y-87460000D01*
X123133138Y-87460000D01*
X122233918Y-86560780D01*
X121979412Y-86699570D01*
X121816384Y-87400832D01*
X110149161Y-87400832D01*
X110149423Y-87101598D01*
X109874486Y-86436198D01*
X109472269Y-86033278D01*
X122761420Y-86033278D01*
X123660640Y-86932498D01*
X124559860Y-86033278D01*
X124421070Y-85778772D01*
X123719808Y-85615744D01*
X123009537Y-85733487D01*
X122900210Y-85778772D01*
X122761420Y-86033278D01*
X109472269Y-86033278D01*
X109365839Y-85926663D01*
X108700921Y-85650565D01*
X107980958Y-85649937D01*
X107315558Y-85924874D01*
X106806023Y-86433521D01*
X106529925Y-87098439D01*
X106529297Y-87818402D01*
X105127000Y-87818402D01*
X105127000Y-77000000D01*
X110365000Y-77000000D01*
X110452560Y-77440193D01*
X110452560Y-77900000D01*
X110496838Y-78135317D01*
X110635910Y-78351441D01*
X110848110Y-78496431D01*
X110864344Y-78499719D01*
X110581845Y-78922509D01*
X110465000Y-79509928D01*
X110465000Y-79570072D01*
X110581845Y-80157491D01*
X110914591Y-80655481D01*
X111145845Y-80810000D01*
X110914591Y-80964519D01*
X110581845Y-81462509D01*
X110465000Y-82049928D01*
X110465000Y-82110072D01*
X110581845Y-82697491D01*
X110914591Y-83195481D01*
X111412581Y-83528227D01*
X112000000Y-83645072D01*
X112587419Y-83528227D01*
X113085409Y-83195481D01*
X113418155Y-82697491D01*
X113535000Y-82110072D01*
X113535000Y-82049928D01*
X113418155Y-81462509D01*
X113085409Y-80964519D01*
X112854155Y-80810000D01*
X113085409Y-80655481D01*
X113418155Y-80157491D01*
X113429590Y-80100000D01*
X122552560Y-80100000D01*
X122552560Y-81900000D01*
X122596838Y-82135317D01*
X122735910Y-82351441D01*
X122948110Y-82496431D01*
X123200000Y-82547440D01*
X126800000Y-82547440D01*
X127035317Y-82503162D01*
X127251441Y-82364090D01*
X127396431Y-82151890D01*
X127447440Y-81900000D01*
X127447440Y-80100000D01*
X127403162Y-79864683D01*
X127264090Y-79648559D01*
X127051890Y-79503569D01*
X126800000Y-79452560D01*
X123200000Y-79452560D01*
X122964683Y-79496838D01*
X122748559Y-79635910D01*
X122603569Y-79848110D01*
X122552560Y-80100000D01*
X113429590Y-80100000D01*
X113535000Y-79570072D01*
X113535000Y-79509928D01*
X113418155Y-78922509D01*
X113226048Y-78635000D01*
X123041105Y-78635000D01*
X123464877Y-78918155D01*
X124052296Y-79035000D01*
X124497265Y-79035000D01*
X125000000Y-79135001D01*
X125502735Y-79035000D01*
X125947704Y-79035000D01*
X126535123Y-78918155D01*
X127033113Y-78585409D01*
X127365859Y-78087419D01*
X127482704Y-77500000D01*
X127365859Y-76912581D01*
X127033113Y-76414591D01*
X126535123Y-76081845D01*
X125947704Y-75965000D01*
X125777240Y-75965000D01*
X125656120Y-75843880D01*
X125125688Y-75489457D01*
X124500000Y-75364999D01*
X124499995Y-75365000D01*
X112000000Y-75365000D01*
X111559807Y-75452560D01*
X111100000Y-75452560D01*
X110864683Y-75496838D01*
X110648559Y-75635910D01*
X110503569Y-75848110D01*
X110452560Y-76100000D01*
X110452560Y-76559807D01*
X110365000Y-77000000D01*
X105127000Y-77000000D01*
X105127000Y-72898402D01*
X106529297Y-72898402D01*
X106804234Y-73563802D01*
X107312881Y-74073337D01*
X107977799Y-74349435D01*
X108697762Y-74350063D01*
X109363162Y-74075126D01*
X109471755Y-73966722D01*
X122761420Y-73966722D01*
X122900210Y-74221228D01*
X123601472Y-74384256D01*
X124311743Y-74266513D01*
X124421070Y-74221228D01*
X124559860Y-73966722D01*
X123660640Y-73067502D01*
X122761420Y-73966722D01*
X109471755Y-73966722D01*
X109872697Y-73566479D01*
X110148795Y-72901561D01*
X110149161Y-72480832D01*
X121816384Y-72480832D01*
X121934127Y-73191103D01*
X121979412Y-73300430D01*
X122233918Y-73439220D01*
X123133138Y-72540000D01*
X124188142Y-72540000D01*
X125087362Y-73439220D01*
X125341868Y-73300430D01*
X125504896Y-72599168D01*
X125387153Y-71888897D01*
X125341868Y-71779570D01*
X125087362Y-71640780D01*
X124188142Y-72540000D01*
X123133138Y-72540000D01*
X122233918Y-71640780D01*
X121979412Y-71779570D01*
X121816384Y-72480832D01*
X110149161Y-72480832D01*
X110149423Y-72181598D01*
X109874486Y-71516198D01*
X109472269Y-71113278D01*
X122761420Y-71113278D01*
X123660640Y-72012498D01*
X124559860Y-71113278D01*
X124421070Y-70858772D01*
X123719808Y-70695744D01*
X123009537Y-70813487D01*
X122900210Y-70858772D01*
X122761420Y-71113278D01*
X109472269Y-71113278D01*
X109365839Y-71006663D01*
X108700921Y-70730565D01*
X107980958Y-70729937D01*
X107315558Y-71004874D01*
X106806023Y-71513521D01*
X106529925Y-72178439D01*
X106529297Y-72898402D01*
X105127000Y-72898402D01*
X105127000Y-67818402D01*
X106529297Y-67818402D01*
X106804234Y-68483802D01*
X107312881Y-68993337D01*
X107977799Y-69269435D01*
X108697762Y-69270063D01*
X109363162Y-68995126D01*
X109471755Y-68886722D01*
X122761420Y-68886722D01*
X122900210Y-69141228D01*
X123601472Y-69304256D01*
X124311743Y-69186513D01*
X124421070Y-69141228D01*
X124559860Y-68886722D01*
X123660640Y-67987502D01*
X122761420Y-68886722D01*
X109471755Y-68886722D01*
X109872697Y-68486479D01*
X110148795Y-67821561D01*
X110149161Y-67400832D01*
X121816384Y-67400832D01*
X121934127Y-68111103D01*
X121979412Y-68220430D01*
X122233918Y-68359220D01*
X123133138Y-67460000D01*
X124188142Y-67460000D01*
X125087362Y-68359220D01*
X125341868Y-68220430D01*
X125504896Y-67519168D01*
X125387153Y-66808897D01*
X125341868Y-66699570D01*
X125087362Y-66560780D01*
X124188142Y-67460000D01*
X123133138Y-67460000D01*
X122233918Y-66560780D01*
X121979412Y-66699570D01*
X121816384Y-67400832D01*
X110149161Y-67400832D01*
X110149423Y-67101598D01*
X109874486Y-66436198D01*
X109472269Y-66033278D01*
X122761420Y-66033278D01*
X123660640Y-66932498D01*
X124559860Y-66033278D01*
X124421070Y-65778772D01*
X123719808Y-65615744D01*
X123009537Y-65733487D01*
X122900210Y-65778772D01*
X122761420Y-66033278D01*
X109472269Y-66033278D01*
X109365839Y-65926663D01*
X108700921Y-65650565D01*
X107980958Y-65649937D01*
X107315558Y-65924874D01*
X106806023Y-66433521D01*
X106529925Y-67098439D01*
X106529297Y-67818402D01*
X105127000Y-67818402D01*
X105127000Y-57000000D01*
X110365000Y-57000000D01*
X110452560Y-57440193D01*
X110452560Y-57900000D01*
X110496838Y-58135317D01*
X110635910Y-58351441D01*
X110848110Y-58496431D01*
X110864344Y-58499719D01*
X110581845Y-58922509D01*
X110465000Y-59509928D01*
X110465000Y-59570072D01*
X110581845Y-60157491D01*
X110914591Y-60655481D01*
X111145845Y-60810000D01*
X110914591Y-60964519D01*
X110581845Y-61462509D01*
X110465000Y-62049928D01*
X110465000Y-62110072D01*
X110581845Y-62697491D01*
X110914591Y-63195481D01*
X111412581Y-63528227D01*
X112000000Y-63645072D01*
X112587419Y-63528227D01*
X113085409Y-63195481D01*
X113418155Y-62697491D01*
X113535000Y-62110072D01*
X113535000Y-62049928D01*
X113418155Y-61462509D01*
X113085409Y-60964519D01*
X112854155Y-60810000D01*
X113085409Y-60655481D01*
X113418155Y-60157491D01*
X113429590Y-60100000D01*
X122552560Y-60100000D01*
X122552560Y-61900000D01*
X122596838Y-62135317D01*
X122735910Y-62351441D01*
X122948110Y-62496431D01*
X123200000Y-62547440D01*
X126800000Y-62547440D01*
X127035317Y-62503162D01*
X127251441Y-62364090D01*
X127396431Y-62151890D01*
X127447440Y-61900000D01*
X127447440Y-60100000D01*
X127403162Y-59864683D01*
X127264090Y-59648559D01*
X127051890Y-59503569D01*
X126800000Y-59452560D01*
X123200000Y-59452560D01*
X122964683Y-59496838D01*
X122748559Y-59635910D01*
X122603569Y-59848110D01*
X122552560Y-60100000D01*
X113429590Y-60100000D01*
X113535000Y-59570072D01*
X113535000Y-59509928D01*
X113418155Y-58922509D01*
X113226048Y-58635000D01*
X123041105Y-58635000D01*
X123464877Y-58918155D01*
X124052296Y-59035000D01*
X124497265Y-59035000D01*
X125000000Y-59135001D01*
X125502735Y-59035000D01*
X125947704Y-59035000D01*
X126535123Y-58918155D01*
X127033113Y-58585409D01*
X127365859Y-58087419D01*
X127482704Y-57500000D01*
X127365859Y-56912581D01*
X127033113Y-56414591D01*
X126535123Y-56081845D01*
X125947704Y-55965000D01*
X125777240Y-55965000D01*
X125656120Y-55843880D01*
X125125688Y-55489457D01*
X124500000Y-55364999D01*
X124499995Y-55365000D01*
X112000000Y-55365000D01*
X111559807Y-55452560D01*
X111100000Y-55452560D01*
X110864683Y-55496838D01*
X110648559Y-55635910D01*
X110503569Y-55848110D01*
X110452560Y-56100000D01*
X110452560Y-56559807D01*
X110365000Y-57000000D01*
X105127000Y-57000000D01*
X105127000Y-52898402D01*
X106529297Y-52898402D01*
X106804234Y-53563802D01*
X107312881Y-54073337D01*
X107977799Y-54349435D01*
X108697762Y-54350063D01*
X109363162Y-54075126D01*
X109471755Y-53966722D01*
X122761420Y-53966722D01*
X122900210Y-54221228D01*
X123601472Y-54384256D01*
X124311743Y-54266513D01*
X124421070Y-54221228D01*
X124559860Y-53966722D01*
X123660640Y-53067502D01*
X122761420Y-53966722D01*
X109471755Y-53966722D01*
X109872697Y-53566479D01*
X110148795Y-52901561D01*
X110149161Y-52480832D01*
X121816384Y-52480832D01*
X121934127Y-53191103D01*
X121979412Y-53300430D01*
X122233918Y-53439220D01*
X123133138Y-52540000D01*
X124188142Y-52540000D01*
X125087362Y-53439220D01*
X125341868Y-53300430D01*
X125504896Y-52599168D01*
X125387153Y-51888897D01*
X125341868Y-51779570D01*
X125087362Y-51640780D01*
X124188142Y-52540000D01*
X123133138Y-52540000D01*
X122233918Y-51640780D01*
X121979412Y-51779570D01*
X121816384Y-52480832D01*
X110149161Y-52480832D01*
X110149423Y-52181598D01*
X109874486Y-51516198D01*
X109472269Y-51113278D01*
X122761420Y-51113278D01*
X123660640Y-52012498D01*
X124559860Y-51113278D01*
X124421070Y-50858772D01*
X123719808Y-50695744D01*
X123009537Y-50813487D01*
X122900210Y-50858772D01*
X122761420Y-51113278D01*
X109472269Y-51113278D01*
X109365839Y-51006663D01*
X108700921Y-50730565D01*
X107980958Y-50729937D01*
X107315558Y-51004874D01*
X106806023Y-51513521D01*
X106529925Y-52178439D01*
X106529297Y-52898402D01*
X105127000Y-52898402D01*
X105127000Y-47818402D01*
X106529297Y-47818402D01*
X106804234Y-48483802D01*
X107312881Y-48993337D01*
X107977799Y-49269435D01*
X108697762Y-49270063D01*
X109363162Y-48995126D01*
X109471755Y-48886722D01*
X122761420Y-48886722D01*
X122900210Y-49141228D01*
X123601472Y-49304256D01*
X124311743Y-49186513D01*
X124421070Y-49141228D01*
X124559860Y-48886722D01*
X123660640Y-47987502D01*
X122761420Y-48886722D01*
X109471755Y-48886722D01*
X109872697Y-48486479D01*
X110148795Y-47821561D01*
X110149161Y-47400832D01*
X121816384Y-47400832D01*
X121934127Y-48111103D01*
X121979412Y-48220430D01*
X122233918Y-48359220D01*
X123133138Y-47460000D01*
X124188142Y-47460000D01*
X125087362Y-48359220D01*
X125341868Y-48220430D01*
X125504896Y-47519168D01*
X125387153Y-46808897D01*
X125341868Y-46699570D01*
X125087362Y-46560780D01*
X124188142Y-47460000D01*
X123133138Y-47460000D01*
X122233918Y-46560780D01*
X121979412Y-46699570D01*
X121816384Y-47400832D01*
X110149161Y-47400832D01*
X110149423Y-47101598D01*
X109874486Y-46436198D01*
X109472269Y-46033278D01*
X122761420Y-46033278D01*
X123660640Y-46932498D01*
X124559860Y-46033278D01*
X124421070Y-45778772D01*
X123719808Y-45615744D01*
X123009537Y-45733487D01*
X122900210Y-45778772D01*
X122761420Y-46033278D01*
X109472269Y-46033278D01*
X109365839Y-45926663D01*
X108700921Y-45650565D01*
X107980958Y-45649937D01*
X107315558Y-45924874D01*
X106806023Y-46433521D01*
X106529925Y-47098439D01*
X106529297Y-47818402D01*
X105127000Y-47818402D01*
X105127000Y-37000000D01*
X110365000Y-37000000D01*
X110452560Y-37440193D01*
X110452560Y-37900000D01*
X110496838Y-38135317D01*
X110635910Y-38351441D01*
X110848110Y-38496431D01*
X110864344Y-38499719D01*
X110581845Y-38922509D01*
X110465000Y-39509928D01*
X110465000Y-39570072D01*
X110581845Y-40157491D01*
X110914591Y-40655481D01*
X111145845Y-40810000D01*
X110914591Y-40964519D01*
X110581845Y-41462509D01*
X110465000Y-42049928D01*
X110465000Y-42110072D01*
X110581845Y-42697491D01*
X110914591Y-43195481D01*
X111412581Y-43528227D01*
X112000000Y-43645072D01*
X112587419Y-43528227D01*
X113085409Y-43195481D01*
X113418155Y-42697491D01*
X113535000Y-42110072D01*
X113535000Y-42049928D01*
X113418155Y-41462509D01*
X113085409Y-40964519D01*
X112854155Y-40810000D01*
X113085409Y-40655481D01*
X113418155Y-40157491D01*
X113429590Y-40100000D01*
X122552560Y-40100000D01*
X122552560Y-41900000D01*
X122596838Y-42135317D01*
X122735910Y-42351441D01*
X122948110Y-42496431D01*
X123200000Y-42547440D01*
X126800000Y-42547440D01*
X127035317Y-42503162D01*
X127251441Y-42364090D01*
X127396431Y-42151890D01*
X127447440Y-41900000D01*
X127447440Y-40100000D01*
X127403162Y-39864683D01*
X127264090Y-39648559D01*
X127051890Y-39503569D01*
X126800000Y-39452560D01*
X123200000Y-39452560D01*
X122964683Y-39496838D01*
X122748559Y-39635910D01*
X122603569Y-39848110D01*
X122552560Y-40100000D01*
X113429590Y-40100000D01*
X113535000Y-39570072D01*
X113535000Y-39509928D01*
X113418155Y-38922509D01*
X113226048Y-38635000D01*
X123041105Y-38635000D01*
X123464877Y-38918155D01*
X124052296Y-39035000D01*
X124497265Y-39035000D01*
X125000000Y-39135001D01*
X125502735Y-39035000D01*
X125947704Y-39035000D01*
X126535123Y-38918155D01*
X127033113Y-38585409D01*
X127365859Y-38087419D01*
X127482704Y-37500000D01*
X127365859Y-36912581D01*
X127033113Y-36414591D01*
X126535123Y-36081845D01*
X125947704Y-35965000D01*
X125777240Y-35965000D01*
X125656120Y-35843880D01*
X125125688Y-35489457D01*
X124500000Y-35364999D01*
X124499995Y-35365000D01*
X112000000Y-35365000D01*
X111559807Y-35452560D01*
X111100000Y-35452560D01*
X110864683Y-35496838D01*
X110648559Y-35635910D01*
X110503569Y-35848110D01*
X110452560Y-36100000D01*
X110452560Y-36559807D01*
X110365000Y-37000000D01*
X105127000Y-37000000D01*
X105127000Y-32898402D01*
X106529297Y-32898402D01*
X106804234Y-33563802D01*
X107312881Y-34073337D01*
X107977799Y-34349435D01*
X108697762Y-34350063D01*
X109363162Y-34075126D01*
X109471755Y-33966722D01*
X122761420Y-33966722D01*
X122900210Y-34221228D01*
X123601472Y-34384256D01*
X124311743Y-34266513D01*
X124421070Y-34221228D01*
X124559860Y-33966722D01*
X123660640Y-33067502D01*
X122761420Y-33966722D01*
X109471755Y-33966722D01*
X109872697Y-33566479D01*
X110148795Y-32901561D01*
X110149161Y-32480832D01*
X121816384Y-32480832D01*
X121934127Y-33191103D01*
X121979412Y-33300430D01*
X122233918Y-33439220D01*
X123133138Y-32540000D01*
X124188142Y-32540000D01*
X125087362Y-33439220D01*
X125341868Y-33300430D01*
X125504896Y-32599168D01*
X125387153Y-31888897D01*
X125341868Y-31779570D01*
X125087362Y-31640780D01*
X124188142Y-32540000D01*
X123133138Y-32540000D01*
X122233918Y-31640780D01*
X121979412Y-31779570D01*
X121816384Y-32480832D01*
X110149161Y-32480832D01*
X110149423Y-32181598D01*
X109874486Y-31516198D01*
X109472269Y-31113278D01*
X122761420Y-31113278D01*
X123660640Y-32012498D01*
X124559860Y-31113278D01*
X124421070Y-30858772D01*
X123719808Y-30695744D01*
X123009537Y-30813487D01*
X122900210Y-30858772D01*
X122761420Y-31113278D01*
X109472269Y-31113278D01*
X109365839Y-31006663D01*
X108700921Y-30730565D01*
X107980958Y-30729937D01*
X107315558Y-31004874D01*
X106806023Y-31513521D01*
X106529925Y-32178439D01*
X106529297Y-32898402D01*
X105127000Y-32898402D01*
X105127000Y-27818402D01*
X106529297Y-27818402D01*
X106804234Y-28483802D01*
X107312881Y-28993337D01*
X107977799Y-29269435D01*
X108697762Y-29270063D01*
X109363162Y-28995126D01*
X109471755Y-28886722D01*
X122761420Y-28886722D01*
X122900210Y-29141228D01*
X123601472Y-29304256D01*
X124311743Y-29186513D01*
X124421070Y-29141228D01*
X124559860Y-28886722D01*
X123660640Y-27987502D01*
X122761420Y-28886722D01*
X109471755Y-28886722D01*
X109872697Y-28486479D01*
X110148795Y-27821561D01*
X110149161Y-27400832D01*
X121816384Y-27400832D01*
X121934127Y-28111103D01*
X121979412Y-28220430D01*
X122233918Y-28359220D01*
X123133138Y-27460000D01*
X124188142Y-27460000D01*
X125087362Y-28359220D01*
X125341868Y-28220430D01*
X125504896Y-27519168D01*
X125387153Y-26808897D01*
X125341868Y-26699570D01*
X125087362Y-26560780D01*
X124188142Y-27460000D01*
X123133138Y-27460000D01*
X122233918Y-26560780D01*
X121979412Y-26699570D01*
X121816384Y-27400832D01*
X110149161Y-27400832D01*
X110149423Y-27101598D01*
X109874486Y-26436198D01*
X109472269Y-26033278D01*
X122761420Y-26033278D01*
X123660640Y-26932498D01*
X124559860Y-26033278D01*
X124421070Y-25778772D01*
X123719808Y-25615744D01*
X123009537Y-25733487D01*
X122900210Y-25778772D01*
X122761420Y-26033278D01*
X109472269Y-26033278D01*
X109365839Y-25926663D01*
X108700921Y-25650565D01*
X107980958Y-25649937D01*
X107315558Y-25924874D01*
X106806023Y-26433521D01*
X106529925Y-27098439D01*
X106529297Y-27818402D01*
X105127000Y-27818402D01*
X105127000Y-20200000D01*
X112962560Y-20200000D01*
X112962560Y-23800000D01*
X113006838Y-24035317D01*
X113145910Y-24251441D01*
X113358110Y-24396431D01*
X113610000Y-24447440D01*
X115410000Y-24447440D01*
X115645317Y-24403162D01*
X115861441Y-24264090D01*
X116006431Y-24051890D01*
X116057440Y-23800000D01*
X116057440Y-22373000D01*
X116475000Y-22373000D01*
X116475000Y-23273000D01*
X116734586Y-23832026D01*
X117188342Y-24249160D01*
X117408663Y-24312310D01*
X117637000Y-24224740D01*
X117637000Y-22373000D01*
X118383000Y-22373000D01*
X118383000Y-24224740D01*
X118611337Y-24312310D01*
X118831658Y-24249160D01*
X119285414Y-23832026D01*
X119545000Y-23273000D01*
X119545000Y-22442619D01*
X122764613Y-22442619D01*
X123104155Y-23264372D01*
X123732321Y-23893636D01*
X124553481Y-24234611D01*
X125442619Y-24235387D01*
X126264372Y-23895845D01*
X126893636Y-23267679D01*
X127234611Y-22446519D01*
X127235387Y-21557381D01*
X126895845Y-20735628D01*
X126267679Y-20106364D01*
X125446519Y-19765389D01*
X124557381Y-19764613D01*
X123735628Y-20104155D01*
X123106364Y-20732321D01*
X122765389Y-21553481D01*
X122764613Y-22442619D01*
X119545000Y-22442619D01*
X119545000Y-22373000D01*
X118383000Y-22373000D01*
X117637000Y-22373000D01*
X116475000Y-22373000D01*
X116057440Y-22373000D01*
X116057440Y-20727000D01*
X116475000Y-20727000D01*
X116475000Y-21627000D01*
X117637000Y-21627000D01*
X117637000Y-19775260D01*
X118383000Y-19775260D01*
X118383000Y-21627000D01*
X119545000Y-21627000D01*
X119545000Y-20727000D01*
X119285414Y-20167974D01*
X118831658Y-19750840D01*
X118611337Y-19687690D01*
X118383000Y-19775260D01*
X117637000Y-19775260D01*
X117408663Y-19687690D01*
X117188342Y-19750840D01*
X116734586Y-20167974D01*
X116475000Y-20727000D01*
X116057440Y-20727000D01*
X116057440Y-20200000D01*
X116013162Y-19964683D01*
X115874090Y-19748559D01*
X115661890Y-19603569D01*
X115410000Y-19552560D01*
X113610000Y-19552560D01*
X113374683Y-19596838D01*
X113158559Y-19735910D01*
X113013569Y-19948110D01*
X112962560Y-20200000D01*
X105127000Y-20200000D01*
X105127000Y-18060000D01*
X128850000Y-18060000D01*
X128850000Y-116640000D01*
X128850000Y-116640000D01*
G37*
X128850000Y-116640000D02*
X105127000Y-116640000D01*
X105127000Y-112373000D01*
X112965000Y-112373000D01*
X112965000Y-113273000D01*
X113224586Y-113832026D01*
X113678342Y-114249160D01*
X113898663Y-114312310D01*
X114127000Y-114224740D01*
X114127000Y-112373000D01*
X114873000Y-112373000D01*
X114873000Y-114224740D01*
X115101337Y-114312310D01*
X115321658Y-114249160D01*
X115775414Y-113832026D01*
X116035000Y-113273000D01*
X116035000Y-112373000D01*
X114873000Y-112373000D01*
X114127000Y-112373000D01*
X112965000Y-112373000D01*
X105127000Y-112373000D01*
X105127000Y-110727000D01*
X112965000Y-110727000D01*
X112965000Y-111627000D01*
X114127000Y-111627000D01*
X114127000Y-109775260D01*
X114873000Y-109775260D01*
X114873000Y-111627000D01*
X116035000Y-111627000D01*
X116035000Y-110727000D01*
X115790286Y-110200000D01*
X116452560Y-110200000D01*
X116452560Y-113800000D01*
X116496838Y-114035317D01*
X116635910Y-114251441D01*
X116848110Y-114396431D01*
X117100000Y-114447440D01*
X118900000Y-114447440D01*
X119135317Y-114403162D01*
X119351441Y-114264090D01*
X119496431Y-114051890D01*
X119547440Y-113800000D01*
X119547440Y-113442619D01*
X122764613Y-113442619D01*
X123104155Y-114264372D01*
X123732321Y-114893636D01*
X124553481Y-115234611D01*
X125442619Y-115235387D01*
X126264372Y-114895845D01*
X126893636Y-114267679D01*
X127234611Y-113446519D01*
X127235387Y-112557381D01*
X126895845Y-111735628D01*
X126267679Y-111106364D01*
X125446519Y-110765389D01*
X124557381Y-110764613D01*
X123735628Y-111104155D01*
X123106364Y-111732321D01*
X122765389Y-112553481D01*
X122764613Y-113442619D01*
X119547440Y-113442619D01*
X119547440Y-110200000D01*
X119503162Y-109964683D01*
X119364090Y-109748559D01*
X119151890Y-109603569D01*
X118900000Y-109552560D01*
X117100000Y-109552560D01*
X116864683Y-109596838D01*
X116648559Y-109735910D01*
X116503569Y-109948110D01*
X116452560Y-110200000D01*
X115790286Y-110200000D01*
X115775414Y-110167974D01*
X115321658Y-109750840D01*
X115101337Y-109687690D01*
X114873000Y-109775260D01*
X114127000Y-109775260D01*
X113898663Y-109687690D01*
X113678342Y-109750840D01*
X113224586Y-110167974D01*
X112965000Y-110727000D01*
X105127000Y-110727000D01*
X105127000Y-97000000D01*
X110365000Y-97000000D01*
X110452560Y-97440193D01*
X110452560Y-97900000D01*
X110496838Y-98135317D01*
X110635910Y-98351441D01*
X110848110Y-98496431D01*
X110864344Y-98499719D01*
X110581845Y-98922509D01*
X110465000Y-99509928D01*
X110465000Y-99570072D01*
X110581845Y-100157491D01*
X110914591Y-100655481D01*
X111145845Y-100810000D01*
X110914591Y-100964519D01*
X110581845Y-101462509D01*
X110465000Y-102049928D01*
X110465000Y-102110072D01*
X110581845Y-102697491D01*
X110914591Y-103195481D01*
X111412581Y-103528227D01*
X112000000Y-103645072D01*
X112587419Y-103528227D01*
X113085409Y-103195481D01*
X113418155Y-102697491D01*
X113535000Y-102110072D01*
X113535000Y-102049928D01*
X113418155Y-101462509D01*
X113085409Y-100964519D01*
X112854155Y-100810000D01*
X113085409Y-100655481D01*
X113418155Y-100157491D01*
X113429590Y-100100000D01*
X122552560Y-100100000D01*
X122552560Y-101900000D01*
X122596838Y-102135317D01*
X122735910Y-102351441D01*
X122948110Y-102496431D01*
X123200000Y-102547440D01*
X126800000Y-102547440D01*
X127035317Y-102503162D01*
X127251441Y-102364090D01*
X127396431Y-102151890D01*
X127447440Y-101900000D01*
X127447440Y-100100000D01*
X127403162Y-99864683D01*
X127264090Y-99648559D01*
X127051890Y-99503569D01*
X126800000Y-99452560D01*
X123200000Y-99452560D01*
X122964683Y-99496838D01*
X122748559Y-99635910D01*
X122603569Y-99848110D01*
X122552560Y-100100000D01*
X113429590Y-100100000D01*
X113535000Y-99570072D01*
X113535000Y-99509928D01*
X113418155Y-98922509D01*
X113226048Y-98635000D01*
X123041105Y-98635000D01*
X123464877Y-98918155D01*
X124052296Y-99035000D01*
X124497265Y-99035000D01*
X125000000Y-99135001D01*
X125502735Y-99035000D01*
X125947704Y-99035000D01*
X126535123Y-98918155D01*
X127033113Y-98585409D01*
X127365859Y-98087419D01*
X127482704Y-97500000D01*
X127365859Y-96912581D01*
X127033113Y-96414591D01*
X126535123Y-96081845D01*
X125947704Y-95965000D01*
X125777240Y-95965000D01*
X125656120Y-95843880D01*
X125125688Y-95489457D01*
X124500000Y-95364999D01*
X124499995Y-95365000D01*
X112000000Y-95365000D01*
X111559807Y-95452560D01*
X111100000Y-95452560D01*
X110864683Y-95496838D01*
X110648559Y-95635910D01*
X110503569Y-95848110D01*
X110452560Y-96100000D01*
X110452560Y-96559807D01*
X110365000Y-97000000D01*
X105127000Y-97000000D01*
X105127000Y-92898402D01*
X106529297Y-92898402D01*
X106804234Y-93563802D01*
X107312881Y-94073337D01*
X107977799Y-94349435D01*
X108697762Y-94350063D01*
X109363162Y-94075126D01*
X109471755Y-93966722D01*
X122761420Y-93966722D01*
X122900210Y-94221228D01*
X123601472Y-94384256D01*
X124311743Y-94266513D01*
X124421070Y-94221228D01*
X124559860Y-93966722D01*
X123660640Y-93067502D01*
X122761420Y-93966722D01*
X109471755Y-93966722D01*
X109872697Y-93566479D01*
X110148795Y-92901561D01*
X110149161Y-92480832D01*
X121816384Y-92480832D01*
X121934127Y-93191103D01*
X121979412Y-93300430D01*
X122233918Y-93439220D01*
X123133138Y-92540000D01*
X124188142Y-92540000D01*
X125087362Y-93439220D01*
X125341868Y-93300430D01*
X125504896Y-92599168D01*
X125387153Y-91888897D01*
X125341868Y-91779570D01*
X125087362Y-91640780D01*
X124188142Y-92540000D01*
X123133138Y-92540000D01*
X122233918Y-91640780D01*
X121979412Y-91779570D01*
X121816384Y-92480832D01*
X110149161Y-92480832D01*
X110149423Y-92181598D01*
X109874486Y-91516198D01*
X109472269Y-91113278D01*
X122761420Y-91113278D01*
X123660640Y-92012498D01*
X124559860Y-91113278D01*
X124421070Y-90858772D01*
X123719808Y-90695744D01*
X123009537Y-90813487D01*
X122900210Y-90858772D01*
X122761420Y-91113278D01*
X109472269Y-91113278D01*
X109365839Y-91006663D01*
X108700921Y-90730565D01*
X107980958Y-90729937D01*
X107315558Y-91004874D01*
X106806023Y-91513521D01*
X106529925Y-92178439D01*
X106529297Y-92898402D01*
X105127000Y-92898402D01*
X105127000Y-87818402D01*
X106529297Y-87818402D01*
X106804234Y-88483802D01*
X107312881Y-88993337D01*
X107977799Y-89269435D01*
X108697762Y-89270063D01*
X109363162Y-88995126D01*
X109471755Y-88886722D01*
X122761420Y-88886722D01*
X122900210Y-89141228D01*
X123601472Y-89304256D01*
X124311743Y-89186513D01*
X124421070Y-89141228D01*
X124559860Y-88886722D01*
X123660640Y-87987502D01*
X122761420Y-88886722D01*
X109471755Y-88886722D01*
X109872697Y-88486479D01*
X110148795Y-87821561D01*
X110149161Y-87400832D01*
X121816384Y-87400832D01*
X121934127Y-88111103D01*
X121979412Y-88220430D01*
X122233918Y-88359220D01*
X123133138Y-87460000D01*
X124188142Y-87460000D01*
X125087362Y-88359220D01*
X125341868Y-88220430D01*
X125504896Y-87519168D01*
X125387153Y-86808897D01*
X125341868Y-86699570D01*
X125087362Y-86560780D01*
X124188142Y-87460000D01*
X123133138Y-87460000D01*
X122233918Y-86560780D01*
X121979412Y-86699570D01*
X121816384Y-87400832D01*
X110149161Y-87400832D01*
X110149423Y-87101598D01*
X109874486Y-86436198D01*
X109472269Y-86033278D01*
X122761420Y-86033278D01*
X123660640Y-86932498D01*
X124559860Y-86033278D01*
X124421070Y-85778772D01*
X123719808Y-85615744D01*
X123009537Y-85733487D01*
X122900210Y-85778772D01*
X122761420Y-86033278D01*
X109472269Y-86033278D01*
X109365839Y-85926663D01*
X108700921Y-85650565D01*
X107980958Y-85649937D01*
X107315558Y-85924874D01*
X106806023Y-86433521D01*
X106529925Y-87098439D01*
X106529297Y-87818402D01*
X105127000Y-87818402D01*
X105127000Y-77000000D01*
X110365000Y-77000000D01*
X110452560Y-77440193D01*
X110452560Y-77900000D01*
X110496838Y-78135317D01*
X110635910Y-78351441D01*
X110848110Y-78496431D01*
X110864344Y-78499719D01*
X110581845Y-78922509D01*
X110465000Y-79509928D01*
X110465000Y-79570072D01*
X110581845Y-80157491D01*
X110914591Y-80655481D01*
X111145845Y-80810000D01*
X110914591Y-80964519D01*
X110581845Y-81462509D01*
X110465000Y-82049928D01*
X110465000Y-82110072D01*
X110581845Y-82697491D01*
X110914591Y-83195481D01*
X111412581Y-83528227D01*
X112000000Y-83645072D01*
X112587419Y-83528227D01*
X113085409Y-83195481D01*
X113418155Y-82697491D01*
X113535000Y-82110072D01*
X113535000Y-82049928D01*
X113418155Y-81462509D01*
X113085409Y-80964519D01*
X112854155Y-80810000D01*
X113085409Y-80655481D01*
X113418155Y-80157491D01*
X113429590Y-80100000D01*
X122552560Y-80100000D01*
X122552560Y-81900000D01*
X122596838Y-82135317D01*
X122735910Y-82351441D01*
X122948110Y-82496431D01*
X123200000Y-82547440D01*
X126800000Y-82547440D01*
X127035317Y-82503162D01*
X127251441Y-82364090D01*
X127396431Y-82151890D01*
X127447440Y-81900000D01*
X127447440Y-80100000D01*
X127403162Y-79864683D01*
X127264090Y-79648559D01*
X127051890Y-79503569D01*
X126800000Y-79452560D01*
X123200000Y-79452560D01*
X122964683Y-79496838D01*
X122748559Y-79635910D01*
X122603569Y-79848110D01*
X122552560Y-80100000D01*
X113429590Y-80100000D01*
X113535000Y-79570072D01*
X113535000Y-79509928D01*
X113418155Y-78922509D01*
X113226048Y-78635000D01*
X123041105Y-78635000D01*
X123464877Y-78918155D01*
X124052296Y-79035000D01*
X124497265Y-79035000D01*
X125000000Y-79135001D01*
X125502735Y-79035000D01*
X125947704Y-79035000D01*
X126535123Y-78918155D01*
X127033113Y-78585409D01*
X127365859Y-78087419D01*
X127482704Y-77500000D01*
X127365859Y-76912581D01*
X127033113Y-76414591D01*
X126535123Y-76081845D01*
X125947704Y-75965000D01*
X125777240Y-75965000D01*
X125656120Y-75843880D01*
X125125688Y-75489457D01*
X124500000Y-75364999D01*
X124499995Y-75365000D01*
X112000000Y-75365000D01*
X111559807Y-75452560D01*
X111100000Y-75452560D01*
X110864683Y-75496838D01*
X110648559Y-75635910D01*
X110503569Y-75848110D01*
X110452560Y-76100000D01*
X110452560Y-76559807D01*
X110365000Y-77000000D01*
X105127000Y-77000000D01*
X105127000Y-72898402D01*
X106529297Y-72898402D01*
X106804234Y-73563802D01*
X107312881Y-74073337D01*
X107977799Y-74349435D01*
X108697762Y-74350063D01*
X109363162Y-74075126D01*
X109471755Y-73966722D01*
X122761420Y-73966722D01*
X122900210Y-74221228D01*
X123601472Y-74384256D01*
X124311743Y-74266513D01*
X124421070Y-74221228D01*
X124559860Y-73966722D01*
X123660640Y-73067502D01*
X122761420Y-73966722D01*
X109471755Y-73966722D01*
X109872697Y-73566479D01*
X110148795Y-72901561D01*
X110149161Y-72480832D01*
X121816384Y-72480832D01*
X121934127Y-73191103D01*
X121979412Y-73300430D01*
X122233918Y-73439220D01*
X123133138Y-72540000D01*
X124188142Y-72540000D01*
X125087362Y-73439220D01*
X125341868Y-73300430D01*
X125504896Y-72599168D01*
X125387153Y-71888897D01*
X125341868Y-71779570D01*
X125087362Y-71640780D01*
X124188142Y-72540000D01*
X123133138Y-72540000D01*
X122233918Y-71640780D01*
X121979412Y-71779570D01*
X121816384Y-72480832D01*
X110149161Y-72480832D01*
X110149423Y-72181598D01*
X109874486Y-71516198D01*
X109472269Y-71113278D01*
X122761420Y-71113278D01*
X123660640Y-72012498D01*
X124559860Y-71113278D01*
X124421070Y-70858772D01*
X123719808Y-70695744D01*
X123009537Y-70813487D01*
X122900210Y-70858772D01*
X122761420Y-71113278D01*
X109472269Y-71113278D01*
X109365839Y-71006663D01*
X108700921Y-70730565D01*
X107980958Y-70729937D01*
X107315558Y-71004874D01*
X106806023Y-71513521D01*
X106529925Y-72178439D01*
X106529297Y-72898402D01*
X105127000Y-72898402D01*
X105127000Y-67818402D01*
X106529297Y-67818402D01*
X106804234Y-68483802D01*
X107312881Y-68993337D01*
X107977799Y-69269435D01*
X108697762Y-69270063D01*
X109363162Y-68995126D01*
X109471755Y-68886722D01*
X122761420Y-68886722D01*
X122900210Y-69141228D01*
X123601472Y-69304256D01*
X124311743Y-69186513D01*
X124421070Y-69141228D01*
X124559860Y-68886722D01*
X123660640Y-67987502D01*
X122761420Y-68886722D01*
X109471755Y-68886722D01*
X109872697Y-68486479D01*
X110148795Y-67821561D01*
X110149161Y-67400832D01*
X121816384Y-67400832D01*
X121934127Y-68111103D01*
X121979412Y-68220430D01*
X122233918Y-68359220D01*
X123133138Y-67460000D01*
X124188142Y-67460000D01*
X125087362Y-68359220D01*
X125341868Y-68220430D01*
X125504896Y-67519168D01*
X125387153Y-66808897D01*
X125341868Y-66699570D01*
X125087362Y-66560780D01*
X124188142Y-67460000D01*
X123133138Y-67460000D01*
X122233918Y-66560780D01*
X121979412Y-66699570D01*
X121816384Y-67400832D01*
X110149161Y-67400832D01*
X110149423Y-67101598D01*
X109874486Y-66436198D01*
X109472269Y-66033278D01*
X122761420Y-66033278D01*
X123660640Y-66932498D01*
X124559860Y-66033278D01*
X124421070Y-65778772D01*
X123719808Y-65615744D01*
X123009537Y-65733487D01*
X122900210Y-65778772D01*
X122761420Y-66033278D01*
X109472269Y-66033278D01*
X109365839Y-65926663D01*
X108700921Y-65650565D01*
X107980958Y-65649937D01*
X107315558Y-65924874D01*
X106806023Y-66433521D01*
X106529925Y-67098439D01*
X106529297Y-67818402D01*
X105127000Y-67818402D01*
X105127000Y-57000000D01*
X110365000Y-57000000D01*
X110452560Y-57440193D01*
X110452560Y-57900000D01*
X110496838Y-58135317D01*
X110635910Y-58351441D01*
X110848110Y-58496431D01*
X110864344Y-58499719D01*
X110581845Y-58922509D01*
X110465000Y-59509928D01*
X110465000Y-59570072D01*
X110581845Y-60157491D01*
X110914591Y-60655481D01*
X111145845Y-60810000D01*
X110914591Y-60964519D01*
X110581845Y-61462509D01*
X110465000Y-62049928D01*
X110465000Y-62110072D01*
X110581845Y-62697491D01*
X110914591Y-63195481D01*
X111412581Y-63528227D01*
X112000000Y-63645072D01*
X112587419Y-63528227D01*
X113085409Y-63195481D01*
X113418155Y-62697491D01*
X113535000Y-62110072D01*
X113535000Y-62049928D01*
X113418155Y-61462509D01*
X113085409Y-60964519D01*
X112854155Y-60810000D01*
X113085409Y-60655481D01*
X113418155Y-60157491D01*
X113429590Y-60100000D01*
X122552560Y-60100000D01*
X122552560Y-61900000D01*
X122596838Y-62135317D01*
X122735910Y-62351441D01*
X122948110Y-62496431D01*
X123200000Y-62547440D01*
X126800000Y-62547440D01*
X127035317Y-62503162D01*
X127251441Y-62364090D01*
X127396431Y-62151890D01*
X127447440Y-61900000D01*
X127447440Y-60100000D01*
X127403162Y-59864683D01*
X127264090Y-59648559D01*
X127051890Y-59503569D01*
X126800000Y-59452560D01*
X123200000Y-59452560D01*
X122964683Y-59496838D01*
X122748559Y-59635910D01*
X122603569Y-59848110D01*
X122552560Y-60100000D01*
X113429590Y-60100000D01*
X113535000Y-59570072D01*
X113535000Y-59509928D01*
X113418155Y-58922509D01*
X113226048Y-58635000D01*
X123041105Y-58635000D01*
X123464877Y-58918155D01*
X124052296Y-59035000D01*
X124497265Y-59035000D01*
X125000000Y-59135001D01*
X125502735Y-59035000D01*
X125947704Y-59035000D01*
X126535123Y-58918155D01*
X127033113Y-58585409D01*
X127365859Y-58087419D01*
X127482704Y-57500000D01*
X127365859Y-56912581D01*
X127033113Y-56414591D01*
X126535123Y-56081845D01*
X125947704Y-55965000D01*
X125777240Y-55965000D01*
X125656120Y-55843880D01*
X125125688Y-55489457D01*
X124500000Y-55364999D01*
X124499995Y-55365000D01*
X112000000Y-55365000D01*
X111559807Y-55452560D01*
X111100000Y-55452560D01*
X110864683Y-55496838D01*
X110648559Y-55635910D01*
X110503569Y-55848110D01*
X110452560Y-56100000D01*
X110452560Y-56559807D01*
X110365000Y-57000000D01*
X105127000Y-57000000D01*
X105127000Y-52898402D01*
X106529297Y-52898402D01*
X106804234Y-53563802D01*
X107312881Y-54073337D01*
X107977799Y-54349435D01*
X108697762Y-54350063D01*
X109363162Y-54075126D01*
X109471755Y-53966722D01*
X122761420Y-53966722D01*
X122900210Y-54221228D01*
X123601472Y-54384256D01*
X124311743Y-54266513D01*
X124421070Y-54221228D01*
X124559860Y-53966722D01*
X123660640Y-53067502D01*
X122761420Y-53966722D01*
X109471755Y-53966722D01*
X109872697Y-53566479D01*
X110148795Y-52901561D01*
X110149161Y-52480832D01*
X121816384Y-52480832D01*
X121934127Y-53191103D01*
X121979412Y-53300430D01*
X122233918Y-53439220D01*
X123133138Y-52540000D01*
X124188142Y-52540000D01*
X125087362Y-53439220D01*
X125341868Y-53300430D01*
X125504896Y-52599168D01*
X125387153Y-51888897D01*
X125341868Y-51779570D01*
X125087362Y-51640780D01*
X124188142Y-52540000D01*
X123133138Y-52540000D01*
X122233918Y-51640780D01*
X121979412Y-51779570D01*
X121816384Y-52480832D01*
X110149161Y-52480832D01*
X110149423Y-52181598D01*
X109874486Y-51516198D01*
X109472269Y-51113278D01*
X122761420Y-51113278D01*
X123660640Y-52012498D01*
X124559860Y-51113278D01*
X124421070Y-50858772D01*
X123719808Y-50695744D01*
X123009537Y-50813487D01*
X122900210Y-50858772D01*
X122761420Y-51113278D01*
X109472269Y-51113278D01*
X109365839Y-51006663D01*
X108700921Y-50730565D01*
X107980958Y-50729937D01*
X107315558Y-51004874D01*
X106806023Y-51513521D01*
X106529925Y-52178439D01*
X106529297Y-52898402D01*
X105127000Y-52898402D01*
X105127000Y-47818402D01*
X106529297Y-47818402D01*
X106804234Y-48483802D01*
X107312881Y-48993337D01*
X107977799Y-49269435D01*
X108697762Y-49270063D01*
X109363162Y-48995126D01*
X109471755Y-48886722D01*
X122761420Y-48886722D01*
X122900210Y-49141228D01*
X123601472Y-49304256D01*
X124311743Y-49186513D01*
X124421070Y-49141228D01*
X124559860Y-48886722D01*
X123660640Y-47987502D01*
X122761420Y-48886722D01*
X109471755Y-48886722D01*
X109872697Y-48486479D01*
X110148795Y-47821561D01*
X110149161Y-47400832D01*
X121816384Y-47400832D01*
X121934127Y-48111103D01*
X121979412Y-48220430D01*
X122233918Y-48359220D01*
X123133138Y-47460000D01*
X124188142Y-47460000D01*
X125087362Y-48359220D01*
X125341868Y-48220430D01*
X125504896Y-47519168D01*
X125387153Y-46808897D01*
X125341868Y-46699570D01*
X125087362Y-46560780D01*
X124188142Y-47460000D01*
X123133138Y-47460000D01*
X122233918Y-46560780D01*
X121979412Y-46699570D01*
X121816384Y-47400832D01*
X110149161Y-47400832D01*
X110149423Y-47101598D01*
X109874486Y-46436198D01*
X109472269Y-46033278D01*
X122761420Y-46033278D01*
X123660640Y-46932498D01*
X124559860Y-46033278D01*
X124421070Y-45778772D01*
X123719808Y-45615744D01*
X123009537Y-45733487D01*
X122900210Y-45778772D01*
X122761420Y-46033278D01*
X109472269Y-46033278D01*
X109365839Y-45926663D01*
X108700921Y-45650565D01*
X107980958Y-45649937D01*
X107315558Y-45924874D01*
X106806023Y-46433521D01*
X106529925Y-47098439D01*
X106529297Y-47818402D01*
X105127000Y-47818402D01*
X105127000Y-37000000D01*
X110365000Y-37000000D01*
X110452560Y-37440193D01*
X110452560Y-37900000D01*
X110496838Y-38135317D01*
X110635910Y-38351441D01*
X110848110Y-38496431D01*
X110864344Y-38499719D01*
X110581845Y-38922509D01*
X110465000Y-39509928D01*
X110465000Y-39570072D01*
X110581845Y-40157491D01*
X110914591Y-40655481D01*
X111145845Y-40810000D01*
X110914591Y-40964519D01*
X110581845Y-41462509D01*
X110465000Y-42049928D01*
X110465000Y-42110072D01*
X110581845Y-42697491D01*
X110914591Y-43195481D01*
X111412581Y-43528227D01*
X112000000Y-43645072D01*
X112587419Y-43528227D01*
X113085409Y-43195481D01*
X113418155Y-42697491D01*
X113535000Y-42110072D01*
X113535000Y-42049928D01*
X113418155Y-41462509D01*
X113085409Y-40964519D01*
X112854155Y-40810000D01*
X113085409Y-40655481D01*
X113418155Y-40157491D01*
X113429590Y-40100000D01*
X122552560Y-40100000D01*
X122552560Y-41900000D01*
X122596838Y-42135317D01*
X122735910Y-42351441D01*
X122948110Y-42496431D01*
X123200000Y-42547440D01*
X126800000Y-42547440D01*
X127035317Y-42503162D01*
X127251441Y-42364090D01*
X127396431Y-42151890D01*
X127447440Y-41900000D01*
X127447440Y-40100000D01*
X127403162Y-39864683D01*
X127264090Y-39648559D01*
X127051890Y-39503569D01*
X126800000Y-39452560D01*
X123200000Y-39452560D01*
X122964683Y-39496838D01*
X122748559Y-39635910D01*
X122603569Y-39848110D01*
X122552560Y-40100000D01*
X113429590Y-40100000D01*
X113535000Y-39570072D01*
X113535000Y-39509928D01*
X113418155Y-38922509D01*
X113226048Y-38635000D01*
X123041105Y-38635000D01*
X123464877Y-38918155D01*
X124052296Y-39035000D01*
X124497265Y-39035000D01*
X125000000Y-39135001D01*
X125502735Y-39035000D01*
X125947704Y-39035000D01*
X126535123Y-38918155D01*
X127033113Y-38585409D01*
X127365859Y-38087419D01*
X127482704Y-37500000D01*
X127365859Y-36912581D01*
X127033113Y-36414591D01*
X126535123Y-36081845D01*
X125947704Y-35965000D01*
X125777240Y-35965000D01*
X125656120Y-35843880D01*
X125125688Y-35489457D01*
X124500000Y-35364999D01*
X124499995Y-35365000D01*
X112000000Y-35365000D01*
X111559807Y-35452560D01*
X111100000Y-35452560D01*
X110864683Y-35496838D01*
X110648559Y-35635910D01*
X110503569Y-35848110D01*
X110452560Y-36100000D01*
X110452560Y-36559807D01*
X110365000Y-37000000D01*
X105127000Y-37000000D01*
X105127000Y-32898402D01*
X106529297Y-32898402D01*
X106804234Y-33563802D01*
X107312881Y-34073337D01*
X107977799Y-34349435D01*
X108697762Y-34350063D01*
X109363162Y-34075126D01*
X109471755Y-33966722D01*
X122761420Y-33966722D01*
X122900210Y-34221228D01*
X123601472Y-34384256D01*
X124311743Y-34266513D01*
X124421070Y-34221228D01*
X124559860Y-33966722D01*
X123660640Y-33067502D01*
X122761420Y-33966722D01*
X109471755Y-33966722D01*
X109872697Y-33566479D01*
X110148795Y-32901561D01*
X110149161Y-32480832D01*
X121816384Y-32480832D01*
X121934127Y-33191103D01*
X121979412Y-33300430D01*
X122233918Y-33439220D01*
X123133138Y-32540000D01*
X124188142Y-32540000D01*
X125087362Y-33439220D01*
X125341868Y-33300430D01*
X125504896Y-32599168D01*
X125387153Y-31888897D01*
X125341868Y-31779570D01*
X125087362Y-31640780D01*
X124188142Y-32540000D01*
X123133138Y-32540000D01*
X122233918Y-31640780D01*
X121979412Y-31779570D01*
X121816384Y-32480832D01*
X110149161Y-32480832D01*
X110149423Y-32181598D01*
X109874486Y-31516198D01*
X109472269Y-31113278D01*
X122761420Y-31113278D01*
X123660640Y-32012498D01*
X124559860Y-31113278D01*
X124421070Y-30858772D01*
X123719808Y-30695744D01*
X123009537Y-30813487D01*
X122900210Y-30858772D01*
X122761420Y-31113278D01*
X109472269Y-31113278D01*
X109365839Y-31006663D01*
X108700921Y-30730565D01*
X107980958Y-30729937D01*
X107315558Y-31004874D01*
X106806023Y-31513521D01*
X106529925Y-32178439D01*
X106529297Y-32898402D01*
X105127000Y-32898402D01*
X105127000Y-27818402D01*
X106529297Y-27818402D01*
X106804234Y-28483802D01*
X107312881Y-28993337D01*
X107977799Y-29269435D01*
X108697762Y-29270063D01*
X109363162Y-28995126D01*
X109471755Y-28886722D01*
X122761420Y-28886722D01*
X122900210Y-29141228D01*
X123601472Y-29304256D01*
X124311743Y-29186513D01*
X124421070Y-29141228D01*
X124559860Y-28886722D01*
X123660640Y-27987502D01*
X122761420Y-28886722D01*
X109471755Y-28886722D01*
X109872697Y-28486479D01*
X110148795Y-27821561D01*
X110149161Y-27400832D01*
X121816384Y-27400832D01*
X121934127Y-28111103D01*
X121979412Y-28220430D01*
X122233918Y-28359220D01*
X123133138Y-27460000D01*
X124188142Y-27460000D01*
X125087362Y-28359220D01*
X125341868Y-28220430D01*
X125504896Y-27519168D01*
X125387153Y-26808897D01*
X125341868Y-26699570D01*
X125087362Y-26560780D01*
X124188142Y-27460000D01*
X123133138Y-27460000D01*
X122233918Y-26560780D01*
X121979412Y-26699570D01*
X121816384Y-27400832D01*
X110149161Y-27400832D01*
X110149423Y-27101598D01*
X109874486Y-26436198D01*
X109472269Y-26033278D01*
X122761420Y-26033278D01*
X123660640Y-26932498D01*
X124559860Y-26033278D01*
X124421070Y-25778772D01*
X123719808Y-25615744D01*
X123009537Y-25733487D01*
X122900210Y-25778772D01*
X122761420Y-26033278D01*
X109472269Y-26033278D01*
X109365839Y-25926663D01*
X108700921Y-25650565D01*
X107980958Y-25649937D01*
X107315558Y-25924874D01*
X106806023Y-26433521D01*
X106529925Y-27098439D01*
X106529297Y-27818402D01*
X105127000Y-27818402D01*
X105127000Y-20200000D01*
X112962560Y-20200000D01*
X112962560Y-23800000D01*
X113006838Y-24035317D01*
X113145910Y-24251441D01*
X113358110Y-24396431D01*
X113610000Y-24447440D01*
X115410000Y-24447440D01*
X115645317Y-24403162D01*
X115861441Y-24264090D01*
X116006431Y-24051890D01*
X116057440Y-23800000D01*
X116057440Y-22373000D01*
X116475000Y-22373000D01*
X116475000Y-23273000D01*
X116734586Y-23832026D01*
X117188342Y-24249160D01*
X117408663Y-24312310D01*
X117637000Y-24224740D01*
X117637000Y-22373000D01*
X118383000Y-22373000D01*
X118383000Y-24224740D01*
X118611337Y-24312310D01*
X118831658Y-24249160D01*
X119285414Y-23832026D01*
X119545000Y-23273000D01*
X119545000Y-22442619D01*
X122764613Y-22442619D01*
X123104155Y-23264372D01*
X123732321Y-23893636D01*
X124553481Y-24234611D01*
X125442619Y-24235387D01*
X126264372Y-23895845D01*
X126893636Y-23267679D01*
X127234611Y-22446519D01*
X127235387Y-21557381D01*
X126895845Y-20735628D01*
X126267679Y-20106364D01*
X125446519Y-19765389D01*
X124557381Y-19764613D01*
X123735628Y-20104155D01*
X123106364Y-20732321D01*
X122765389Y-21553481D01*
X122764613Y-22442619D01*
X119545000Y-22442619D01*
X119545000Y-22373000D01*
X118383000Y-22373000D01*
X117637000Y-22373000D01*
X116475000Y-22373000D01*
X116057440Y-22373000D01*
X116057440Y-20727000D01*
X116475000Y-20727000D01*
X116475000Y-21627000D01*
X117637000Y-21627000D01*
X117637000Y-19775260D01*
X118383000Y-19775260D01*
X118383000Y-21627000D01*
X119545000Y-21627000D01*
X119545000Y-20727000D01*
X119285414Y-20167974D01*
X118831658Y-19750840D01*
X118611337Y-19687690D01*
X118383000Y-19775260D01*
X117637000Y-19775260D01*
X117408663Y-19687690D01*
X117188342Y-19750840D01*
X116734586Y-20167974D01*
X116475000Y-20727000D01*
X116057440Y-20727000D01*
X116057440Y-20200000D01*
X116013162Y-19964683D01*
X115874090Y-19748559D01*
X115661890Y-19603569D01*
X115410000Y-19552560D01*
X113610000Y-19552560D01*
X113374683Y-19596838D01*
X113158559Y-19735910D01*
X113013569Y-19948110D01*
X112962560Y-20200000D01*
X105127000Y-20200000D01*
X105127000Y-18060000D01*
X128850000Y-18060000D01*
X128850000Y-116640000D01*
G36*
X100965000Y-116640000D02*
X30353000Y-116640000D01*
X30353000Y-113442619D01*
X32764613Y-113442619D01*
X33104155Y-114264372D01*
X33732321Y-114893636D01*
X34553481Y-115234611D01*
X35442619Y-115235387D01*
X36264372Y-114895845D01*
X36893636Y-114267679D01*
X36942500Y-114150000D01*
X66405907Y-114150000D01*
X66518946Y-114718285D01*
X66840853Y-115200054D01*
X67322622Y-115521961D01*
X67890907Y-115635000D01*
X67949093Y-115635000D01*
X68517378Y-115521961D01*
X68999147Y-115200054D01*
X68999971Y-115198821D01*
X69006838Y-115235317D01*
X69145910Y-115451441D01*
X69358110Y-115596431D01*
X69610000Y-115647440D01*
X71310000Y-115647440D01*
X71545317Y-115603162D01*
X71761441Y-115464090D01*
X71906431Y-115251890D01*
X71957440Y-115000000D01*
X71957440Y-114556890D01*
X73828524Y-114556890D01*
X73998355Y-114966924D01*
X74388642Y-115395183D01*
X74913108Y-115641486D01*
X75143000Y-115520819D01*
X75143000Y-114327000D01*
X75397000Y-114327000D01*
X75397000Y-115520819D01*
X75626892Y-115641486D01*
X76151358Y-115395183D01*
X76333070Y-115195792D01*
X76421673Y-115409699D01*
X76600302Y-115588327D01*
X76833691Y-115685000D01*
X77524250Y-115685000D01*
X77683000Y-115526250D01*
X77683000Y-114327000D01*
X77937000Y-114327000D01*
X77937000Y-115526250D01*
X78095750Y-115685000D01*
X78786309Y-115685000D01*
X79019698Y-115588327D01*
X79198327Y-115409699D01*
X79295000Y-115176310D01*
X79295000Y-114485750D01*
X79136250Y-114327000D01*
X77937000Y-114327000D01*
X77683000Y-114327000D01*
X75397000Y-114327000D01*
X75143000Y-114327000D01*
X73949845Y-114327000D01*
X73828524Y-114556890D01*
X71957440Y-114556890D01*
X71957440Y-113843110D01*
X73828524Y-113843110D01*
X73949845Y-114073000D01*
X75143000Y-114073000D01*
X75143000Y-112879181D01*
X75397000Y-112879181D01*
X75397000Y-114073000D01*
X77683000Y-114073000D01*
X77683000Y-112873750D01*
X77937000Y-112873750D01*
X77937000Y-114073000D01*
X79136250Y-114073000D01*
X79295000Y-113914250D01*
X79295000Y-113223690D01*
X79198327Y-112990301D01*
X79019698Y-112811673D01*
X78786309Y-112715000D01*
X78095750Y-112715000D01*
X77937000Y-112873750D01*
X77683000Y-112873750D01*
X77524250Y-112715000D01*
X76833691Y-112715000D01*
X76600302Y-112811673D01*
X76421673Y-112990301D01*
X76333070Y-113204208D01*
X76151358Y-113004817D01*
X75626892Y-112758514D01*
X75397000Y-112879181D01*
X75143000Y-112879181D01*
X74913108Y-112758514D01*
X74388642Y-113004817D01*
X73998355Y-113433076D01*
X73828524Y-113843110D01*
X71957440Y-113843110D01*
X71957440Y-113300000D01*
X71913162Y-113064683D01*
X71774090Y-112848559D01*
X71561890Y-112703569D01*
X71310000Y-112652560D01*
X69610000Y-112652560D01*
X69374683Y-112696838D01*
X69158559Y-112835910D01*
X69013569Y-113048110D01*
X69002159Y-113104454D01*
X68999147Y-113099946D01*
X68517378Y-112778039D01*
X67949093Y-112665000D01*
X67890907Y-112665000D01*
X67322622Y-112778039D01*
X66840853Y-113099946D01*
X66518946Y-113581715D01*
X66405907Y-114150000D01*
X36942500Y-114150000D01*
X37234611Y-113446519D01*
X37235387Y-112557381D01*
X36895845Y-111735628D01*
X36267679Y-111106364D01*
X35446519Y-110765389D01*
X34557381Y-110764613D01*
X33735628Y-111104155D01*
X33106364Y-111732321D01*
X32765389Y-112553481D01*
X32764613Y-113442619D01*
X30353000Y-113442619D01*
X30353000Y-103399039D01*
X31398096Y-103399039D01*
X31558959Y-103787423D01*
X31934866Y-104202389D01*
X32440959Y-104441914D01*
X32663000Y-104320629D01*
X32663000Y-103177000D01*
X32917000Y-103177000D01*
X32917000Y-104320629D01*
X33139041Y-104441914D01*
X33645134Y-104202389D01*
X34021041Y-103787423D01*
X34181904Y-103399039D01*
X34059915Y-103177000D01*
X32917000Y-103177000D01*
X32663000Y-103177000D01*
X31520085Y-103177000D01*
X31398096Y-103399039D01*
X30353000Y-103399039D01*
X30353000Y-102700961D01*
X31398096Y-102700961D01*
X31520085Y-102923000D01*
X32663000Y-102923000D01*
X32663000Y-101779371D01*
X32917000Y-101779371D01*
X32917000Y-102923000D01*
X34059915Y-102923000D01*
X34181904Y-102700961D01*
X34021041Y-102312577D01*
X33964355Y-102250000D01*
X38962560Y-102250000D01*
X38962560Y-103850000D01*
X39006838Y-104085317D01*
X39145910Y-104301441D01*
X39358110Y-104446431D01*
X39610000Y-104497440D01*
X41210000Y-104497440D01*
X41445317Y-104453162D01*
X41661441Y-104314090D01*
X41806431Y-104101890D01*
X41857440Y-103850000D01*
X41857440Y-102250000D01*
X41813162Y-102014683D01*
X41674090Y-101798559D01*
X41461890Y-101653569D01*
X41210000Y-101602560D01*
X39610000Y-101602560D01*
X39374683Y-101646838D01*
X39158559Y-101785910D01*
X39013569Y-101998110D01*
X38962560Y-102250000D01*
X33964355Y-102250000D01*
X33645134Y-101897611D01*
X33139041Y-101658086D01*
X32917000Y-101779371D01*
X32663000Y-101779371D01*
X32440959Y-101658086D01*
X31934866Y-101897611D01*
X31558959Y-102312577D01*
X31398096Y-102700961D01*
X30353000Y-102700961D01*
X30353000Y-85779563D01*
X30399799Y-85849603D01*
X37552756Y-93002560D01*
X36960000Y-93002560D01*
X36724683Y-93046838D01*
X36508559Y-93185910D01*
X36363569Y-93398110D01*
X36312560Y-93650000D01*
X36312560Y-95350000D01*
X36356838Y-95585317D01*
X36495910Y-95801441D01*
X36708110Y-95946431D01*
X36960000Y-95997440D01*
X38660000Y-95997440D01*
X38895317Y-95953162D01*
X39111441Y-95814090D01*
X39256431Y-95601890D01*
X39270086Y-95534459D01*
X39299946Y-95579147D01*
X39781715Y-95901054D01*
X40350000Y-96014093D01*
X40918285Y-95901054D01*
X41400054Y-95579147D01*
X41721961Y-95097378D01*
X41835000Y-94529093D01*
X41835000Y-94470907D01*
X41721961Y-93902622D01*
X41400054Y-93420853D01*
X40918285Y-93098946D01*
X40350000Y-92985907D01*
X39983592Y-93058790D01*
X39712400Y-92787598D01*
X39465838Y-92622851D01*
X39287097Y-92587297D01*
X38097240Y-91397440D01*
X38660000Y-91397440D01*
X38895317Y-91353162D01*
X39111441Y-91214090D01*
X39256431Y-91001890D01*
X39270086Y-90934459D01*
X39299946Y-90979147D01*
X39781715Y-91301054D01*
X40350000Y-91414093D01*
X40918285Y-91301054D01*
X41400054Y-90979147D01*
X41721961Y-90497378D01*
X41835000Y-89929093D01*
X41835000Y-89870907D01*
X41721961Y-89302622D01*
X41400054Y-88820853D01*
X40918285Y-88498946D01*
X40350000Y-88385907D01*
X39983592Y-88458790D01*
X39712400Y-88187598D01*
X39465838Y-88022851D01*
X39174999Y-87964999D01*
X35496601Y-87964999D01*
X32328990Y-84797388D01*
X32328990Y-84399778D01*
X32725255Y-84478600D01*
X33094745Y-84478600D01*
X33668234Y-84364526D01*
X33827191Y-84258314D01*
X33825162Y-84263201D01*
X33824838Y-84635167D01*
X33966883Y-84978943D01*
X34229673Y-85242192D01*
X34573201Y-85384838D01*
X34945167Y-85385162D01*
X35288943Y-85243117D01*
X35552192Y-84980327D01*
X35694838Y-84636799D01*
X35695162Y-84264833D01*
X35553117Y-83921057D01*
X35520000Y-83887882D01*
X35520000Y-69437600D01*
X35462148Y-69146761D01*
X35297401Y-68900199D01*
X34517666Y-68120464D01*
X34593345Y-67740000D01*
X34479271Y-67166511D01*
X34154415Y-66680330D01*
X33839634Y-66470000D01*
X34154415Y-66259670D01*
X34479271Y-65773489D01*
X34582437Y-65254839D01*
X35892200Y-66564602D01*
X35892200Y-81129010D01*
X35950052Y-81419849D01*
X36114799Y-81666411D01*
X42948738Y-88500350D01*
X42948738Y-95970173D01*
X42916546Y-96002309D01*
X42773900Y-96345837D01*
X42773576Y-96717803D01*
X42915621Y-97061579D01*
X43178411Y-97324828D01*
X43521939Y-97467474D01*
X43893905Y-97467798D01*
X44237681Y-97325753D01*
X44500930Y-97062963D01*
X44643576Y-96719435D01*
X44643900Y-96347469D01*
X44501855Y-96003693D01*
X44468738Y-95970518D01*
X44468738Y-89326929D01*
X44736767Y-89327162D01*
X45080543Y-89185117D01*
X45343792Y-88922327D01*
X45486438Y-88578799D01*
X45486762Y-88206833D01*
X45344717Y-87863057D01*
X45081927Y-87599808D01*
X44738399Y-87457162D01*
X44691523Y-87457121D01*
X38174200Y-80939798D01*
X38174200Y-71631663D01*
X38206392Y-71599527D01*
X38254354Y-71484022D01*
X38456838Y-71686859D01*
X38800366Y-71829505D01*
X39172332Y-71829829D01*
X39516108Y-71687784D01*
X39779357Y-71424994D01*
X39922003Y-71081466D01*
X39922044Y-71034590D01*
X44229560Y-66727074D01*
X44225000Y-66750000D01*
X44311397Y-67184346D01*
X44557434Y-67552566D01*
X44925654Y-67798603D01*
X45360000Y-67885000D01*
X49348960Y-67885000D01*
X49348960Y-69513600D01*
X49393238Y-69748917D01*
X49532310Y-69965041D01*
X49744510Y-70110031D01*
X49788345Y-70118908D01*
X49475474Y-70587152D01*
X49361400Y-71160641D01*
X49361400Y-71219359D01*
X49475474Y-71792848D01*
X49800330Y-72279029D01*
X50071172Y-72460000D01*
X49800330Y-72640971D01*
X49475474Y-73127152D01*
X49361400Y-73700641D01*
X49361400Y-73759359D01*
X49475474Y-74332848D01*
X49800330Y-74819029D01*
X50286511Y-75143885D01*
X50860000Y-75257959D01*
X51433489Y-75143885D01*
X51919670Y-74819029D01*
X52135664Y-74495772D01*
X52193179Y-74618490D01*
X52625053Y-75012688D01*
X53040974Y-75184958D01*
X53273000Y-75063817D01*
X53273000Y-73857000D01*
X53253000Y-73857000D01*
X53253000Y-73603000D01*
X53273000Y-73603000D01*
X53273000Y-73583000D01*
X53527000Y-73583000D01*
X53527000Y-73603000D01*
X54734469Y-73603000D01*
X54854968Y-73370973D01*
X54606821Y-72841510D01*
X54188839Y-72459992D01*
X54459670Y-72279029D01*
X54784526Y-71792848D01*
X54898600Y-71219359D01*
X54898600Y-71160641D01*
X54784526Y-70587152D01*
X54459670Y-70100971D01*
X54188828Y-69920000D01*
X54459670Y-69739029D01*
X54784526Y-69252848D01*
X54898600Y-68679359D01*
X54898600Y-68620641D01*
X54784526Y-68047152D01*
X54535000Y-67673710D01*
X54535000Y-67428686D01*
X54448603Y-66994340D01*
X54202566Y-66626120D01*
X53523880Y-65947434D01*
X53493240Y-65926961D01*
X53155660Y-65701397D01*
X52721314Y-65615000D01*
X49922703Y-65615000D01*
X50109743Y-65537717D01*
X50142918Y-65504600D01*
X53736398Y-65504600D01*
X57679399Y-69447601D01*
X57925961Y-69612348D01*
X58216800Y-69670200D01*
X58490846Y-69670200D01*
X58281057Y-69756883D01*
X58017808Y-70019673D01*
X57875162Y-70363201D01*
X57874838Y-70735167D01*
X58016883Y-71078943D01*
X58279673Y-71342192D01*
X58623201Y-71484838D01*
X58995167Y-71485162D01*
X59338943Y-71343117D01*
X59372118Y-71310000D01*
X61847624Y-71310000D01*
X61929673Y-71392192D01*
X62273201Y-71534838D01*
X62419934Y-71534966D01*
X62325162Y-71763201D01*
X62325121Y-71810077D01*
X59945198Y-74190000D01*
X55522463Y-74190000D01*
X55490327Y-74157808D01*
X55146799Y-74015162D01*
X54816458Y-74014874D01*
X54734469Y-73857000D01*
X53527000Y-73857000D01*
X53527000Y-75063817D01*
X53759026Y-75184958D01*
X54024891Y-75074840D01*
X54024838Y-75135167D01*
X54166883Y-75478943D01*
X54414256Y-75726748D01*
X54284762Y-76038601D01*
X54284438Y-76410567D01*
X54426483Y-76754343D01*
X54443476Y-76771366D01*
X54351208Y-76863473D01*
X54208562Y-77207001D01*
X54208238Y-77578967D01*
X54350283Y-77922743D01*
X54506799Y-78079532D01*
X54478208Y-78108073D01*
X54335562Y-78451601D01*
X54335238Y-78823567D01*
X54477283Y-79167343D01*
X54740073Y-79430592D01*
X55083601Y-79573238D01*
X55455567Y-79573562D01*
X55799343Y-79431517D01*
X55832518Y-79398400D01*
X62821600Y-79398400D01*
X63112439Y-79340548D01*
X63359001Y-79175801D01*
X69799680Y-72735122D01*
X69845167Y-72735162D01*
X69999749Y-72671290D01*
X70273201Y-72784838D01*
X70645167Y-72785162D01*
X70988943Y-72643117D01*
X71022118Y-72610000D01*
X73497537Y-72610000D01*
X73529673Y-72642192D01*
X73873201Y-72784838D01*
X74199978Y-72785123D01*
X74199978Y-79989780D01*
X73245915Y-80943843D01*
X57506157Y-80943843D01*
X57215318Y-81001695D01*
X56968756Y-81166442D01*
X56870320Y-81264878D01*
X56824833Y-81264838D01*
X56481057Y-81406883D01*
X56217808Y-81669673D01*
X56075162Y-82013201D01*
X56074838Y-82385167D01*
X56216883Y-82728943D01*
X56479673Y-82992192D01*
X56823201Y-83134838D01*
X57195167Y-83135162D01*
X57297682Y-83092804D01*
X57325865Y-83121036D01*
X57669393Y-83263682D01*
X58041359Y-83264006D01*
X58385135Y-83121961D01*
X58418310Y-83088844D01*
X72373734Y-83088844D01*
X71972578Y-83490000D01*
X57322463Y-83490000D01*
X57290327Y-83457808D01*
X56946799Y-83315162D01*
X56574833Y-83314838D01*
X56231057Y-83456883D01*
X55967808Y-83719673D01*
X55825162Y-84063201D01*
X55824838Y-84435167D01*
X55944714Y-84725290D01*
X55825162Y-85013201D01*
X55824838Y-85385167D01*
X55966080Y-85727000D01*
X54258063Y-85727000D01*
X54225927Y-85694808D01*
X53882399Y-85552162D01*
X53510433Y-85551838D01*
X53166657Y-85693883D01*
X52903408Y-85956673D01*
X52760762Y-86300201D01*
X52760438Y-86672167D01*
X52902483Y-87015943D01*
X53165273Y-87279192D01*
X53508801Y-87421838D01*
X53880767Y-87422162D01*
X54224543Y-87280117D01*
X54257718Y-87247000D01*
X56113512Y-87247000D01*
X56113417Y-87355426D01*
X55898033Y-87355238D01*
X55554257Y-87497283D01*
X55291008Y-87760073D01*
X55148362Y-88103601D01*
X55148038Y-88475567D01*
X55290083Y-88819343D01*
X55552873Y-89082592D01*
X55896401Y-89225238D01*
X56268367Y-89225562D01*
X56612143Y-89083517D01*
X56645318Y-89050400D01*
X71729600Y-89050400D01*
X72020439Y-88992548D01*
X72267001Y-88827801D01*
X78882023Y-82212779D01*
X79046770Y-81966217D01*
X79104622Y-81675378D01*
X79104622Y-69635167D01*
X81024838Y-69635167D01*
X81166883Y-69978943D01*
X81200000Y-70012118D01*
X81200000Y-107750000D01*
X81257852Y-108040839D01*
X81422599Y-108287401D01*
X85424878Y-112289680D01*
X85424838Y-112335167D01*
X85566883Y-112678943D01*
X85829673Y-112942192D01*
X86173201Y-113084838D01*
X86545167Y-113085162D01*
X86888943Y-112943117D01*
X87152192Y-112680327D01*
X87294838Y-112336799D01*
X87295162Y-111964833D01*
X87153117Y-111621057D01*
X86890327Y-111357808D01*
X86546799Y-111215162D01*
X86499923Y-111215121D01*
X82720000Y-107435198D01*
X82720000Y-70012463D01*
X82752192Y-69980327D01*
X82853991Y-69735167D01*
X83524838Y-69735167D01*
X83666883Y-70078943D01*
X83700000Y-70112118D01*
X83700000Y-71237537D01*
X83667808Y-71269673D01*
X83525162Y-71613201D01*
X83524838Y-71985167D01*
X83666883Y-72328943D01*
X83929673Y-72592192D01*
X84273201Y-72734838D01*
X84645167Y-72735162D01*
X84988943Y-72593117D01*
X85252192Y-72330327D01*
X85394838Y-71986799D01*
X85395162Y-71614833D01*
X85253117Y-71271057D01*
X85220000Y-71237882D01*
X85220000Y-70112463D01*
X85252192Y-70080327D01*
X85394838Y-69736799D01*
X85395162Y-69364833D01*
X85253117Y-69021057D01*
X84990327Y-68757808D01*
X84646799Y-68615162D01*
X84274833Y-68614838D01*
X83931057Y-68756883D01*
X83667808Y-69019673D01*
X83525162Y-69363201D01*
X83524838Y-69735167D01*
X82853991Y-69735167D01*
X82894838Y-69636799D01*
X82895162Y-69264833D01*
X82753117Y-68921057D01*
X82490327Y-68657808D01*
X82146799Y-68515162D01*
X81774833Y-68514838D01*
X81431057Y-68656883D01*
X81167808Y-68919673D01*
X81025162Y-69263201D01*
X81024838Y-69635167D01*
X79104622Y-69635167D01*
X79104622Y-66597780D01*
X81309401Y-64393001D01*
X81474148Y-64146439D01*
X81532000Y-63855600D01*
X81532000Y-59639200D01*
X81474148Y-59348361D01*
X81309401Y-59101799D01*
X81062839Y-58937052D01*
X80772000Y-58879200D01*
X76835000Y-58879200D01*
X76544160Y-58937052D01*
X76436605Y-59008918D01*
X76345033Y-59008838D01*
X76245088Y-59050134D01*
X76245162Y-58964833D01*
X76103117Y-58621057D01*
X75840327Y-58357808D01*
X75496799Y-58215162D01*
X75124833Y-58214838D01*
X74781057Y-58356883D01*
X74517808Y-58619673D01*
X74375162Y-58963201D01*
X74374838Y-59335167D01*
X74516883Y-59678943D01*
X74550000Y-59712118D01*
X74550000Y-62313611D01*
X74607852Y-62604450D01*
X74649989Y-62667513D01*
X74649989Y-63014991D01*
X74474833Y-63014838D01*
X74131057Y-63156883D01*
X73867808Y-63419673D01*
X73725162Y-63763201D01*
X73724838Y-64135167D01*
X73866883Y-64478943D01*
X73934245Y-64546422D01*
X73957852Y-64665103D01*
X74122599Y-64911665D01*
X74199978Y-64989044D01*
X74199978Y-68515034D01*
X73974833Y-68514838D01*
X73631057Y-68656883D01*
X73397533Y-68890000D01*
X69422463Y-68890000D01*
X69390327Y-68857808D01*
X69046799Y-68715162D01*
X68674833Y-68714838D01*
X68331057Y-68856883D01*
X68067808Y-69119673D01*
X67925162Y-69463201D01*
X67925095Y-69540001D01*
X64948050Y-69540001D01*
X65086337Y-69447601D01*
X67409907Y-67124031D01*
X67478801Y-67152638D01*
X67850767Y-67152962D01*
X68194543Y-67010917D01*
X68457792Y-66748127D01*
X68600438Y-66404599D01*
X68600762Y-66032633D01*
X68458717Y-65688857D01*
X68195927Y-65425608D01*
X67852399Y-65282962D01*
X67480433Y-65282638D01*
X67136657Y-65424683D01*
X67069178Y-65492045D01*
X66950497Y-65515652D01*
X66703935Y-65680399D01*
X64234134Y-68150200D01*
X59556226Y-68150200D01*
X59644838Y-67936799D01*
X59645162Y-67564833D01*
X59622443Y-67509849D01*
X59752192Y-67380327D01*
X59894838Y-67036799D01*
X59895162Y-66664833D01*
X59753117Y-66321057D01*
X59720000Y-66287882D01*
X59720000Y-65653009D01*
X59662148Y-65362170D01*
X59617072Y-65294708D01*
X59617163Y-65189843D01*
X59475118Y-64846067D01*
X59212328Y-64582818D01*
X58868800Y-64440172D01*
X58496834Y-64439848D01*
X58322751Y-64511777D01*
X58322751Y-64487453D01*
X58354943Y-64455317D01*
X58497589Y-64111789D01*
X58497913Y-63739823D01*
X58355868Y-63396047D01*
X58093078Y-63132798D01*
X57749550Y-62990152D01*
X57377584Y-62989828D01*
X57033808Y-63131873D01*
X56770559Y-63394663D01*
X56627913Y-63738191D01*
X56627589Y-64110157D01*
X56769634Y-64453933D01*
X56802751Y-64487108D01*
X56802751Y-66421349D01*
X54588601Y-64207199D01*
X54342039Y-64042452D01*
X54051200Y-63984600D01*
X50143263Y-63984600D01*
X50111127Y-63952408D01*
X49767599Y-63809762D01*
X49395633Y-63809438D01*
X49051857Y-63951483D01*
X48788608Y-64214273D01*
X48645962Y-64557801D01*
X48645638Y-64929767D01*
X48787683Y-65273543D01*
X49050473Y-65536792D01*
X49238818Y-65615000D01*
X45360000Y-65615000D01*
X45337074Y-65619560D01*
X52183034Y-58773600D01*
X57882937Y-58773600D01*
X57915073Y-58805792D01*
X58258601Y-58948438D01*
X58630567Y-58948762D01*
X58974343Y-58806717D01*
X59237592Y-58543927D01*
X59380238Y-58200399D01*
X59380562Y-57828433D01*
X59238517Y-57484657D01*
X58975727Y-57221408D01*
X58632199Y-57078762D01*
X58260233Y-57078438D01*
X57916457Y-57220483D01*
X57883282Y-57253600D01*
X52931202Y-57253600D01*
X57999680Y-52185122D01*
X58045167Y-52185162D01*
X58388943Y-52043117D01*
X58652192Y-51780327D01*
X58794838Y-51436799D01*
X58794992Y-51259794D01*
X62474878Y-54939680D01*
X62474838Y-54985167D01*
X62616883Y-55328943D01*
X62879673Y-55592192D01*
X63223201Y-55734838D01*
X63595167Y-55735162D01*
X63938943Y-55593117D01*
X63942871Y-55589196D01*
X64173201Y-55684838D01*
X64545167Y-55685162D01*
X64810228Y-55575641D01*
X65073201Y-55684838D01*
X65445167Y-55685162D01*
X65735290Y-55565286D01*
X66023201Y-55684838D01*
X66395167Y-55685162D01*
X66635166Y-55585997D01*
X66873201Y-55684838D01*
X67245167Y-55685162D01*
X67449873Y-55600580D01*
X67773201Y-55734838D01*
X68145167Y-55735162D01*
X68376899Y-55639413D01*
X68379673Y-55642192D01*
X68723201Y-55784838D01*
X69095167Y-55785162D01*
X69438943Y-55643117D01*
X69702192Y-55380327D01*
X69844838Y-55036799D01*
X69845162Y-54664833D01*
X69703117Y-54321057D01*
X69670000Y-54287882D01*
X69670000Y-54200000D01*
X69612148Y-53909161D01*
X69447401Y-53662599D01*
X55320000Y-39535198D01*
X55320000Y-33785167D01*
X72324838Y-33785167D01*
X72466883Y-34128943D01*
X72500000Y-34162118D01*
X72500000Y-36687537D01*
X72467808Y-36719673D01*
X72325162Y-37063201D01*
X72324838Y-37435167D01*
X72466883Y-37778943D01*
X72729673Y-38042192D01*
X73073201Y-38184838D01*
X73445167Y-38185162D01*
X73788943Y-38043117D01*
X74052192Y-37780327D01*
X74194838Y-37436799D01*
X74195162Y-37064833D01*
X74053117Y-36721057D01*
X74020000Y-36687882D01*
X74020000Y-34162463D01*
X74052192Y-34130327D01*
X74194838Y-33786799D01*
X74195162Y-33414833D01*
X74053117Y-33071057D01*
X73790327Y-32807808D01*
X73446799Y-32665162D01*
X73074833Y-32664838D01*
X72731057Y-32806883D01*
X72467808Y-33069673D01*
X72325162Y-33413201D01*
X72324838Y-33785167D01*
X55320000Y-33785167D01*
X55320000Y-29400000D01*
X64562560Y-29400000D01*
X64562560Y-31100000D01*
X64606838Y-31335317D01*
X64745910Y-31551441D01*
X64958110Y-31696431D01*
X65210000Y-31747440D01*
X66910000Y-31747440D01*
X67145317Y-31703162D01*
X67361441Y-31564090D01*
X67506431Y-31351890D01*
X67557440Y-31100000D01*
X67557440Y-29400000D01*
X67513162Y-29164683D01*
X67374090Y-28948559D01*
X67161890Y-28803569D01*
X66910000Y-28752560D01*
X65210000Y-28752560D01*
X64974683Y-28796838D01*
X64758559Y-28935910D01*
X64613569Y-29148110D01*
X64562560Y-29400000D01*
X55320000Y-29400000D01*
X55320000Y-28912463D01*
X55352192Y-28880327D01*
X55494838Y-28536799D01*
X55495162Y-28164833D01*
X55353117Y-27821057D01*
X55090327Y-27557808D01*
X54746799Y-27415162D01*
X54374833Y-27414838D01*
X54059649Y-27545069D01*
X53746799Y-27415162D01*
X53374833Y-27414838D01*
X53059649Y-27545069D01*
X52746799Y-27415162D01*
X52374833Y-27414838D01*
X52059649Y-27545069D01*
X51746799Y-27415162D01*
X51374833Y-27414838D01*
X51059649Y-27545069D01*
X50746799Y-27415162D01*
X50374833Y-27414838D01*
X50059649Y-27545069D01*
X49746799Y-27415162D01*
X49374833Y-27414838D01*
X49031057Y-27556883D01*
X49012441Y-27575467D01*
X48746799Y-27465162D01*
X48374833Y-27464838D01*
X48031057Y-27606883D01*
X47767808Y-27869673D01*
X47625162Y-28213201D01*
X47624838Y-28585167D01*
X47766883Y-28928943D01*
X47800000Y-28962118D01*
X47800000Y-39950000D01*
X47857852Y-40240839D01*
X48022599Y-40487401D01*
X57850189Y-50314991D01*
X57674833Y-50314838D01*
X57331057Y-50456883D01*
X57067808Y-50719673D01*
X56925162Y-51063201D01*
X56925121Y-51110077D01*
X44545198Y-63490000D01*
X43222463Y-63490000D01*
X43190327Y-63457808D01*
X42846799Y-63315162D01*
X42474833Y-63314838D01*
X42131057Y-63456883D01*
X41867808Y-63719673D01*
X41725162Y-64063201D01*
X41724838Y-64435167D01*
X41866883Y-64778943D01*
X42129673Y-65042192D01*
X42473201Y-65184838D01*
X42845167Y-65185162D01*
X43188943Y-65043117D01*
X43222118Y-65010000D01*
X43797030Y-65010000D01*
X38847485Y-69959545D01*
X38801998Y-69959505D01*
X38458222Y-70101550D01*
X38194973Y-70364340D01*
X38147011Y-70479845D01*
X37944527Y-70277008D01*
X37600999Y-70134362D01*
X37412200Y-70134198D01*
X37412200Y-66249800D01*
X37354348Y-65958961D01*
X37189601Y-65712399D01*
X34517666Y-63040464D01*
X34593345Y-62660000D01*
X34479271Y-62086511D01*
X34154415Y-61600330D01*
X33839634Y-61390000D01*
X34154415Y-61179670D01*
X34273157Y-61001959D01*
X35437678Y-62166480D01*
X35437638Y-62211967D01*
X35579683Y-62555743D01*
X35842473Y-62818992D01*
X36186001Y-62961638D01*
X36557967Y-62961962D01*
X36901743Y-62819917D01*
X37164992Y-62557127D01*
X37307638Y-62213599D01*
X37307962Y-61841633D01*
X37165917Y-61497857D01*
X36903127Y-61234608D01*
X36559599Y-61091962D01*
X36512723Y-61091921D01*
X35003401Y-59582599D01*
X34756839Y-59417852D01*
X34466000Y-59360000D01*
X34354648Y-59360000D01*
X34154415Y-59060330D01*
X33839634Y-58850000D01*
X34154415Y-58639670D01*
X34234643Y-58519600D01*
X36013537Y-58519600D01*
X36045673Y-58551792D01*
X36389201Y-58694438D01*
X36761167Y-58694762D01*
X37104943Y-58552717D01*
X37368192Y-58289927D01*
X37510838Y-57946399D01*
X37511162Y-57574433D01*
X37369117Y-57230657D01*
X37106327Y-56967408D01*
X36762799Y-56824762D01*
X36390833Y-56824438D01*
X36047057Y-56966483D01*
X36013882Y-56999600D01*
X34474653Y-56999600D01*
X34154415Y-56520330D01*
X33839634Y-56310000D01*
X34154415Y-56099670D01*
X34479271Y-55613489D01*
X34593345Y-55040000D01*
X34479271Y-54466511D01*
X34154415Y-53980330D01*
X34140087Y-53970757D01*
X34161317Y-53966762D01*
X34377441Y-53827690D01*
X34522431Y-53615490D01*
X34571109Y-53375111D01*
X39603278Y-58407280D01*
X39603238Y-58452767D01*
X39745283Y-58796543D01*
X40008073Y-59059792D01*
X40351601Y-59202438D01*
X40723567Y-59202762D01*
X41067343Y-59060717D01*
X41330592Y-58797927D01*
X41473238Y-58454399D01*
X41473562Y-58082433D01*
X41331517Y-57738657D01*
X41068727Y-57475408D01*
X40725199Y-57332762D01*
X40678323Y-57332721D01*
X35308201Y-51962599D01*
X35061639Y-51797852D01*
X34770800Y-51740000D01*
X34573440Y-51740000D01*
X34573440Y-51636400D01*
X34529162Y-51401083D01*
X34390090Y-51184959D01*
X34177890Y-51039969D01*
X33926000Y-50988960D01*
X31894000Y-50988960D01*
X31658683Y-51033238D01*
X31442559Y-51172310D01*
X31297569Y-51384510D01*
X31246560Y-51636400D01*
X31246560Y-53216589D01*
X31222599Y-53232599D01*
X31057852Y-53479161D01*
X31000000Y-53770000D01*
X31057852Y-54060839D01*
X31222599Y-54307401D01*
X31377767Y-54411080D01*
X31340729Y-54466511D01*
X31226655Y-55040000D01*
X31340729Y-55613489D01*
X31665585Y-56099670D01*
X31980366Y-56310000D01*
X31665585Y-56520330D01*
X31340729Y-57006511D01*
X31226655Y-57580000D01*
X31302334Y-57960464D01*
X30399799Y-58862999D01*
X30353000Y-58933039D01*
X30353000Y-34914510D01*
X30707376Y-34985000D01*
X31312624Y-34985000D01*
X31746970Y-34898603D01*
X32115190Y-34652566D01*
X32361227Y-34284346D01*
X32447624Y-33850000D01*
X32361227Y-33415654D01*
X32115190Y-33047434D01*
X31746970Y-32801397D01*
X31312624Y-32715000D01*
X30707376Y-32715000D01*
X30353000Y-32785490D01*
X30353000Y-32675315D01*
X32600000Y-32675315D01*
X32600000Y-33024685D01*
X32684494Y-33449464D01*
X32925111Y-33809574D01*
X33285221Y-34050191D01*
X33710000Y-34134685D01*
X34134779Y-34050191D01*
X34494889Y-33809574D01*
X34735506Y-33449464D01*
X34820000Y-33024685D01*
X34820000Y-32675315D01*
X34735506Y-32250536D01*
X34494889Y-31890426D01*
X34134779Y-31649809D01*
X33710000Y-31565315D01*
X33285221Y-31649809D01*
X32925111Y-31890426D01*
X32684494Y-32250536D01*
X32600000Y-32675315D01*
X30353000Y-32675315D01*
X30353000Y-30135167D01*
X40824838Y-30135167D01*
X40966883Y-30478943D01*
X41229673Y-30742192D01*
X41573201Y-30884838D01*
X41620077Y-30884879D01*
X42250000Y-31514802D01*
X42250000Y-35270301D01*
X41996799Y-35165162D01*
X41624833Y-35164838D01*
X41281057Y-35306883D01*
X41017808Y-35569673D01*
X40875162Y-35913201D01*
X40874838Y-36285167D01*
X41016883Y-36628943D01*
X41279673Y-36892192D01*
X41500000Y-36983680D01*
X41500000Y-40887537D01*
X41467808Y-40919673D01*
X41325162Y-41263201D01*
X41324838Y-41635167D01*
X41466883Y-41978943D01*
X41729673Y-42242192D01*
X42073201Y-42384838D01*
X42445167Y-42385162D01*
X42788943Y-42243117D01*
X43052192Y-41980327D01*
X43194838Y-41636799D01*
X43194839Y-41635162D01*
X43195167Y-41635162D01*
X43538943Y-41493117D01*
X43802192Y-41230327D01*
X43944838Y-40886799D01*
X43945162Y-40514833D01*
X43803117Y-40171057D01*
X43770000Y-40137882D01*
X43770000Y-31200000D01*
X43712148Y-30909161D01*
X43547401Y-30662599D01*
X42695122Y-29810320D01*
X42695162Y-29764833D01*
X42553117Y-29421057D01*
X42290327Y-29157808D01*
X41946799Y-29015162D01*
X41574833Y-29014838D01*
X41231057Y-29156883D01*
X40967808Y-29419673D01*
X40825162Y-29763201D01*
X40824838Y-30135167D01*
X30353000Y-30135167D01*
X30353000Y-27914510D01*
X30707376Y-27985000D01*
X31312624Y-27985000D01*
X31746970Y-27898603D01*
X32081143Y-27675315D01*
X32600000Y-27675315D01*
X32600000Y-28024685D01*
X32684494Y-28449464D01*
X32925111Y-28809574D01*
X33285221Y-29050191D01*
X33710000Y-29134685D01*
X34134779Y-29050191D01*
X34494889Y-28809574D01*
X34735506Y-28449464D01*
X34820000Y-28024685D01*
X34820000Y-27675315D01*
X34735506Y-27250536D01*
X34494889Y-26890426D01*
X34134779Y-26649809D01*
X33710000Y-26565315D01*
X33285221Y-26649809D01*
X32925111Y-26890426D01*
X32684494Y-27250536D01*
X32600000Y-27675315D01*
X32081143Y-27675315D01*
X32115190Y-27652566D01*
X32361227Y-27284346D01*
X32447624Y-26850000D01*
X32361227Y-26415654D01*
X32115190Y-26047434D01*
X31746970Y-25801397D01*
X31312624Y-25715000D01*
X30707376Y-25715000D01*
X30353000Y-25785490D01*
X30353000Y-21442619D01*
X32764613Y-21442619D01*
X33104155Y-22264372D01*
X33732321Y-22893636D01*
X34553481Y-23234611D01*
X35442619Y-23235387D01*
X36264372Y-22895845D01*
X36893636Y-22267679D01*
X37234611Y-21446519D01*
X37235387Y-20557381D01*
X37176662Y-20415255D01*
X47071400Y-20415255D01*
X47071400Y-20784745D01*
X47185474Y-21358234D01*
X47510330Y-21844415D01*
X47996511Y-22169271D01*
X48570000Y-22283345D01*
X49143489Y-22169271D01*
X49629670Y-21844415D01*
X49840000Y-21529634D01*
X50050330Y-21844415D01*
X50536511Y-22169271D01*
X51110000Y-22283345D01*
X51683489Y-22169271D01*
X52169670Y-21844415D01*
X52380000Y-21529634D01*
X52590330Y-21844415D01*
X53076511Y-22169271D01*
X53650000Y-22283345D01*
X54223489Y-22169271D01*
X54709670Y-21844415D01*
X54920000Y-21529634D01*
X55130330Y-21844415D01*
X55616511Y-22169271D01*
X56190000Y-22283345D01*
X56763489Y-22169271D01*
X57249670Y-21844415D01*
X57460000Y-21529634D01*
X57670330Y-21844415D01*
X58156511Y-22169271D01*
X58730000Y-22283345D01*
X59303489Y-22169271D01*
X59789670Y-21844415D01*
X60000000Y-21529634D01*
X60210330Y-21844415D01*
X60696511Y-22169271D01*
X61270000Y-22283345D01*
X61843489Y-22169271D01*
X62329670Y-21844415D01*
X62339243Y-21830087D01*
X62343238Y-21851317D01*
X62482310Y-22067441D01*
X62694510Y-22212431D01*
X62946400Y-22263440D01*
X64673600Y-22263440D01*
X64908917Y-22219162D01*
X65125041Y-22080090D01*
X65270031Y-21867890D01*
X65321040Y-21616000D01*
X65321040Y-20832944D01*
X69914025Y-20832944D01*
X70113615Y-21314818D01*
X70551621Y-21787188D01*
X71137054Y-22055983D01*
X71393000Y-21937367D01*
X71393000Y-20577000D01*
X70033164Y-20577000D01*
X69914025Y-20832944D01*
X65321040Y-20832944D01*
X65321040Y-20067056D01*
X69914025Y-20067056D01*
X70033164Y-20323000D01*
X71393000Y-20323000D01*
X71393000Y-18962633D01*
X71647000Y-18962633D01*
X71647000Y-20323000D01*
X71667000Y-20323000D01*
X71667000Y-20577000D01*
X71647000Y-20577000D01*
X71647000Y-21937367D01*
X71902946Y-22055983D01*
X72488379Y-21787188D01*
X72492934Y-21782276D01*
X72579910Y-21917441D01*
X72792110Y-22062431D01*
X73044000Y-22113440D01*
X75076000Y-22113440D01*
X75311317Y-22069162D01*
X75527441Y-21930090D01*
X75672431Y-21717890D01*
X75723440Y-21466000D01*
X75723440Y-19450000D01*
X78162560Y-19450000D01*
X78162560Y-21150000D01*
X78206838Y-21385317D01*
X78345910Y-21601441D01*
X78558110Y-21746431D01*
X78810000Y-21797440D01*
X80510000Y-21797440D01*
X80745317Y-21753162D01*
X80961441Y-21614090D01*
X81106431Y-21401890D01*
X81157440Y-21150000D01*
X81157440Y-19450000D01*
X81113162Y-19214683D01*
X80974090Y-18998559D01*
X80761890Y-18853569D01*
X80510000Y-18802560D01*
X78810000Y-18802560D01*
X78574683Y-18846838D01*
X78358559Y-18985910D01*
X78213569Y-19198110D01*
X78162560Y-19450000D01*
X75723440Y-19450000D01*
X75723440Y-19434000D01*
X75679162Y-19198683D01*
X75540090Y-18982559D01*
X75327890Y-18837569D01*
X75076000Y-18786560D01*
X73044000Y-18786560D01*
X72808683Y-18830838D01*
X72592559Y-18969910D01*
X72492144Y-19116872D01*
X72488379Y-19112812D01*
X71902946Y-18844017D01*
X71647000Y-18962633D01*
X71393000Y-18962633D01*
X71137054Y-18844017D01*
X70551621Y-19112812D01*
X70113615Y-19585182D01*
X69914025Y-20067056D01*
X65321040Y-20067056D01*
X65321040Y-19584000D01*
X65276762Y-19348683D01*
X65137690Y-19132559D01*
X64925490Y-18987569D01*
X64673600Y-18936560D01*
X62946400Y-18936560D01*
X62711083Y-18980838D01*
X62494959Y-19119910D01*
X62349969Y-19332110D01*
X62341600Y-19373439D01*
X62329670Y-19355585D01*
X61843489Y-19030729D01*
X61270000Y-18916655D01*
X60696511Y-19030729D01*
X60210330Y-19355585D01*
X60000000Y-19670366D01*
X59789670Y-19355585D01*
X59303489Y-19030729D01*
X58730000Y-18916655D01*
X58156511Y-19030729D01*
X57670330Y-19355585D01*
X57460000Y-19670366D01*
X57249670Y-19355585D01*
X56763489Y-19030729D01*
X56190000Y-18916655D01*
X55616511Y-19030729D01*
X55130330Y-19355585D01*
X54920000Y-19670366D01*
X54709670Y-19355585D01*
X54223489Y-19030729D01*
X53650000Y-18916655D01*
X53076511Y-19030729D01*
X52590330Y-19355585D01*
X52380000Y-19670366D01*
X52169670Y-19355585D01*
X51683489Y-19030729D01*
X51110000Y-18916655D01*
X50536511Y-19030729D01*
X50050330Y-19355585D01*
X49840000Y-19670366D01*
X49629670Y-19355585D01*
X49143489Y-19030729D01*
X48570000Y-18916655D01*
X47996511Y-19030729D01*
X47510330Y-19355585D01*
X47185474Y-19841766D01*
X47071400Y-20415255D01*
X37176662Y-20415255D01*
X36895845Y-19735628D01*
X36267679Y-19106364D01*
X35446519Y-18765389D01*
X34557381Y-18764613D01*
X33735628Y-19104155D01*
X33106364Y-19732321D01*
X32765389Y-20553481D01*
X32764613Y-21442619D01*
X30353000Y-21442619D01*
X30353000Y-18060000D01*
X100965000Y-18060000D01*
X100965000Y-116640000D01*
X100965000Y-116640000D01*
G37*
X100965000Y-116640000D02*
X30353000Y-116640000D01*
X30353000Y-113442619D01*
X32764613Y-113442619D01*
X33104155Y-114264372D01*
X33732321Y-114893636D01*
X34553481Y-115234611D01*
X35442619Y-115235387D01*
X36264372Y-114895845D01*
X36893636Y-114267679D01*
X36942500Y-114150000D01*
X66405907Y-114150000D01*
X66518946Y-114718285D01*
X66840853Y-115200054D01*
X67322622Y-115521961D01*
X67890907Y-115635000D01*
X67949093Y-115635000D01*
X68517378Y-115521961D01*
X68999147Y-115200054D01*
X68999971Y-115198821D01*
X69006838Y-115235317D01*
X69145910Y-115451441D01*
X69358110Y-115596431D01*
X69610000Y-115647440D01*
X71310000Y-115647440D01*
X71545317Y-115603162D01*
X71761441Y-115464090D01*
X71906431Y-115251890D01*
X71957440Y-115000000D01*
X71957440Y-114556890D01*
X73828524Y-114556890D01*
X73998355Y-114966924D01*
X74388642Y-115395183D01*
X74913108Y-115641486D01*
X75143000Y-115520819D01*
X75143000Y-114327000D01*
X75397000Y-114327000D01*
X75397000Y-115520819D01*
X75626892Y-115641486D01*
X76151358Y-115395183D01*
X76333070Y-115195792D01*
X76421673Y-115409699D01*
X76600302Y-115588327D01*
X76833691Y-115685000D01*
X77524250Y-115685000D01*
X77683000Y-115526250D01*
X77683000Y-114327000D01*
X77937000Y-114327000D01*
X77937000Y-115526250D01*
X78095750Y-115685000D01*
X78786309Y-115685000D01*
X79019698Y-115588327D01*
X79198327Y-115409699D01*
X79295000Y-115176310D01*
X79295000Y-114485750D01*
X79136250Y-114327000D01*
X77937000Y-114327000D01*
X77683000Y-114327000D01*
X75397000Y-114327000D01*
X75143000Y-114327000D01*
X73949845Y-114327000D01*
X73828524Y-114556890D01*
X71957440Y-114556890D01*
X71957440Y-113843110D01*
X73828524Y-113843110D01*
X73949845Y-114073000D01*
X75143000Y-114073000D01*
X75143000Y-112879181D01*
X75397000Y-112879181D01*
X75397000Y-114073000D01*
X77683000Y-114073000D01*
X77683000Y-112873750D01*
X77937000Y-112873750D01*
X77937000Y-114073000D01*
X79136250Y-114073000D01*
X79295000Y-113914250D01*
X79295000Y-113223690D01*
X79198327Y-112990301D01*
X79019698Y-112811673D01*
X78786309Y-112715000D01*
X78095750Y-112715000D01*
X77937000Y-112873750D01*
X77683000Y-112873750D01*
X77524250Y-112715000D01*
X76833691Y-112715000D01*
X76600302Y-112811673D01*
X76421673Y-112990301D01*
X76333070Y-113204208D01*
X76151358Y-113004817D01*
X75626892Y-112758514D01*
X75397000Y-112879181D01*
X75143000Y-112879181D01*
X74913108Y-112758514D01*
X74388642Y-113004817D01*
X73998355Y-113433076D01*
X73828524Y-113843110D01*
X71957440Y-113843110D01*
X71957440Y-113300000D01*
X71913162Y-113064683D01*
X71774090Y-112848559D01*
X71561890Y-112703569D01*
X71310000Y-112652560D01*
X69610000Y-112652560D01*
X69374683Y-112696838D01*
X69158559Y-112835910D01*
X69013569Y-113048110D01*
X69002159Y-113104454D01*
X68999147Y-113099946D01*
X68517378Y-112778039D01*
X67949093Y-112665000D01*
X67890907Y-112665000D01*
X67322622Y-112778039D01*
X66840853Y-113099946D01*
X66518946Y-113581715D01*
X66405907Y-114150000D01*
X36942500Y-114150000D01*
X37234611Y-113446519D01*
X37235387Y-112557381D01*
X36895845Y-111735628D01*
X36267679Y-111106364D01*
X35446519Y-110765389D01*
X34557381Y-110764613D01*
X33735628Y-111104155D01*
X33106364Y-111732321D01*
X32765389Y-112553481D01*
X32764613Y-113442619D01*
X30353000Y-113442619D01*
X30353000Y-103399039D01*
X31398096Y-103399039D01*
X31558959Y-103787423D01*
X31934866Y-104202389D01*
X32440959Y-104441914D01*
X32663000Y-104320629D01*
X32663000Y-103177000D01*
X32917000Y-103177000D01*
X32917000Y-104320629D01*
X33139041Y-104441914D01*
X33645134Y-104202389D01*
X34021041Y-103787423D01*
X34181904Y-103399039D01*
X34059915Y-103177000D01*
X32917000Y-103177000D01*
X32663000Y-103177000D01*
X31520085Y-103177000D01*
X31398096Y-103399039D01*
X30353000Y-103399039D01*
X30353000Y-102700961D01*
X31398096Y-102700961D01*
X31520085Y-102923000D01*
X32663000Y-102923000D01*
X32663000Y-101779371D01*
X32917000Y-101779371D01*
X32917000Y-102923000D01*
X34059915Y-102923000D01*
X34181904Y-102700961D01*
X34021041Y-102312577D01*
X33964355Y-102250000D01*
X38962560Y-102250000D01*
X38962560Y-103850000D01*
X39006838Y-104085317D01*
X39145910Y-104301441D01*
X39358110Y-104446431D01*
X39610000Y-104497440D01*
X41210000Y-104497440D01*
X41445317Y-104453162D01*
X41661441Y-104314090D01*
X41806431Y-104101890D01*
X41857440Y-103850000D01*
X41857440Y-102250000D01*
X41813162Y-102014683D01*
X41674090Y-101798559D01*
X41461890Y-101653569D01*
X41210000Y-101602560D01*
X39610000Y-101602560D01*
X39374683Y-101646838D01*
X39158559Y-101785910D01*
X39013569Y-101998110D01*
X38962560Y-102250000D01*
X33964355Y-102250000D01*
X33645134Y-101897611D01*
X33139041Y-101658086D01*
X32917000Y-101779371D01*
X32663000Y-101779371D01*
X32440959Y-101658086D01*
X31934866Y-101897611D01*
X31558959Y-102312577D01*
X31398096Y-102700961D01*
X30353000Y-102700961D01*
X30353000Y-85779563D01*
X30399799Y-85849603D01*
X37552756Y-93002560D01*
X36960000Y-93002560D01*
X36724683Y-93046838D01*
X36508559Y-93185910D01*
X36363569Y-93398110D01*
X36312560Y-93650000D01*
X36312560Y-95350000D01*
X36356838Y-95585317D01*
X36495910Y-95801441D01*
X36708110Y-95946431D01*
X36960000Y-95997440D01*
X38660000Y-95997440D01*
X38895317Y-95953162D01*
X39111441Y-95814090D01*
X39256431Y-95601890D01*
X39270086Y-95534459D01*
X39299946Y-95579147D01*
X39781715Y-95901054D01*
X40350000Y-96014093D01*
X40918285Y-95901054D01*
X41400054Y-95579147D01*
X41721961Y-95097378D01*
X41835000Y-94529093D01*
X41835000Y-94470907D01*
X41721961Y-93902622D01*
X41400054Y-93420853D01*
X40918285Y-93098946D01*
X40350000Y-92985907D01*
X39983592Y-93058790D01*
X39712400Y-92787598D01*
X39465838Y-92622851D01*
X39287097Y-92587297D01*
X38097240Y-91397440D01*
X38660000Y-91397440D01*
X38895317Y-91353162D01*
X39111441Y-91214090D01*
X39256431Y-91001890D01*
X39270086Y-90934459D01*
X39299946Y-90979147D01*
X39781715Y-91301054D01*
X40350000Y-91414093D01*
X40918285Y-91301054D01*
X41400054Y-90979147D01*
X41721961Y-90497378D01*
X41835000Y-89929093D01*
X41835000Y-89870907D01*
X41721961Y-89302622D01*
X41400054Y-88820853D01*
X40918285Y-88498946D01*
X40350000Y-88385907D01*
X39983592Y-88458790D01*
X39712400Y-88187598D01*
X39465838Y-88022851D01*
X39174999Y-87964999D01*
X35496601Y-87964999D01*
X32328990Y-84797388D01*
X32328990Y-84399778D01*
X32725255Y-84478600D01*
X33094745Y-84478600D01*
X33668234Y-84364526D01*
X33827191Y-84258314D01*
X33825162Y-84263201D01*
X33824838Y-84635167D01*
X33966883Y-84978943D01*
X34229673Y-85242192D01*
X34573201Y-85384838D01*
X34945167Y-85385162D01*
X35288943Y-85243117D01*
X35552192Y-84980327D01*
X35694838Y-84636799D01*
X35695162Y-84264833D01*
X35553117Y-83921057D01*
X35520000Y-83887882D01*
X35520000Y-69437600D01*
X35462148Y-69146761D01*
X35297401Y-68900199D01*
X34517666Y-68120464D01*
X34593345Y-67740000D01*
X34479271Y-67166511D01*
X34154415Y-66680330D01*
X33839634Y-66470000D01*
X34154415Y-66259670D01*
X34479271Y-65773489D01*
X34582437Y-65254839D01*
X35892200Y-66564602D01*
X35892200Y-81129010D01*
X35950052Y-81419849D01*
X36114799Y-81666411D01*
X42948738Y-88500350D01*
X42948738Y-95970173D01*
X42916546Y-96002309D01*
X42773900Y-96345837D01*
X42773576Y-96717803D01*
X42915621Y-97061579D01*
X43178411Y-97324828D01*
X43521939Y-97467474D01*
X43893905Y-97467798D01*
X44237681Y-97325753D01*
X44500930Y-97062963D01*
X44643576Y-96719435D01*
X44643900Y-96347469D01*
X44501855Y-96003693D01*
X44468738Y-95970518D01*
X44468738Y-89326929D01*
X44736767Y-89327162D01*
X45080543Y-89185117D01*
X45343792Y-88922327D01*
X45486438Y-88578799D01*
X45486762Y-88206833D01*
X45344717Y-87863057D01*
X45081927Y-87599808D01*
X44738399Y-87457162D01*
X44691523Y-87457121D01*
X38174200Y-80939798D01*
X38174200Y-71631663D01*
X38206392Y-71599527D01*
X38254354Y-71484022D01*
X38456838Y-71686859D01*
X38800366Y-71829505D01*
X39172332Y-71829829D01*
X39516108Y-71687784D01*
X39779357Y-71424994D01*
X39922003Y-71081466D01*
X39922044Y-71034590D01*
X44229560Y-66727074D01*
X44225000Y-66750000D01*
X44311397Y-67184346D01*
X44557434Y-67552566D01*
X44925654Y-67798603D01*
X45360000Y-67885000D01*
X49348960Y-67885000D01*
X49348960Y-69513600D01*
X49393238Y-69748917D01*
X49532310Y-69965041D01*
X49744510Y-70110031D01*
X49788345Y-70118908D01*
X49475474Y-70587152D01*
X49361400Y-71160641D01*
X49361400Y-71219359D01*
X49475474Y-71792848D01*
X49800330Y-72279029D01*
X50071172Y-72460000D01*
X49800330Y-72640971D01*
X49475474Y-73127152D01*
X49361400Y-73700641D01*
X49361400Y-73759359D01*
X49475474Y-74332848D01*
X49800330Y-74819029D01*
X50286511Y-75143885D01*
X50860000Y-75257959D01*
X51433489Y-75143885D01*
X51919670Y-74819029D01*
X52135664Y-74495772D01*
X52193179Y-74618490D01*
X52625053Y-75012688D01*
X53040974Y-75184958D01*
X53273000Y-75063817D01*
X53273000Y-73857000D01*
X53253000Y-73857000D01*
X53253000Y-73603000D01*
X53273000Y-73603000D01*
X53273000Y-73583000D01*
X53527000Y-73583000D01*
X53527000Y-73603000D01*
X54734469Y-73603000D01*
X54854968Y-73370973D01*
X54606821Y-72841510D01*
X54188839Y-72459992D01*
X54459670Y-72279029D01*
X54784526Y-71792848D01*
X54898600Y-71219359D01*
X54898600Y-71160641D01*
X54784526Y-70587152D01*
X54459670Y-70100971D01*
X54188828Y-69920000D01*
X54459670Y-69739029D01*
X54784526Y-69252848D01*
X54898600Y-68679359D01*
X54898600Y-68620641D01*
X54784526Y-68047152D01*
X54535000Y-67673710D01*
X54535000Y-67428686D01*
X54448603Y-66994340D01*
X54202566Y-66626120D01*
X53523880Y-65947434D01*
X53493240Y-65926961D01*
X53155660Y-65701397D01*
X52721314Y-65615000D01*
X49922703Y-65615000D01*
X50109743Y-65537717D01*
X50142918Y-65504600D01*
X53736398Y-65504600D01*
X57679399Y-69447601D01*
X57925961Y-69612348D01*
X58216800Y-69670200D01*
X58490846Y-69670200D01*
X58281057Y-69756883D01*
X58017808Y-70019673D01*
X57875162Y-70363201D01*
X57874838Y-70735167D01*
X58016883Y-71078943D01*
X58279673Y-71342192D01*
X58623201Y-71484838D01*
X58995167Y-71485162D01*
X59338943Y-71343117D01*
X59372118Y-71310000D01*
X61847624Y-71310000D01*
X61929673Y-71392192D01*
X62273201Y-71534838D01*
X62419934Y-71534966D01*
X62325162Y-71763201D01*
X62325121Y-71810077D01*
X59945198Y-74190000D01*
X55522463Y-74190000D01*
X55490327Y-74157808D01*
X55146799Y-74015162D01*
X54816458Y-74014874D01*
X54734469Y-73857000D01*
X53527000Y-73857000D01*
X53527000Y-75063817D01*
X53759026Y-75184958D01*
X54024891Y-75074840D01*
X54024838Y-75135167D01*
X54166883Y-75478943D01*
X54414256Y-75726748D01*
X54284762Y-76038601D01*
X54284438Y-76410567D01*
X54426483Y-76754343D01*
X54443476Y-76771366D01*
X54351208Y-76863473D01*
X54208562Y-77207001D01*
X54208238Y-77578967D01*
X54350283Y-77922743D01*
X54506799Y-78079532D01*
X54478208Y-78108073D01*
X54335562Y-78451601D01*
X54335238Y-78823567D01*
X54477283Y-79167343D01*
X54740073Y-79430592D01*
X55083601Y-79573238D01*
X55455567Y-79573562D01*
X55799343Y-79431517D01*
X55832518Y-79398400D01*
X62821600Y-79398400D01*
X63112439Y-79340548D01*
X63359001Y-79175801D01*
X69799680Y-72735122D01*
X69845167Y-72735162D01*
X69999749Y-72671290D01*
X70273201Y-72784838D01*
X70645167Y-72785162D01*
X70988943Y-72643117D01*
X71022118Y-72610000D01*
X73497537Y-72610000D01*
X73529673Y-72642192D01*
X73873201Y-72784838D01*
X74199978Y-72785123D01*
X74199978Y-79989780D01*
X73245915Y-80943843D01*
X57506157Y-80943843D01*
X57215318Y-81001695D01*
X56968756Y-81166442D01*
X56870320Y-81264878D01*
X56824833Y-81264838D01*
X56481057Y-81406883D01*
X56217808Y-81669673D01*
X56075162Y-82013201D01*
X56074838Y-82385167D01*
X56216883Y-82728943D01*
X56479673Y-82992192D01*
X56823201Y-83134838D01*
X57195167Y-83135162D01*
X57297682Y-83092804D01*
X57325865Y-83121036D01*
X57669393Y-83263682D01*
X58041359Y-83264006D01*
X58385135Y-83121961D01*
X58418310Y-83088844D01*
X72373734Y-83088844D01*
X71972578Y-83490000D01*
X57322463Y-83490000D01*
X57290327Y-83457808D01*
X56946799Y-83315162D01*
X56574833Y-83314838D01*
X56231057Y-83456883D01*
X55967808Y-83719673D01*
X55825162Y-84063201D01*
X55824838Y-84435167D01*
X55944714Y-84725290D01*
X55825162Y-85013201D01*
X55824838Y-85385167D01*
X55966080Y-85727000D01*
X54258063Y-85727000D01*
X54225927Y-85694808D01*
X53882399Y-85552162D01*
X53510433Y-85551838D01*
X53166657Y-85693883D01*
X52903408Y-85956673D01*
X52760762Y-86300201D01*
X52760438Y-86672167D01*
X52902483Y-87015943D01*
X53165273Y-87279192D01*
X53508801Y-87421838D01*
X53880767Y-87422162D01*
X54224543Y-87280117D01*
X54257718Y-87247000D01*
X56113512Y-87247000D01*
X56113417Y-87355426D01*
X55898033Y-87355238D01*
X55554257Y-87497283D01*
X55291008Y-87760073D01*
X55148362Y-88103601D01*
X55148038Y-88475567D01*
X55290083Y-88819343D01*
X55552873Y-89082592D01*
X55896401Y-89225238D01*
X56268367Y-89225562D01*
X56612143Y-89083517D01*
X56645318Y-89050400D01*
X71729600Y-89050400D01*
X72020439Y-88992548D01*
X72267001Y-88827801D01*
X78882023Y-82212779D01*
X79046770Y-81966217D01*
X79104622Y-81675378D01*
X79104622Y-69635167D01*
X81024838Y-69635167D01*
X81166883Y-69978943D01*
X81200000Y-70012118D01*
X81200000Y-107750000D01*
X81257852Y-108040839D01*
X81422599Y-108287401D01*
X85424878Y-112289680D01*
X85424838Y-112335167D01*
X85566883Y-112678943D01*
X85829673Y-112942192D01*
X86173201Y-113084838D01*
X86545167Y-113085162D01*
X86888943Y-112943117D01*
X87152192Y-112680327D01*
X87294838Y-112336799D01*
X87295162Y-111964833D01*
X87153117Y-111621057D01*
X86890327Y-111357808D01*
X86546799Y-111215162D01*
X86499923Y-111215121D01*
X82720000Y-107435198D01*
X82720000Y-70012463D01*
X82752192Y-69980327D01*
X82853991Y-69735167D01*
X83524838Y-69735167D01*
X83666883Y-70078943D01*
X83700000Y-70112118D01*
X83700000Y-71237537D01*
X83667808Y-71269673D01*
X83525162Y-71613201D01*
X83524838Y-71985167D01*
X83666883Y-72328943D01*
X83929673Y-72592192D01*
X84273201Y-72734838D01*
X84645167Y-72735162D01*
X84988943Y-72593117D01*
X85252192Y-72330327D01*
X85394838Y-71986799D01*
X85395162Y-71614833D01*
X85253117Y-71271057D01*
X85220000Y-71237882D01*
X85220000Y-70112463D01*
X85252192Y-70080327D01*
X85394838Y-69736799D01*
X85395162Y-69364833D01*
X85253117Y-69021057D01*
X84990327Y-68757808D01*
X84646799Y-68615162D01*
X84274833Y-68614838D01*
X83931057Y-68756883D01*
X83667808Y-69019673D01*
X83525162Y-69363201D01*
X83524838Y-69735167D01*
X82853991Y-69735167D01*
X82894838Y-69636799D01*
X82895162Y-69264833D01*
X82753117Y-68921057D01*
X82490327Y-68657808D01*
X82146799Y-68515162D01*
X81774833Y-68514838D01*
X81431057Y-68656883D01*
X81167808Y-68919673D01*
X81025162Y-69263201D01*
X81024838Y-69635167D01*
X79104622Y-69635167D01*
X79104622Y-66597780D01*
X81309401Y-64393001D01*
X81474148Y-64146439D01*
X81532000Y-63855600D01*
X81532000Y-59639200D01*
X81474148Y-59348361D01*
X81309401Y-59101799D01*
X81062839Y-58937052D01*
X80772000Y-58879200D01*
X76835000Y-58879200D01*
X76544160Y-58937052D01*
X76436605Y-59008918D01*
X76345033Y-59008838D01*
X76245088Y-59050134D01*
X76245162Y-58964833D01*
X76103117Y-58621057D01*
X75840327Y-58357808D01*
X75496799Y-58215162D01*
X75124833Y-58214838D01*
X74781057Y-58356883D01*
X74517808Y-58619673D01*
X74375162Y-58963201D01*
X74374838Y-59335167D01*
X74516883Y-59678943D01*
X74550000Y-59712118D01*
X74550000Y-62313611D01*
X74607852Y-62604450D01*
X74649989Y-62667513D01*
X74649989Y-63014991D01*
X74474833Y-63014838D01*
X74131057Y-63156883D01*
X73867808Y-63419673D01*
X73725162Y-63763201D01*
X73724838Y-64135167D01*
X73866883Y-64478943D01*
X73934245Y-64546422D01*
X73957852Y-64665103D01*
X74122599Y-64911665D01*
X74199978Y-64989044D01*
X74199978Y-68515034D01*
X73974833Y-68514838D01*
X73631057Y-68656883D01*
X73397533Y-68890000D01*
X69422463Y-68890000D01*
X69390327Y-68857808D01*
X69046799Y-68715162D01*
X68674833Y-68714838D01*
X68331057Y-68856883D01*
X68067808Y-69119673D01*
X67925162Y-69463201D01*
X67925095Y-69540001D01*
X64948050Y-69540001D01*
X65086337Y-69447601D01*
X67409907Y-67124031D01*
X67478801Y-67152638D01*
X67850767Y-67152962D01*
X68194543Y-67010917D01*
X68457792Y-66748127D01*
X68600438Y-66404599D01*
X68600762Y-66032633D01*
X68458717Y-65688857D01*
X68195927Y-65425608D01*
X67852399Y-65282962D01*
X67480433Y-65282638D01*
X67136657Y-65424683D01*
X67069178Y-65492045D01*
X66950497Y-65515652D01*
X66703935Y-65680399D01*
X64234134Y-68150200D01*
X59556226Y-68150200D01*
X59644838Y-67936799D01*
X59645162Y-67564833D01*
X59622443Y-67509849D01*
X59752192Y-67380327D01*
X59894838Y-67036799D01*
X59895162Y-66664833D01*
X59753117Y-66321057D01*
X59720000Y-66287882D01*
X59720000Y-65653009D01*
X59662148Y-65362170D01*
X59617072Y-65294708D01*
X59617163Y-65189843D01*
X59475118Y-64846067D01*
X59212328Y-64582818D01*
X58868800Y-64440172D01*
X58496834Y-64439848D01*
X58322751Y-64511777D01*
X58322751Y-64487453D01*
X58354943Y-64455317D01*
X58497589Y-64111789D01*
X58497913Y-63739823D01*
X58355868Y-63396047D01*
X58093078Y-63132798D01*
X57749550Y-62990152D01*
X57377584Y-62989828D01*
X57033808Y-63131873D01*
X56770559Y-63394663D01*
X56627913Y-63738191D01*
X56627589Y-64110157D01*
X56769634Y-64453933D01*
X56802751Y-64487108D01*
X56802751Y-66421349D01*
X54588601Y-64207199D01*
X54342039Y-64042452D01*
X54051200Y-63984600D01*
X50143263Y-63984600D01*
X50111127Y-63952408D01*
X49767599Y-63809762D01*
X49395633Y-63809438D01*
X49051857Y-63951483D01*
X48788608Y-64214273D01*
X48645962Y-64557801D01*
X48645638Y-64929767D01*
X48787683Y-65273543D01*
X49050473Y-65536792D01*
X49238818Y-65615000D01*
X45360000Y-65615000D01*
X45337074Y-65619560D01*
X52183034Y-58773600D01*
X57882937Y-58773600D01*
X57915073Y-58805792D01*
X58258601Y-58948438D01*
X58630567Y-58948762D01*
X58974343Y-58806717D01*
X59237592Y-58543927D01*
X59380238Y-58200399D01*
X59380562Y-57828433D01*
X59238517Y-57484657D01*
X58975727Y-57221408D01*
X58632199Y-57078762D01*
X58260233Y-57078438D01*
X57916457Y-57220483D01*
X57883282Y-57253600D01*
X52931202Y-57253600D01*
X57999680Y-52185122D01*
X58045167Y-52185162D01*
X58388943Y-52043117D01*
X58652192Y-51780327D01*
X58794838Y-51436799D01*
X58794992Y-51259794D01*
X62474878Y-54939680D01*
X62474838Y-54985167D01*
X62616883Y-55328943D01*
X62879673Y-55592192D01*
X63223201Y-55734838D01*
X63595167Y-55735162D01*
X63938943Y-55593117D01*
X63942871Y-55589196D01*
X64173201Y-55684838D01*
X64545167Y-55685162D01*
X64810228Y-55575641D01*
X65073201Y-55684838D01*
X65445167Y-55685162D01*
X65735290Y-55565286D01*
X66023201Y-55684838D01*
X66395167Y-55685162D01*
X66635166Y-55585997D01*
X66873201Y-55684838D01*
X67245167Y-55685162D01*
X67449873Y-55600580D01*
X67773201Y-55734838D01*
X68145167Y-55735162D01*
X68376899Y-55639413D01*
X68379673Y-55642192D01*
X68723201Y-55784838D01*
X69095167Y-55785162D01*
X69438943Y-55643117D01*
X69702192Y-55380327D01*
X69844838Y-55036799D01*
X69845162Y-54664833D01*
X69703117Y-54321057D01*
X69670000Y-54287882D01*
X69670000Y-54200000D01*
X69612148Y-53909161D01*
X69447401Y-53662599D01*
X55320000Y-39535198D01*
X55320000Y-33785167D01*
X72324838Y-33785167D01*
X72466883Y-34128943D01*
X72500000Y-34162118D01*
X72500000Y-36687537D01*
X72467808Y-36719673D01*
X72325162Y-37063201D01*
X72324838Y-37435167D01*
X72466883Y-37778943D01*
X72729673Y-38042192D01*
X73073201Y-38184838D01*
X73445167Y-38185162D01*
X73788943Y-38043117D01*
X74052192Y-37780327D01*
X74194838Y-37436799D01*
X74195162Y-37064833D01*
X74053117Y-36721057D01*
X74020000Y-36687882D01*
X74020000Y-34162463D01*
X74052192Y-34130327D01*
X74194838Y-33786799D01*
X74195162Y-33414833D01*
X74053117Y-33071057D01*
X73790327Y-32807808D01*
X73446799Y-32665162D01*
X73074833Y-32664838D01*
X72731057Y-32806883D01*
X72467808Y-33069673D01*
X72325162Y-33413201D01*
X72324838Y-33785167D01*
X55320000Y-33785167D01*
X55320000Y-29400000D01*
X64562560Y-29400000D01*
X64562560Y-31100000D01*
X64606838Y-31335317D01*
X64745910Y-31551441D01*
X64958110Y-31696431D01*
X65210000Y-31747440D01*
X66910000Y-31747440D01*
X67145317Y-31703162D01*
X67361441Y-31564090D01*
X67506431Y-31351890D01*
X67557440Y-31100000D01*
X67557440Y-29400000D01*
X67513162Y-29164683D01*
X67374090Y-28948559D01*
X67161890Y-28803569D01*
X66910000Y-28752560D01*
X65210000Y-28752560D01*
X64974683Y-28796838D01*
X64758559Y-28935910D01*
X64613569Y-29148110D01*
X64562560Y-29400000D01*
X55320000Y-29400000D01*
X55320000Y-28912463D01*
X55352192Y-28880327D01*
X55494838Y-28536799D01*
X55495162Y-28164833D01*
X55353117Y-27821057D01*
X55090327Y-27557808D01*
X54746799Y-27415162D01*
X54374833Y-27414838D01*
X54059649Y-27545069D01*
X53746799Y-27415162D01*
X53374833Y-27414838D01*
X53059649Y-27545069D01*
X52746799Y-27415162D01*
X52374833Y-27414838D01*
X52059649Y-27545069D01*
X51746799Y-27415162D01*
X51374833Y-27414838D01*
X51059649Y-27545069D01*
X50746799Y-27415162D01*
X50374833Y-27414838D01*
X50059649Y-27545069D01*
X49746799Y-27415162D01*
X49374833Y-27414838D01*
X49031057Y-27556883D01*
X49012441Y-27575467D01*
X48746799Y-27465162D01*
X48374833Y-27464838D01*
X48031057Y-27606883D01*
X47767808Y-27869673D01*
X47625162Y-28213201D01*
X47624838Y-28585167D01*
X47766883Y-28928943D01*
X47800000Y-28962118D01*
X47800000Y-39950000D01*
X47857852Y-40240839D01*
X48022599Y-40487401D01*
X57850189Y-50314991D01*
X57674833Y-50314838D01*
X57331057Y-50456883D01*
X57067808Y-50719673D01*
X56925162Y-51063201D01*
X56925121Y-51110077D01*
X44545198Y-63490000D01*
X43222463Y-63490000D01*
X43190327Y-63457808D01*
X42846799Y-63315162D01*
X42474833Y-63314838D01*
X42131057Y-63456883D01*
X41867808Y-63719673D01*
X41725162Y-64063201D01*
X41724838Y-64435167D01*
X41866883Y-64778943D01*
X42129673Y-65042192D01*
X42473201Y-65184838D01*
X42845167Y-65185162D01*
X43188943Y-65043117D01*
X43222118Y-65010000D01*
X43797030Y-65010000D01*
X38847485Y-69959545D01*
X38801998Y-69959505D01*
X38458222Y-70101550D01*
X38194973Y-70364340D01*
X38147011Y-70479845D01*
X37944527Y-70277008D01*
X37600999Y-70134362D01*
X37412200Y-70134198D01*
X37412200Y-66249800D01*
X37354348Y-65958961D01*
X37189601Y-65712399D01*
X34517666Y-63040464D01*
X34593345Y-62660000D01*
X34479271Y-62086511D01*
X34154415Y-61600330D01*
X33839634Y-61390000D01*
X34154415Y-61179670D01*
X34273157Y-61001959D01*
X35437678Y-62166480D01*
X35437638Y-62211967D01*
X35579683Y-62555743D01*
X35842473Y-62818992D01*
X36186001Y-62961638D01*
X36557967Y-62961962D01*
X36901743Y-62819917D01*
X37164992Y-62557127D01*
X37307638Y-62213599D01*
X37307962Y-61841633D01*
X37165917Y-61497857D01*
X36903127Y-61234608D01*
X36559599Y-61091962D01*
X36512723Y-61091921D01*
X35003401Y-59582599D01*
X34756839Y-59417852D01*
X34466000Y-59360000D01*
X34354648Y-59360000D01*
X34154415Y-59060330D01*
X33839634Y-58850000D01*
X34154415Y-58639670D01*
X34234643Y-58519600D01*
X36013537Y-58519600D01*
X36045673Y-58551792D01*
X36389201Y-58694438D01*
X36761167Y-58694762D01*
X37104943Y-58552717D01*
X37368192Y-58289927D01*
X37510838Y-57946399D01*
X37511162Y-57574433D01*
X37369117Y-57230657D01*
X37106327Y-56967408D01*
X36762799Y-56824762D01*
X36390833Y-56824438D01*
X36047057Y-56966483D01*
X36013882Y-56999600D01*
X34474653Y-56999600D01*
X34154415Y-56520330D01*
X33839634Y-56310000D01*
X34154415Y-56099670D01*
X34479271Y-55613489D01*
X34593345Y-55040000D01*
X34479271Y-54466511D01*
X34154415Y-53980330D01*
X34140087Y-53970757D01*
X34161317Y-53966762D01*
X34377441Y-53827690D01*
X34522431Y-53615490D01*
X34571109Y-53375111D01*
X39603278Y-58407280D01*
X39603238Y-58452767D01*
X39745283Y-58796543D01*
X40008073Y-59059792D01*
X40351601Y-59202438D01*
X40723567Y-59202762D01*
X41067343Y-59060717D01*
X41330592Y-58797927D01*
X41473238Y-58454399D01*
X41473562Y-58082433D01*
X41331517Y-57738657D01*
X41068727Y-57475408D01*
X40725199Y-57332762D01*
X40678323Y-57332721D01*
X35308201Y-51962599D01*
X35061639Y-51797852D01*
X34770800Y-51740000D01*
X34573440Y-51740000D01*
X34573440Y-51636400D01*
X34529162Y-51401083D01*
X34390090Y-51184959D01*
X34177890Y-51039969D01*
X33926000Y-50988960D01*
X31894000Y-50988960D01*
X31658683Y-51033238D01*
X31442559Y-51172310D01*
X31297569Y-51384510D01*
X31246560Y-51636400D01*
X31246560Y-53216589D01*
X31222599Y-53232599D01*
X31057852Y-53479161D01*
X31000000Y-53770000D01*
X31057852Y-54060839D01*
X31222599Y-54307401D01*
X31377767Y-54411080D01*
X31340729Y-54466511D01*
X31226655Y-55040000D01*
X31340729Y-55613489D01*
X31665585Y-56099670D01*
X31980366Y-56310000D01*
X31665585Y-56520330D01*
X31340729Y-57006511D01*
X31226655Y-57580000D01*
X31302334Y-57960464D01*
X30399799Y-58862999D01*
X30353000Y-58933039D01*
X30353000Y-34914510D01*
X30707376Y-34985000D01*
X31312624Y-34985000D01*
X31746970Y-34898603D01*
X32115190Y-34652566D01*
X32361227Y-34284346D01*
X32447624Y-33850000D01*
X32361227Y-33415654D01*
X32115190Y-33047434D01*
X31746970Y-32801397D01*
X31312624Y-32715000D01*
X30707376Y-32715000D01*
X30353000Y-32785490D01*
X30353000Y-32675315D01*
X32600000Y-32675315D01*
X32600000Y-33024685D01*
X32684494Y-33449464D01*
X32925111Y-33809574D01*
X33285221Y-34050191D01*
X33710000Y-34134685D01*
X34134779Y-34050191D01*
X34494889Y-33809574D01*
X34735506Y-33449464D01*
X34820000Y-33024685D01*
X34820000Y-32675315D01*
X34735506Y-32250536D01*
X34494889Y-31890426D01*
X34134779Y-31649809D01*
X33710000Y-31565315D01*
X33285221Y-31649809D01*
X32925111Y-31890426D01*
X32684494Y-32250536D01*
X32600000Y-32675315D01*
X30353000Y-32675315D01*
X30353000Y-30135167D01*
X40824838Y-30135167D01*
X40966883Y-30478943D01*
X41229673Y-30742192D01*
X41573201Y-30884838D01*
X41620077Y-30884879D01*
X42250000Y-31514802D01*
X42250000Y-35270301D01*
X41996799Y-35165162D01*
X41624833Y-35164838D01*
X41281057Y-35306883D01*
X41017808Y-35569673D01*
X40875162Y-35913201D01*
X40874838Y-36285167D01*
X41016883Y-36628943D01*
X41279673Y-36892192D01*
X41500000Y-36983680D01*
X41500000Y-40887537D01*
X41467808Y-40919673D01*
X41325162Y-41263201D01*
X41324838Y-41635167D01*
X41466883Y-41978943D01*
X41729673Y-42242192D01*
X42073201Y-42384838D01*
X42445167Y-42385162D01*
X42788943Y-42243117D01*
X43052192Y-41980327D01*
X43194838Y-41636799D01*
X43194839Y-41635162D01*
X43195167Y-41635162D01*
X43538943Y-41493117D01*
X43802192Y-41230327D01*
X43944838Y-40886799D01*
X43945162Y-40514833D01*
X43803117Y-40171057D01*
X43770000Y-40137882D01*
X43770000Y-31200000D01*
X43712148Y-30909161D01*
X43547401Y-30662599D01*
X42695122Y-29810320D01*
X42695162Y-29764833D01*
X42553117Y-29421057D01*
X42290327Y-29157808D01*
X41946799Y-29015162D01*
X41574833Y-29014838D01*
X41231057Y-29156883D01*
X40967808Y-29419673D01*
X40825162Y-29763201D01*
X40824838Y-30135167D01*
X30353000Y-30135167D01*
X30353000Y-27914510D01*
X30707376Y-27985000D01*
X31312624Y-27985000D01*
X31746970Y-27898603D01*
X32081143Y-27675315D01*
X32600000Y-27675315D01*
X32600000Y-28024685D01*
X32684494Y-28449464D01*
X32925111Y-28809574D01*
X33285221Y-29050191D01*
X33710000Y-29134685D01*
X34134779Y-29050191D01*
X34494889Y-28809574D01*
X34735506Y-28449464D01*
X34820000Y-28024685D01*
X34820000Y-27675315D01*
X34735506Y-27250536D01*
X34494889Y-26890426D01*
X34134779Y-26649809D01*
X33710000Y-26565315D01*
X33285221Y-26649809D01*
X32925111Y-26890426D01*
X32684494Y-27250536D01*
X32600000Y-27675315D01*
X32081143Y-27675315D01*
X32115190Y-27652566D01*
X32361227Y-27284346D01*
X32447624Y-26850000D01*
X32361227Y-26415654D01*
X32115190Y-26047434D01*
X31746970Y-25801397D01*
X31312624Y-25715000D01*
X30707376Y-25715000D01*
X30353000Y-25785490D01*
X30353000Y-21442619D01*
X32764613Y-21442619D01*
X33104155Y-22264372D01*
X33732321Y-22893636D01*
X34553481Y-23234611D01*
X35442619Y-23235387D01*
X36264372Y-22895845D01*
X36893636Y-22267679D01*
X37234611Y-21446519D01*
X37235387Y-20557381D01*
X37176662Y-20415255D01*
X47071400Y-20415255D01*
X47071400Y-20784745D01*
X47185474Y-21358234D01*
X47510330Y-21844415D01*
X47996511Y-22169271D01*
X48570000Y-22283345D01*
X49143489Y-22169271D01*
X49629670Y-21844415D01*
X49840000Y-21529634D01*
X50050330Y-21844415D01*
X50536511Y-22169271D01*
X51110000Y-22283345D01*
X51683489Y-22169271D01*
X52169670Y-21844415D01*
X52380000Y-21529634D01*
X52590330Y-21844415D01*
X53076511Y-22169271D01*
X53650000Y-22283345D01*
X54223489Y-22169271D01*
X54709670Y-21844415D01*
X54920000Y-21529634D01*
X55130330Y-21844415D01*
X55616511Y-22169271D01*
X56190000Y-22283345D01*
X56763489Y-22169271D01*
X57249670Y-21844415D01*
X57460000Y-21529634D01*
X57670330Y-21844415D01*
X58156511Y-22169271D01*
X58730000Y-22283345D01*
X59303489Y-22169271D01*
X59789670Y-21844415D01*
X60000000Y-21529634D01*
X60210330Y-21844415D01*
X60696511Y-22169271D01*
X61270000Y-22283345D01*
X61843489Y-22169271D01*
X62329670Y-21844415D01*
X62339243Y-21830087D01*
X62343238Y-21851317D01*
X62482310Y-22067441D01*
X62694510Y-22212431D01*
X62946400Y-22263440D01*
X64673600Y-22263440D01*
X64908917Y-22219162D01*
X65125041Y-22080090D01*
X65270031Y-21867890D01*
X65321040Y-21616000D01*
X65321040Y-20832944D01*
X69914025Y-20832944D01*
X70113615Y-21314818D01*
X70551621Y-21787188D01*
X71137054Y-22055983D01*
X71393000Y-21937367D01*
X71393000Y-20577000D01*
X70033164Y-20577000D01*
X69914025Y-20832944D01*
X65321040Y-20832944D01*
X65321040Y-20067056D01*
X69914025Y-20067056D01*
X70033164Y-20323000D01*
X71393000Y-20323000D01*
X71393000Y-18962633D01*
X71647000Y-18962633D01*
X71647000Y-20323000D01*
X71667000Y-20323000D01*
X71667000Y-20577000D01*
X71647000Y-20577000D01*
X71647000Y-21937367D01*
X71902946Y-22055983D01*
X72488379Y-21787188D01*
X72492934Y-21782276D01*
X72579910Y-21917441D01*
X72792110Y-22062431D01*
X73044000Y-22113440D01*
X75076000Y-22113440D01*
X75311317Y-22069162D01*
X75527441Y-21930090D01*
X75672431Y-21717890D01*
X75723440Y-21466000D01*
X75723440Y-19450000D01*
X78162560Y-19450000D01*
X78162560Y-21150000D01*
X78206838Y-21385317D01*
X78345910Y-21601441D01*
X78558110Y-21746431D01*
X78810000Y-21797440D01*
X80510000Y-21797440D01*
X80745317Y-21753162D01*
X80961441Y-21614090D01*
X81106431Y-21401890D01*
X81157440Y-21150000D01*
X81157440Y-19450000D01*
X81113162Y-19214683D01*
X80974090Y-18998559D01*
X80761890Y-18853569D01*
X80510000Y-18802560D01*
X78810000Y-18802560D01*
X78574683Y-18846838D01*
X78358559Y-18985910D01*
X78213569Y-19198110D01*
X78162560Y-19450000D01*
X75723440Y-19450000D01*
X75723440Y-19434000D01*
X75679162Y-19198683D01*
X75540090Y-18982559D01*
X75327890Y-18837569D01*
X75076000Y-18786560D01*
X73044000Y-18786560D01*
X72808683Y-18830838D01*
X72592559Y-18969910D01*
X72492144Y-19116872D01*
X72488379Y-19112812D01*
X71902946Y-18844017D01*
X71647000Y-18962633D01*
X71393000Y-18962633D01*
X71137054Y-18844017D01*
X70551621Y-19112812D01*
X70113615Y-19585182D01*
X69914025Y-20067056D01*
X65321040Y-20067056D01*
X65321040Y-19584000D01*
X65276762Y-19348683D01*
X65137690Y-19132559D01*
X64925490Y-18987569D01*
X64673600Y-18936560D01*
X62946400Y-18936560D01*
X62711083Y-18980838D01*
X62494959Y-19119910D01*
X62349969Y-19332110D01*
X62341600Y-19373439D01*
X62329670Y-19355585D01*
X61843489Y-19030729D01*
X61270000Y-18916655D01*
X60696511Y-19030729D01*
X60210330Y-19355585D01*
X60000000Y-19670366D01*
X59789670Y-19355585D01*
X59303489Y-19030729D01*
X58730000Y-18916655D01*
X58156511Y-19030729D01*
X57670330Y-19355585D01*
X57460000Y-19670366D01*
X57249670Y-19355585D01*
X56763489Y-19030729D01*
X56190000Y-18916655D01*
X55616511Y-19030729D01*
X55130330Y-19355585D01*
X54920000Y-19670366D01*
X54709670Y-19355585D01*
X54223489Y-19030729D01*
X53650000Y-18916655D01*
X53076511Y-19030729D01*
X52590330Y-19355585D01*
X52380000Y-19670366D01*
X52169670Y-19355585D01*
X51683489Y-19030729D01*
X51110000Y-18916655D01*
X50536511Y-19030729D01*
X50050330Y-19355585D01*
X49840000Y-19670366D01*
X49629670Y-19355585D01*
X49143489Y-19030729D01*
X48570000Y-18916655D01*
X47996511Y-19030729D01*
X47510330Y-19355585D01*
X47185474Y-19841766D01*
X47071400Y-20415255D01*
X37176662Y-20415255D01*
X36895845Y-19735628D01*
X36267679Y-19106364D01*
X35446519Y-18765389D01*
X34557381Y-18764613D01*
X33735628Y-19104155D01*
X33106364Y-19732321D01*
X32765389Y-20553481D01*
X32764613Y-21442619D01*
X30353000Y-21442619D01*
X30353000Y-18060000D01*
X100965000Y-18060000D01*
X100965000Y-116640000D01*
M02*
