G04 #@! TF.FileFunction,Legend,Top*
%FSLAX46Y46*%
G04 Gerber Fmt 4.6, Leading zero omitted, Abs format (unit mm)*
G04 Created by KiCad (PCBNEW 4.0.5) date 05/01/17 10:10:01*
%MOMM*%
%LPD*%
G01*
G04 APERTURE LIST*
%ADD10C,0.100000*%
%ADD11C,0.150000*%
%ADD12C,0.300000*%
%ADD13C,1.500000*%
%ADD14C,0.120000*%
G04 APERTURE END LIST*
D10*
D11*
X63188571Y-32550000D02*
X63188571Y-32216666D01*
X63712381Y-32073809D02*
X63712381Y-32550000D01*
X62712381Y-32550000D01*
X62712381Y-32073809D01*
X62712381Y-31740476D02*
X63712381Y-31073809D01*
X62712381Y-31073809D02*
X63712381Y-31740476D01*
X62712381Y-30835714D02*
X62712381Y-30264285D01*
X63712381Y-30550000D02*
X62712381Y-30550000D01*
X63807619Y-30169047D02*
X63807619Y-29407142D01*
X63664762Y-29216666D02*
X63712381Y-29073809D01*
X63712381Y-28835713D01*
X63664762Y-28740475D01*
X63617143Y-28692856D01*
X63521905Y-28645237D01*
X63426667Y-28645237D01*
X63331429Y-28692856D01*
X63283810Y-28740475D01*
X63236190Y-28835713D01*
X63188571Y-29026190D01*
X63140952Y-29121428D01*
X63093333Y-29169047D01*
X62998095Y-29216666D01*
X62902857Y-29216666D01*
X62807619Y-29169047D01*
X62760000Y-29121428D01*
X62712381Y-29026190D01*
X62712381Y-28788094D01*
X62760000Y-28645237D01*
X62712381Y-28311904D02*
X63712381Y-28073809D01*
X62998095Y-27883332D01*
X63712381Y-27692856D01*
X62712381Y-27454761D01*
D12*
X67974286Y-110378571D02*
X68474286Y-111878571D01*
X68974286Y-110378571D01*
X70117143Y-111807143D02*
X69974286Y-111878571D01*
X69688572Y-111878571D01*
X69545714Y-111807143D01*
X69474286Y-111735714D01*
X69402857Y-111592857D01*
X69402857Y-111164286D01*
X69474286Y-111021429D01*
X69545714Y-110950000D01*
X69688572Y-110878571D01*
X69974286Y-110878571D01*
X70117143Y-110950000D01*
X71402857Y-111807143D02*
X71260000Y-111878571D01*
X70974286Y-111878571D01*
X70831428Y-111807143D01*
X70760000Y-111735714D01*
X70688571Y-111592857D01*
X70688571Y-111164286D01*
X70760000Y-111021429D01*
X70831428Y-110950000D01*
X70974286Y-110878571D01*
X71260000Y-110878571D01*
X71402857Y-110950000D01*
X75467143Y-110400000D02*
X75324286Y-110328571D01*
X75110000Y-110328571D01*
X74895715Y-110400000D01*
X74752857Y-110542857D01*
X74681429Y-110685714D01*
X74610000Y-110971429D01*
X74610000Y-111185714D01*
X74681429Y-111471429D01*
X74752857Y-111614286D01*
X74895715Y-111757143D01*
X75110000Y-111828571D01*
X75252857Y-111828571D01*
X75467143Y-111757143D01*
X75538572Y-111685714D01*
X75538572Y-111185714D01*
X75252857Y-111185714D01*
X76181429Y-111828571D02*
X76181429Y-110328571D01*
X77038572Y-111828571D01*
X77038572Y-110328571D01*
X77752858Y-111828571D02*
X77752858Y-110328571D01*
X78110001Y-110328571D01*
X78324286Y-110400000D01*
X78467144Y-110542857D01*
X78538572Y-110685714D01*
X78610001Y-110971429D01*
X78610001Y-111185714D01*
X78538572Y-111471429D01*
X78467144Y-111614286D01*
X78324286Y-111757143D01*
X78110001Y-111828571D01*
X77752858Y-111828571D01*
X89888571Y-100871428D02*
X88388571Y-100871428D01*
X88388571Y-100514285D01*
X88460000Y-100300000D01*
X88602857Y-100157142D01*
X88745714Y-100085714D01*
X89031429Y-100014285D01*
X89245714Y-100014285D01*
X89531429Y-100085714D01*
X89674286Y-100157142D01*
X89817143Y-100300000D01*
X89888571Y-100514285D01*
X89888571Y-100871428D01*
X89888571Y-98585714D02*
X89888571Y-99442857D01*
X89888571Y-99014285D02*
X88388571Y-99014285D01*
X88602857Y-99157142D01*
X88745714Y-99300000D01*
X88817143Y-99442857D01*
X88531429Y-98014286D02*
X88460000Y-97942857D01*
X88388571Y-97800000D01*
X88388571Y-97442857D01*
X88460000Y-97300000D01*
X88531429Y-97228571D01*
X88674286Y-97157143D01*
X88817143Y-97157143D01*
X89031429Y-97228571D01*
X89888571Y-98085714D01*
X89888571Y-97157143D01*
X89988571Y-80771428D02*
X88488571Y-80771428D01*
X88488571Y-80414285D01*
X88560000Y-80200000D01*
X88702857Y-80057142D01*
X88845714Y-79985714D01*
X89131429Y-79914285D01*
X89345714Y-79914285D01*
X89631429Y-79985714D01*
X89774286Y-80057142D01*
X89917143Y-80200000D01*
X89988571Y-80414285D01*
X89988571Y-80771428D01*
X89988571Y-78485714D02*
X89988571Y-79342857D01*
X89988571Y-78914285D02*
X88488571Y-78914285D01*
X88702857Y-79057142D01*
X88845714Y-79200000D01*
X88917143Y-79342857D01*
X89988571Y-77057143D02*
X89988571Y-77914286D01*
X89988571Y-77485714D02*
X88488571Y-77485714D01*
X88702857Y-77628571D01*
X88845714Y-77771429D01*
X88917143Y-77914286D01*
X90138571Y-60421428D02*
X88638571Y-60421428D01*
X88638571Y-60064285D01*
X88710000Y-59850000D01*
X88852857Y-59707142D01*
X88995714Y-59635714D01*
X89281429Y-59564285D01*
X89495714Y-59564285D01*
X89781429Y-59635714D01*
X89924286Y-59707142D01*
X90067143Y-59850000D01*
X90138571Y-60064285D01*
X90138571Y-60421428D01*
X90138571Y-58135714D02*
X90138571Y-58992857D01*
X90138571Y-58564285D02*
X88638571Y-58564285D01*
X88852857Y-58707142D01*
X88995714Y-58850000D01*
X89067143Y-58992857D01*
X88638571Y-57207143D02*
X88638571Y-57064286D01*
X88710000Y-56921429D01*
X88781429Y-56850000D01*
X88924286Y-56778571D01*
X89210000Y-56707143D01*
X89567143Y-56707143D01*
X89852857Y-56778571D01*
X89995714Y-56850000D01*
X90067143Y-56921429D01*
X90138571Y-57064286D01*
X90138571Y-57207143D01*
X90067143Y-57350000D01*
X89995714Y-57421429D01*
X89852857Y-57492857D01*
X89567143Y-57564286D01*
X89210000Y-57564286D01*
X88924286Y-57492857D01*
X88781429Y-57421429D01*
X88710000Y-57350000D01*
X88638571Y-57207143D01*
X90238571Y-39857142D02*
X88738571Y-39857142D01*
X88738571Y-39499999D01*
X88810000Y-39285714D01*
X88952857Y-39142856D01*
X89095714Y-39071428D01*
X89381429Y-38999999D01*
X89595714Y-38999999D01*
X89881429Y-39071428D01*
X90024286Y-39142856D01*
X90167143Y-39285714D01*
X90238571Y-39499999D01*
X90238571Y-39857142D01*
X90238571Y-38285714D02*
X90238571Y-37999999D01*
X90167143Y-37857142D01*
X90095714Y-37785714D01*
X89881429Y-37642856D01*
X89595714Y-37571428D01*
X89024286Y-37571428D01*
X88881429Y-37642856D01*
X88810000Y-37714285D01*
X88738571Y-37857142D01*
X88738571Y-38142856D01*
X88810000Y-38285714D01*
X88881429Y-38357142D01*
X89024286Y-38428571D01*
X89381429Y-38428571D01*
X89524286Y-38357142D01*
X89595714Y-38285714D01*
X89667143Y-38142856D01*
X89667143Y-37857142D01*
X89595714Y-37714285D01*
X89524286Y-37642856D01*
X89381429Y-37571428D01*
D11*
X85390677Y-18848914D02*
X84628772Y-19134629D01*
X85390677Y-19420343D01*
X85866867Y-19134629D02*
X86628772Y-19134629D01*
X87104962Y-19134629D02*
X87866867Y-19134629D01*
X89104962Y-18991771D02*
X89438296Y-18991771D01*
X89581153Y-19515581D02*
X89104962Y-19515581D01*
X89104962Y-18515581D01*
X89581153Y-18515581D01*
X89914486Y-18515581D02*
X90581153Y-19515581D01*
X90581153Y-18515581D02*
X89914486Y-19515581D01*
X90819248Y-18515581D02*
X91390677Y-18515581D01*
X91104962Y-19515581D02*
X91104962Y-18515581D01*
X91724010Y-19420343D02*
X91771629Y-19467962D01*
X91724010Y-19515581D01*
X91676391Y-19467962D01*
X91724010Y-19420343D01*
X91724010Y-19515581D01*
X92914486Y-19467962D02*
X93057343Y-19515581D01*
X93295439Y-19515581D01*
X93390677Y-19467962D01*
X93438296Y-19420343D01*
X93485915Y-19325105D01*
X93485915Y-19229867D01*
X93438296Y-19134629D01*
X93390677Y-19087010D01*
X93295439Y-19039390D01*
X93104962Y-18991771D01*
X93009724Y-18944152D01*
X92962105Y-18896533D01*
X92914486Y-18801295D01*
X92914486Y-18706057D01*
X92962105Y-18610819D01*
X93009724Y-18563200D01*
X93104962Y-18515581D01*
X93343058Y-18515581D01*
X93485915Y-18563200D01*
X93819248Y-18515581D02*
X94057343Y-19515581D01*
X94247820Y-18801295D01*
X94438296Y-19515581D01*
X94676391Y-18515581D01*
X95057343Y-19515581D02*
X95057343Y-18515581D01*
X95390676Y-18515581D02*
X95962105Y-18515581D01*
X95676390Y-19515581D02*
X95676390Y-18515581D01*
X96866867Y-19420343D02*
X96819248Y-19467962D01*
X96676391Y-19515581D01*
X96581153Y-19515581D01*
X96438295Y-19467962D01*
X96343057Y-19372724D01*
X96295438Y-19277486D01*
X96247819Y-19087010D01*
X96247819Y-18944152D01*
X96295438Y-18753676D01*
X96343057Y-18658438D01*
X96438295Y-18563200D01*
X96581153Y-18515581D01*
X96676391Y-18515581D01*
X96819248Y-18563200D01*
X96866867Y-18610819D01*
X97295438Y-19515581D02*
X97295438Y-18515581D01*
X97295438Y-18991771D02*
X97866867Y-18991771D01*
X97866867Y-19515581D02*
X97866867Y-18515581D01*
X99104962Y-19515581D02*
X99104962Y-18515581D01*
X99581152Y-19515581D02*
X99581152Y-18515581D01*
X100152581Y-19515581D01*
X100152581Y-18515581D01*
X100628771Y-19515581D02*
X100628771Y-18515581D01*
X101009724Y-18515581D01*
X101104962Y-18563200D01*
X101152581Y-18610819D01*
X101200200Y-18706057D01*
X101200200Y-18848914D01*
X101152581Y-18944152D01*
X101104962Y-18991771D01*
X101009724Y-19039390D01*
X100628771Y-19039390D01*
X101628771Y-18515581D02*
X101628771Y-19325105D01*
X101676390Y-19420343D01*
X101724009Y-19467962D01*
X101819247Y-19515581D01*
X102009724Y-19515581D01*
X102104962Y-19467962D01*
X102152581Y-19420343D01*
X102200200Y-19325105D01*
X102200200Y-18515581D01*
X102533533Y-18515581D02*
X103104962Y-18515581D01*
X102819247Y-19515581D02*
X102819247Y-18515581D01*
X88057342Y-21546533D02*
X88009722Y-21498914D01*
X87914484Y-21356057D01*
X87866865Y-21260819D01*
X87819246Y-21117962D01*
X87771627Y-20879867D01*
X87771627Y-20689390D01*
X87819246Y-20451295D01*
X87866865Y-20308438D01*
X87914484Y-20213200D01*
X88009722Y-20070343D01*
X88057342Y-20022724D01*
X88438294Y-21165581D02*
X88438294Y-20165581D01*
X88819247Y-20165581D01*
X88914485Y-20213200D01*
X88962104Y-20260819D01*
X89009723Y-20356057D01*
X89009723Y-20498914D01*
X88962104Y-20594152D01*
X88914485Y-20641771D01*
X88819247Y-20689390D01*
X88438294Y-20689390D01*
X89962104Y-21165581D02*
X89390675Y-21165581D01*
X89676389Y-21165581D02*
X89676389Y-20165581D01*
X89581151Y-20308438D01*
X89485913Y-20403676D01*
X89390675Y-20451295D01*
X90343056Y-20260819D02*
X90390675Y-20213200D01*
X90485913Y-20165581D01*
X90724009Y-20165581D01*
X90819247Y-20213200D01*
X90866866Y-20260819D01*
X90914485Y-20356057D01*
X90914485Y-20451295D01*
X90866866Y-20594152D01*
X90295437Y-21165581D01*
X90914485Y-21165581D01*
X92104961Y-21165581D02*
X92104961Y-20165581D01*
X92533532Y-21117962D02*
X92676389Y-21165581D01*
X92914485Y-21165581D01*
X93009723Y-21117962D01*
X93057342Y-21070343D01*
X93104961Y-20975105D01*
X93104961Y-20879867D01*
X93057342Y-20784629D01*
X93009723Y-20737010D01*
X92914485Y-20689390D01*
X92724008Y-20641771D01*
X92628770Y-20594152D01*
X92581151Y-20546533D01*
X92533532Y-20451295D01*
X92533532Y-20356057D01*
X92581151Y-20260819D01*
X92628770Y-20213200D01*
X92724008Y-20165581D01*
X92962104Y-20165581D01*
X93104961Y-20213200D01*
X94152580Y-20165581D02*
X94724009Y-20165581D01*
X94438294Y-21165581D02*
X94438294Y-20165581D01*
X95057342Y-20641771D02*
X95390676Y-20641771D01*
X95533533Y-21165581D02*
X95057342Y-21165581D01*
X95057342Y-20165581D01*
X95533533Y-20165581D01*
X95914485Y-21117962D02*
X96057342Y-21165581D01*
X96295438Y-21165581D01*
X96390676Y-21117962D01*
X96438295Y-21070343D01*
X96485914Y-20975105D01*
X96485914Y-20879867D01*
X96438295Y-20784629D01*
X96390676Y-20737010D01*
X96295438Y-20689390D01*
X96104961Y-20641771D01*
X96009723Y-20594152D01*
X95962104Y-20546533D01*
X95914485Y-20451295D01*
X95914485Y-20356057D01*
X95962104Y-20260819D01*
X96009723Y-20213200D01*
X96104961Y-20165581D01*
X96343057Y-20165581D01*
X96485914Y-20213200D01*
X96771628Y-20165581D02*
X97343057Y-20165581D01*
X97057342Y-21165581D02*
X97057342Y-20165581D01*
X98438295Y-21165581D02*
X98438295Y-20165581D01*
X98819248Y-20165581D01*
X98914486Y-20213200D01*
X98962105Y-20260819D01*
X99009724Y-20356057D01*
X99009724Y-20498914D01*
X98962105Y-20594152D01*
X98914486Y-20641771D01*
X98819248Y-20689390D01*
X98438295Y-20689390D01*
X99628771Y-20165581D02*
X99819248Y-20165581D01*
X99914486Y-20213200D01*
X100009724Y-20308438D01*
X100057343Y-20498914D01*
X100057343Y-20832248D01*
X100009724Y-21022724D01*
X99914486Y-21117962D01*
X99819248Y-21165581D01*
X99628771Y-21165581D01*
X99533533Y-21117962D01*
X99438295Y-21022724D01*
X99390676Y-20832248D01*
X99390676Y-20498914D01*
X99438295Y-20308438D01*
X99533533Y-20213200D01*
X99628771Y-20165581D01*
X100485914Y-21165581D02*
X100485914Y-20165581D01*
X100962104Y-21165581D02*
X100962104Y-20165581D01*
X101533533Y-21165581D01*
X101533533Y-20165581D01*
X101866866Y-20165581D02*
X102438295Y-20165581D01*
X102152580Y-21165581D02*
X102152580Y-20165581D01*
X102676390Y-21546533D02*
X102724009Y-21498914D01*
X102819247Y-21356057D01*
X102866866Y-21260819D01*
X102914485Y-21117962D01*
X102962104Y-20879867D01*
X102962104Y-20689390D01*
X102914485Y-20451295D01*
X102866866Y-20308438D01*
X102819247Y-20213200D01*
X102724009Y-20070343D01*
X102676390Y-20022724D01*
X59177066Y-106411781D02*
X59748495Y-106411781D01*
X59462780Y-107411781D02*
X59462780Y-106411781D01*
X60081828Y-107411781D02*
X60081828Y-106411781D01*
X60510400Y-107411781D02*
X60510400Y-106887971D01*
X60462781Y-106792733D01*
X60367543Y-106745114D01*
X60224685Y-106745114D01*
X60129447Y-106792733D01*
X60081828Y-106840352D01*
X60986590Y-107411781D02*
X60986590Y-106745114D01*
X60986590Y-106411781D02*
X60938971Y-106459400D01*
X60986590Y-106507019D01*
X61034209Y-106459400D01*
X60986590Y-106411781D01*
X60986590Y-106507019D01*
X61415161Y-107364162D02*
X61510399Y-107411781D01*
X61700875Y-107411781D01*
X61796114Y-107364162D01*
X61843733Y-107268924D01*
X61843733Y-107221305D01*
X61796114Y-107126067D01*
X61700875Y-107078448D01*
X61558018Y-107078448D01*
X61462780Y-107030829D01*
X61415161Y-106935590D01*
X61415161Y-106887971D01*
X61462780Y-106792733D01*
X61558018Y-106745114D01*
X61700875Y-106745114D01*
X61796114Y-106792733D01*
X62938971Y-106745114D02*
X63129447Y-107411781D01*
X63319924Y-106935590D01*
X63510400Y-107411781D01*
X63700876Y-106745114D01*
X64510400Y-107411781D02*
X64510400Y-106887971D01*
X64462781Y-106792733D01*
X64367543Y-106745114D01*
X64177066Y-106745114D01*
X64081828Y-106792733D01*
X64510400Y-107364162D02*
X64415162Y-107411781D01*
X64177066Y-107411781D01*
X64081828Y-107364162D01*
X64034209Y-107268924D01*
X64034209Y-107173686D01*
X64081828Y-107078448D01*
X64177066Y-107030829D01*
X64415162Y-107030829D01*
X64510400Y-106983210D01*
X64891352Y-106745114D02*
X65129447Y-107411781D01*
X65367543Y-106745114D02*
X65129447Y-107411781D01*
X65034209Y-107649876D01*
X64986590Y-107697495D01*
X64891352Y-107745114D01*
X66653257Y-107411781D02*
X66558019Y-107364162D01*
X66510400Y-107268924D01*
X66510400Y-106411781D01*
X67034210Y-107411781D02*
X67034210Y-106745114D01*
X67034210Y-106411781D02*
X66986591Y-106459400D01*
X67034210Y-106507019D01*
X67081829Y-106459400D01*
X67034210Y-106411781D01*
X67034210Y-106507019D01*
X67891353Y-107364162D02*
X67796115Y-107411781D01*
X67605638Y-107411781D01*
X67510400Y-107364162D01*
X67462781Y-107268924D01*
X67462781Y-106887971D01*
X67510400Y-106792733D01*
X67605638Y-106745114D01*
X67796115Y-106745114D01*
X67891353Y-106792733D01*
X67938972Y-106887971D01*
X67938972Y-106983210D01*
X67462781Y-107078448D01*
X68319924Y-107364162D02*
X68415162Y-107411781D01*
X68605638Y-107411781D01*
X68700877Y-107364162D01*
X68748496Y-107268924D01*
X68748496Y-107221305D01*
X68700877Y-107126067D01*
X68605638Y-107078448D01*
X68462781Y-107078448D01*
X68367543Y-107030829D01*
X68319924Y-106935590D01*
X68319924Y-106887971D01*
X68367543Y-106792733D01*
X68462781Y-106745114D01*
X68605638Y-106745114D01*
X68700877Y-106792733D01*
X69938972Y-107411781D02*
X69938972Y-106745114D01*
X69938972Y-106840352D02*
X69986591Y-106792733D01*
X70081829Y-106745114D01*
X70224687Y-106745114D01*
X70319925Y-106792733D01*
X70367544Y-106887971D01*
X70367544Y-107411781D01*
X70367544Y-106887971D02*
X70415163Y-106792733D01*
X70510401Y-106745114D01*
X70653258Y-106745114D01*
X70748496Y-106792733D01*
X70796115Y-106887971D01*
X70796115Y-107411781D01*
X71700877Y-107411781D02*
X71700877Y-106887971D01*
X71653258Y-106792733D01*
X71558020Y-106745114D01*
X71367543Y-106745114D01*
X71272305Y-106792733D01*
X71700877Y-107364162D02*
X71605639Y-107411781D01*
X71367543Y-107411781D01*
X71272305Y-107364162D01*
X71224686Y-107268924D01*
X71224686Y-107173686D01*
X71272305Y-107078448D01*
X71367543Y-107030829D01*
X71605639Y-107030829D01*
X71700877Y-106983210D01*
X72605639Y-107411781D02*
X72605639Y-106411781D01*
X72605639Y-107364162D02*
X72510401Y-107411781D01*
X72319924Y-107411781D01*
X72224686Y-107364162D01*
X72177067Y-107316543D01*
X72129448Y-107221305D01*
X72129448Y-106935590D01*
X72177067Y-106840352D01*
X72224686Y-106792733D01*
X72319924Y-106745114D01*
X72510401Y-106745114D01*
X72605639Y-106792733D01*
X73081829Y-106745114D02*
X73081829Y-107411781D01*
X73081829Y-106840352D02*
X73129448Y-106792733D01*
X73224686Y-106745114D01*
X73367544Y-106745114D01*
X73462782Y-106792733D01*
X73510401Y-106887971D01*
X73510401Y-107411781D01*
X74367544Y-107364162D02*
X74272306Y-107411781D01*
X74081829Y-107411781D01*
X73986591Y-107364162D01*
X73938972Y-107268924D01*
X73938972Y-106887971D01*
X73986591Y-106792733D01*
X74081829Y-106745114D01*
X74272306Y-106745114D01*
X74367544Y-106792733D01*
X74415163Y-106887971D01*
X74415163Y-106983210D01*
X73938972Y-107078448D01*
X74796115Y-107364162D02*
X74891353Y-107411781D01*
X75081829Y-107411781D01*
X75177068Y-107364162D01*
X75224687Y-107268924D01*
X75224687Y-107221305D01*
X75177068Y-107126067D01*
X75081829Y-107078448D01*
X74938972Y-107078448D01*
X74843734Y-107030829D01*
X74796115Y-106935590D01*
X74796115Y-106887971D01*
X74843734Y-106792733D01*
X74938972Y-106745114D01*
X75081829Y-106745114D01*
X75177068Y-106792733D01*
X75605639Y-107364162D02*
X75700877Y-107411781D01*
X75891353Y-107411781D01*
X75986592Y-107364162D01*
X76034211Y-107268924D01*
X76034211Y-107221305D01*
X75986592Y-107126067D01*
X75891353Y-107078448D01*
X75748496Y-107078448D01*
X75653258Y-107030829D01*
X75605639Y-106935590D01*
X75605639Y-106887971D01*
X75653258Y-106792733D01*
X75748496Y-106745114D01*
X75891353Y-106745114D01*
X75986592Y-106792733D01*
X77224687Y-107030829D02*
X77986592Y-107030829D01*
X78462782Y-107030829D02*
X79224687Y-107030829D01*
X79700877Y-106745114D02*
X80462782Y-107030829D01*
X79700877Y-107316543D01*
X80938972Y-106745114D02*
X81700877Y-107030829D01*
X80938972Y-107316543D01*
X37707619Y-111740476D02*
X37707619Y-110490476D01*
X38005238Y-110490476D01*
X38183810Y-110550000D01*
X38302857Y-110669048D01*
X38362381Y-110788095D01*
X38421905Y-111026190D01*
X38421905Y-111204762D01*
X38362381Y-111442857D01*
X38302857Y-111561905D01*
X38183810Y-111680952D01*
X38005238Y-111740476D01*
X37707619Y-111740476D01*
X38957619Y-111740476D02*
X38957619Y-110907143D01*
X38957619Y-111145238D02*
X39017143Y-111026190D01*
X39076667Y-110966667D01*
X39195714Y-110907143D01*
X39314762Y-110907143D01*
X40207620Y-111680952D02*
X40088572Y-111740476D01*
X39850477Y-111740476D01*
X39731429Y-111680952D01*
X39671905Y-111561905D01*
X39671905Y-111085714D01*
X39731429Y-110966667D01*
X39850477Y-110907143D01*
X40088572Y-110907143D01*
X40207620Y-110966667D01*
X40267143Y-111085714D01*
X40267143Y-111204762D01*
X39671905Y-111323810D01*
X40802858Y-111740476D02*
X40802858Y-110907143D01*
X40802858Y-110490476D02*
X40743334Y-110550000D01*
X40802858Y-110609524D01*
X40862382Y-110550000D01*
X40802858Y-110490476D01*
X40802858Y-110609524D01*
X41933810Y-111740476D02*
X41933810Y-110490476D01*
X41933810Y-111680952D02*
X41814763Y-111740476D01*
X41576667Y-111740476D01*
X41457620Y-111680952D01*
X41398096Y-111621429D01*
X41338572Y-111502381D01*
X41338572Y-111145238D01*
X41398096Y-111026190D01*
X41457620Y-110966667D01*
X41576667Y-110907143D01*
X41814763Y-110907143D01*
X41933810Y-110966667D01*
X43005239Y-111680952D02*
X42886191Y-111740476D01*
X42648096Y-111740476D01*
X42529048Y-111680952D01*
X42469524Y-111561905D01*
X42469524Y-111085714D01*
X42529048Y-110966667D01*
X42648096Y-110907143D01*
X42886191Y-110907143D01*
X43005239Y-110966667D01*
X43064762Y-111085714D01*
X43064762Y-111204762D01*
X42469524Y-111323810D01*
X43779048Y-111740476D02*
X43660001Y-111680952D01*
X43600477Y-111561905D01*
X43600477Y-110490476D01*
X45921906Y-111621429D02*
X45862382Y-111680952D01*
X45683811Y-111740476D01*
X45564763Y-111740476D01*
X45386191Y-111680952D01*
X45267144Y-111561905D01*
X45207620Y-111442857D01*
X45148096Y-111204762D01*
X45148096Y-111026190D01*
X45207620Y-110788095D01*
X45267144Y-110669048D01*
X45386191Y-110550000D01*
X45564763Y-110490476D01*
X45683811Y-110490476D01*
X45862382Y-110550000D01*
X45921906Y-110609524D01*
X46636191Y-111740476D02*
X46517144Y-111680952D01*
X46457620Y-111621429D01*
X46398096Y-111502381D01*
X46398096Y-111145238D01*
X46457620Y-111026190D01*
X46517144Y-110966667D01*
X46636191Y-110907143D01*
X46814763Y-110907143D01*
X46933811Y-110966667D01*
X46993334Y-111026190D01*
X47052858Y-111145238D01*
X47052858Y-111502381D01*
X46993334Y-111621429D01*
X46933811Y-111680952D01*
X46814763Y-111740476D01*
X46636191Y-111740476D01*
X47588572Y-110907143D02*
X47588572Y-111740476D01*
X47588572Y-111026190D02*
X47648096Y-110966667D01*
X47767143Y-110907143D01*
X47945715Y-110907143D01*
X48064763Y-110966667D01*
X48124286Y-111085714D01*
X48124286Y-111740476D01*
X48540953Y-110907143D02*
X49017143Y-110907143D01*
X48719524Y-110490476D02*
X48719524Y-111561905D01*
X48779048Y-111680952D01*
X48898095Y-111740476D01*
X49017143Y-111740476D01*
X49433810Y-111740476D02*
X49433810Y-110907143D01*
X49433810Y-111145238D02*
X49493334Y-111026190D01*
X49552858Y-110966667D01*
X49671905Y-110907143D01*
X49790953Y-110907143D01*
X50386191Y-111740476D02*
X50267144Y-111680952D01*
X50207620Y-111621429D01*
X50148096Y-111502381D01*
X50148096Y-111145238D01*
X50207620Y-111026190D01*
X50267144Y-110966667D01*
X50386191Y-110907143D01*
X50564763Y-110907143D01*
X50683811Y-110966667D01*
X50743334Y-111026190D01*
X50802858Y-111145238D01*
X50802858Y-111502381D01*
X50743334Y-111621429D01*
X50683811Y-111680952D01*
X50564763Y-111740476D01*
X50386191Y-111740476D01*
X51517143Y-111740476D02*
X51398096Y-111680952D01*
X51338572Y-111561905D01*
X51338572Y-110490476D01*
X52171905Y-111740476D02*
X52052858Y-111680952D01*
X51993334Y-111561905D01*
X51993334Y-110490476D01*
X53124287Y-111680952D02*
X53005239Y-111740476D01*
X52767144Y-111740476D01*
X52648096Y-111680952D01*
X52588572Y-111561905D01*
X52588572Y-111085714D01*
X52648096Y-110966667D01*
X52767144Y-110907143D01*
X53005239Y-110907143D01*
X53124287Y-110966667D01*
X53183810Y-111085714D01*
X53183810Y-111204762D01*
X52588572Y-111323810D01*
X53719525Y-111740476D02*
X53719525Y-110907143D01*
X53719525Y-111145238D02*
X53779049Y-111026190D01*
X53838573Y-110966667D01*
X53957620Y-110907143D01*
X54076668Y-110907143D01*
X55445716Y-111264286D02*
X56398097Y-111264286D01*
X58660002Y-111740476D02*
X58243335Y-111145238D01*
X57945716Y-111740476D02*
X57945716Y-110490476D01*
X58421907Y-110490476D01*
X58540954Y-110550000D01*
X58600478Y-110609524D01*
X58660002Y-110728571D01*
X58660002Y-110907143D01*
X58600478Y-111026190D01*
X58540954Y-111085714D01*
X58421907Y-111145238D01*
X57945716Y-111145238D01*
X59671907Y-111680952D02*
X59552859Y-111740476D01*
X59314764Y-111740476D01*
X59195716Y-111680952D01*
X59136192Y-111561905D01*
X59136192Y-111085714D01*
X59195716Y-110966667D01*
X59314764Y-110907143D01*
X59552859Y-110907143D01*
X59671907Y-110966667D01*
X59731430Y-111085714D01*
X59731430Y-111204762D01*
X59136192Y-111323810D01*
X60267145Y-111740476D02*
X60267145Y-110490476D01*
X60267145Y-110966667D02*
X60386193Y-110907143D01*
X60624288Y-110907143D01*
X60743336Y-110966667D01*
X60802859Y-111026190D01*
X60862383Y-111145238D01*
X60862383Y-111502381D01*
X60802859Y-111621429D01*
X60743336Y-111680952D01*
X60624288Y-111740476D01*
X60386193Y-111740476D01*
X60267145Y-111680952D01*
X61576668Y-111740476D02*
X61457621Y-111680952D01*
X61398097Y-111621429D01*
X61338573Y-111502381D01*
X61338573Y-111145238D01*
X61398097Y-111026190D01*
X61457621Y-110966667D01*
X61576668Y-110907143D01*
X61755240Y-110907143D01*
X61874288Y-110966667D01*
X61933811Y-111026190D01*
X61993335Y-111145238D01*
X61993335Y-111502381D01*
X61933811Y-111621429D01*
X61874288Y-111680952D01*
X61755240Y-111740476D01*
X61576668Y-111740476D01*
X62707620Y-111740476D02*
X62588573Y-111680952D01*
X62529049Y-111621429D01*
X62469525Y-111502381D01*
X62469525Y-111145238D01*
X62529049Y-111026190D01*
X62588573Y-110966667D01*
X62707620Y-110907143D01*
X62886192Y-110907143D01*
X63005240Y-110966667D01*
X63064763Y-111026190D01*
X63124287Y-111145238D01*
X63124287Y-111502381D01*
X63064763Y-111621429D01*
X63005240Y-111680952D01*
X62886192Y-111740476D01*
X62707620Y-111740476D01*
X63481430Y-110907143D02*
X63957620Y-110907143D01*
X63660001Y-110490476D02*
X63660001Y-111561905D01*
X63719525Y-111680952D01*
X63838572Y-111740476D01*
X63957620Y-111740476D01*
X64850478Y-111680952D02*
X64731430Y-111740476D01*
X64493335Y-111740476D01*
X64374287Y-111680952D01*
X64314763Y-111561905D01*
X64314763Y-111085714D01*
X64374287Y-110966667D01*
X64493335Y-110907143D01*
X64731430Y-110907143D01*
X64850478Y-110966667D01*
X64910001Y-111085714D01*
X64910001Y-111204762D01*
X64314763Y-111323810D01*
X65981430Y-111740476D02*
X65981430Y-110490476D01*
X65981430Y-111680952D02*
X65862383Y-111740476D01*
X65624287Y-111740476D01*
X65505240Y-111680952D01*
X65445716Y-111621429D01*
X65386192Y-111502381D01*
X65386192Y-111145238D01*
X65445716Y-111026190D01*
X65505240Y-110966667D01*
X65624287Y-110907143D01*
X65862383Y-110907143D01*
X65981430Y-110966667D01*
X38421905Y-113646429D02*
X38362381Y-113705952D01*
X38183810Y-113765476D01*
X38064762Y-113765476D01*
X37886190Y-113705952D01*
X37767143Y-113586905D01*
X37707619Y-113467857D01*
X37648095Y-113229762D01*
X37648095Y-113051190D01*
X37707619Y-112813095D01*
X37767143Y-112694048D01*
X37886190Y-112575000D01*
X38064762Y-112515476D01*
X38183810Y-112515476D01*
X38362381Y-112575000D01*
X38421905Y-112634524D01*
X38957619Y-113765476D02*
X38957619Y-112515476D01*
X39493333Y-113765476D02*
X39493333Y-113110714D01*
X39433810Y-112991667D01*
X39314762Y-112932143D01*
X39136190Y-112932143D01*
X39017143Y-112991667D01*
X38957619Y-113051190D01*
X40088571Y-113765476D02*
X40088571Y-112932143D01*
X40088571Y-113170238D02*
X40148095Y-113051190D01*
X40207619Y-112991667D01*
X40326666Y-112932143D01*
X40445714Y-112932143D01*
X40862381Y-113765476D02*
X40862381Y-112932143D01*
X40862381Y-112515476D02*
X40802857Y-112575000D01*
X40862381Y-112634524D01*
X40921905Y-112575000D01*
X40862381Y-112515476D01*
X40862381Y-112634524D01*
X41398095Y-113705952D02*
X41517143Y-113765476D01*
X41755238Y-113765476D01*
X41874286Y-113705952D01*
X41933810Y-113586905D01*
X41933810Y-113527381D01*
X41874286Y-113408333D01*
X41755238Y-113348810D01*
X41576667Y-113348810D01*
X41457619Y-113289286D01*
X41398095Y-113170238D01*
X41398095Y-113110714D01*
X41457619Y-112991667D01*
X41576667Y-112932143D01*
X41755238Y-112932143D01*
X41874286Y-112991667D01*
X42290953Y-112932143D02*
X42767143Y-112932143D01*
X42469524Y-112515476D02*
X42469524Y-113586905D01*
X42529048Y-113705952D01*
X42648095Y-113765476D01*
X42767143Y-113765476D01*
X43183810Y-113765476D02*
X43183810Y-112932143D01*
X43183810Y-112515476D02*
X43124286Y-112575000D01*
X43183810Y-112634524D01*
X43243334Y-112575000D01*
X43183810Y-112515476D01*
X43183810Y-112634524D01*
X44314762Y-113765476D02*
X44314762Y-113110714D01*
X44255239Y-112991667D01*
X44136191Y-112932143D01*
X43898096Y-112932143D01*
X43779048Y-112991667D01*
X44314762Y-113705952D02*
X44195715Y-113765476D01*
X43898096Y-113765476D01*
X43779048Y-113705952D01*
X43719524Y-113586905D01*
X43719524Y-113467857D01*
X43779048Y-113348810D01*
X43898096Y-113289286D01*
X44195715Y-113289286D01*
X44314762Y-113229762D01*
X44910000Y-112932143D02*
X44910000Y-113765476D01*
X44910000Y-113051190D02*
X44969524Y-112991667D01*
X45088571Y-112932143D01*
X45267143Y-112932143D01*
X45386191Y-112991667D01*
X45445714Y-113110714D01*
X45445714Y-113765476D01*
X46993333Y-113765476D02*
X46993333Y-112515476D01*
X47410000Y-113408333D01*
X47826666Y-112515476D01*
X47826666Y-113765476D01*
X48421904Y-113646429D02*
X48481428Y-113705952D01*
X48421904Y-113765476D01*
X48362380Y-113705952D01*
X48421904Y-113646429D01*
X48421904Y-113765476D01*
X50683809Y-113765476D02*
X50267142Y-113170238D01*
X49969523Y-113765476D02*
X49969523Y-112515476D01*
X50445714Y-112515476D01*
X50564761Y-112575000D01*
X50624285Y-112634524D01*
X50683809Y-112753571D01*
X50683809Y-112932143D01*
X50624285Y-113051190D01*
X50564761Y-113110714D01*
X50445714Y-113170238D01*
X49969523Y-113170238D01*
X51695714Y-113705952D02*
X51576666Y-113765476D01*
X51338571Y-113765476D01*
X51219523Y-113705952D01*
X51159999Y-113586905D01*
X51159999Y-113110714D01*
X51219523Y-112991667D01*
X51338571Y-112932143D01*
X51576666Y-112932143D01*
X51695714Y-112991667D01*
X51755237Y-113110714D01*
X51755237Y-113229762D01*
X51159999Y-113348810D01*
X52231428Y-113705952D02*
X52350476Y-113765476D01*
X52588571Y-113765476D01*
X52707619Y-113705952D01*
X52767143Y-113586905D01*
X52767143Y-113527381D01*
X52707619Y-113408333D01*
X52588571Y-113348810D01*
X52410000Y-113348810D01*
X52290952Y-113289286D01*
X52231428Y-113170238D01*
X52231428Y-113110714D01*
X52290952Y-112991667D01*
X52410000Y-112932143D01*
X52588571Y-112932143D01*
X52707619Y-112991667D01*
X53124286Y-112932143D02*
X53600476Y-112932143D01*
X53302857Y-112515476D02*
X53302857Y-113586905D01*
X53362381Y-113705952D01*
X53481428Y-113765476D01*
X53600476Y-113765476D01*
X54017143Y-113765476D02*
X54017143Y-112932143D01*
X54017143Y-112515476D02*
X53957619Y-112575000D01*
X54017143Y-112634524D01*
X54076667Y-112575000D01*
X54017143Y-112515476D01*
X54017143Y-112634524D01*
X54433810Y-112932143D02*
X54910000Y-112932143D01*
X54612381Y-113765476D02*
X54612381Y-112694048D01*
X54671905Y-112575000D01*
X54790952Y-112515476D01*
X54910000Y-112515476D01*
X55505238Y-113765476D02*
X55386191Y-113705952D01*
X55326667Y-113646429D01*
X55267143Y-113527381D01*
X55267143Y-113170238D01*
X55326667Y-113051190D01*
X55386191Y-112991667D01*
X55505238Y-112932143D01*
X55683810Y-112932143D01*
X55802858Y-112991667D01*
X55862381Y-113051190D01*
X55921905Y-113170238D01*
X55921905Y-113527381D01*
X55862381Y-113646429D01*
X55802858Y-113705952D01*
X55683810Y-113765476D01*
X55505238Y-113765476D01*
X37707619Y-115790476D02*
X37707619Y-114540476D01*
X38124286Y-115433333D01*
X38540952Y-114540476D01*
X38540952Y-115790476D01*
X39671904Y-115790476D02*
X39671904Y-115135714D01*
X39612381Y-115016667D01*
X39493333Y-114957143D01*
X39255238Y-114957143D01*
X39136190Y-115016667D01*
X39671904Y-115730952D02*
X39552857Y-115790476D01*
X39255238Y-115790476D01*
X39136190Y-115730952D01*
X39076666Y-115611905D01*
X39076666Y-115492857D01*
X39136190Y-115373810D01*
X39255238Y-115314286D01*
X39552857Y-115314286D01*
X39671904Y-115254762D01*
X40267142Y-115790476D02*
X40267142Y-114957143D01*
X40267142Y-115195238D02*
X40326666Y-115076190D01*
X40386190Y-115016667D01*
X40505237Y-114957143D01*
X40624285Y-114957143D01*
X41576666Y-115730952D02*
X41457619Y-115790476D01*
X41219523Y-115790476D01*
X41100476Y-115730952D01*
X41040952Y-115671429D01*
X40981428Y-115552381D01*
X40981428Y-115195238D01*
X41040952Y-115076190D01*
X41100476Y-115016667D01*
X41219523Y-114957143D01*
X41457619Y-114957143D01*
X41576666Y-115016667D01*
X42112381Y-115790476D02*
X42112381Y-114540476D01*
X42648095Y-115790476D02*
X42648095Y-115135714D01*
X42588572Y-115016667D01*
X42469524Y-114957143D01*
X42290952Y-114957143D01*
X42171905Y-115016667D01*
X42112381Y-115076190D01*
X44136190Y-114659524D02*
X44195714Y-114600000D01*
X44314762Y-114540476D01*
X44612381Y-114540476D01*
X44731428Y-114600000D01*
X44790952Y-114659524D01*
X44850476Y-114778571D01*
X44850476Y-114897619D01*
X44790952Y-115076190D01*
X44076666Y-115790476D01*
X44850476Y-115790476D01*
X45624285Y-114540476D02*
X45743333Y-114540476D01*
X45862381Y-114600000D01*
X45921904Y-114659524D01*
X45981428Y-114778571D01*
X46040952Y-115016667D01*
X46040952Y-115314286D01*
X45981428Y-115552381D01*
X45921904Y-115671429D01*
X45862381Y-115730952D01*
X45743333Y-115790476D01*
X45624285Y-115790476D01*
X45505238Y-115730952D01*
X45445714Y-115671429D01*
X45386190Y-115552381D01*
X45326666Y-115314286D01*
X45326666Y-115016667D01*
X45386190Y-114778571D01*
X45445714Y-114659524D01*
X45505238Y-114600000D01*
X45624285Y-114540476D01*
X47231428Y-115790476D02*
X46517142Y-115790476D01*
X46874285Y-115790476D02*
X46874285Y-114540476D01*
X46755237Y-114719048D01*
X46636190Y-114838095D01*
X46517142Y-114897619D01*
X47648094Y-114540476D02*
X48481428Y-114540476D01*
X47945713Y-115790476D01*
X65893429Y-49141771D02*
X65393429Y-48427486D01*
X65036286Y-49141771D02*
X65036286Y-47641771D01*
X65607714Y-47641771D01*
X65750572Y-47713200D01*
X65822000Y-47784629D01*
X65893429Y-47927486D01*
X65893429Y-48141771D01*
X65822000Y-48284629D01*
X65750572Y-48356057D01*
X65607714Y-48427486D01*
X65036286Y-48427486D01*
X66536286Y-48356057D02*
X67036286Y-48356057D01*
X67250572Y-49141771D02*
X66536286Y-49141771D01*
X66536286Y-47641771D01*
X67250572Y-47641771D01*
X67822000Y-49070343D02*
X68036286Y-49141771D01*
X68393429Y-49141771D01*
X68536286Y-49070343D01*
X68607715Y-48998914D01*
X68679143Y-48856057D01*
X68679143Y-48713200D01*
X68607715Y-48570343D01*
X68536286Y-48498914D01*
X68393429Y-48427486D01*
X68107715Y-48356057D01*
X67964857Y-48284629D01*
X67893429Y-48213200D01*
X67822000Y-48070343D01*
X67822000Y-47927486D01*
X67893429Y-47784629D01*
X67964857Y-47713200D01*
X68107715Y-47641771D01*
X68464857Y-47641771D01*
X68679143Y-47713200D01*
X69322000Y-48356057D02*
X69822000Y-48356057D01*
X70036286Y-49141771D02*
X69322000Y-49141771D01*
X69322000Y-47641771D01*
X70036286Y-47641771D01*
X70464857Y-47641771D02*
X71322000Y-47641771D01*
X70893429Y-49141771D02*
X70893429Y-47641771D01*
D12*
X86714762Y-90628573D02*
X84714762Y-90628573D01*
X84714762Y-90271430D01*
X84810000Y-90057145D01*
X85000476Y-89914287D01*
X85190952Y-89842859D01*
X85571905Y-89771430D01*
X85857619Y-89771430D01*
X86238571Y-89842859D01*
X86429048Y-89914287D01*
X86619524Y-90057145D01*
X86714762Y-90271430D01*
X86714762Y-90628573D01*
X86143333Y-89200002D02*
X86143333Y-88485716D01*
X86714762Y-89342859D02*
X84714762Y-88842859D01*
X86714762Y-88342859D01*
X86714762Y-87842859D02*
X84714762Y-87842859D01*
X86714762Y-86985716D01*
X84714762Y-86985716D01*
X84810000Y-85485716D02*
X84714762Y-85628573D01*
X84714762Y-85842859D01*
X84810000Y-86057144D01*
X85000476Y-86200002D01*
X85190952Y-86271430D01*
X85571905Y-86342859D01*
X85857619Y-86342859D01*
X86238571Y-86271430D01*
X86429048Y-86200002D01*
X86619524Y-86057144D01*
X86714762Y-85842859D01*
X86714762Y-85700002D01*
X86619524Y-85485716D01*
X86524286Y-85414287D01*
X85857619Y-85414287D01*
X85857619Y-85700002D01*
X85667143Y-84771430D02*
X85667143Y-84271430D01*
X86714762Y-84057144D02*
X86714762Y-84771430D01*
X84714762Y-84771430D01*
X84714762Y-84057144D01*
X86714762Y-82557144D02*
X85762381Y-83057144D01*
X86714762Y-83414287D02*
X84714762Y-83414287D01*
X84714762Y-82842859D01*
X84810000Y-82700001D01*
X84905238Y-82628573D01*
X85095714Y-82557144D01*
X85381429Y-82557144D01*
X85571905Y-82628573D01*
X85667143Y-82700001D01*
X85762381Y-82842859D01*
X85762381Y-83414287D01*
X86619524Y-81842859D02*
X86714762Y-81842859D01*
X86905238Y-81914287D01*
X87000476Y-81985716D01*
X84714762Y-80200001D02*
X86714762Y-79842858D01*
X85286190Y-79557144D01*
X86714762Y-79271430D01*
X84714762Y-78914287D01*
X86714762Y-78342858D02*
X84714762Y-78342858D01*
X86714762Y-76914286D02*
X86714762Y-77628572D01*
X84714762Y-77628572D01*
X86714762Y-75700000D02*
X86714762Y-76414286D01*
X84714762Y-76414286D01*
X86714762Y-73200000D02*
X85762381Y-73700000D01*
X86714762Y-74057143D02*
X84714762Y-74057143D01*
X84714762Y-73485715D01*
X84810000Y-73342857D01*
X84905238Y-73271429D01*
X85095714Y-73200000D01*
X85381429Y-73200000D01*
X85571905Y-73271429D01*
X85667143Y-73342857D01*
X85762381Y-73485715D01*
X85762381Y-74057143D01*
X84714762Y-72271429D02*
X84714762Y-71985715D01*
X84810000Y-71842857D01*
X85000476Y-71700000D01*
X85381429Y-71628572D01*
X86048095Y-71628572D01*
X86429048Y-71700000D01*
X86619524Y-71842857D01*
X86714762Y-71985715D01*
X86714762Y-72271429D01*
X86619524Y-72414286D01*
X86429048Y-72557143D01*
X86048095Y-72628572D01*
X85381429Y-72628572D01*
X85000476Y-72557143D01*
X84810000Y-72414286D01*
X84714762Y-72271429D01*
X85667143Y-70485714D02*
X85762381Y-70271428D01*
X85857619Y-70200000D01*
X86048095Y-70128571D01*
X86333810Y-70128571D01*
X86524286Y-70200000D01*
X86619524Y-70271428D01*
X86714762Y-70414286D01*
X86714762Y-70985714D01*
X84714762Y-70985714D01*
X84714762Y-70485714D01*
X84810000Y-70342857D01*
X84905238Y-70271428D01*
X85095714Y-70200000D01*
X85286190Y-70200000D01*
X85476667Y-70271428D01*
X85571905Y-70342857D01*
X85667143Y-70485714D01*
X85667143Y-70985714D01*
X86714762Y-69485714D02*
X84714762Y-69485714D01*
X86714762Y-68771428D02*
X84714762Y-68771428D01*
X86714762Y-67914285D01*
X84714762Y-67914285D01*
X86619524Y-67271428D02*
X86714762Y-67057142D01*
X86714762Y-66699999D01*
X86619524Y-66557142D01*
X86524286Y-66485713D01*
X86333810Y-66414285D01*
X86143333Y-66414285D01*
X85952857Y-66485713D01*
X85857619Y-66557142D01*
X85762381Y-66699999D01*
X85667143Y-66985713D01*
X85571905Y-67128571D01*
X85476667Y-67199999D01*
X85286190Y-67271428D01*
X85095714Y-67271428D01*
X84905238Y-67199999D01*
X84810000Y-67128571D01*
X84714762Y-66985713D01*
X84714762Y-66628571D01*
X84810000Y-66414285D01*
X84714762Y-65485714D02*
X84714762Y-65200000D01*
X84810000Y-65057142D01*
X85000476Y-64914285D01*
X85381429Y-64842857D01*
X86048095Y-64842857D01*
X86429048Y-64914285D01*
X86619524Y-65057142D01*
X86714762Y-65200000D01*
X86714762Y-65485714D01*
X86619524Y-65628571D01*
X86429048Y-65771428D01*
X86048095Y-65842857D01*
X85381429Y-65842857D01*
X85000476Y-65771428D01*
X84810000Y-65628571D01*
X84714762Y-65485714D01*
X86714762Y-64199999D02*
X84714762Y-64199999D01*
X86714762Y-63342856D01*
X84714762Y-63342856D01*
X86524286Y-62628570D02*
X86619524Y-62557142D01*
X86714762Y-62628570D01*
X86619524Y-62699999D01*
X86524286Y-62628570D01*
X86714762Y-62628570D01*
X85952857Y-62628570D02*
X84810000Y-62699999D01*
X84714762Y-62628570D01*
X84810000Y-62557142D01*
X85952857Y-62628570D01*
X84714762Y-62628570D01*
X86714762Y-60057141D02*
X86714762Y-60771427D01*
X84714762Y-60771427D01*
X86714762Y-59557141D02*
X84714762Y-59557141D01*
X86714762Y-58842855D02*
X84714762Y-58842855D01*
X86714762Y-57985712D01*
X84714762Y-57985712D01*
X85667143Y-57271426D02*
X85667143Y-56771426D01*
X86714762Y-56557140D02*
X86714762Y-57271426D01*
X84714762Y-57271426D01*
X84714762Y-56557140D01*
X84714762Y-54985712D02*
X86714762Y-54485712D01*
X84714762Y-53985712D01*
X84714762Y-53199998D02*
X84714762Y-52914284D01*
X84810000Y-52771426D01*
X85000476Y-52628569D01*
X85381429Y-52557141D01*
X86048095Y-52557141D01*
X86429048Y-52628569D01*
X86619524Y-52771426D01*
X86714762Y-52914284D01*
X86714762Y-53199998D01*
X86619524Y-53342855D01*
X86429048Y-53485712D01*
X86048095Y-53557141D01*
X85381429Y-53557141D01*
X85000476Y-53485712D01*
X84810000Y-53342855D01*
X84714762Y-53199998D01*
X86714762Y-51199997D02*
X86714762Y-51914283D01*
X84714762Y-51914283D01*
X84714762Y-50914283D02*
X84714762Y-50057140D01*
X86714762Y-50485711D02*
X84714762Y-50485711D01*
X86143333Y-49628569D02*
X86143333Y-48914283D01*
X86714762Y-49771426D02*
X84714762Y-49271426D01*
X86714762Y-48771426D01*
X84810000Y-47485712D02*
X84714762Y-47628569D01*
X84714762Y-47842855D01*
X84810000Y-48057140D01*
X85000476Y-48199998D01*
X85190952Y-48271426D01*
X85571905Y-48342855D01*
X85857619Y-48342855D01*
X86238571Y-48271426D01*
X86429048Y-48199998D01*
X86619524Y-48057140D01*
X86714762Y-47842855D01*
X86714762Y-47699998D01*
X86619524Y-47485712D01*
X86524286Y-47414283D01*
X85857619Y-47414283D01*
X85857619Y-47699998D01*
X85667143Y-46771426D02*
X85667143Y-46271426D01*
X86714762Y-46057140D02*
X86714762Y-46771426D01*
X84714762Y-46771426D01*
X84714762Y-46057140D01*
X84714762Y-44485712D02*
X84714762Y-43628569D01*
X86714762Y-44057140D02*
X84714762Y-44057140D01*
X86714762Y-43128569D02*
X84714762Y-43128569D01*
X85667143Y-43128569D02*
X85667143Y-42271426D01*
X86714762Y-42271426D02*
X84714762Y-42271426D01*
X86714762Y-41557140D02*
X84714762Y-41557140D01*
X86619524Y-40914283D02*
X86714762Y-40699997D01*
X86714762Y-40342854D01*
X86619524Y-40199997D01*
X86524286Y-40128568D01*
X86333810Y-40057140D01*
X86143333Y-40057140D01*
X85952857Y-40128568D01*
X85857619Y-40199997D01*
X85762381Y-40342854D01*
X85667143Y-40628568D01*
X85571905Y-40771426D01*
X85476667Y-40842854D01*
X85286190Y-40914283D01*
X85095714Y-40914283D01*
X84905238Y-40842854D01*
X84810000Y-40771426D01*
X84714762Y-40628568D01*
X84714762Y-40271426D01*
X84810000Y-40057140D01*
X86619524Y-38342855D02*
X86714762Y-38128569D01*
X86714762Y-37771426D01*
X86619524Y-37628569D01*
X86524286Y-37557140D01*
X86333810Y-37485712D01*
X86143333Y-37485712D01*
X85952857Y-37557140D01*
X85857619Y-37628569D01*
X85762381Y-37771426D01*
X85667143Y-38057140D01*
X85571905Y-38199998D01*
X85476667Y-38271426D01*
X85286190Y-38342855D01*
X85095714Y-38342855D01*
X84905238Y-38271426D01*
X84810000Y-38199998D01*
X84714762Y-38057140D01*
X84714762Y-37699998D01*
X84810000Y-37485712D01*
X86714762Y-36842855D02*
X84714762Y-36842855D01*
X86714762Y-36128569D02*
X84714762Y-36128569D01*
X84714762Y-35771426D01*
X84810000Y-35557141D01*
X85000476Y-35414283D01*
X85190952Y-35342855D01*
X85571905Y-35271426D01*
X85857619Y-35271426D01*
X86238571Y-35342855D01*
X86429048Y-35414283D01*
X86619524Y-35557141D01*
X86714762Y-35771426D01*
X86714762Y-36128569D01*
X85667143Y-34628569D02*
X85667143Y-34128569D01*
X86714762Y-33914283D02*
X86714762Y-34628569D01*
X84714762Y-34628569D01*
X84714762Y-33914283D01*
X86524286Y-33271426D02*
X86619524Y-33199998D01*
X86714762Y-33271426D01*
X86619524Y-33342855D01*
X86524286Y-33271426D01*
X86714762Y-33271426D01*
X85952857Y-33271426D02*
X84810000Y-33342855D01*
X84714762Y-33271426D01*
X84810000Y-33199998D01*
X85952857Y-33271426D01*
X84714762Y-33271426D01*
D13*
X83000000Y-116000000D02*
X83000000Y-19000000D01*
D12*
X117781429Y-107878571D02*
X117781429Y-106378571D01*
X118638572Y-107878571D01*
X118638572Y-106378571D01*
X110738571Y-23521429D02*
X110738571Y-25021429D01*
X109881428Y-23521429D01*
X109881428Y-25021429D01*
X114824286Y-107878571D02*
X114110000Y-107878571D01*
X114110000Y-106378571D01*
X121595714Y-24021429D02*
X122310000Y-24021429D01*
X122310000Y-25521429D01*
D11*
X63362381Y-94666666D02*
X62886190Y-95000000D01*
X63362381Y-95238095D02*
X62362381Y-95238095D01*
X62362381Y-94857142D01*
X62410000Y-94761904D01*
X62457619Y-94714285D01*
X62552857Y-94666666D01*
X62695714Y-94666666D01*
X62790952Y-94714285D01*
X62838571Y-94761904D01*
X62886190Y-94857142D01*
X62886190Y-95238095D01*
X62362381Y-94333333D02*
X63362381Y-93666666D01*
X62362381Y-93666666D02*
X63362381Y-94333333D01*
X49700476Y-38527381D02*
X49700476Y-37527381D01*
X50081429Y-37527381D01*
X50176667Y-37575000D01*
X50224286Y-37622619D01*
X50271905Y-37717857D01*
X50271905Y-37860714D01*
X50224286Y-37955952D01*
X50176667Y-38003571D01*
X50081429Y-38051190D01*
X49700476Y-38051190D01*
X50890952Y-37527381D02*
X51081429Y-37527381D01*
X51176667Y-37575000D01*
X51271905Y-37670238D01*
X51319524Y-37860714D01*
X51319524Y-38194048D01*
X51271905Y-38384524D01*
X51176667Y-38479762D01*
X51081429Y-38527381D01*
X50890952Y-38527381D01*
X50795714Y-38479762D01*
X50700476Y-38384524D01*
X50652857Y-38194048D01*
X50652857Y-37860714D01*
X50700476Y-37670238D01*
X50795714Y-37575000D01*
X50890952Y-37527381D01*
X51652857Y-37527381D02*
X51890952Y-38527381D01*
X52081429Y-37813095D01*
X52271905Y-38527381D01*
X52510000Y-37527381D01*
X52890952Y-38003571D02*
X53224286Y-38003571D01*
X53367143Y-38527381D02*
X52890952Y-38527381D01*
X52890952Y-37527381D01*
X53367143Y-37527381D01*
X54367143Y-38527381D02*
X54033809Y-38051190D01*
X53795714Y-38527381D02*
X53795714Y-37527381D01*
X54176667Y-37527381D01*
X54271905Y-37575000D01*
X54319524Y-37622619D01*
X54367143Y-37717857D01*
X54367143Y-37860714D01*
X54319524Y-37955952D01*
X54271905Y-38003571D01*
X54176667Y-38051190D01*
X53795714Y-38051190D01*
X51390952Y-39177381D02*
X51581429Y-39177381D01*
X51676667Y-39225000D01*
X51771905Y-39320238D01*
X51819524Y-39510714D01*
X51819524Y-39844048D01*
X51771905Y-40034524D01*
X51676667Y-40129762D01*
X51581429Y-40177381D01*
X51390952Y-40177381D01*
X51295714Y-40129762D01*
X51200476Y-40034524D01*
X51152857Y-39844048D01*
X51152857Y-39510714D01*
X51200476Y-39320238D01*
X51295714Y-39225000D01*
X51390952Y-39177381D01*
X52248095Y-40177381D02*
X52248095Y-39177381D01*
X52819524Y-40177381D01*
X52819524Y-39177381D01*
X49862381Y-95785714D02*
X48862381Y-95785714D01*
X48957619Y-95357143D02*
X48910000Y-95309524D01*
X48862381Y-95214286D01*
X48862381Y-94976190D01*
X48910000Y-94880952D01*
X48957619Y-94833333D01*
X49052857Y-94785714D01*
X49148095Y-94785714D01*
X49290952Y-94833333D01*
X49862381Y-95404762D01*
X49862381Y-94785714D01*
X49767143Y-93785714D02*
X49814762Y-93833333D01*
X49862381Y-93976190D01*
X49862381Y-94071428D01*
X49814762Y-94214286D01*
X49719524Y-94309524D01*
X49624286Y-94357143D01*
X49433810Y-94404762D01*
X49290952Y-94404762D01*
X49100476Y-94357143D01*
X49005238Y-94309524D01*
X48910000Y-94214286D01*
X48862381Y-94071428D01*
X48862381Y-93976190D01*
X48910000Y-93833333D01*
X48957619Y-93785714D01*
X49576667Y-92642857D02*
X49576667Y-92166666D01*
X49862381Y-92738095D02*
X48862381Y-92404762D01*
X49862381Y-92071428D01*
X49767143Y-91166666D02*
X49814762Y-91214285D01*
X49862381Y-91357142D01*
X49862381Y-91452380D01*
X49814762Y-91595238D01*
X49719524Y-91690476D01*
X49624286Y-91738095D01*
X49433810Y-91785714D01*
X49290952Y-91785714D01*
X49100476Y-91738095D01*
X49005238Y-91690476D01*
X48910000Y-91595238D01*
X48862381Y-91452380D01*
X48862381Y-91357142D01*
X48910000Y-91214285D01*
X48957619Y-91166666D01*
X48862381Y-90880952D02*
X48862381Y-90309523D01*
X49862381Y-90595238D02*
X48862381Y-90595238D01*
X49862381Y-89976190D02*
X48862381Y-89976190D01*
X48862381Y-89642857D02*
X49862381Y-89309524D01*
X48862381Y-88976190D01*
X49338571Y-88642857D02*
X49338571Y-88309523D01*
X49862381Y-88166666D02*
X49862381Y-88642857D01*
X48862381Y-88642857D01*
X48862381Y-88166666D01*
X50412381Y-106223810D02*
X50412381Y-105652381D01*
X51412381Y-105938096D02*
X50412381Y-105938096D01*
X50888571Y-105319048D02*
X50888571Y-104985714D01*
X51412381Y-104842857D02*
X51412381Y-105319048D01*
X50412381Y-105319048D01*
X50412381Y-104842857D01*
X51364762Y-104461905D02*
X51412381Y-104319048D01*
X51412381Y-104080952D01*
X51364762Y-103985714D01*
X51317143Y-103938095D01*
X51221905Y-103890476D01*
X51126667Y-103890476D01*
X51031429Y-103938095D01*
X50983810Y-103985714D01*
X50936190Y-104080952D01*
X50888571Y-104271429D01*
X50840952Y-104366667D01*
X50793333Y-104414286D01*
X50698095Y-104461905D01*
X50602857Y-104461905D01*
X50507619Y-104414286D01*
X50460000Y-104366667D01*
X50412381Y-104271429D01*
X50412381Y-104033333D01*
X50460000Y-103890476D01*
X50412381Y-103604762D02*
X50412381Y-103033333D01*
X51412381Y-103319048D02*
X50412381Y-103319048D01*
X50412381Y-101747619D02*
X50412381Y-101557142D01*
X50460000Y-101461904D01*
X50555238Y-101366666D01*
X50745714Y-101319047D01*
X51079048Y-101319047D01*
X51269524Y-101366666D01*
X51364762Y-101461904D01*
X51412381Y-101557142D01*
X51412381Y-101747619D01*
X51364762Y-101842857D01*
X51269524Y-101938095D01*
X51079048Y-101985714D01*
X50745714Y-101985714D01*
X50555238Y-101938095D01*
X50460000Y-101842857D01*
X50412381Y-101747619D01*
X51412381Y-100890476D02*
X50412381Y-100890476D01*
X51412381Y-100319047D01*
X50412381Y-100319047D01*
X32886190Y-98652381D02*
X33457619Y-98652381D01*
X33171904Y-99652381D02*
X33171904Y-98652381D01*
X33790952Y-99128571D02*
X34124286Y-99128571D01*
X34267143Y-99652381D02*
X33790952Y-99652381D01*
X33790952Y-98652381D01*
X34267143Y-98652381D01*
X34648095Y-99604762D02*
X34790952Y-99652381D01*
X35029048Y-99652381D01*
X35124286Y-99604762D01*
X35171905Y-99557143D01*
X35219524Y-99461905D01*
X35219524Y-99366667D01*
X35171905Y-99271429D01*
X35124286Y-99223810D01*
X35029048Y-99176190D01*
X34838571Y-99128571D01*
X34743333Y-99080952D01*
X34695714Y-99033333D01*
X34648095Y-98938095D01*
X34648095Y-98842857D01*
X34695714Y-98747619D01*
X34743333Y-98700000D01*
X34838571Y-98652381D01*
X35076667Y-98652381D01*
X35219524Y-98700000D01*
X35505238Y-98652381D02*
X36076667Y-98652381D01*
X35790952Y-99652381D02*
X35790952Y-98652381D01*
X37171905Y-99652381D02*
X37171905Y-98652381D01*
X37505239Y-99366667D01*
X37838572Y-98652381D01*
X37838572Y-99652381D01*
X38505238Y-98652381D02*
X38695715Y-98652381D01*
X38790953Y-98700000D01*
X38886191Y-98795238D01*
X38933810Y-98985714D01*
X38933810Y-99319048D01*
X38886191Y-99509524D01*
X38790953Y-99604762D01*
X38695715Y-99652381D01*
X38505238Y-99652381D01*
X38410000Y-99604762D01*
X38314762Y-99509524D01*
X38267143Y-99319048D01*
X38267143Y-98985714D01*
X38314762Y-98795238D01*
X38410000Y-98700000D01*
X38505238Y-98652381D01*
X39362381Y-99652381D02*
X39362381Y-98652381D01*
X39600476Y-98652381D01*
X39743334Y-98700000D01*
X39838572Y-98795238D01*
X39886191Y-98890476D01*
X39933810Y-99080952D01*
X39933810Y-99223810D01*
X39886191Y-99414286D01*
X39838572Y-99509524D01*
X39743334Y-99604762D01*
X39600476Y-99652381D01*
X39362381Y-99652381D01*
X40362381Y-99128571D02*
X40695715Y-99128571D01*
X40838572Y-99652381D02*
X40362381Y-99652381D01*
X40362381Y-98652381D01*
X40838572Y-98652381D01*
X43462381Y-95885714D02*
X42462381Y-95885714D01*
X42557619Y-95457143D02*
X42510000Y-95409524D01*
X42462381Y-95314286D01*
X42462381Y-95076190D01*
X42510000Y-94980952D01*
X42557619Y-94933333D01*
X42652857Y-94885714D01*
X42748095Y-94885714D01*
X42890952Y-94933333D01*
X43462381Y-95504762D01*
X43462381Y-94885714D01*
X43367143Y-93885714D02*
X43414762Y-93933333D01*
X43462381Y-94076190D01*
X43462381Y-94171428D01*
X43414762Y-94314286D01*
X43319524Y-94409524D01*
X43224286Y-94457143D01*
X43033810Y-94504762D01*
X42890952Y-94504762D01*
X42700476Y-94457143D01*
X42605238Y-94409524D01*
X42510000Y-94314286D01*
X42462381Y-94171428D01*
X42462381Y-94076190D01*
X42510000Y-93933333D01*
X42557619Y-93885714D01*
X42462381Y-92409523D02*
X43176667Y-92409523D01*
X43319524Y-92457143D01*
X43414762Y-92552381D01*
X43462381Y-92695238D01*
X43462381Y-92790476D01*
X43462381Y-91933333D02*
X42462381Y-91933333D01*
X43176667Y-91599999D01*
X42462381Y-91266666D01*
X43462381Y-91266666D01*
X43462381Y-90790476D02*
X42462381Y-90790476D01*
X42462381Y-90409523D01*
X42510000Y-90314285D01*
X42557619Y-90266666D01*
X42652857Y-90219047D01*
X42795714Y-90219047D01*
X42890952Y-90266666D01*
X42938571Y-90314285D01*
X42986190Y-90409523D01*
X42986190Y-90790476D01*
X43462381Y-89219047D02*
X42986190Y-89552381D01*
X43462381Y-89790476D02*
X42462381Y-89790476D01*
X42462381Y-89409523D01*
X42510000Y-89314285D01*
X42557619Y-89266666D01*
X42652857Y-89219047D01*
X42795714Y-89219047D01*
X42890952Y-89266666D01*
X42938571Y-89314285D01*
X42986190Y-89409523D01*
X42986190Y-89790476D01*
X43414762Y-88838095D02*
X43462381Y-88695238D01*
X43462381Y-88457142D01*
X43414762Y-88361904D01*
X43367143Y-88314285D01*
X43271905Y-88266666D01*
X43176667Y-88266666D01*
X43081429Y-88314285D01*
X43033810Y-88361904D01*
X42986190Y-88457142D01*
X42938571Y-88647619D01*
X42890952Y-88742857D01*
X42843333Y-88790476D01*
X42748095Y-88838095D01*
X42652857Y-88838095D01*
X42557619Y-88790476D01*
X42510000Y-88742857D01*
X42462381Y-88647619D01*
X42462381Y-88409523D01*
X42510000Y-88266666D01*
X69562381Y-95261905D02*
X69562381Y-94690476D01*
X70562381Y-94976191D02*
X69562381Y-94976191D01*
X69562381Y-94452381D02*
X70562381Y-93785714D01*
X69562381Y-93785714D02*
X70562381Y-94452381D01*
D12*
X51405115Y-77284971D02*
X51405115Y-75784971D01*
X52976544Y-77142114D02*
X52905115Y-77213543D01*
X52690829Y-77284971D01*
X52547972Y-77284971D01*
X52333687Y-77213543D01*
X52190829Y-77070686D01*
X52119401Y-76927829D01*
X52047972Y-76642114D01*
X52047972Y-76427829D01*
X52119401Y-76142114D01*
X52190829Y-75999257D01*
X52333687Y-75856400D01*
X52547972Y-75784971D01*
X52690829Y-75784971D01*
X52905115Y-75856400D01*
X52976544Y-75927829D01*
X53547972Y-77213543D02*
X53762258Y-77284971D01*
X54119401Y-77284971D01*
X54262258Y-77213543D01*
X54333687Y-77142114D01*
X54405115Y-76999257D01*
X54405115Y-76856400D01*
X54333687Y-76713543D01*
X54262258Y-76642114D01*
X54119401Y-76570686D01*
X53833687Y-76499257D01*
X53690829Y-76427829D01*
X53619401Y-76356400D01*
X53547972Y-76213543D01*
X53547972Y-76070686D01*
X53619401Y-75927829D01*
X53690829Y-75856400D01*
X53833687Y-75784971D01*
X54190829Y-75784971D01*
X54405115Y-75856400D01*
X55047972Y-77284971D02*
X55047972Y-75784971D01*
X55619400Y-75784971D01*
X55762258Y-75856400D01*
X55833686Y-75927829D01*
X55905115Y-76070686D01*
X55905115Y-76284971D01*
X55833686Y-76427829D01*
X55762258Y-76499257D01*
X55619400Y-76570686D01*
X55047972Y-76570686D01*
D11*
X34948095Y-83552381D02*
X34948095Y-82552381D01*
X35186190Y-82552381D01*
X35329048Y-82600000D01*
X35424286Y-82695238D01*
X35471905Y-82790476D01*
X35519524Y-82980952D01*
X35519524Y-83123810D01*
X35471905Y-83314286D01*
X35424286Y-83409524D01*
X35329048Y-83504762D01*
X35186190Y-83552381D01*
X34948095Y-83552381D01*
X36471905Y-83552381D02*
X35900476Y-83552381D01*
X36186190Y-83552381D02*
X36186190Y-82552381D01*
X36090952Y-82695238D01*
X35995714Y-82790476D01*
X35900476Y-82838095D01*
X36805238Y-82552381D02*
X37424286Y-82552381D01*
X37090952Y-82933333D01*
X37233810Y-82933333D01*
X37329048Y-82980952D01*
X37376667Y-83028571D01*
X37424286Y-83123810D01*
X37424286Y-83361905D01*
X37376667Y-83457143D01*
X37329048Y-83504762D01*
X37233810Y-83552381D01*
X36948095Y-83552381D01*
X36852857Y-83504762D01*
X36805238Y-83457143D01*
X34948095Y-80952381D02*
X34948095Y-79952381D01*
X35186190Y-79952381D01*
X35329048Y-80000000D01*
X35424286Y-80095238D01*
X35471905Y-80190476D01*
X35519524Y-80380952D01*
X35519524Y-80523810D01*
X35471905Y-80714286D01*
X35424286Y-80809524D01*
X35329048Y-80904762D01*
X35186190Y-80952381D01*
X34948095Y-80952381D01*
X36471905Y-80952381D02*
X35900476Y-80952381D01*
X36186190Y-80952381D02*
X36186190Y-79952381D01*
X36090952Y-80095238D01*
X35995714Y-80190476D01*
X35900476Y-80238095D01*
X36852857Y-80047619D02*
X36900476Y-80000000D01*
X36995714Y-79952381D01*
X37233810Y-79952381D01*
X37329048Y-80000000D01*
X37376667Y-80047619D01*
X37424286Y-80142857D01*
X37424286Y-80238095D01*
X37376667Y-80380952D01*
X36805238Y-80952381D01*
X37424286Y-80952381D01*
X34948095Y-78352381D02*
X34948095Y-77352381D01*
X35186190Y-77352381D01*
X35329048Y-77400000D01*
X35424286Y-77495238D01*
X35471905Y-77590476D01*
X35519524Y-77780952D01*
X35519524Y-77923810D01*
X35471905Y-78114286D01*
X35424286Y-78209524D01*
X35329048Y-78304762D01*
X35186190Y-78352381D01*
X34948095Y-78352381D01*
X36471905Y-78352381D02*
X35900476Y-78352381D01*
X36186190Y-78352381D02*
X36186190Y-77352381D01*
X36090952Y-77495238D01*
X35995714Y-77590476D01*
X35900476Y-77638095D01*
X37424286Y-78352381D02*
X36852857Y-78352381D01*
X37138571Y-78352381D02*
X37138571Y-77352381D01*
X37043333Y-77495238D01*
X36948095Y-77590476D01*
X36852857Y-77638095D01*
X34948095Y-75752381D02*
X34948095Y-74752381D01*
X35186190Y-74752381D01*
X35329048Y-74800000D01*
X35424286Y-74895238D01*
X35471905Y-74990476D01*
X35519524Y-75180952D01*
X35519524Y-75323810D01*
X35471905Y-75514286D01*
X35424286Y-75609524D01*
X35329048Y-75704762D01*
X35186190Y-75752381D01*
X34948095Y-75752381D01*
X36471905Y-75752381D02*
X35900476Y-75752381D01*
X36186190Y-75752381D02*
X36186190Y-74752381D01*
X36090952Y-74895238D01*
X35995714Y-74990476D01*
X35900476Y-75038095D01*
X37090952Y-74752381D02*
X37186191Y-74752381D01*
X37281429Y-74800000D01*
X37329048Y-74847619D01*
X37376667Y-74942857D01*
X37424286Y-75133333D01*
X37424286Y-75371429D01*
X37376667Y-75561905D01*
X37329048Y-75657143D01*
X37281429Y-75704762D01*
X37186191Y-75752381D01*
X37090952Y-75752381D01*
X36995714Y-75704762D01*
X36948095Y-75657143D01*
X36900476Y-75561905D01*
X36852857Y-75371429D01*
X36852857Y-75133333D01*
X36900476Y-74942857D01*
X36948095Y-74847619D01*
X36995714Y-74800000D01*
X37090952Y-74752381D01*
X34948095Y-73152381D02*
X34948095Y-72152381D01*
X35186190Y-72152381D01*
X35329048Y-72200000D01*
X35424286Y-72295238D01*
X35471905Y-72390476D01*
X35519524Y-72580952D01*
X35519524Y-72723810D01*
X35471905Y-72914286D01*
X35424286Y-73009524D01*
X35329048Y-73104762D01*
X35186190Y-73152381D01*
X34948095Y-73152381D01*
X35995714Y-73152381D02*
X36186190Y-73152381D01*
X36281429Y-73104762D01*
X36329048Y-73057143D01*
X36424286Y-72914286D01*
X36471905Y-72723810D01*
X36471905Y-72342857D01*
X36424286Y-72247619D01*
X36376667Y-72200000D01*
X36281429Y-72152381D01*
X36090952Y-72152381D01*
X35995714Y-72200000D01*
X35948095Y-72247619D01*
X35900476Y-72342857D01*
X35900476Y-72580952D01*
X35948095Y-72676190D01*
X35995714Y-72723810D01*
X36090952Y-72771429D01*
X36281429Y-72771429D01*
X36376667Y-72723810D01*
X36424286Y-72676190D01*
X36471905Y-72580952D01*
X34948095Y-70752381D02*
X34948095Y-69752381D01*
X35186190Y-69752381D01*
X35329048Y-69800000D01*
X35424286Y-69895238D01*
X35471905Y-69990476D01*
X35519524Y-70180952D01*
X35519524Y-70323810D01*
X35471905Y-70514286D01*
X35424286Y-70609524D01*
X35329048Y-70704762D01*
X35186190Y-70752381D01*
X34948095Y-70752381D01*
X36090952Y-70180952D02*
X35995714Y-70133333D01*
X35948095Y-70085714D01*
X35900476Y-69990476D01*
X35900476Y-69942857D01*
X35948095Y-69847619D01*
X35995714Y-69800000D01*
X36090952Y-69752381D01*
X36281429Y-69752381D01*
X36376667Y-69800000D01*
X36424286Y-69847619D01*
X36471905Y-69942857D01*
X36471905Y-69990476D01*
X36424286Y-70085714D01*
X36376667Y-70133333D01*
X36281429Y-70180952D01*
X36090952Y-70180952D01*
X35995714Y-70228571D01*
X35948095Y-70276190D01*
X35900476Y-70371429D01*
X35900476Y-70561905D01*
X35948095Y-70657143D01*
X35995714Y-70704762D01*
X36090952Y-70752381D01*
X36281429Y-70752381D01*
X36376667Y-70704762D01*
X36424286Y-70657143D01*
X36471905Y-70561905D01*
X36471905Y-70371429D01*
X36424286Y-70276190D01*
X36376667Y-70228571D01*
X36281429Y-70180952D01*
X34948095Y-68152381D02*
X34948095Y-67152381D01*
X35186190Y-67152381D01*
X35329048Y-67200000D01*
X35424286Y-67295238D01*
X35471905Y-67390476D01*
X35519524Y-67580952D01*
X35519524Y-67723810D01*
X35471905Y-67914286D01*
X35424286Y-68009524D01*
X35329048Y-68104762D01*
X35186190Y-68152381D01*
X34948095Y-68152381D01*
X35852857Y-67152381D02*
X36519524Y-67152381D01*
X36090952Y-68152381D01*
X34948095Y-65752381D02*
X34948095Y-64752381D01*
X35186190Y-64752381D01*
X35329048Y-64800000D01*
X35424286Y-64895238D01*
X35471905Y-64990476D01*
X35519524Y-65180952D01*
X35519524Y-65323810D01*
X35471905Y-65514286D01*
X35424286Y-65609524D01*
X35329048Y-65704762D01*
X35186190Y-65752381D01*
X34948095Y-65752381D01*
X36376667Y-64752381D02*
X36186190Y-64752381D01*
X36090952Y-64800000D01*
X36043333Y-64847619D01*
X35948095Y-64990476D01*
X35900476Y-65180952D01*
X35900476Y-65561905D01*
X35948095Y-65657143D01*
X35995714Y-65704762D01*
X36090952Y-65752381D01*
X36281429Y-65752381D01*
X36376667Y-65704762D01*
X36424286Y-65657143D01*
X36471905Y-65561905D01*
X36471905Y-65323810D01*
X36424286Y-65228571D01*
X36376667Y-65180952D01*
X36281429Y-65133333D01*
X36090952Y-65133333D01*
X35995714Y-65180952D01*
X35948095Y-65228571D01*
X35900476Y-65323810D01*
X34948095Y-63152381D02*
X34948095Y-62152381D01*
X35186190Y-62152381D01*
X35329048Y-62200000D01*
X35424286Y-62295238D01*
X35471905Y-62390476D01*
X35519524Y-62580952D01*
X35519524Y-62723810D01*
X35471905Y-62914286D01*
X35424286Y-63009524D01*
X35329048Y-63104762D01*
X35186190Y-63152381D01*
X34948095Y-63152381D01*
X36424286Y-62152381D02*
X35948095Y-62152381D01*
X35900476Y-62628571D01*
X35948095Y-62580952D01*
X36043333Y-62533333D01*
X36281429Y-62533333D01*
X36376667Y-62580952D01*
X36424286Y-62628571D01*
X36471905Y-62723810D01*
X36471905Y-62961905D01*
X36424286Y-63057143D01*
X36376667Y-63104762D01*
X36281429Y-63152381D01*
X36043333Y-63152381D01*
X35948095Y-63104762D01*
X35900476Y-63057143D01*
X34948095Y-60552381D02*
X34948095Y-59552381D01*
X35186190Y-59552381D01*
X35329048Y-59600000D01*
X35424286Y-59695238D01*
X35471905Y-59790476D01*
X35519524Y-59980952D01*
X35519524Y-60123810D01*
X35471905Y-60314286D01*
X35424286Y-60409524D01*
X35329048Y-60504762D01*
X35186190Y-60552381D01*
X34948095Y-60552381D01*
X35852857Y-59552381D02*
X36471905Y-59552381D01*
X36138571Y-59933333D01*
X36281429Y-59933333D01*
X36376667Y-59980952D01*
X36424286Y-60028571D01*
X36471905Y-60123810D01*
X36471905Y-60361905D01*
X36424286Y-60457143D01*
X36376667Y-60504762D01*
X36281429Y-60552381D01*
X35995714Y-60552381D01*
X35900476Y-60504762D01*
X35852857Y-60457143D01*
X37614762Y-59504762D02*
X36757619Y-60790476D01*
X37900476Y-60504762D02*
X38043333Y-60552381D01*
X38281429Y-60552381D01*
X38376667Y-60504762D01*
X38424286Y-60457143D01*
X38471905Y-60361905D01*
X38471905Y-60266667D01*
X38424286Y-60171429D01*
X38376667Y-60123810D01*
X38281429Y-60076190D01*
X38090952Y-60028571D01*
X37995714Y-59980952D01*
X37948095Y-59933333D01*
X37900476Y-59838095D01*
X37900476Y-59742857D01*
X37948095Y-59647619D01*
X37995714Y-59600000D01*
X38090952Y-59552381D01*
X38329048Y-59552381D01*
X38471905Y-59600000D01*
X39471905Y-60457143D02*
X39424286Y-60504762D01*
X39281429Y-60552381D01*
X39186191Y-60552381D01*
X39043333Y-60504762D01*
X38948095Y-60409524D01*
X38900476Y-60314286D01*
X38852857Y-60123810D01*
X38852857Y-59980952D01*
X38900476Y-59790476D01*
X38948095Y-59695238D01*
X39043333Y-59600000D01*
X39186191Y-59552381D01*
X39281429Y-59552381D01*
X39424286Y-59600000D01*
X39471905Y-59647619D01*
X40376667Y-60552381D02*
X39900476Y-60552381D01*
X39900476Y-59552381D01*
X34948095Y-57952381D02*
X34948095Y-56952381D01*
X35186190Y-56952381D01*
X35329048Y-57000000D01*
X35424286Y-57095238D01*
X35471905Y-57190476D01*
X35519524Y-57380952D01*
X35519524Y-57523810D01*
X35471905Y-57714286D01*
X35424286Y-57809524D01*
X35329048Y-57904762D01*
X35186190Y-57952381D01*
X34948095Y-57952381D01*
X35900476Y-57047619D02*
X35948095Y-57000000D01*
X36043333Y-56952381D01*
X36281429Y-56952381D01*
X36376667Y-57000000D01*
X36424286Y-57047619D01*
X36471905Y-57142857D01*
X36471905Y-57238095D01*
X36424286Y-57380952D01*
X35852857Y-57952381D01*
X36471905Y-57952381D01*
X37614762Y-56904762D02*
X36757619Y-58190476D01*
X37900476Y-57904762D02*
X38043333Y-57952381D01*
X38281429Y-57952381D01*
X38376667Y-57904762D01*
X38424286Y-57857143D01*
X38471905Y-57761905D01*
X38471905Y-57666667D01*
X38424286Y-57571429D01*
X38376667Y-57523810D01*
X38281429Y-57476190D01*
X38090952Y-57428571D01*
X37995714Y-57380952D01*
X37948095Y-57333333D01*
X37900476Y-57238095D01*
X37900476Y-57142857D01*
X37948095Y-57047619D01*
X37995714Y-57000000D01*
X38090952Y-56952381D01*
X38329048Y-56952381D01*
X38471905Y-57000000D01*
X38900476Y-57952381D02*
X38900476Y-56952381D01*
X39138571Y-56952381D01*
X39281429Y-57000000D01*
X39376667Y-57095238D01*
X39424286Y-57190476D01*
X39471905Y-57380952D01*
X39471905Y-57523810D01*
X39424286Y-57714286D01*
X39376667Y-57809524D01*
X39281429Y-57904762D01*
X39138571Y-57952381D01*
X38900476Y-57952381D01*
X39852857Y-57666667D02*
X40329048Y-57666667D01*
X39757619Y-57952381D02*
X40090952Y-56952381D01*
X40424286Y-57952381D01*
X34948095Y-55552381D02*
X34948095Y-54552381D01*
X35186190Y-54552381D01*
X35329048Y-54600000D01*
X35424286Y-54695238D01*
X35471905Y-54790476D01*
X35519524Y-54980952D01*
X35519524Y-55123810D01*
X35471905Y-55314286D01*
X35424286Y-55409524D01*
X35329048Y-55504762D01*
X35186190Y-55552381D01*
X34948095Y-55552381D01*
X36471905Y-55552381D02*
X35900476Y-55552381D01*
X36186190Y-55552381D02*
X36186190Y-54552381D01*
X36090952Y-54695238D01*
X35995714Y-54790476D01*
X35900476Y-54838095D01*
X37614762Y-54504762D02*
X36757619Y-55790476D01*
X37805238Y-54552381D02*
X38376667Y-54552381D01*
X38090952Y-55552381D02*
X38090952Y-54552381D01*
X38614762Y-54552381D02*
X39281429Y-55552381D01*
X39281429Y-54552381D02*
X38614762Y-55552381D01*
X34948095Y-52952381D02*
X34948095Y-51952381D01*
X35186190Y-51952381D01*
X35329048Y-52000000D01*
X35424286Y-52095238D01*
X35471905Y-52190476D01*
X35519524Y-52380952D01*
X35519524Y-52523810D01*
X35471905Y-52714286D01*
X35424286Y-52809524D01*
X35329048Y-52904762D01*
X35186190Y-52952381D01*
X34948095Y-52952381D01*
X36138571Y-51952381D02*
X36233810Y-51952381D01*
X36329048Y-52000000D01*
X36376667Y-52047619D01*
X36424286Y-52142857D01*
X36471905Y-52333333D01*
X36471905Y-52571429D01*
X36424286Y-52761905D01*
X36376667Y-52857143D01*
X36329048Y-52904762D01*
X36233810Y-52952381D01*
X36138571Y-52952381D01*
X36043333Y-52904762D01*
X35995714Y-52857143D01*
X35948095Y-52761905D01*
X35900476Y-52571429D01*
X35900476Y-52333333D01*
X35948095Y-52142857D01*
X35995714Y-52047619D01*
X36043333Y-52000000D01*
X36138571Y-51952381D01*
X37614762Y-51904762D02*
X36757619Y-53190476D01*
X38519524Y-52952381D02*
X38186190Y-52476190D01*
X37948095Y-52952381D02*
X37948095Y-51952381D01*
X38329048Y-51952381D01*
X38424286Y-52000000D01*
X38471905Y-52047619D01*
X38519524Y-52142857D01*
X38519524Y-52285714D01*
X38471905Y-52380952D01*
X38424286Y-52428571D01*
X38329048Y-52476190D01*
X37948095Y-52476190D01*
X38852857Y-51952381D02*
X39519524Y-52952381D01*
X39519524Y-51952381D02*
X38852857Y-52952381D01*
X40614762Y-51904762D02*
X39757619Y-53190476D01*
X40948095Y-52952381D02*
X40948095Y-51952381D01*
X41424285Y-52952381D02*
X41424285Y-51952381D01*
X41995714Y-52952381D01*
X41995714Y-51952381D01*
X42329047Y-51952381D02*
X42900476Y-51952381D01*
X42614761Y-52952381D02*
X42614761Y-51952381D01*
X43186190Y-52047619D02*
X43233809Y-52000000D01*
X43329047Y-51952381D01*
X43567143Y-51952381D01*
X43662381Y-52000000D01*
X43710000Y-52047619D01*
X43757619Y-52142857D01*
X43757619Y-52238095D01*
X43710000Y-52380952D01*
X43138571Y-52952381D01*
X43757619Y-52952381D01*
X64310000Y-25528571D02*
X64310000Y-24814285D01*
X64738571Y-25671428D02*
X63238571Y-25171428D01*
X64738571Y-24671428D01*
X64738571Y-24171428D02*
X63238571Y-24171428D01*
X63238571Y-23171428D02*
X63238571Y-23028571D01*
X63310000Y-22885714D01*
X63381429Y-22814285D01*
X63524286Y-22742856D01*
X63810000Y-22671428D01*
X64167143Y-22671428D01*
X64452857Y-22742856D01*
X64595714Y-22814285D01*
X64667143Y-22885714D01*
X64738571Y-23028571D01*
X64738571Y-23171428D01*
X64667143Y-23314285D01*
X64595714Y-23385714D01*
X64452857Y-23457142D01*
X64167143Y-23528571D01*
X63810000Y-23528571D01*
X63524286Y-23457142D01*
X63381429Y-23385714D01*
X63310000Y-23314285D01*
X63238571Y-23171428D01*
X61810000Y-25528571D02*
X61810000Y-24814285D01*
X62238571Y-25671428D02*
X60738571Y-25171428D01*
X62238571Y-24671428D01*
X62238571Y-24171428D02*
X60738571Y-24171428D01*
X62238571Y-22671428D02*
X62238571Y-23528571D01*
X62238571Y-23099999D02*
X60738571Y-23099999D01*
X60952857Y-23242856D01*
X61095714Y-23385714D01*
X61167143Y-23528571D01*
X59060000Y-25528571D02*
X59060000Y-24814285D01*
X59488571Y-25671428D02*
X57988571Y-25171428D01*
X59488571Y-24671428D01*
X59488571Y-24171428D02*
X57988571Y-24171428D01*
X58131429Y-23528571D02*
X58060000Y-23457142D01*
X57988571Y-23314285D01*
X57988571Y-22957142D01*
X58060000Y-22814285D01*
X58131429Y-22742856D01*
X58274286Y-22671428D01*
X58417143Y-22671428D01*
X58631429Y-22742856D01*
X59488571Y-23599999D01*
X59488571Y-22671428D01*
X56560000Y-25528571D02*
X56560000Y-24814285D01*
X56988571Y-25671428D02*
X55488571Y-25171428D01*
X56988571Y-24671428D01*
X56988571Y-24171428D02*
X55488571Y-24171428D01*
X55488571Y-23599999D02*
X55488571Y-22671428D01*
X56060000Y-23171428D01*
X56060000Y-22957142D01*
X56131429Y-22814285D01*
X56202857Y-22742856D01*
X56345714Y-22671428D01*
X56702857Y-22671428D01*
X56845714Y-22742856D01*
X56917143Y-22814285D01*
X56988571Y-22957142D01*
X56988571Y-23385714D01*
X56917143Y-23528571D01*
X56845714Y-23599999D01*
X54060000Y-25528571D02*
X54060000Y-24814285D01*
X54488571Y-25671428D02*
X52988571Y-25171428D01*
X54488571Y-24671428D01*
X54488571Y-24171428D02*
X52988571Y-24171428D01*
X53488571Y-22814285D02*
X54488571Y-22814285D01*
X52917143Y-23171428D02*
X53988571Y-23528571D01*
X53988571Y-22599999D01*
X51310000Y-25528571D02*
X51310000Y-24814285D01*
X51738571Y-25671428D02*
X50238571Y-25171428D01*
X51738571Y-24671428D01*
X51738571Y-24171428D02*
X50238571Y-24171428D01*
X50238571Y-22742856D02*
X50238571Y-23457142D01*
X50952857Y-23528571D01*
X50881429Y-23457142D01*
X50810000Y-23314285D01*
X50810000Y-22957142D01*
X50881429Y-22814285D01*
X50952857Y-22742856D01*
X51095714Y-22671428D01*
X51452857Y-22671428D01*
X51595714Y-22742856D01*
X51667143Y-22814285D01*
X51738571Y-22957142D01*
X51738571Y-23314285D01*
X51667143Y-23457142D01*
X51595714Y-23528571D01*
X48810000Y-26492857D02*
X48810000Y-25778571D01*
X49238571Y-26635714D02*
X47738571Y-26135714D01*
X49238571Y-25635714D01*
X49238571Y-25135714D02*
X48238571Y-25135714D01*
X48524286Y-25135714D02*
X48381429Y-25064286D01*
X48310000Y-24992857D01*
X48238571Y-24850000D01*
X48238571Y-24707143D01*
X49167143Y-23635715D02*
X49238571Y-23778572D01*
X49238571Y-24064286D01*
X49167143Y-24207143D01*
X49024286Y-24278572D01*
X48452857Y-24278572D01*
X48310000Y-24207143D01*
X48238571Y-24064286D01*
X48238571Y-23778572D01*
X48310000Y-23635715D01*
X48452857Y-23564286D01*
X48595714Y-23564286D01*
X48738571Y-24278572D01*
X48238571Y-23135715D02*
X48238571Y-22564286D01*
X49238571Y-22921429D02*
X47952857Y-22921429D01*
X47810000Y-22850001D01*
X47738571Y-22707143D01*
X47738571Y-22564286D01*
D14*
X127286000Y-113000000D02*
G75*
G03X127286000Y-113000000I-2286000J0D01*
G01*
X37286000Y-113000000D02*
G75*
G03X37286000Y-113000000I-2286000J0D01*
G01*
X127286000Y-22000000D02*
G75*
G03X127286000Y-22000000I-2286000J0D01*
G01*
D11*
X95000499Y-112058800D02*
G75*
G03X95000499Y-112058800I-218499J0D01*
G01*
X95900000Y-112700000D02*
X89600000Y-112700000D01*
X89600000Y-112700000D02*
X89600000Y-110300000D01*
X89600000Y-110300000D02*
X95900000Y-110300000D01*
X95900000Y-110300000D02*
X95900000Y-112700000D01*
X103050000Y-112025000D02*
X106950000Y-112025000D01*
X106950000Y-114975000D02*
X103050000Y-114975000D01*
X103050000Y-107025000D02*
X106950000Y-107025000D01*
X106950000Y-109975000D02*
X103050000Y-109975000D01*
D14*
X56930000Y-63320000D02*
X56930000Y-79060000D01*
X56930000Y-79060000D02*
X47330000Y-79060000D01*
X47330000Y-79060000D02*
X47330000Y-63320000D01*
X47330000Y-63320000D02*
X56930000Y-63320000D01*
D11*
X115259647Y-24249845D02*
G75*
G03X113760000Y-24250000I-749647J-1700155D01*
G01*
X118759647Y-24249845D02*
G75*
G03X117260000Y-24250000I-749647J-1700155D01*
G01*
X111980000Y-17670000D02*
X111980000Y-25080000D01*
X111980000Y-25080000D02*
X120540000Y-25080000D01*
X120540000Y-25080000D02*
X120540000Y-17670000D01*
X120540000Y-17670000D02*
X111980000Y-17670000D01*
X113760000Y-24250000D02*
X113010000Y-24250000D01*
X113010000Y-24250000D02*
X113010000Y-19950000D01*
X113010000Y-19950000D02*
X113760000Y-19950000D01*
X113760000Y-19950000D02*
X113760000Y-19600000D01*
X113760000Y-19600000D02*
X113260000Y-19600000D01*
X113260000Y-19600000D02*
X113010000Y-18600000D01*
X113010000Y-18600000D02*
X116010000Y-18600000D01*
X116010000Y-18600000D02*
X115760000Y-19600000D01*
X115760000Y-19600000D02*
X115260000Y-19600000D01*
X115260000Y-19600000D02*
X115260000Y-19950000D01*
X115260000Y-19950000D02*
X115260000Y-19950000D01*
X115260000Y-19950000D02*
X116010000Y-19950000D01*
X116010000Y-19950000D02*
X116010000Y-24250000D01*
X116010000Y-24250000D02*
X115260000Y-24250000D01*
X117260000Y-24250000D02*
X116510000Y-24250000D01*
X116510000Y-24250000D02*
X116510000Y-19950000D01*
X116510000Y-19950000D02*
X117260000Y-19950000D01*
X117260000Y-19950000D02*
X117260000Y-19600000D01*
X117260000Y-19600000D02*
X116760000Y-19600000D01*
X116760000Y-19600000D02*
X116510000Y-18600000D01*
X116510000Y-18600000D02*
X119510000Y-18600000D01*
X119510000Y-18600000D02*
X119260000Y-19600000D01*
X119260000Y-19600000D02*
X118760000Y-19600000D01*
X118760000Y-19600000D02*
X118760000Y-19950000D01*
X118760000Y-19950000D02*
X118760000Y-19950000D01*
X118760000Y-19950000D02*
X119510000Y-19950000D01*
X119510000Y-19950000D02*
X119510000Y-24250000D01*
X119510000Y-24250000D02*
X118760000Y-24250000D01*
X72335000Y-30800000D02*
X72335000Y-32800000D01*
X70185000Y-32800000D02*
X70185000Y-30800000D01*
D14*
X28330000Y-26000000D02*
X28330000Y-34700000D01*
X34740000Y-26000000D02*
X34740000Y-34700000D01*
X34740000Y-34700000D02*
X28330000Y-34700000D01*
X29560000Y-34700000D02*
X29560000Y-26000000D01*
X28330000Y-26000000D02*
X34740000Y-26000000D01*
D11*
X96075000Y-78000000D02*
X96075000Y-80000000D01*
X93925000Y-80000000D02*
X93925000Y-78000000D01*
X34180000Y-53770000D02*
X34180000Y-84250000D01*
X34180000Y-84250000D02*
X31640000Y-84250000D01*
X31640000Y-84250000D02*
X31640000Y-53770000D01*
X31360000Y-50950000D02*
X31360000Y-52500000D01*
X31640000Y-53770000D02*
X34180000Y-53770000D01*
X34460000Y-52500000D02*
X34460000Y-50950000D01*
X34460000Y-50950000D02*
X31360000Y-50950000D01*
X61285000Y-57175000D02*
X61285000Y-57750000D01*
X71635000Y-57175000D02*
X71635000Y-57850000D01*
X71635000Y-67525000D02*
X71635000Y-66850000D01*
X61285000Y-67525000D02*
X61285000Y-66850000D01*
X61285000Y-57175000D02*
X61960000Y-57175000D01*
X61285000Y-67525000D02*
X61960000Y-67525000D01*
X71635000Y-67525000D02*
X70960000Y-67525000D01*
X71635000Y-57175000D02*
X70960000Y-57175000D01*
X61285000Y-57750000D02*
X60010000Y-57750000D01*
X119251200Y-30000000D02*
X112748800Y-30000000D01*
X128867640Y-33429000D02*
X125057640Y-33429000D01*
X119215640Y-33429000D02*
X122263640Y-33429000D01*
X121715000Y-32540000D02*
X124382000Y-32540000D01*
X127978640Y-32540000D02*
X125311640Y-32540000D01*
X119215640Y-27460000D02*
X122009640Y-27460000D01*
X127976100Y-27460000D02*
X125309100Y-27460000D01*
X128867640Y-26571000D02*
X125184640Y-26571000D01*
X119215640Y-26571000D02*
X122136640Y-26571000D01*
X103132360Y-33429000D02*
X106815360Y-33429000D01*
X112657360Y-33429000D02*
X109863360Y-33429000D01*
X110117360Y-32540000D02*
X109990360Y-32540000D01*
X110117360Y-32540000D02*
X112657360Y-32540000D01*
X103894360Y-32540000D02*
X106688360Y-32540000D01*
X103132360Y-26571000D02*
X106942360Y-26571000D01*
X112657360Y-26571000D02*
X109863360Y-26571000D01*
X112657360Y-27460000D02*
X109990360Y-27460000D01*
X103894360Y-27460000D02*
X106688360Y-27460000D01*
X128867640Y-26571000D02*
X128867640Y-33429000D01*
X119215640Y-33429000D02*
X119215640Y-32540000D01*
X119215640Y-26571000D02*
X119215640Y-27460000D01*
X103132360Y-26571000D02*
X103132360Y-33429000D01*
X112657360Y-33429000D02*
X112657360Y-32540000D01*
X112657360Y-26571000D02*
X112657360Y-27587000D01*
X121715000Y-32540000D02*
X110031000Y-32540000D01*
X110158000Y-27460000D02*
X121715000Y-27460000D01*
X112657360Y-30000000D02*
X112657360Y-27460000D01*
X103896900Y-27460000D02*
X103896900Y-32540000D01*
X112657360Y-32540000D02*
X112657360Y-30000000D01*
X119215640Y-30000000D02*
X119215640Y-27460000D01*
X127976100Y-27460000D02*
X127976100Y-32540000D01*
X119215640Y-32540000D02*
X119215640Y-30000000D01*
D14*
X47885000Y-33800000D02*
X47885000Y-31800000D01*
X45835000Y-31800000D02*
X45835000Y-33800000D01*
X50885000Y-33800000D02*
X50885000Y-31800000D01*
X48835000Y-31800000D02*
X48835000Y-33800000D01*
X70235000Y-24150000D02*
X70235000Y-26150000D01*
X72285000Y-26150000D02*
X72285000Y-24150000D01*
X53335000Y-58550000D02*
X53335000Y-60550000D01*
X55385000Y-60550000D02*
X55385000Y-58550000D01*
X54910000Y-40750000D02*
X56610000Y-40750000D01*
X56610000Y-40700000D02*
X56610000Y-36650000D01*
X54910000Y-40700000D02*
X54910000Y-36650000D01*
X63760000Y-97200000D02*
X65460000Y-97200000D01*
X65460000Y-97150000D02*
X65460000Y-93100000D01*
X63760000Y-97150000D02*
X63760000Y-93100000D01*
X67260000Y-97200000D02*
X68960000Y-97200000D01*
X68960000Y-97150000D02*
X68960000Y-93100000D01*
X67260000Y-97150000D02*
X67260000Y-93100000D01*
X47760000Y-108800000D02*
X49460000Y-108800000D01*
X49460000Y-108750000D02*
X49460000Y-104700000D01*
X47760000Y-108750000D02*
X47760000Y-104700000D01*
X97150000Y-41500000D02*
X98850000Y-41500000D01*
X98850000Y-41450000D02*
X98850000Y-37400000D01*
X97150000Y-41450000D02*
X97150000Y-37400000D01*
X97150000Y-61500000D02*
X98850000Y-61500000D01*
X98850000Y-61450000D02*
X98850000Y-57400000D01*
X97150000Y-61450000D02*
X97150000Y-57400000D01*
D11*
X39116000Y-43398000D02*
X32004000Y-43398000D01*
X39116000Y-37302000D02*
X32004000Y-37302000D01*
D14*
X39080000Y-95890000D02*
X41740000Y-95890000D01*
X41740000Y-95890000D02*
X41740000Y-93110000D01*
X41740000Y-93110000D02*
X39080000Y-93110000D01*
X39080000Y-93110000D02*
X39080000Y-95890000D01*
X37810000Y-95890000D02*
X36420000Y-95890000D01*
X36420000Y-95890000D02*
X36420000Y-94500000D01*
X39080000Y-91290000D02*
X41740000Y-91290000D01*
X41740000Y-91290000D02*
X41740000Y-88510000D01*
X41740000Y-88510000D02*
X39080000Y-88510000D01*
X39080000Y-88510000D02*
X39080000Y-91290000D01*
X37810000Y-91290000D02*
X36420000Y-91290000D01*
X36420000Y-91290000D02*
X36420000Y-89900000D01*
D11*
X93075000Y-38000000D02*
X93075000Y-40000000D01*
X90925000Y-40000000D02*
X90925000Y-38000000D01*
X96075000Y-38000000D02*
X96075000Y-40000000D01*
X93925000Y-40000000D02*
X93925000Y-38000000D01*
X104000000Y-22925000D02*
X106000000Y-22925000D01*
X106000000Y-25075000D02*
X104000000Y-25075000D01*
X91760000Y-105875000D02*
X93760000Y-105875000D01*
X93760000Y-108025000D02*
X91760000Y-108025000D01*
X39310000Y-31775000D02*
X41310000Y-31775000D01*
X41310000Y-33925000D02*
X39310000Y-33925000D01*
X54685000Y-33650000D02*
X54685000Y-31650000D01*
X56835000Y-31650000D02*
X56835000Y-33650000D01*
X39310000Y-26525000D02*
X41310000Y-26525000D01*
X41310000Y-28675000D02*
X39310000Y-28675000D01*
X93075000Y-58000000D02*
X93075000Y-60000000D01*
X90925000Y-60000000D02*
X90925000Y-58000000D01*
X96075000Y-58000000D02*
X96075000Y-60000000D01*
X93925000Y-60000000D02*
X93925000Y-58000000D01*
X70185000Y-45050000D02*
X70185000Y-43050000D01*
X72335000Y-43050000D02*
X72335000Y-45050000D01*
X104000000Y-42925000D02*
X106000000Y-42925000D01*
X106000000Y-45075000D02*
X104000000Y-45075000D01*
X78285000Y-24050000D02*
X78285000Y-26050000D01*
X76135000Y-26050000D02*
X76135000Y-24050000D01*
X78485000Y-30950000D02*
X78485000Y-32950000D01*
X76335000Y-32950000D02*
X76335000Y-30950000D01*
X93075000Y-78000000D02*
X93075000Y-80000000D01*
X90925000Y-80000000D02*
X90925000Y-78000000D01*
X104000000Y-62925000D02*
X106000000Y-62925000D01*
X106000000Y-65075000D02*
X104000000Y-65075000D01*
X63535000Y-90200000D02*
X63535000Y-88200000D01*
X65685000Y-88200000D02*
X65685000Y-90200000D01*
X67035000Y-90200000D02*
X67035000Y-88200000D01*
X69185000Y-88200000D02*
X69185000Y-90200000D01*
X45285000Y-101900000D02*
X45285000Y-103900000D01*
X43135000Y-103900000D02*
X43135000Y-101900000D01*
X104000000Y-82925000D02*
X106000000Y-82925000D01*
X106000000Y-85075000D02*
X104000000Y-85075000D01*
X34410000Y-95575000D02*
X32410000Y-95575000D01*
X32410000Y-93425000D02*
X34410000Y-93425000D01*
X34410000Y-90975000D02*
X32410000Y-90975000D01*
X32410000Y-88825000D02*
X34410000Y-88825000D01*
X47535000Y-101900000D02*
X47535000Y-99900000D01*
X49685000Y-99900000D02*
X49685000Y-101900000D01*
X61110000Y-40050000D02*
X61110000Y-39800000D01*
X61110000Y-39800000D02*
X67410000Y-39800000D01*
X67410000Y-39800000D02*
X67410000Y-40050000D01*
X61110000Y-44550000D02*
X61110000Y-41950000D01*
X67410000Y-46450000D02*
X67410000Y-46700000D01*
X67410000Y-46700000D02*
X61110000Y-46700000D01*
X61110000Y-46700000D02*
X61110000Y-46450000D01*
X67410000Y-41950000D02*
X67410000Y-44550000D01*
X65910000Y-43250000D02*
G75*
G03X65910000Y-43250000I-1650000J0D01*
G01*
D14*
X41610000Y-105530000D02*
X31590000Y-105530000D01*
X31590000Y-105530000D02*
X31590000Y-100570000D01*
X31590000Y-100570000D02*
X41610000Y-100570000D01*
X41610000Y-100570000D02*
X41610000Y-101780000D01*
X38630000Y-103685000D02*
X38630000Y-102415000D01*
X38630000Y-102415000D02*
X34570000Y-102415000D01*
X34570000Y-102415000D02*
X34570000Y-103685000D01*
X34570000Y-103685000D02*
X38630000Y-103685000D01*
X36600000Y-103685000D02*
X36600000Y-102415000D01*
X97150000Y-81500000D02*
X98850000Y-81500000D01*
X98850000Y-81450000D02*
X98850000Y-77400000D01*
X97150000Y-81450000D02*
X97150000Y-77400000D01*
X97150000Y-101500000D02*
X98850000Y-101500000D01*
X98850000Y-101450000D02*
X98850000Y-97400000D01*
X97150000Y-101450000D02*
X97150000Y-97400000D01*
D11*
X93075000Y-98000000D02*
X93075000Y-100000000D01*
X90925000Y-100000000D02*
X90925000Y-98000000D01*
X96075000Y-98000000D02*
X96075000Y-100000000D01*
X93925000Y-100000000D02*
X93925000Y-98000000D01*
D14*
X68510000Y-81625000D02*
X70510000Y-81625000D01*
X70510000Y-79575000D02*
X68510000Y-79575000D01*
X64310000Y-79575000D02*
X62310000Y-79575000D01*
X62310000Y-81625000D02*
X64310000Y-81625000D01*
X60210000Y-78750000D02*
X72810000Y-78750000D01*
X72810000Y-78750000D02*
X72810000Y-73650000D01*
X72810000Y-73650000D02*
X60210000Y-73650000D01*
X46260000Y-97100000D02*
X47960000Y-97100000D01*
X47960000Y-97050000D02*
X47960000Y-93000000D01*
X46260000Y-97050000D02*
X46260000Y-93000000D01*
D11*
X45935000Y-89900000D02*
X45935000Y-87900000D01*
X48085000Y-87900000D02*
X48085000Y-89900000D01*
X119251200Y-50000000D02*
X112748800Y-50000000D01*
X128867640Y-53429000D02*
X125057640Y-53429000D01*
X119215640Y-53429000D02*
X122263640Y-53429000D01*
X121715000Y-52540000D02*
X124382000Y-52540000D01*
X127978640Y-52540000D02*
X125311640Y-52540000D01*
X119215640Y-47460000D02*
X122009640Y-47460000D01*
X127976100Y-47460000D02*
X125309100Y-47460000D01*
X128867640Y-46571000D02*
X125184640Y-46571000D01*
X119215640Y-46571000D02*
X122136640Y-46571000D01*
X103132360Y-53429000D02*
X106815360Y-53429000D01*
X112657360Y-53429000D02*
X109863360Y-53429000D01*
X110117360Y-52540000D02*
X109990360Y-52540000D01*
X110117360Y-52540000D02*
X112657360Y-52540000D01*
X103894360Y-52540000D02*
X106688360Y-52540000D01*
X103132360Y-46571000D02*
X106942360Y-46571000D01*
X112657360Y-46571000D02*
X109863360Y-46571000D01*
X112657360Y-47460000D02*
X109990360Y-47460000D01*
X103894360Y-47460000D02*
X106688360Y-47460000D01*
X128867640Y-46571000D02*
X128867640Y-53429000D01*
X119215640Y-53429000D02*
X119215640Y-52540000D01*
X119215640Y-46571000D02*
X119215640Y-47460000D01*
X103132360Y-46571000D02*
X103132360Y-53429000D01*
X112657360Y-53429000D02*
X112657360Y-52540000D01*
X112657360Y-46571000D02*
X112657360Y-47587000D01*
X121715000Y-52540000D02*
X110031000Y-52540000D01*
X110158000Y-47460000D02*
X121715000Y-47460000D01*
X112657360Y-50000000D02*
X112657360Y-47460000D01*
X103896900Y-47460000D02*
X103896900Y-52540000D01*
X112657360Y-52540000D02*
X112657360Y-50000000D01*
X119215640Y-50000000D02*
X119215640Y-47460000D01*
X127976100Y-47460000D02*
X127976100Y-52540000D01*
X119215640Y-52540000D02*
X119215640Y-50000000D01*
X119251200Y-70000000D02*
X112748800Y-70000000D01*
X128867640Y-73429000D02*
X125057640Y-73429000D01*
X119215640Y-73429000D02*
X122263640Y-73429000D01*
X121715000Y-72540000D02*
X124382000Y-72540000D01*
X127978640Y-72540000D02*
X125311640Y-72540000D01*
X119215640Y-67460000D02*
X122009640Y-67460000D01*
X127976100Y-67460000D02*
X125309100Y-67460000D01*
X128867640Y-66571000D02*
X125184640Y-66571000D01*
X119215640Y-66571000D02*
X122136640Y-66571000D01*
X103132360Y-73429000D02*
X106815360Y-73429000D01*
X112657360Y-73429000D02*
X109863360Y-73429000D01*
X110117360Y-72540000D02*
X109990360Y-72540000D01*
X110117360Y-72540000D02*
X112657360Y-72540000D01*
X103894360Y-72540000D02*
X106688360Y-72540000D01*
X103132360Y-66571000D02*
X106942360Y-66571000D01*
X112657360Y-66571000D02*
X109863360Y-66571000D01*
X112657360Y-67460000D02*
X109990360Y-67460000D01*
X103894360Y-67460000D02*
X106688360Y-67460000D01*
X128867640Y-66571000D02*
X128867640Y-73429000D01*
X119215640Y-73429000D02*
X119215640Y-72540000D01*
X119215640Y-66571000D02*
X119215640Y-67460000D01*
X103132360Y-66571000D02*
X103132360Y-73429000D01*
X112657360Y-73429000D02*
X112657360Y-72540000D01*
X112657360Y-66571000D02*
X112657360Y-67587000D01*
X121715000Y-72540000D02*
X110031000Y-72540000D01*
X110158000Y-67460000D02*
X121715000Y-67460000D01*
X112657360Y-70000000D02*
X112657360Y-67460000D01*
X103896900Y-67460000D02*
X103896900Y-72540000D01*
X112657360Y-72540000D02*
X112657360Y-70000000D01*
X119215640Y-70000000D02*
X119215640Y-67460000D01*
X127976100Y-67460000D02*
X127976100Y-72540000D01*
X119215640Y-72540000D02*
X119215640Y-70000000D01*
X119251200Y-90000000D02*
X112748800Y-90000000D01*
X128867640Y-93429000D02*
X125057640Y-93429000D01*
X119215640Y-93429000D02*
X122263640Y-93429000D01*
X121715000Y-92540000D02*
X124382000Y-92540000D01*
X127978640Y-92540000D02*
X125311640Y-92540000D01*
X119215640Y-87460000D02*
X122009640Y-87460000D01*
X127976100Y-87460000D02*
X125309100Y-87460000D01*
X128867640Y-86571000D02*
X125184640Y-86571000D01*
X119215640Y-86571000D02*
X122136640Y-86571000D01*
X103132360Y-93429000D02*
X106815360Y-93429000D01*
X112657360Y-93429000D02*
X109863360Y-93429000D01*
X110117360Y-92540000D02*
X109990360Y-92540000D01*
X110117360Y-92540000D02*
X112657360Y-92540000D01*
X103894360Y-92540000D02*
X106688360Y-92540000D01*
X103132360Y-86571000D02*
X106942360Y-86571000D01*
X112657360Y-86571000D02*
X109863360Y-86571000D01*
X112657360Y-87460000D02*
X109990360Y-87460000D01*
X103894360Y-87460000D02*
X106688360Y-87460000D01*
X128867640Y-86571000D02*
X128867640Y-93429000D01*
X119215640Y-93429000D02*
X119215640Y-92540000D01*
X119215640Y-86571000D02*
X119215640Y-87460000D01*
X103132360Y-86571000D02*
X103132360Y-93429000D01*
X112657360Y-93429000D02*
X112657360Y-92540000D01*
X112657360Y-86571000D02*
X112657360Y-87587000D01*
X121715000Y-92540000D02*
X110031000Y-92540000D01*
X110158000Y-87460000D02*
X121715000Y-87460000D01*
X112657360Y-90000000D02*
X112657360Y-87460000D01*
X103896900Y-87460000D02*
X103896900Y-92540000D01*
X112657360Y-92540000D02*
X112657360Y-90000000D01*
X119215640Y-90000000D02*
X119215640Y-87460000D01*
X127976100Y-87460000D02*
X127976100Y-92540000D01*
X119215640Y-92540000D02*
X119215640Y-90000000D01*
X127249845Y-60250353D02*
G75*
G03X127250000Y-61750000I1700155J-749647D01*
G01*
X127249845Y-56750353D02*
G75*
G03X127250000Y-58250000I1700155J-749647D01*
G01*
X120670000Y-63530000D02*
X128080000Y-63530000D01*
X128080000Y-63530000D02*
X128080000Y-54970000D01*
X128080000Y-54970000D02*
X120670000Y-54970000D01*
X120670000Y-54970000D02*
X120670000Y-63530000D01*
X127250000Y-61750000D02*
X127250000Y-62500000D01*
X127250000Y-62500000D02*
X122950000Y-62500000D01*
X122950000Y-62500000D02*
X122950000Y-61750000D01*
X122950000Y-61750000D02*
X122600000Y-61750000D01*
X122600000Y-61750000D02*
X122600000Y-62250000D01*
X122600000Y-62250000D02*
X121600000Y-62500000D01*
X121600000Y-62500000D02*
X121600000Y-59500000D01*
X121600000Y-59500000D02*
X122600000Y-59750000D01*
X122600000Y-59750000D02*
X122600000Y-60250000D01*
X122600000Y-60250000D02*
X122950000Y-60250000D01*
X122950000Y-60250000D02*
X122950000Y-60250000D01*
X122950000Y-60250000D02*
X122950000Y-59500000D01*
X122950000Y-59500000D02*
X127250000Y-59500000D01*
X127250000Y-59500000D02*
X127250000Y-60250000D01*
X127250000Y-58250000D02*
X127250000Y-59000000D01*
X127250000Y-59000000D02*
X122950000Y-59000000D01*
X122950000Y-59000000D02*
X122950000Y-58250000D01*
X122950000Y-58250000D02*
X122600000Y-58250000D01*
X122600000Y-58250000D02*
X122600000Y-58750000D01*
X122600000Y-58750000D02*
X121600000Y-59000000D01*
X121600000Y-59000000D02*
X121600000Y-56000000D01*
X121600000Y-56000000D02*
X122600000Y-56250000D01*
X122600000Y-56250000D02*
X122600000Y-56750000D01*
X122600000Y-56750000D02*
X122950000Y-56750000D01*
X122950000Y-56750000D02*
X122950000Y-56750000D01*
X122950000Y-56750000D02*
X122950000Y-56000000D01*
X122950000Y-56000000D02*
X127250000Y-56000000D01*
X127250000Y-56000000D02*
X127250000Y-56750000D01*
X120250000Y-61000000D02*
X119650000Y-60700000D01*
X119650000Y-60700000D02*
X119650000Y-61300000D01*
X119650000Y-61300000D02*
X120250000Y-61000000D01*
X127249845Y-80250353D02*
G75*
G03X127250000Y-81750000I1700155J-749647D01*
G01*
X127249845Y-76750353D02*
G75*
G03X127250000Y-78250000I1700155J-749647D01*
G01*
X120670000Y-83530000D02*
X128080000Y-83530000D01*
X128080000Y-83530000D02*
X128080000Y-74970000D01*
X128080000Y-74970000D02*
X120670000Y-74970000D01*
X120670000Y-74970000D02*
X120670000Y-83530000D01*
X127250000Y-81750000D02*
X127250000Y-82500000D01*
X127250000Y-82500000D02*
X122950000Y-82500000D01*
X122950000Y-82500000D02*
X122950000Y-81750000D01*
X122950000Y-81750000D02*
X122600000Y-81750000D01*
X122600000Y-81750000D02*
X122600000Y-82250000D01*
X122600000Y-82250000D02*
X121600000Y-82500000D01*
X121600000Y-82500000D02*
X121600000Y-79500000D01*
X121600000Y-79500000D02*
X122600000Y-79750000D01*
X122600000Y-79750000D02*
X122600000Y-80250000D01*
X122600000Y-80250000D02*
X122950000Y-80250000D01*
X122950000Y-80250000D02*
X122950000Y-80250000D01*
X122950000Y-80250000D02*
X122950000Y-79500000D01*
X122950000Y-79500000D02*
X127250000Y-79500000D01*
X127250000Y-79500000D02*
X127250000Y-80250000D01*
X127250000Y-78250000D02*
X127250000Y-79000000D01*
X127250000Y-79000000D02*
X122950000Y-79000000D01*
X122950000Y-79000000D02*
X122950000Y-78250000D01*
X122950000Y-78250000D02*
X122600000Y-78250000D01*
X122600000Y-78250000D02*
X122600000Y-78750000D01*
X122600000Y-78750000D02*
X121600000Y-79000000D01*
X121600000Y-79000000D02*
X121600000Y-76000000D01*
X121600000Y-76000000D02*
X122600000Y-76250000D01*
X122600000Y-76250000D02*
X122600000Y-76750000D01*
X122600000Y-76750000D02*
X122950000Y-76750000D01*
X122950000Y-76750000D02*
X122950000Y-76750000D01*
X122950000Y-76750000D02*
X122950000Y-76000000D01*
X122950000Y-76000000D02*
X127250000Y-76000000D01*
X127250000Y-76000000D02*
X127250000Y-76750000D01*
X120250000Y-81000000D02*
X119650000Y-80700000D01*
X119650000Y-80700000D02*
X119650000Y-81300000D01*
X119650000Y-81300000D02*
X120250000Y-81000000D01*
X117250353Y-109750155D02*
G75*
G03X118750000Y-109750000I749647J1700155D01*
G01*
X113750353Y-109750155D02*
G75*
G03X115250000Y-109750000I749647J1700155D01*
G01*
X120530000Y-116330000D02*
X120530000Y-108920000D01*
X120530000Y-108920000D02*
X111970000Y-108920000D01*
X111970000Y-108920000D02*
X111970000Y-116330000D01*
X111970000Y-116330000D02*
X120530000Y-116330000D01*
X118750000Y-109750000D02*
X119500000Y-109750000D01*
X119500000Y-109750000D02*
X119500000Y-114050000D01*
X119500000Y-114050000D02*
X118750000Y-114050000D01*
X118750000Y-114050000D02*
X118750000Y-114400000D01*
X118750000Y-114400000D02*
X119250000Y-114400000D01*
X119250000Y-114400000D02*
X119500000Y-115400000D01*
X119500000Y-115400000D02*
X116500000Y-115400000D01*
X116500000Y-115400000D02*
X116750000Y-114400000D01*
X116750000Y-114400000D02*
X117250000Y-114400000D01*
X117250000Y-114400000D02*
X117250000Y-114050000D01*
X117250000Y-114050000D02*
X117250000Y-114050000D01*
X117250000Y-114050000D02*
X116500000Y-114050000D01*
X116500000Y-114050000D02*
X116500000Y-109750000D01*
X116500000Y-109750000D02*
X117250000Y-109750000D01*
X115250000Y-109750000D02*
X116000000Y-109750000D01*
X116000000Y-109750000D02*
X116000000Y-114050000D01*
X116000000Y-114050000D02*
X115250000Y-114050000D01*
X115250000Y-114050000D02*
X115250000Y-114400000D01*
X115250000Y-114400000D02*
X115750000Y-114400000D01*
X115750000Y-114400000D02*
X116000000Y-115400000D01*
X116000000Y-115400000D02*
X113000000Y-115400000D01*
X113000000Y-115400000D02*
X113250000Y-114400000D01*
X113250000Y-114400000D02*
X113750000Y-114400000D01*
X113750000Y-114400000D02*
X113750000Y-114050000D01*
X113750000Y-114050000D02*
X113750000Y-114050000D01*
X113750000Y-114050000D02*
X113000000Y-114050000D01*
X113000000Y-114050000D02*
X113000000Y-109750000D01*
X113000000Y-109750000D02*
X113750000Y-109750000D01*
X118000000Y-116750000D02*
X117700000Y-117350000D01*
X117700000Y-117350000D02*
X118300000Y-117350000D01*
X118300000Y-117350000D02*
X118000000Y-116750000D01*
X127249845Y-40250353D02*
G75*
G03X127250000Y-41750000I1700155J-749647D01*
G01*
X127249845Y-36750353D02*
G75*
G03X127250000Y-38250000I1700155J-749647D01*
G01*
X120670000Y-43530000D02*
X128080000Y-43530000D01*
X128080000Y-43530000D02*
X128080000Y-34970000D01*
X128080000Y-34970000D02*
X120670000Y-34970000D01*
X120670000Y-34970000D02*
X120670000Y-43530000D01*
X127250000Y-41750000D02*
X127250000Y-42500000D01*
X127250000Y-42500000D02*
X122950000Y-42500000D01*
X122950000Y-42500000D02*
X122950000Y-41750000D01*
X122950000Y-41750000D02*
X122600000Y-41750000D01*
X122600000Y-41750000D02*
X122600000Y-42250000D01*
X122600000Y-42250000D02*
X121600000Y-42500000D01*
X121600000Y-42500000D02*
X121600000Y-39500000D01*
X121600000Y-39500000D02*
X122600000Y-39750000D01*
X122600000Y-39750000D02*
X122600000Y-40250000D01*
X122600000Y-40250000D02*
X122950000Y-40250000D01*
X122950000Y-40250000D02*
X122950000Y-40250000D01*
X122950000Y-40250000D02*
X122950000Y-39500000D01*
X122950000Y-39500000D02*
X127250000Y-39500000D01*
X127250000Y-39500000D02*
X127250000Y-40250000D01*
X127250000Y-38250000D02*
X127250000Y-39000000D01*
X127250000Y-39000000D02*
X122950000Y-39000000D01*
X122950000Y-39000000D02*
X122950000Y-38250000D01*
X122950000Y-38250000D02*
X122600000Y-38250000D01*
X122600000Y-38250000D02*
X122600000Y-38750000D01*
X122600000Y-38750000D02*
X121600000Y-39000000D01*
X121600000Y-39000000D02*
X121600000Y-36000000D01*
X121600000Y-36000000D02*
X122600000Y-36250000D01*
X122600000Y-36250000D02*
X122600000Y-36750000D01*
X122600000Y-36750000D02*
X122950000Y-36750000D01*
X122950000Y-36750000D02*
X122950000Y-36750000D01*
X122950000Y-36750000D02*
X122950000Y-36000000D01*
X122950000Y-36000000D02*
X127250000Y-36000000D01*
X127250000Y-36000000D02*
X127250000Y-36750000D01*
X120250000Y-41000000D02*
X119650000Y-40700000D01*
X119650000Y-40700000D02*
X119650000Y-41300000D01*
X119650000Y-41300000D02*
X120250000Y-41000000D01*
X127249845Y-100250353D02*
G75*
G03X127250000Y-101750000I1700155J-749647D01*
G01*
X127249845Y-96750353D02*
G75*
G03X127250000Y-98250000I1700155J-749647D01*
G01*
X120670000Y-103530000D02*
X128080000Y-103530000D01*
X128080000Y-103530000D02*
X128080000Y-94970000D01*
X128080000Y-94970000D02*
X120670000Y-94970000D01*
X120670000Y-94970000D02*
X120670000Y-103530000D01*
X127250000Y-101750000D02*
X127250000Y-102500000D01*
X127250000Y-102500000D02*
X122950000Y-102500000D01*
X122950000Y-102500000D02*
X122950000Y-101750000D01*
X122950000Y-101750000D02*
X122600000Y-101750000D01*
X122600000Y-101750000D02*
X122600000Y-102250000D01*
X122600000Y-102250000D02*
X121600000Y-102500000D01*
X121600000Y-102500000D02*
X121600000Y-99500000D01*
X121600000Y-99500000D02*
X122600000Y-99750000D01*
X122600000Y-99750000D02*
X122600000Y-100250000D01*
X122600000Y-100250000D02*
X122950000Y-100250000D01*
X122950000Y-100250000D02*
X122950000Y-100250000D01*
X122950000Y-100250000D02*
X122950000Y-99500000D01*
X122950000Y-99500000D02*
X127250000Y-99500000D01*
X127250000Y-99500000D02*
X127250000Y-100250000D01*
X127250000Y-98250000D02*
X127250000Y-99000000D01*
X127250000Y-99000000D02*
X122950000Y-99000000D01*
X122950000Y-99000000D02*
X122950000Y-98250000D01*
X122950000Y-98250000D02*
X122600000Y-98250000D01*
X122600000Y-98250000D02*
X122600000Y-98750000D01*
X122600000Y-98750000D02*
X121600000Y-99000000D01*
X121600000Y-99000000D02*
X121600000Y-96000000D01*
X121600000Y-96000000D02*
X122600000Y-96250000D01*
X122600000Y-96250000D02*
X122600000Y-96750000D01*
X122600000Y-96750000D02*
X122950000Y-96750000D01*
X122950000Y-96750000D02*
X122950000Y-96750000D01*
X122950000Y-96750000D02*
X122950000Y-96000000D01*
X122950000Y-96000000D02*
X127250000Y-96000000D01*
X127250000Y-96000000D02*
X127250000Y-96750000D01*
X120250000Y-101000000D02*
X119650000Y-100700000D01*
X119650000Y-100700000D02*
X119650000Y-101300000D01*
X119650000Y-101300000D02*
X120250000Y-101000000D01*
X62540000Y-19330000D02*
X47300000Y-19330000D01*
X47300000Y-19330000D02*
X47300000Y-21870000D01*
X47300000Y-21870000D02*
X62540000Y-21870000D01*
X65360000Y-19050000D02*
X63810000Y-19050000D01*
X62540000Y-19330000D02*
X62540000Y-21870000D01*
X63810000Y-22150000D02*
X65360000Y-22150000D01*
X65360000Y-22150000D02*
X65360000Y-19050000D01*
X75610000Y-18900000D02*
X74060000Y-18900000D01*
X70250000Y-19180000D02*
X72790000Y-19180000D01*
X72790000Y-19180000D02*
X72790000Y-21720000D01*
X74060000Y-22000000D02*
X75610000Y-22000000D01*
X75610000Y-22000000D02*
X75610000Y-18900000D01*
X72790000Y-21720000D02*
X70250000Y-21720000D01*
X70250000Y-21720000D02*
X70250000Y-19180000D01*
D14*
X73260000Y-27500000D02*
X75260000Y-27500000D01*
X75260000Y-27500000D02*
X75260000Y-23600000D01*
X73260000Y-27500000D02*
X73260000Y-23600000D01*
X53885000Y-33800000D02*
X53885000Y-31800000D01*
X51835000Y-31800000D02*
X51835000Y-33800000D01*
X75520000Y-31950000D02*
X75520000Y-30050000D01*
X73200000Y-30550000D02*
X73200000Y-31950000D01*
X114620000Y-34420000D02*
X114620000Y-44660000D01*
X109979000Y-34420000D02*
X109979000Y-44660000D01*
X114620000Y-34420000D02*
X109979000Y-34420000D01*
X114620000Y-44660000D02*
X109979000Y-44660000D01*
X113110000Y-34420000D02*
X113110000Y-44660000D01*
X114620000Y-37690000D02*
X113110000Y-37690000D01*
X114620000Y-41391000D02*
X113110000Y-41391000D01*
X114620000Y-54420000D02*
X114620000Y-64660000D01*
X109979000Y-54420000D02*
X109979000Y-64660000D01*
X114620000Y-54420000D02*
X109979000Y-54420000D01*
X114620000Y-64660000D02*
X109979000Y-64660000D01*
X113110000Y-54420000D02*
X113110000Y-64660000D01*
X114620000Y-57690000D02*
X113110000Y-57690000D01*
X114620000Y-61391000D02*
X113110000Y-61391000D01*
X114620000Y-74420000D02*
X114620000Y-84660000D01*
X109979000Y-74420000D02*
X109979000Y-84660000D01*
X114620000Y-74420000D02*
X109979000Y-74420000D01*
X114620000Y-84660000D02*
X109979000Y-84660000D01*
X113110000Y-74420000D02*
X113110000Y-84660000D01*
X114620000Y-77690000D02*
X113110000Y-77690000D01*
X114620000Y-81391000D02*
X113110000Y-81391000D01*
X114620000Y-94420000D02*
X114620000Y-104660000D01*
X109979000Y-94420000D02*
X109979000Y-104660000D01*
X114620000Y-94420000D02*
X109979000Y-94420000D01*
X114620000Y-104660000D02*
X109979000Y-104660000D01*
X113110000Y-94420000D02*
X113110000Y-104660000D01*
X114620000Y-97690000D02*
X113110000Y-97690000D01*
X114620000Y-101391000D02*
X113110000Y-101391000D01*
X78330000Y-21570000D02*
X78330000Y-21630000D01*
X78330000Y-21630000D02*
X80990000Y-21630000D01*
X80990000Y-21630000D02*
X80990000Y-21570000D01*
X80990000Y-21570000D02*
X78330000Y-21570000D01*
X78330000Y-20300000D02*
X78330000Y-18970000D01*
X78330000Y-18970000D02*
X79660000Y-18970000D01*
X79140000Y-115470000D02*
X79140000Y-115530000D01*
X79140000Y-115530000D02*
X73940000Y-115530000D01*
X73940000Y-115530000D02*
X73940000Y-112870000D01*
X73940000Y-112870000D02*
X76540000Y-112870000D01*
X76540000Y-112870000D02*
X76540000Y-115470000D01*
X76540000Y-115470000D02*
X79140000Y-115470000D01*
X79140000Y-114200000D02*
X79140000Y-112870000D01*
X79140000Y-112870000D02*
X77870000Y-112870000D01*
X71790000Y-115420000D02*
X71790000Y-115480000D01*
X71790000Y-115480000D02*
X66590000Y-115480000D01*
X66590000Y-115480000D02*
X66590000Y-112820000D01*
X66590000Y-112820000D02*
X69190000Y-112820000D01*
X69190000Y-112820000D02*
X69190000Y-115420000D01*
X69190000Y-115420000D02*
X71790000Y-115420000D01*
X71790000Y-114150000D02*
X71790000Y-112820000D01*
X71790000Y-112820000D02*
X70520000Y-112820000D01*
X95000000Y-27070000D02*
X93430000Y-27070000D01*
X93430000Y-27070000D02*
X93430000Y-34930000D01*
X93430000Y-34930000D02*
X98570000Y-34930000D01*
X98570000Y-34930000D02*
X98570000Y-27070000D01*
X98570000Y-27070000D02*
X97000000Y-27070000D01*
X97000000Y-27070000D02*
G75*
G02X95000000Y-27070000I-1000000J0D01*
G01*
X95000000Y-47070000D02*
X93430000Y-47070000D01*
X93430000Y-47070000D02*
X93430000Y-54930000D01*
X93430000Y-54930000D02*
X98570000Y-54930000D01*
X98570000Y-54930000D02*
X98570000Y-47070000D01*
X98570000Y-47070000D02*
X97000000Y-47070000D01*
X97000000Y-47070000D02*
G75*
G02X95000000Y-47070000I-1000000J0D01*
G01*
X95000000Y-67070000D02*
X93430000Y-67070000D01*
X93430000Y-67070000D02*
X93430000Y-74930000D01*
X93430000Y-74930000D02*
X98570000Y-74930000D01*
X98570000Y-74930000D02*
X98570000Y-67070000D01*
X98570000Y-67070000D02*
X97000000Y-67070000D01*
X97000000Y-67070000D02*
G75*
G02X95000000Y-67070000I-1000000J0D01*
G01*
X95000000Y-87070000D02*
X93430000Y-87070000D01*
X93430000Y-87070000D02*
X93430000Y-94930000D01*
X93430000Y-94930000D02*
X98570000Y-94930000D01*
X98570000Y-94930000D02*
X98570000Y-87070000D01*
X98570000Y-87070000D02*
X97000000Y-87070000D01*
X97000000Y-87070000D02*
G75*
G02X95000000Y-87070000I-1000000J0D01*
G01*
X64730000Y-31520000D02*
X64730000Y-31580000D01*
X64730000Y-31580000D02*
X67390000Y-31580000D01*
X67390000Y-31580000D02*
X67390000Y-31520000D01*
X67390000Y-31520000D02*
X64730000Y-31520000D01*
X64730000Y-30250000D02*
X64730000Y-28920000D01*
X64730000Y-28920000D02*
X66060000Y-28920000D01*
X37286000Y-21000000D02*
G75*
G03X37286000Y-21000000I-2286000J0D01*
G01*
D11*
X91988095Y-114302381D02*
X91988095Y-115111905D01*
X92035714Y-115207143D01*
X92083333Y-115254762D01*
X92178571Y-115302381D01*
X92369048Y-115302381D01*
X92464286Y-115254762D01*
X92511905Y-115207143D01*
X92559524Y-115111905D01*
X92559524Y-114302381D01*
X93464286Y-114302381D02*
X93273809Y-114302381D01*
X93178571Y-114350000D01*
X93130952Y-114397619D01*
X93035714Y-114540476D01*
X92988095Y-114730952D01*
X92988095Y-115111905D01*
X93035714Y-115207143D01*
X93083333Y-115254762D01*
X93178571Y-115302381D01*
X93369048Y-115302381D01*
X93464286Y-115254762D01*
X93511905Y-115207143D01*
X93559524Y-115111905D01*
X93559524Y-114873810D01*
X93511905Y-114778571D01*
X93464286Y-114730952D01*
X93369048Y-114683333D01*
X93178571Y-114683333D01*
X93083333Y-114730952D01*
X93035714Y-114778571D01*
X92988095Y-114873810D01*
X104833334Y-116652381D02*
X104500000Y-116176190D01*
X104261905Y-116652381D02*
X104261905Y-115652381D01*
X104642858Y-115652381D01*
X104738096Y-115700000D01*
X104785715Y-115747619D01*
X104833334Y-115842857D01*
X104833334Y-115985714D01*
X104785715Y-116080952D01*
X104738096Y-116128571D01*
X104642858Y-116176190D01*
X104261905Y-116176190D01*
X105404762Y-116080952D02*
X105309524Y-116033333D01*
X105261905Y-115985714D01*
X105214286Y-115890476D01*
X105214286Y-115842857D01*
X105261905Y-115747619D01*
X105309524Y-115700000D01*
X105404762Y-115652381D01*
X105595239Y-115652381D01*
X105690477Y-115700000D01*
X105738096Y-115747619D01*
X105785715Y-115842857D01*
X105785715Y-115890476D01*
X105738096Y-115985714D01*
X105690477Y-116033333D01*
X105595239Y-116080952D01*
X105404762Y-116080952D01*
X105309524Y-116128571D01*
X105261905Y-116176190D01*
X105214286Y-116271429D01*
X105214286Y-116461905D01*
X105261905Y-116557143D01*
X105309524Y-116604762D01*
X105404762Y-116652381D01*
X105595239Y-116652381D01*
X105690477Y-116604762D01*
X105738096Y-116557143D01*
X105785715Y-116461905D01*
X105785715Y-116271429D01*
X105738096Y-116176190D01*
X105690477Y-116128571D01*
X105595239Y-116080952D01*
X104833334Y-111652381D02*
X104500000Y-111176190D01*
X104261905Y-111652381D02*
X104261905Y-110652381D01*
X104642858Y-110652381D01*
X104738096Y-110700000D01*
X104785715Y-110747619D01*
X104833334Y-110842857D01*
X104833334Y-110985714D01*
X104785715Y-111080952D01*
X104738096Y-111128571D01*
X104642858Y-111176190D01*
X104261905Y-111176190D01*
X105309524Y-111652381D02*
X105500000Y-111652381D01*
X105595239Y-111604762D01*
X105642858Y-111557143D01*
X105738096Y-111414286D01*
X105785715Y-111223810D01*
X105785715Y-110842857D01*
X105738096Y-110747619D01*
X105690477Y-110700000D01*
X105595239Y-110652381D01*
X105404762Y-110652381D01*
X105309524Y-110700000D01*
X105261905Y-110747619D01*
X105214286Y-110842857D01*
X105214286Y-111080952D01*
X105261905Y-111176190D01*
X105309524Y-111223810D01*
X105404762Y-111271429D01*
X105595239Y-111271429D01*
X105690477Y-111223810D01*
X105738096Y-111176190D01*
X105785715Y-111080952D01*
X58812381Y-72388095D02*
X57812381Y-72388095D01*
X57812381Y-72007142D01*
X57860000Y-71911904D01*
X57907619Y-71864285D01*
X58002857Y-71816666D01*
X58145714Y-71816666D01*
X58240952Y-71864285D01*
X58288571Y-71911904D01*
X58336190Y-72007142D01*
X58336190Y-72388095D01*
X57812381Y-71483333D02*
X57812381Y-70816666D01*
X58812381Y-71245238D01*
D14*
X49592381Y-68384285D02*
X49592381Y-68955714D01*
X49592381Y-68670000D02*
X48592381Y-68670000D01*
X48735238Y-68765238D01*
X48830476Y-68860476D01*
X48878095Y-68955714D01*
D11*
X109571905Y-19302381D02*
X109571905Y-18302381D01*
X109952858Y-18302381D01*
X110048096Y-18350000D01*
X110095715Y-18397619D01*
X110143334Y-18492857D01*
X110143334Y-18635714D01*
X110095715Y-18730952D01*
X110048096Y-18778571D01*
X109952858Y-18826190D01*
X109571905Y-18826190D01*
X111000477Y-18302381D02*
X110810000Y-18302381D01*
X110714762Y-18350000D01*
X110667143Y-18397619D01*
X110571905Y-18540476D01*
X110524286Y-18730952D01*
X110524286Y-19111905D01*
X110571905Y-19207143D01*
X110619524Y-19254762D01*
X110714762Y-19302381D01*
X110905239Y-19302381D01*
X111000477Y-19254762D01*
X111048096Y-19207143D01*
X111095715Y-19111905D01*
X111095715Y-18873810D01*
X111048096Y-18778571D01*
X111000477Y-18730952D01*
X110905239Y-18683333D01*
X110714762Y-18683333D01*
X110619524Y-18730952D01*
X110571905Y-18778571D01*
X110524286Y-18873810D01*
X69412381Y-32442857D02*
X68936190Y-32776191D01*
X69412381Y-33014286D02*
X68412381Y-33014286D01*
X68412381Y-32633333D01*
X68460000Y-32538095D01*
X68507619Y-32490476D01*
X68602857Y-32442857D01*
X68745714Y-32442857D01*
X68840952Y-32490476D01*
X68888571Y-32538095D01*
X68936190Y-32633333D01*
X68936190Y-33014286D01*
X68507619Y-32061905D02*
X68460000Y-32014286D01*
X68412381Y-31919048D01*
X68412381Y-31680952D01*
X68460000Y-31585714D01*
X68507619Y-31538095D01*
X68602857Y-31490476D01*
X68698095Y-31490476D01*
X68840952Y-31538095D01*
X69412381Y-32109524D01*
X69412381Y-31490476D01*
X69412381Y-31014286D02*
X69412381Y-30823810D01*
X69364762Y-30728571D01*
X69317143Y-30680952D01*
X69174286Y-30585714D01*
X68983810Y-30538095D01*
X68602857Y-30538095D01*
X68507619Y-30585714D01*
X68460000Y-30633333D01*
X68412381Y-30728571D01*
X68412381Y-30919048D01*
X68460000Y-31014286D01*
X68507619Y-31061905D01*
X68602857Y-31109524D01*
X68840952Y-31109524D01*
X68936190Y-31061905D01*
X68983810Y-31014286D01*
X69031429Y-30919048D01*
X69031429Y-30728571D01*
X68983810Y-30633333D01*
X68936190Y-30585714D01*
X68840952Y-30538095D01*
X94378543Y-82900781D02*
X94045209Y-82424590D01*
X93807114Y-82900781D02*
X93807114Y-81900781D01*
X94188067Y-81900781D01*
X94283305Y-81948400D01*
X94330924Y-81996019D01*
X94378543Y-82091257D01*
X94378543Y-82234114D01*
X94330924Y-82329352D01*
X94283305Y-82376971D01*
X94188067Y-82424590D01*
X93807114Y-82424590D01*
X95330924Y-82900781D02*
X94759495Y-82900781D01*
X95045209Y-82900781D02*
X95045209Y-81900781D01*
X94949971Y-82043638D01*
X94854733Y-82138876D01*
X94759495Y-82186495D01*
X95664257Y-81900781D02*
X96330924Y-81900781D01*
X95902352Y-82900781D01*
X32071905Y-49452381D02*
X32071905Y-48452381D01*
X32452858Y-48452381D01*
X32548096Y-48500000D01*
X32595715Y-48547619D01*
X32643334Y-48642857D01*
X32643334Y-48785714D01*
X32595715Y-48880952D01*
X32548096Y-48928571D01*
X32452858Y-48976190D01*
X32071905Y-48976190D01*
X33119524Y-49452381D02*
X33310000Y-49452381D01*
X33405239Y-49404762D01*
X33452858Y-49357143D01*
X33548096Y-49214286D01*
X33595715Y-49023810D01*
X33595715Y-48642857D01*
X33548096Y-48547619D01*
X33500477Y-48500000D01*
X33405239Y-48452381D01*
X33214762Y-48452381D01*
X33119524Y-48500000D01*
X33071905Y-48547619D01*
X33024286Y-48642857D01*
X33024286Y-48880952D01*
X33071905Y-48976190D01*
X33119524Y-49023810D01*
X33214762Y-49071429D01*
X33405239Y-49071429D01*
X33500477Y-49023810D01*
X33548096Y-48976190D01*
X33595715Y-48880952D01*
X65698095Y-54352381D02*
X65698095Y-55161905D01*
X65745714Y-55257143D01*
X65793333Y-55304762D01*
X65888571Y-55352381D01*
X66079048Y-55352381D01*
X66174286Y-55304762D01*
X66221905Y-55257143D01*
X66269524Y-55161905D01*
X66269524Y-54352381D01*
X67221905Y-54352381D02*
X66745714Y-54352381D01*
X66698095Y-54828571D01*
X66745714Y-54780952D01*
X66840952Y-54733333D01*
X67079048Y-54733333D01*
X67174286Y-54780952D01*
X67221905Y-54828571D01*
X67269524Y-54923810D01*
X67269524Y-55161905D01*
X67221905Y-55257143D01*
X67174286Y-55304762D01*
X67079048Y-55352381D01*
X66840952Y-55352381D01*
X66745714Y-55304762D01*
X66698095Y-55257143D01*
X115766667Y-26228571D02*
X115433333Y-26228571D01*
X115433333Y-26752381D02*
X115433333Y-25752381D01*
X115909524Y-25752381D01*
X116814286Y-26752381D02*
X116242857Y-26752381D01*
X116528571Y-26752381D02*
X116528571Y-25752381D01*
X116433333Y-25895238D01*
X116338095Y-25990476D01*
X116242857Y-26038095D01*
X46693334Y-36407143D02*
X46645715Y-36454762D01*
X46502858Y-36502381D01*
X46407620Y-36502381D01*
X46264762Y-36454762D01*
X46169524Y-36359524D01*
X46121905Y-36264286D01*
X46074286Y-36073810D01*
X46074286Y-35930952D01*
X46121905Y-35740476D01*
X46169524Y-35645238D01*
X46264762Y-35550000D01*
X46407620Y-35502381D01*
X46502858Y-35502381D01*
X46645715Y-35550000D01*
X46693334Y-35597619D01*
X47645715Y-36502381D02*
X47074286Y-36502381D01*
X47360000Y-36502381D02*
X47360000Y-35502381D01*
X47264762Y-35645238D01*
X47169524Y-35740476D01*
X47074286Y-35788095D01*
X49693334Y-36407143D02*
X49645715Y-36454762D01*
X49502858Y-36502381D01*
X49407620Y-36502381D01*
X49264762Y-36454762D01*
X49169524Y-36359524D01*
X49121905Y-36264286D01*
X49074286Y-36073810D01*
X49074286Y-35930952D01*
X49121905Y-35740476D01*
X49169524Y-35645238D01*
X49264762Y-35550000D01*
X49407620Y-35502381D01*
X49502858Y-35502381D01*
X49645715Y-35550000D01*
X49693334Y-35597619D01*
X50074286Y-35597619D02*
X50121905Y-35550000D01*
X50217143Y-35502381D01*
X50455239Y-35502381D01*
X50550477Y-35550000D01*
X50598096Y-35597619D01*
X50645715Y-35692857D01*
X50645715Y-35788095D01*
X50598096Y-35930952D01*
X50026667Y-36502381D01*
X50645715Y-36502381D01*
X70993334Y-29007143D02*
X70945715Y-29054762D01*
X70802858Y-29102381D01*
X70707620Y-29102381D01*
X70564762Y-29054762D01*
X70469524Y-28959524D01*
X70421905Y-28864286D01*
X70374286Y-28673810D01*
X70374286Y-28530952D01*
X70421905Y-28340476D01*
X70469524Y-28245238D01*
X70564762Y-28150000D01*
X70707620Y-28102381D01*
X70802858Y-28102381D01*
X70945715Y-28150000D01*
X70993334Y-28197619D01*
X71850477Y-28102381D02*
X71660000Y-28102381D01*
X71564762Y-28150000D01*
X71517143Y-28197619D01*
X71421905Y-28340476D01*
X71374286Y-28530952D01*
X71374286Y-28911905D01*
X71421905Y-29007143D01*
X71469524Y-29054762D01*
X71564762Y-29102381D01*
X71755239Y-29102381D01*
X71850477Y-29054762D01*
X71898096Y-29007143D01*
X71945715Y-28911905D01*
X71945715Y-28673810D01*
X71898096Y-28578571D01*
X71850477Y-28530952D01*
X71755239Y-28483333D01*
X71564762Y-28483333D01*
X71469524Y-28530952D01*
X71421905Y-28578571D01*
X71374286Y-28673810D01*
X52417143Y-59716666D02*
X52464762Y-59764285D01*
X52512381Y-59907142D01*
X52512381Y-60002380D01*
X52464762Y-60145238D01*
X52369524Y-60240476D01*
X52274286Y-60288095D01*
X52083810Y-60335714D01*
X51940952Y-60335714D01*
X51750476Y-60288095D01*
X51655238Y-60240476D01*
X51560000Y-60145238D01*
X51512381Y-60002380D01*
X51512381Y-59907142D01*
X51560000Y-59764285D01*
X51607619Y-59716666D01*
X51512381Y-59383333D02*
X51512381Y-58716666D01*
X52512381Y-59145238D01*
X58110381Y-38355495D02*
X57110381Y-38355495D01*
X57110381Y-38117400D01*
X57158000Y-37974542D01*
X57253238Y-37879304D01*
X57348476Y-37831685D01*
X57538952Y-37784066D01*
X57681810Y-37784066D01*
X57872286Y-37831685D01*
X57967524Y-37879304D01*
X58062762Y-37974542D01*
X58110381Y-38117400D01*
X58110381Y-38355495D01*
X57110381Y-36879304D02*
X57110381Y-37355495D01*
X57586571Y-37403114D01*
X57538952Y-37355495D01*
X57491333Y-37260257D01*
X57491333Y-37022161D01*
X57538952Y-36926923D01*
X57586571Y-36879304D01*
X57681810Y-36831685D01*
X57919905Y-36831685D01*
X58015143Y-36879304D01*
X58062762Y-36926923D01*
X58110381Y-37022161D01*
X58110381Y-37260257D01*
X58062762Y-37355495D01*
X58015143Y-37403114D01*
X63771905Y-98752381D02*
X63771905Y-97752381D01*
X64010000Y-97752381D01*
X64152858Y-97800000D01*
X64248096Y-97895238D01*
X64295715Y-97990476D01*
X64343334Y-98180952D01*
X64343334Y-98323810D01*
X64295715Y-98514286D01*
X64248096Y-98609524D01*
X64152858Y-98704762D01*
X64010000Y-98752381D01*
X63771905Y-98752381D01*
X64676667Y-97752381D02*
X65343334Y-97752381D01*
X64914762Y-98752381D01*
X67371905Y-98752381D02*
X67371905Y-97752381D01*
X67610000Y-97752381D01*
X67752858Y-97800000D01*
X67848096Y-97895238D01*
X67895715Y-97990476D01*
X67943334Y-98180952D01*
X67943334Y-98323810D01*
X67895715Y-98514286D01*
X67848096Y-98609524D01*
X67752858Y-98704762D01*
X67610000Y-98752381D01*
X67371905Y-98752381D01*
X68514762Y-98180952D02*
X68419524Y-98133333D01*
X68371905Y-98085714D01*
X68324286Y-97990476D01*
X68324286Y-97942857D01*
X68371905Y-97847619D01*
X68419524Y-97800000D01*
X68514762Y-97752381D01*
X68705239Y-97752381D01*
X68800477Y-97800000D01*
X68848096Y-97847619D01*
X68895715Y-97942857D01*
X68895715Y-97990476D01*
X68848096Y-98085714D01*
X68800477Y-98133333D01*
X68705239Y-98180952D01*
X68514762Y-98180952D01*
X68419524Y-98228571D01*
X68371905Y-98276190D01*
X68324286Y-98371429D01*
X68324286Y-98561905D01*
X68371905Y-98657143D01*
X68419524Y-98704762D01*
X68514762Y-98752381D01*
X68705239Y-98752381D01*
X68800477Y-98704762D01*
X68848096Y-98657143D01*
X68895715Y-98561905D01*
X68895715Y-98371429D01*
X68848096Y-98276190D01*
X68800477Y-98228571D01*
X68705239Y-98180952D01*
X47262381Y-107514286D02*
X46262381Y-107514286D01*
X46262381Y-107276191D01*
X46310000Y-107133333D01*
X46405238Y-107038095D01*
X46500476Y-106990476D01*
X46690952Y-106942857D01*
X46833810Y-106942857D01*
X47024286Y-106990476D01*
X47119524Y-107038095D01*
X47214762Y-107133333D01*
X47262381Y-107276191D01*
X47262381Y-107514286D01*
X47262381Y-105990476D02*
X47262381Y-106561905D01*
X47262381Y-106276191D02*
X46262381Y-106276191D01*
X46405238Y-106371429D01*
X46500476Y-106466667D01*
X46548095Y-106561905D01*
X46262381Y-105371429D02*
X46262381Y-105276190D01*
X46310000Y-105180952D01*
X46357619Y-105133333D01*
X46452857Y-105085714D01*
X46643333Y-105038095D01*
X46881429Y-105038095D01*
X47071905Y-105085714D01*
X47167143Y-105133333D01*
X47214762Y-105180952D01*
X47262381Y-105276190D01*
X47262381Y-105371429D01*
X47214762Y-105466667D01*
X47167143Y-105514286D01*
X47071905Y-105561905D01*
X46881429Y-105609524D01*
X46643333Y-105609524D01*
X46452857Y-105561905D01*
X46357619Y-105514286D01*
X46310000Y-105466667D01*
X46262381Y-105371429D01*
X100401381Y-40177886D02*
X99401381Y-40177886D01*
X99401381Y-39939791D01*
X99449000Y-39796933D01*
X99544238Y-39701695D01*
X99639476Y-39654076D01*
X99829952Y-39606457D01*
X99972810Y-39606457D01*
X100163286Y-39654076D01*
X100258524Y-39701695D01*
X100353762Y-39796933D01*
X100401381Y-39939791D01*
X100401381Y-40177886D01*
X100401381Y-38654076D02*
X100401381Y-39225505D01*
X100401381Y-38939791D02*
X99401381Y-38939791D01*
X99544238Y-39035029D01*
X99639476Y-39130267D01*
X99687095Y-39225505D01*
X100401381Y-37701695D02*
X100401381Y-38273124D01*
X100401381Y-37987410D02*
X99401381Y-37987410D01*
X99544238Y-38082648D01*
X99639476Y-38177886D01*
X99687095Y-38273124D01*
X100502981Y-60624886D02*
X99502981Y-60624886D01*
X99502981Y-60386791D01*
X99550600Y-60243933D01*
X99645838Y-60148695D01*
X99741076Y-60101076D01*
X99931552Y-60053457D01*
X100074410Y-60053457D01*
X100264886Y-60101076D01*
X100360124Y-60148695D01*
X100455362Y-60243933D01*
X100502981Y-60386791D01*
X100502981Y-60624886D01*
X100502981Y-59101076D02*
X100502981Y-59672505D01*
X100502981Y-59386791D02*
X99502981Y-59386791D01*
X99645838Y-59482029D01*
X99741076Y-59577267D01*
X99788695Y-59672505D01*
X99598219Y-58720124D02*
X99550600Y-58672505D01*
X99502981Y-58577267D01*
X99502981Y-58339171D01*
X99550600Y-58243933D01*
X99598219Y-58196314D01*
X99693457Y-58148695D01*
X99788695Y-58148695D01*
X99931552Y-58196314D01*
X100502981Y-58767743D01*
X100502981Y-58148695D01*
X35126667Y-44778571D02*
X34793333Y-44778571D01*
X34793333Y-45302381D02*
X34793333Y-44302381D01*
X35269524Y-44302381D01*
X36126667Y-44302381D02*
X35650476Y-44302381D01*
X35602857Y-44778571D01*
X35650476Y-44730952D01*
X35745714Y-44683333D01*
X35983810Y-44683333D01*
X36079048Y-44730952D01*
X36126667Y-44778571D01*
X36174286Y-44873810D01*
X36174286Y-45111905D01*
X36126667Y-45207143D01*
X36079048Y-45254762D01*
X35983810Y-45302381D01*
X35745714Y-45302381D01*
X35650476Y-45254762D01*
X35602857Y-45207143D01*
X38176667Y-96552381D02*
X38176667Y-97266667D01*
X38129047Y-97409524D01*
X38033809Y-97504762D01*
X37890952Y-97552381D01*
X37795714Y-97552381D01*
X38652857Y-97552381D02*
X38652857Y-96552381D01*
X39033810Y-96552381D01*
X39129048Y-96600000D01*
X39176667Y-96647619D01*
X39224286Y-96742857D01*
X39224286Y-96885714D01*
X39176667Y-96980952D01*
X39129048Y-97028571D01*
X39033810Y-97076190D01*
X38652857Y-97076190D01*
X40176667Y-97552381D02*
X39605238Y-97552381D01*
X39890952Y-97552381D02*
X39890952Y-96552381D01*
X39795714Y-96695238D01*
X39700476Y-96790476D01*
X39605238Y-96838095D01*
X38176667Y-86752381D02*
X38176667Y-87466667D01*
X38129047Y-87609524D01*
X38033809Y-87704762D01*
X37890952Y-87752381D01*
X37795714Y-87752381D01*
X38652857Y-87752381D02*
X38652857Y-86752381D01*
X39033810Y-86752381D01*
X39129048Y-86800000D01*
X39176667Y-86847619D01*
X39224286Y-86942857D01*
X39224286Y-87085714D01*
X39176667Y-87180952D01*
X39129048Y-87228571D01*
X39033810Y-87276190D01*
X38652857Y-87276190D01*
X39605238Y-86847619D02*
X39652857Y-86800000D01*
X39748095Y-86752381D01*
X39986191Y-86752381D01*
X40081429Y-86800000D01*
X40129048Y-86847619D01*
X40176667Y-86942857D01*
X40176667Y-87038095D01*
X40129048Y-87180952D01*
X39557619Y-87752381D01*
X40176667Y-87752381D01*
X91733334Y-42952381D02*
X91400000Y-42476190D01*
X91161905Y-42952381D02*
X91161905Y-41952381D01*
X91542858Y-41952381D01*
X91638096Y-42000000D01*
X91685715Y-42047619D01*
X91733334Y-42142857D01*
X91733334Y-42285714D01*
X91685715Y-42380952D01*
X91638096Y-42428571D01*
X91542858Y-42476190D01*
X91161905Y-42476190D01*
X92685715Y-42952381D02*
X92114286Y-42952381D01*
X92400000Y-42952381D02*
X92400000Y-41952381D01*
X92304762Y-42095238D01*
X92209524Y-42190476D01*
X92114286Y-42238095D01*
X94753134Y-43124381D02*
X94419800Y-42648190D01*
X94181705Y-43124381D02*
X94181705Y-42124381D01*
X94562658Y-42124381D01*
X94657896Y-42172000D01*
X94705515Y-42219619D01*
X94753134Y-42314857D01*
X94753134Y-42457714D01*
X94705515Y-42552952D01*
X94657896Y-42600571D01*
X94562658Y-42648190D01*
X94181705Y-42648190D01*
X95134086Y-42219619D02*
X95181705Y-42172000D01*
X95276943Y-42124381D01*
X95515039Y-42124381D01*
X95610277Y-42172000D01*
X95657896Y-42219619D01*
X95705515Y-42314857D01*
X95705515Y-42410095D01*
X95657896Y-42552952D01*
X95086467Y-43124381D01*
X95705515Y-43124381D01*
X104833334Y-26752381D02*
X104500000Y-26276190D01*
X104261905Y-26752381D02*
X104261905Y-25752381D01*
X104642858Y-25752381D01*
X104738096Y-25800000D01*
X104785715Y-25847619D01*
X104833334Y-25942857D01*
X104833334Y-26085714D01*
X104785715Y-26180952D01*
X104738096Y-26228571D01*
X104642858Y-26276190D01*
X104261905Y-26276190D01*
X105166667Y-25752381D02*
X105785715Y-25752381D01*
X105452381Y-26133333D01*
X105595239Y-26133333D01*
X105690477Y-26180952D01*
X105738096Y-26228571D01*
X105785715Y-26323810D01*
X105785715Y-26561905D01*
X105738096Y-26657143D01*
X105690477Y-26704762D01*
X105595239Y-26752381D01*
X105309524Y-26752381D01*
X105214286Y-26704762D01*
X105166667Y-26657143D01*
X96150134Y-107030781D02*
X95816800Y-106554590D01*
X95578705Y-107030781D02*
X95578705Y-106030781D01*
X95959658Y-106030781D01*
X96054896Y-106078400D01*
X96102515Y-106126019D01*
X96150134Y-106221257D01*
X96150134Y-106364114D01*
X96102515Y-106459352D01*
X96054896Y-106506971D01*
X95959658Y-106554590D01*
X95578705Y-106554590D01*
X97007277Y-106364114D02*
X97007277Y-107030781D01*
X96769181Y-105983162D02*
X96531086Y-106697448D01*
X97150134Y-106697448D01*
X40143334Y-35602381D02*
X39810000Y-35126190D01*
X39571905Y-35602381D02*
X39571905Y-34602381D01*
X39952858Y-34602381D01*
X40048096Y-34650000D01*
X40095715Y-34697619D01*
X40143334Y-34792857D01*
X40143334Y-34935714D01*
X40095715Y-35030952D01*
X40048096Y-35078571D01*
X39952858Y-35126190D01*
X39571905Y-35126190D01*
X41048096Y-34602381D02*
X40571905Y-34602381D01*
X40524286Y-35078571D01*
X40571905Y-35030952D01*
X40667143Y-34983333D01*
X40905239Y-34983333D01*
X41000477Y-35030952D01*
X41048096Y-35078571D01*
X41095715Y-35173810D01*
X41095715Y-35411905D01*
X41048096Y-35507143D01*
X41000477Y-35554762D01*
X40905239Y-35602381D01*
X40667143Y-35602381D01*
X40571905Y-35554762D01*
X40524286Y-35507143D01*
X58512381Y-32816666D02*
X58036190Y-33150000D01*
X58512381Y-33388095D02*
X57512381Y-33388095D01*
X57512381Y-33007142D01*
X57560000Y-32911904D01*
X57607619Y-32864285D01*
X57702857Y-32816666D01*
X57845714Y-32816666D01*
X57940952Y-32864285D01*
X57988571Y-32911904D01*
X58036190Y-33007142D01*
X58036190Y-33388095D01*
X57512381Y-31959523D02*
X57512381Y-32150000D01*
X57560000Y-32245238D01*
X57607619Y-32292857D01*
X57750476Y-32388095D01*
X57940952Y-32435714D01*
X58321905Y-32435714D01*
X58417143Y-32388095D01*
X58464762Y-32340476D01*
X58512381Y-32245238D01*
X58512381Y-32054761D01*
X58464762Y-31959523D01*
X58417143Y-31911904D01*
X58321905Y-31864285D01*
X58083810Y-31864285D01*
X57988571Y-31911904D01*
X57940952Y-31959523D01*
X57893333Y-32054761D01*
X57893333Y-32245238D01*
X57940952Y-32340476D01*
X57988571Y-32388095D01*
X58083810Y-32435714D01*
X40143334Y-30352381D02*
X39810000Y-29876190D01*
X39571905Y-30352381D02*
X39571905Y-29352381D01*
X39952858Y-29352381D01*
X40048096Y-29400000D01*
X40095715Y-29447619D01*
X40143334Y-29542857D01*
X40143334Y-29685714D01*
X40095715Y-29780952D01*
X40048096Y-29828571D01*
X39952858Y-29876190D01*
X39571905Y-29876190D01*
X40476667Y-29352381D02*
X41143334Y-29352381D01*
X40714762Y-30352381D01*
X91317143Y-63002381D02*
X90983809Y-62526190D01*
X90745714Y-63002381D02*
X90745714Y-62002381D01*
X91126667Y-62002381D01*
X91221905Y-62050000D01*
X91269524Y-62097619D01*
X91317143Y-62192857D01*
X91317143Y-62335714D01*
X91269524Y-62430952D01*
X91221905Y-62478571D01*
X91126667Y-62526190D01*
X90745714Y-62526190D01*
X92269524Y-63002381D02*
X91698095Y-63002381D01*
X91983809Y-63002381D02*
X91983809Y-62002381D01*
X91888571Y-62145238D01*
X91793333Y-62240476D01*
X91698095Y-62288095D01*
X92888571Y-62002381D02*
X92983810Y-62002381D01*
X93079048Y-62050000D01*
X93126667Y-62097619D01*
X93174286Y-62192857D01*
X93221905Y-62383333D01*
X93221905Y-62621429D01*
X93174286Y-62811905D01*
X93126667Y-62907143D01*
X93079048Y-62954762D01*
X92983810Y-63002381D01*
X92888571Y-63002381D01*
X92793333Y-62954762D01*
X92745714Y-62907143D01*
X92698095Y-62811905D01*
X92650476Y-62621429D01*
X92650476Y-62383333D01*
X92698095Y-62192857D01*
X92745714Y-62097619D01*
X92793333Y-62050000D01*
X92888571Y-62002381D01*
X94403943Y-62987181D02*
X94070609Y-62510990D01*
X93832514Y-62987181D02*
X93832514Y-61987181D01*
X94213467Y-61987181D01*
X94308705Y-62034800D01*
X94356324Y-62082419D01*
X94403943Y-62177657D01*
X94403943Y-62320514D01*
X94356324Y-62415752D01*
X94308705Y-62463371D01*
X94213467Y-62510990D01*
X93832514Y-62510990D01*
X95356324Y-62987181D02*
X94784895Y-62987181D01*
X95070609Y-62987181D02*
X95070609Y-61987181D01*
X94975371Y-62130038D01*
X94880133Y-62225276D01*
X94784895Y-62272895D01*
X96308705Y-62987181D02*
X95737276Y-62987181D01*
X96022990Y-62987181D02*
X96022990Y-61987181D01*
X95927752Y-62130038D01*
X95832514Y-62225276D01*
X95737276Y-62272895D01*
X74012381Y-44692857D02*
X73536190Y-45026191D01*
X74012381Y-45264286D02*
X73012381Y-45264286D01*
X73012381Y-44883333D01*
X73060000Y-44788095D01*
X73107619Y-44740476D01*
X73202857Y-44692857D01*
X73345714Y-44692857D01*
X73440952Y-44740476D01*
X73488571Y-44788095D01*
X73536190Y-44883333D01*
X73536190Y-45264286D01*
X74012381Y-43740476D02*
X74012381Y-44311905D01*
X74012381Y-44026191D02*
X73012381Y-44026191D01*
X73155238Y-44121429D01*
X73250476Y-44216667D01*
X73298095Y-44311905D01*
X73107619Y-43359524D02*
X73060000Y-43311905D01*
X73012381Y-43216667D01*
X73012381Y-42978571D01*
X73060000Y-42883333D01*
X73107619Y-42835714D01*
X73202857Y-42788095D01*
X73298095Y-42788095D01*
X73440952Y-42835714D01*
X74012381Y-43407143D01*
X74012381Y-42788095D01*
X104357143Y-46752381D02*
X104023809Y-46276190D01*
X103785714Y-46752381D02*
X103785714Y-45752381D01*
X104166667Y-45752381D01*
X104261905Y-45800000D01*
X104309524Y-45847619D01*
X104357143Y-45942857D01*
X104357143Y-46085714D01*
X104309524Y-46180952D01*
X104261905Y-46228571D01*
X104166667Y-46276190D01*
X103785714Y-46276190D01*
X105309524Y-46752381D02*
X104738095Y-46752381D01*
X105023809Y-46752381D02*
X105023809Y-45752381D01*
X104928571Y-45895238D01*
X104833333Y-45990476D01*
X104738095Y-46038095D01*
X105642857Y-45752381D02*
X106261905Y-45752381D01*
X105928571Y-46133333D01*
X106071429Y-46133333D01*
X106166667Y-46180952D01*
X106214286Y-46228571D01*
X106261905Y-46323810D01*
X106261905Y-46561905D01*
X106214286Y-46657143D01*
X106166667Y-46704762D01*
X106071429Y-46752381D01*
X105785714Y-46752381D01*
X105690476Y-46704762D01*
X105642857Y-46657143D01*
X76617143Y-29052381D02*
X76283809Y-28576190D01*
X76045714Y-29052381D02*
X76045714Y-28052381D01*
X76426667Y-28052381D01*
X76521905Y-28100000D01*
X76569524Y-28147619D01*
X76617143Y-28242857D01*
X76617143Y-28385714D01*
X76569524Y-28480952D01*
X76521905Y-28528571D01*
X76426667Y-28576190D01*
X76045714Y-28576190D01*
X77569524Y-29052381D02*
X76998095Y-29052381D01*
X77283809Y-29052381D02*
X77283809Y-28052381D01*
X77188571Y-28195238D01*
X77093333Y-28290476D01*
X76998095Y-28338095D01*
X78426667Y-28385714D02*
X78426667Y-29052381D01*
X78188571Y-28004762D02*
X77950476Y-28719048D01*
X78569524Y-28719048D01*
X76667143Y-35702381D02*
X76333809Y-35226190D01*
X76095714Y-35702381D02*
X76095714Y-34702381D01*
X76476667Y-34702381D01*
X76571905Y-34750000D01*
X76619524Y-34797619D01*
X76667143Y-34892857D01*
X76667143Y-35035714D01*
X76619524Y-35130952D01*
X76571905Y-35178571D01*
X76476667Y-35226190D01*
X76095714Y-35226190D01*
X77619524Y-35702381D02*
X77048095Y-35702381D01*
X77333809Y-35702381D02*
X77333809Y-34702381D01*
X77238571Y-34845238D01*
X77143333Y-34940476D01*
X77048095Y-34988095D01*
X78524286Y-34702381D02*
X78048095Y-34702381D01*
X78000476Y-35178571D01*
X78048095Y-35130952D01*
X78143333Y-35083333D01*
X78381429Y-35083333D01*
X78476667Y-35130952D01*
X78524286Y-35178571D01*
X78571905Y-35273810D01*
X78571905Y-35511905D01*
X78524286Y-35607143D01*
X78476667Y-35654762D01*
X78381429Y-35702381D01*
X78143333Y-35702381D01*
X78048095Y-35654762D01*
X78000476Y-35607143D01*
X91317143Y-82902381D02*
X90983809Y-82426190D01*
X90745714Y-82902381D02*
X90745714Y-81902381D01*
X91126667Y-81902381D01*
X91221905Y-81950000D01*
X91269524Y-81997619D01*
X91317143Y-82092857D01*
X91317143Y-82235714D01*
X91269524Y-82330952D01*
X91221905Y-82378571D01*
X91126667Y-82426190D01*
X90745714Y-82426190D01*
X92269524Y-82902381D02*
X91698095Y-82902381D01*
X91983809Y-82902381D02*
X91983809Y-81902381D01*
X91888571Y-82045238D01*
X91793333Y-82140476D01*
X91698095Y-82188095D01*
X93126667Y-81902381D02*
X92936190Y-81902381D01*
X92840952Y-81950000D01*
X92793333Y-81997619D01*
X92698095Y-82140476D01*
X92650476Y-82330952D01*
X92650476Y-82711905D01*
X92698095Y-82807143D01*
X92745714Y-82854762D01*
X92840952Y-82902381D01*
X93031429Y-82902381D01*
X93126667Y-82854762D01*
X93174286Y-82807143D01*
X93221905Y-82711905D01*
X93221905Y-82473810D01*
X93174286Y-82378571D01*
X93126667Y-82330952D01*
X93031429Y-82283333D01*
X92840952Y-82283333D01*
X92745714Y-82330952D01*
X92698095Y-82378571D01*
X92650476Y-82473810D01*
X104357143Y-66752381D02*
X104023809Y-66276190D01*
X103785714Y-66752381D02*
X103785714Y-65752381D01*
X104166667Y-65752381D01*
X104261905Y-65800000D01*
X104309524Y-65847619D01*
X104357143Y-65942857D01*
X104357143Y-66085714D01*
X104309524Y-66180952D01*
X104261905Y-66228571D01*
X104166667Y-66276190D01*
X103785714Y-66276190D01*
X105309524Y-66752381D02*
X104738095Y-66752381D01*
X105023809Y-66752381D02*
X105023809Y-65752381D01*
X104928571Y-65895238D01*
X104833333Y-65990476D01*
X104738095Y-66038095D01*
X105880952Y-66180952D02*
X105785714Y-66133333D01*
X105738095Y-66085714D01*
X105690476Y-65990476D01*
X105690476Y-65942857D01*
X105738095Y-65847619D01*
X105785714Y-65800000D01*
X105880952Y-65752381D01*
X106071429Y-65752381D01*
X106166667Y-65800000D01*
X106214286Y-65847619D01*
X106261905Y-65942857D01*
X106261905Y-65990476D01*
X106214286Y-66085714D01*
X106166667Y-66133333D01*
X106071429Y-66180952D01*
X105880952Y-66180952D01*
X105785714Y-66228571D01*
X105738095Y-66276190D01*
X105690476Y-66371429D01*
X105690476Y-66561905D01*
X105738095Y-66657143D01*
X105785714Y-66704762D01*
X105880952Y-66752381D01*
X106071429Y-66752381D01*
X106166667Y-66704762D01*
X106214286Y-66657143D01*
X106261905Y-66561905D01*
X106261905Y-66371429D01*
X106214286Y-66276190D01*
X106166667Y-66228571D01*
X106071429Y-66180952D01*
X63867143Y-86552381D02*
X63533809Y-86076190D01*
X63295714Y-86552381D02*
X63295714Y-85552381D01*
X63676667Y-85552381D01*
X63771905Y-85600000D01*
X63819524Y-85647619D01*
X63867143Y-85742857D01*
X63867143Y-85885714D01*
X63819524Y-85980952D01*
X63771905Y-86028571D01*
X63676667Y-86076190D01*
X63295714Y-86076190D01*
X64819524Y-86552381D02*
X64248095Y-86552381D01*
X64533809Y-86552381D02*
X64533809Y-85552381D01*
X64438571Y-85695238D01*
X64343333Y-85790476D01*
X64248095Y-85838095D01*
X65295714Y-86552381D02*
X65486190Y-86552381D01*
X65581429Y-86504762D01*
X65629048Y-86457143D01*
X65724286Y-86314286D01*
X65771905Y-86123810D01*
X65771905Y-85742857D01*
X65724286Y-85647619D01*
X65676667Y-85600000D01*
X65581429Y-85552381D01*
X65390952Y-85552381D01*
X65295714Y-85600000D01*
X65248095Y-85647619D01*
X65200476Y-85742857D01*
X65200476Y-85980952D01*
X65248095Y-86076190D01*
X65295714Y-86123810D01*
X65390952Y-86171429D01*
X65581429Y-86171429D01*
X65676667Y-86123810D01*
X65724286Y-86076190D01*
X65771905Y-85980952D01*
X67467143Y-86552381D02*
X67133809Y-86076190D01*
X66895714Y-86552381D02*
X66895714Y-85552381D01*
X67276667Y-85552381D01*
X67371905Y-85600000D01*
X67419524Y-85647619D01*
X67467143Y-85742857D01*
X67467143Y-85885714D01*
X67419524Y-85980952D01*
X67371905Y-86028571D01*
X67276667Y-86076190D01*
X66895714Y-86076190D01*
X67848095Y-85647619D02*
X67895714Y-85600000D01*
X67990952Y-85552381D01*
X68229048Y-85552381D01*
X68324286Y-85600000D01*
X68371905Y-85647619D01*
X68419524Y-85742857D01*
X68419524Y-85838095D01*
X68371905Y-85980952D01*
X67800476Y-86552381D01*
X68419524Y-86552381D01*
X69038571Y-85552381D02*
X69133810Y-85552381D01*
X69229048Y-85600000D01*
X69276667Y-85647619D01*
X69324286Y-85742857D01*
X69371905Y-85933333D01*
X69371905Y-86171429D01*
X69324286Y-86361905D01*
X69276667Y-86457143D01*
X69229048Y-86504762D01*
X69133810Y-86552381D01*
X69038571Y-86552381D01*
X68943333Y-86504762D01*
X68895714Y-86457143D01*
X68848095Y-86361905D01*
X68800476Y-86171429D01*
X68800476Y-85933333D01*
X68848095Y-85742857D01*
X68895714Y-85647619D01*
X68943333Y-85600000D01*
X69038571Y-85552381D01*
X43367143Y-106952381D02*
X43033809Y-106476190D01*
X42795714Y-106952381D02*
X42795714Y-105952381D01*
X43176667Y-105952381D01*
X43271905Y-106000000D01*
X43319524Y-106047619D01*
X43367143Y-106142857D01*
X43367143Y-106285714D01*
X43319524Y-106380952D01*
X43271905Y-106428571D01*
X43176667Y-106476190D01*
X42795714Y-106476190D01*
X43748095Y-106047619D02*
X43795714Y-106000000D01*
X43890952Y-105952381D01*
X44129048Y-105952381D01*
X44224286Y-106000000D01*
X44271905Y-106047619D01*
X44319524Y-106142857D01*
X44319524Y-106238095D01*
X44271905Y-106380952D01*
X43700476Y-106952381D01*
X44319524Y-106952381D01*
X45271905Y-106952381D02*
X44700476Y-106952381D01*
X44986190Y-106952381D02*
X44986190Y-105952381D01*
X44890952Y-106095238D01*
X44795714Y-106190476D01*
X44700476Y-106238095D01*
X104357143Y-86752381D02*
X104023809Y-86276190D01*
X103785714Y-86752381D02*
X103785714Y-85752381D01*
X104166667Y-85752381D01*
X104261905Y-85800000D01*
X104309524Y-85847619D01*
X104357143Y-85942857D01*
X104357143Y-86085714D01*
X104309524Y-86180952D01*
X104261905Y-86228571D01*
X104166667Y-86276190D01*
X103785714Y-86276190D01*
X104738095Y-85847619D02*
X104785714Y-85800000D01*
X104880952Y-85752381D01*
X105119048Y-85752381D01*
X105214286Y-85800000D01*
X105261905Y-85847619D01*
X105309524Y-85942857D01*
X105309524Y-86038095D01*
X105261905Y-86180952D01*
X104690476Y-86752381D01*
X105309524Y-86752381D01*
X106166667Y-86085714D02*
X106166667Y-86752381D01*
X105928571Y-85704762D02*
X105690476Y-86419048D01*
X106309524Y-86419048D01*
X32767143Y-97352381D02*
X32433809Y-96876190D01*
X32195714Y-97352381D02*
X32195714Y-96352381D01*
X32576667Y-96352381D01*
X32671905Y-96400000D01*
X32719524Y-96447619D01*
X32767143Y-96542857D01*
X32767143Y-96685714D01*
X32719524Y-96780952D01*
X32671905Y-96828571D01*
X32576667Y-96876190D01*
X32195714Y-96876190D01*
X33148095Y-96447619D02*
X33195714Y-96400000D01*
X33290952Y-96352381D01*
X33529048Y-96352381D01*
X33624286Y-96400000D01*
X33671905Y-96447619D01*
X33719524Y-96542857D01*
X33719524Y-96638095D01*
X33671905Y-96780952D01*
X33100476Y-97352381D01*
X33719524Y-97352381D01*
X34624286Y-96352381D02*
X34148095Y-96352381D01*
X34100476Y-96828571D01*
X34148095Y-96780952D01*
X34243333Y-96733333D01*
X34481429Y-96733333D01*
X34576667Y-96780952D01*
X34624286Y-96828571D01*
X34671905Y-96923810D01*
X34671905Y-97161905D01*
X34624286Y-97257143D01*
X34576667Y-97304762D01*
X34481429Y-97352381D01*
X34243333Y-97352381D01*
X34148095Y-97304762D01*
X34100476Y-97257143D01*
X32767143Y-92552381D02*
X32433809Y-92076190D01*
X32195714Y-92552381D02*
X32195714Y-91552381D01*
X32576667Y-91552381D01*
X32671905Y-91600000D01*
X32719524Y-91647619D01*
X32767143Y-91742857D01*
X32767143Y-91885714D01*
X32719524Y-91980952D01*
X32671905Y-92028571D01*
X32576667Y-92076190D01*
X32195714Y-92076190D01*
X33148095Y-91647619D02*
X33195714Y-91600000D01*
X33290952Y-91552381D01*
X33529048Y-91552381D01*
X33624286Y-91600000D01*
X33671905Y-91647619D01*
X33719524Y-91742857D01*
X33719524Y-91838095D01*
X33671905Y-91980952D01*
X33100476Y-92552381D01*
X33719524Y-92552381D01*
X34576667Y-91552381D02*
X34386190Y-91552381D01*
X34290952Y-91600000D01*
X34243333Y-91647619D01*
X34148095Y-91790476D01*
X34100476Y-91980952D01*
X34100476Y-92361905D01*
X34148095Y-92457143D01*
X34195714Y-92504762D01*
X34290952Y-92552381D01*
X34481429Y-92552381D01*
X34576667Y-92504762D01*
X34624286Y-92457143D01*
X34671905Y-92361905D01*
X34671905Y-92123810D01*
X34624286Y-92028571D01*
X34576667Y-91980952D01*
X34481429Y-91933333D01*
X34290952Y-91933333D01*
X34195714Y-91980952D01*
X34148095Y-92028571D01*
X34100476Y-92123810D01*
X47062381Y-101542857D02*
X46586190Y-101876191D01*
X47062381Y-102114286D02*
X46062381Y-102114286D01*
X46062381Y-101733333D01*
X46110000Y-101638095D01*
X46157619Y-101590476D01*
X46252857Y-101542857D01*
X46395714Y-101542857D01*
X46490952Y-101590476D01*
X46538571Y-101638095D01*
X46586190Y-101733333D01*
X46586190Y-102114286D01*
X46157619Y-101161905D02*
X46110000Y-101114286D01*
X46062381Y-101019048D01*
X46062381Y-100780952D01*
X46110000Y-100685714D01*
X46157619Y-100638095D01*
X46252857Y-100590476D01*
X46348095Y-100590476D01*
X46490952Y-100638095D01*
X47062381Y-101209524D01*
X47062381Y-100590476D01*
X46062381Y-100257143D02*
X46062381Y-99590476D01*
X47062381Y-100019048D01*
X62926667Y-39154762D02*
X63069524Y-39202381D01*
X63307620Y-39202381D01*
X63402858Y-39154762D01*
X63450477Y-39107143D01*
X63498096Y-39011905D01*
X63498096Y-38916667D01*
X63450477Y-38821429D01*
X63402858Y-38773810D01*
X63307620Y-38726190D01*
X63117143Y-38678571D01*
X63021905Y-38630952D01*
X62974286Y-38583333D01*
X62926667Y-38488095D01*
X62926667Y-38392857D01*
X62974286Y-38297619D01*
X63021905Y-38250000D01*
X63117143Y-38202381D01*
X63355239Y-38202381D01*
X63498096Y-38250000D01*
X63831429Y-38202381D02*
X64069524Y-39202381D01*
X64260001Y-38488095D01*
X64450477Y-39202381D01*
X64688572Y-38202381D01*
X65593334Y-39202381D02*
X65021905Y-39202381D01*
X65307619Y-39202381D02*
X65307619Y-38202381D01*
X65212381Y-38345238D01*
X65117143Y-38440476D01*
X65021905Y-38488095D01*
X35276667Y-107204762D02*
X35419524Y-107252381D01*
X35657620Y-107252381D01*
X35752858Y-107204762D01*
X35800477Y-107157143D01*
X35848096Y-107061905D01*
X35848096Y-106966667D01*
X35800477Y-106871429D01*
X35752858Y-106823810D01*
X35657620Y-106776190D01*
X35467143Y-106728571D01*
X35371905Y-106680952D01*
X35324286Y-106633333D01*
X35276667Y-106538095D01*
X35276667Y-106442857D01*
X35324286Y-106347619D01*
X35371905Y-106300000D01*
X35467143Y-106252381D01*
X35705239Y-106252381D01*
X35848096Y-106300000D01*
X36181429Y-106252381D02*
X36419524Y-107252381D01*
X36610001Y-106538095D01*
X36800477Y-107252381D01*
X37038572Y-106252381D01*
X37371905Y-106347619D02*
X37419524Y-106300000D01*
X37514762Y-106252381D01*
X37752858Y-106252381D01*
X37848096Y-106300000D01*
X37895715Y-106347619D01*
X37943334Y-106442857D01*
X37943334Y-106538095D01*
X37895715Y-106680952D01*
X37324286Y-107252381D01*
X37943334Y-107252381D01*
X100553781Y-81351286D02*
X99553781Y-81351286D01*
X99553781Y-81113191D01*
X99601400Y-80970333D01*
X99696638Y-80875095D01*
X99791876Y-80827476D01*
X99982352Y-80779857D01*
X100125210Y-80779857D01*
X100315686Y-80827476D01*
X100410924Y-80875095D01*
X100506162Y-80970333D01*
X100553781Y-81113191D01*
X100553781Y-81351286D01*
X100553781Y-79827476D02*
X100553781Y-80398905D01*
X100553781Y-80113191D02*
X99553781Y-80113191D01*
X99696638Y-80208429D01*
X99791876Y-80303667D01*
X99839495Y-80398905D01*
X99553781Y-79494143D02*
X99553781Y-78875095D01*
X99934733Y-79208429D01*
X99934733Y-79065571D01*
X99982352Y-78970333D01*
X100029971Y-78922714D01*
X100125210Y-78875095D01*
X100363305Y-78875095D01*
X100458543Y-78922714D01*
X100506162Y-78970333D01*
X100553781Y-79065571D01*
X100553781Y-79351286D01*
X100506162Y-79446524D01*
X100458543Y-79494143D01*
X100299781Y-100452086D02*
X99299781Y-100452086D01*
X99299781Y-100213991D01*
X99347400Y-100071133D01*
X99442638Y-99975895D01*
X99537876Y-99928276D01*
X99728352Y-99880657D01*
X99871210Y-99880657D01*
X100061686Y-99928276D01*
X100156924Y-99975895D01*
X100252162Y-100071133D01*
X100299781Y-100213991D01*
X100299781Y-100452086D01*
X100299781Y-98928276D02*
X100299781Y-99499705D01*
X100299781Y-99213991D02*
X99299781Y-99213991D01*
X99442638Y-99309229D01*
X99537876Y-99404467D01*
X99585495Y-99499705D01*
X99633114Y-98071133D02*
X100299781Y-98071133D01*
X99252162Y-98309229D02*
X99966448Y-98547324D01*
X99966448Y-97928276D01*
X91317143Y-103102381D02*
X90983809Y-102626190D01*
X90745714Y-103102381D02*
X90745714Y-102102381D01*
X91126667Y-102102381D01*
X91221905Y-102150000D01*
X91269524Y-102197619D01*
X91317143Y-102292857D01*
X91317143Y-102435714D01*
X91269524Y-102530952D01*
X91221905Y-102578571D01*
X91126667Y-102626190D01*
X90745714Y-102626190D01*
X91698095Y-102197619D02*
X91745714Y-102150000D01*
X91840952Y-102102381D01*
X92079048Y-102102381D01*
X92174286Y-102150000D01*
X92221905Y-102197619D01*
X92269524Y-102292857D01*
X92269524Y-102388095D01*
X92221905Y-102530952D01*
X91650476Y-103102381D01*
X92269524Y-103102381D01*
X92650476Y-102197619D02*
X92698095Y-102150000D01*
X92793333Y-102102381D01*
X93031429Y-102102381D01*
X93126667Y-102150000D01*
X93174286Y-102197619D01*
X93221905Y-102292857D01*
X93221905Y-102388095D01*
X93174286Y-102530952D01*
X92602857Y-103102381D01*
X93221905Y-103102381D01*
X94467143Y-103102381D02*
X94133809Y-102626190D01*
X93895714Y-103102381D02*
X93895714Y-102102381D01*
X94276667Y-102102381D01*
X94371905Y-102150000D01*
X94419524Y-102197619D01*
X94467143Y-102292857D01*
X94467143Y-102435714D01*
X94419524Y-102530952D01*
X94371905Y-102578571D01*
X94276667Y-102626190D01*
X93895714Y-102626190D01*
X94848095Y-102197619D02*
X94895714Y-102150000D01*
X94990952Y-102102381D01*
X95229048Y-102102381D01*
X95324286Y-102150000D01*
X95371905Y-102197619D01*
X95419524Y-102292857D01*
X95419524Y-102388095D01*
X95371905Y-102530952D01*
X94800476Y-103102381D01*
X95419524Y-103102381D01*
X95752857Y-102102381D02*
X96371905Y-102102381D01*
X96038571Y-102483333D01*
X96181429Y-102483333D01*
X96276667Y-102530952D01*
X96324286Y-102578571D01*
X96371905Y-102673810D01*
X96371905Y-102911905D01*
X96324286Y-103007143D01*
X96276667Y-103054762D01*
X96181429Y-103102381D01*
X95895714Y-103102381D01*
X95800476Y-103054762D01*
X95752857Y-103007143D01*
X72743334Y-80957143D02*
X72695715Y-81004762D01*
X72552858Y-81052381D01*
X72457620Y-81052381D01*
X72314762Y-81004762D01*
X72219524Y-80909524D01*
X72171905Y-80814286D01*
X72124286Y-80623810D01*
X72124286Y-80480952D01*
X72171905Y-80290476D01*
X72219524Y-80195238D01*
X72314762Y-80100000D01*
X72457620Y-80052381D01*
X72552858Y-80052381D01*
X72695715Y-80100000D01*
X72743334Y-80147619D01*
X73314762Y-80480952D02*
X73219524Y-80433333D01*
X73171905Y-80385714D01*
X73124286Y-80290476D01*
X73124286Y-80242857D01*
X73171905Y-80147619D01*
X73219524Y-80100000D01*
X73314762Y-80052381D01*
X73505239Y-80052381D01*
X73600477Y-80100000D01*
X73648096Y-80147619D01*
X73695715Y-80242857D01*
X73695715Y-80290476D01*
X73648096Y-80385714D01*
X73600477Y-80433333D01*
X73505239Y-80480952D01*
X73314762Y-80480952D01*
X73219524Y-80528571D01*
X73171905Y-80576190D01*
X73124286Y-80671429D01*
X73124286Y-80861905D01*
X73171905Y-80957143D01*
X73219524Y-81004762D01*
X73314762Y-81052381D01*
X73505239Y-81052381D01*
X73600477Y-81004762D01*
X73648096Y-80957143D01*
X73695715Y-80861905D01*
X73695715Y-80671429D01*
X73648096Y-80576190D01*
X73600477Y-80528571D01*
X73505239Y-80480952D01*
X59743334Y-81157143D02*
X59695715Y-81204762D01*
X59552858Y-81252381D01*
X59457620Y-81252381D01*
X59314762Y-81204762D01*
X59219524Y-81109524D01*
X59171905Y-81014286D01*
X59124286Y-80823810D01*
X59124286Y-80680952D01*
X59171905Y-80490476D01*
X59219524Y-80395238D01*
X59314762Y-80300000D01*
X59457620Y-80252381D01*
X59552858Y-80252381D01*
X59695715Y-80300000D01*
X59743334Y-80347619D01*
X60219524Y-81252381D02*
X60410000Y-81252381D01*
X60505239Y-81204762D01*
X60552858Y-81157143D01*
X60648096Y-81014286D01*
X60695715Y-80823810D01*
X60695715Y-80442857D01*
X60648096Y-80347619D01*
X60600477Y-80300000D01*
X60505239Y-80252381D01*
X60314762Y-80252381D01*
X60219524Y-80300000D01*
X60171905Y-80347619D01*
X60124286Y-80442857D01*
X60124286Y-80680952D01*
X60171905Y-80776190D01*
X60219524Y-80823810D01*
X60314762Y-80871429D01*
X60505239Y-80871429D01*
X60600477Y-80823810D01*
X60648096Y-80776190D01*
X60695715Y-80680952D01*
X73886190Y-76476191D02*
X74362381Y-76476191D01*
X73362381Y-76809524D02*
X73886190Y-76476191D01*
X73362381Y-76142857D01*
X74362381Y-75285714D02*
X74362381Y-75857143D01*
X74362381Y-75571429D02*
X73362381Y-75571429D01*
X73505238Y-75666667D01*
X73600476Y-75761905D01*
X73648095Y-75857143D01*
X45662381Y-95538095D02*
X44662381Y-95538095D01*
X44662381Y-95300000D01*
X44710000Y-95157142D01*
X44805238Y-95061904D01*
X44900476Y-95014285D01*
X45090952Y-94966666D01*
X45233810Y-94966666D01*
X45424286Y-95014285D01*
X45519524Y-95061904D01*
X45614762Y-95157142D01*
X45662381Y-95300000D01*
X45662381Y-95538095D01*
X45662381Y-94490476D02*
X45662381Y-94300000D01*
X45614762Y-94204761D01*
X45567143Y-94157142D01*
X45424286Y-94061904D01*
X45233810Y-94014285D01*
X44852857Y-94014285D01*
X44757619Y-94061904D01*
X44710000Y-94109523D01*
X44662381Y-94204761D01*
X44662381Y-94395238D01*
X44710000Y-94490476D01*
X44757619Y-94538095D01*
X44852857Y-94585714D01*
X45090952Y-94585714D01*
X45186190Y-94538095D01*
X45233810Y-94490476D01*
X45281429Y-94395238D01*
X45281429Y-94204761D01*
X45233810Y-94109523D01*
X45186190Y-94061904D01*
X45090952Y-94014285D01*
X45362381Y-89692857D02*
X44886190Y-90026191D01*
X45362381Y-90264286D02*
X44362381Y-90264286D01*
X44362381Y-89883333D01*
X44410000Y-89788095D01*
X44457619Y-89740476D01*
X44552857Y-89692857D01*
X44695714Y-89692857D01*
X44790952Y-89740476D01*
X44838571Y-89788095D01*
X44886190Y-89883333D01*
X44886190Y-90264286D01*
X44457619Y-89311905D02*
X44410000Y-89264286D01*
X44362381Y-89169048D01*
X44362381Y-88930952D01*
X44410000Y-88835714D01*
X44457619Y-88788095D01*
X44552857Y-88740476D01*
X44648095Y-88740476D01*
X44790952Y-88788095D01*
X45362381Y-89359524D01*
X45362381Y-88740476D01*
X44790952Y-88169048D02*
X44743333Y-88264286D01*
X44695714Y-88311905D01*
X44600476Y-88359524D01*
X44552857Y-88359524D01*
X44457619Y-88311905D01*
X44410000Y-88264286D01*
X44362381Y-88169048D01*
X44362381Y-87978571D01*
X44410000Y-87883333D01*
X44457619Y-87835714D01*
X44552857Y-87788095D01*
X44600476Y-87788095D01*
X44695714Y-87835714D01*
X44743333Y-87883333D01*
X44790952Y-87978571D01*
X44790952Y-88169048D01*
X44838571Y-88264286D01*
X44886190Y-88311905D01*
X44981429Y-88359524D01*
X45171905Y-88359524D01*
X45267143Y-88311905D01*
X45314762Y-88264286D01*
X45362381Y-88169048D01*
X45362381Y-87978571D01*
X45314762Y-87883333D01*
X45267143Y-87835714D01*
X45171905Y-87788095D01*
X44981429Y-87788095D01*
X44886190Y-87835714D01*
X44838571Y-87883333D01*
X44790952Y-87978571D01*
X115566667Y-46428571D02*
X115233333Y-46428571D01*
X115233333Y-46952381D02*
X115233333Y-45952381D01*
X115709524Y-45952381D01*
X116042857Y-46047619D02*
X116090476Y-46000000D01*
X116185714Y-45952381D01*
X116423810Y-45952381D01*
X116519048Y-46000000D01*
X116566667Y-46047619D01*
X116614286Y-46142857D01*
X116614286Y-46238095D01*
X116566667Y-46380952D01*
X115995238Y-46952381D01*
X116614286Y-46952381D01*
X115766667Y-66128571D02*
X115433333Y-66128571D01*
X115433333Y-66652381D02*
X115433333Y-65652381D01*
X115909524Y-65652381D01*
X116195238Y-65652381D02*
X116814286Y-65652381D01*
X116480952Y-66033333D01*
X116623810Y-66033333D01*
X116719048Y-66080952D01*
X116766667Y-66128571D01*
X116814286Y-66223810D01*
X116814286Y-66461905D01*
X116766667Y-66557143D01*
X116719048Y-66604762D01*
X116623810Y-66652381D01*
X116338095Y-66652381D01*
X116242857Y-66604762D01*
X116195238Y-66557143D01*
X115576667Y-86028571D02*
X115243333Y-86028571D01*
X115243333Y-86552381D02*
X115243333Y-85552381D01*
X115719524Y-85552381D01*
X116529048Y-85885714D02*
X116529048Y-86552381D01*
X116290952Y-85504762D02*
X116052857Y-86219048D01*
X116671905Y-86219048D01*
X127021905Y-65702381D02*
X127021905Y-64702381D01*
X127402858Y-64702381D01*
X127498096Y-64750000D01*
X127545715Y-64797619D01*
X127593334Y-64892857D01*
X127593334Y-65035714D01*
X127545715Y-65130952D01*
X127498096Y-65178571D01*
X127402858Y-65226190D01*
X127021905Y-65226190D01*
X127974286Y-64797619D02*
X128021905Y-64750000D01*
X128117143Y-64702381D01*
X128355239Y-64702381D01*
X128450477Y-64750000D01*
X128498096Y-64797619D01*
X128545715Y-64892857D01*
X128545715Y-64988095D01*
X128498096Y-65130952D01*
X127926667Y-65702381D01*
X128545715Y-65702381D01*
X126671905Y-85602381D02*
X126671905Y-84602381D01*
X127052858Y-84602381D01*
X127148096Y-84650000D01*
X127195715Y-84697619D01*
X127243334Y-84792857D01*
X127243334Y-84935714D01*
X127195715Y-85030952D01*
X127148096Y-85078571D01*
X127052858Y-85126190D01*
X126671905Y-85126190D01*
X127576667Y-84602381D02*
X128195715Y-84602381D01*
X127862381Y-84983333D01*
X128005239Y-84983333D01*
X128100477Y-85030952D01*
X128148096Y-85078571D01*
X128195715Y-85173810D01*
X128195715Y-85411905D01*
X128148096Y-85507143D01*
X128100477Y-85554762D01*
X128005239Y-85602381D01*
X127719524Y-85602381D01*
X127624286Y-85554762D01*
X127576667Y-85507143D01*
X120021905Y-107902381D02*
X120021905Y-106902381D01*
X120402858Y-106902381D01*
X120498096Y-106950000D01*
X120545715Y-106997619D01*
X120593334Y-107092857D01*
X120593334Y-107235714D01*
X120545715Y-107330952D01*
X120498096Y-107378571D01*
X120402858Y-107426190D01*
X120021905Y-107426190D01*
X121498096Y-106902381D02*
X121021905Y-106902381D01*
X120974286Y-107378571D01*
X121021905Y-107330952D01*
X121117143Y-107283333D01*
X121355239Y-107283333D01*
X121450477Y-107330952D01*
X121498096Y-107378571D01*
X121545715Y-107473810D01*
X121545715Y-107711905D01*
X121498096Y-107807143D01*
X121450477Y-107854762D01*
X121355239Y-107902381D01*
X121117143Y-107902381D01*
X121021905Y-107854762D01*
X120974286Y-107807143D01*
X127061905Y-45252381D02*
X127061905Y-44252381D01*
X127442858Y-44252381D01*
X127538096Y-44300000D01*
X127585715Y-44347619D01*
X127633334Y-44442857D01*
X127633334Y-44585714D01*
X127585715Y-44680952D01*
X127538096Y-44728571D01*
X127442858Y-44776190D01*
X127061905Y-44776190D01*
X128585715Y-45252381D02*
X128014286Y-45252381D01*
X128300000Y-45252381D02*
X128300000Y-44252381D01*
X128204762Y-44395238D01*
X128109524Y-44490476D01*
X128014286Y-44538095D01*
X126971905Y-105652381D02*
X126971905Y-104652381D01*
X127352858Y-104652381D01*
X127448096Y-104700000D01*
X127495715Y-104747619D01*
X127543334Y-104842857D01*
X127543334Y-104985714D01*
X127495715Y-105080952D01*
X127448096Y-105128571D01*
X127352858Y-105176190D01*
X126971905Y-105176190D01*
X128400477Y-104985714D02*
X128400477Y-105652381D01*
X128162381Y-104604762D02*
X127924286Y-105319048D01*
X128543334Y-105319048D01*
X66321905Y-21052381D02*
X66321905Y-20052381D01*
X66702858Y-20052381D01*
X66798096Y-20100000D01*
X66845715Y-20147619D01*
X66893334Y-20242857D01*
X66893334Y-20385714D01*
X66845715Y-20480952D01*
X66798096Y-20528571D01*
X66702858Y-20576190D01*
X66321905Y-20576190D01*
X67464762Y-20480952D02*
X67369524Y-20433333D01*
X67321905Y-20385714D01*
X67274286Y-20290476D01*
X67274286Y-20242857D01*
X67321905Y-20147619D01*
X67369524Y-20100000D01*
X67464762Y-20052381D01*
X67655239Y-20052381D01*
X67750477Y-20100000D01*
X67798096Y-20147619D01*
X67845715Y-20242857D01*
X67845715Y-20290476D01*
X67798096Y-20385714D01*
X67750477Y-20433333D01*
X67655239Y-20480952D01*
X67464762Y-20480952D01*
X67369524Y-20528571D01*
X67321905Y-20576190D01*
X67274286Y-20671429D01*
X67274286Y-20861905D01*
X67321905Y-20957143D01*
X67369524Y-21004762D01*
X67464762Y-21052381D01*
X67655239Y-21052381D01*
X67750477Y-21004762D01*
X67798096Y-20957143D01*
X67845715Y-20861905D01*
X67845715Y-20671429D01*
X67798096Y-20576190D01*
X67750477Y-20528571D01*
X67655239Y-20480952D01*
X77412381Y-21664286D02*
X76412381Y-21664286D01*
X76412381Y-21283333D01*
X76460000Y-21188095D01*
X76507619Y-21140476D01*
X76602857Y-21092857D01*
X76745714Y-21092857D01*
X76840952Y-21140476D01*
X76888571Y-21188095D01*
X76936190Y-21283333D01*
X76936190Y-21664286D01*
X77412381Y-20140476D02*
X77412381Y-20711905D01*
X77412381Y-20426191D02*
X76412381Y-20426191D01*
X76555238Y-20521429D01*
X76650476Y-20616667D01*
X76698095Y-20711905D01*
X76412381Y-19521429D02*
X76412381Y-19426190D01*
X76460000Y-19330952D01*
X76507619Y-19283333D01*
X76602857Y-19235714D01*
X76793333Y-19188095D01*
X77031429Y-19188095D01*
X77221905Y-19235714D01*
X77317143Y-19283333D01*
X77364762Y-19330952D01*
X77412381Y-19426190D01*
X77412381Y-19521429D01*
X77364762Y-19616667D01*
X77317143Y-19664286D01*
X77221905Y-19711905D01*
X77031429Y-19759524D01*
X76793333Y-19759524D01*
X76602857Y-19711905D01*
X76507619Y-19664286D01*
X76460000Y-19616667D01*
X76412381Y-19521429D01*
X73521905Y-28802381D02*
X73521905Y-27802381D01*
X73760000Y-27802381D01*
X73902858Y-27850000D01*
X73998096Y-27945238D01*
X74045715Y-28040476D01*
X74093334Y-28230952D01*
X74093334Y-28373810D01*
X74045715Y-28564286D01*
X73998096Y-28659524D01*
X73902858Y-28754762D01*
X73760000Y-28802381D01*
X73521905Y-28802381D01*
X74950477Y-27802381D02*
X74760000Y-27802381D01*
X74664762Y-27850000D01*
X74617143Y-27897619D01*
X74521905Y-28040476D01*
X74474286Y-28230952D01*
X74474286Y-28611905D01*
X74521905Y-28707143D01*
X74569524Y-28754762D01*
X74664762Y-28802381D01*
X74855239Y-28802381D01*
X74950477Y-28754762D01*
X74998096Y-28707143D01*
X75045715Y-28611905D01*
X75045715Y-28373810D01*
X74998096Y-28278571D01*
X74950477Y-28230952D01*
X74855239Y-28183333D01*
X74664762Y-28183333D01*
X74569524Y-28230952D01*
X74521905Y-28278571D01*
X74474286Y-28373810D01*
X52793334Y-36407143D02*
X52745715Y-36454762D01*
X52602858Y-36502381D01*
X52507620Y-36502381D01*
X52364762Y-36454762D01*
X52269524Y-36359524D01*
X52221905Y-36264286D01*
X52174286Y-36073810D01*
X52174286Y-35930952D01*
X52221905Y-35740476D01*
X52269524Y-35645238D01*
X52364762Y-35550000D01*
X52507620Y-35502381D01*
X52602858Y-35502381D01*
X52745715Y-35550000D01*
X52793334Y-35597619D01*
X53126667Y-35502381D02*
X53745715Y-35502381D01*
X53412381Y-35883333D01*
X53555239Y-35883333D01*
X53650477Y-35930952D01*
X53698096Y-35978571D01*
X53745715Y-36073810D01*
X53745715Y-36311905D01*
X53698096Y-36407143D01*
X53650477Y-36454762D01*
X53555239Y-36502381D01*
X53269524Y-36502381D01*
X53174286Y-36454762D01*
X53126667Y-36407143D01*
X73698095Y-34552381D02*
X73698095Y-35361905D01*
X73745714Y-35457143D01*
X73793333Y-35504762D01*
X73888571Y-35552381D01*
X74079048Y-35552381D01*
X74174286Y-35504762D01*
X74221905Y-35457143D01*
X74269524Y-35361905D01*
X74269524Y-34552381D01*
X74650476Y-34552381D02*
X75317143Y-34552381D01*
X74888571Y-35552381D01*
X116072381Y-40278095D02*
X115072381Y-40278095D01*
X115072381Y-40040000D01*
X115120000Y-39897142D01*
X115215238Y-39801904D01*
X115310476Y-39754285D01*
X115500952Y-39706666D01*
X115643810Y-39706666D01*
X115834286Y-39754285D01*
X115929524Y-39801904D01*
X116024762Y-39897142D01*
X116072381Y-40040000D01*
X116072381Y-40278095D01*
X116072381Y-38754285D02*
X116072381Y-39325714D01*
X116072381Y-39040000D02*
X115072381Y-39040000D01*
X115215238Y-39135238D01*
X115310476Y-39230476D01*
X115358095Y-39325714D01*
X116072381Y-60278095D02*
X115072381Y-60278095D01*
X115072381Y-60040000D01*
X115120000Y-59897142D01*
X115215238Y-59801904D01*
X115310476Y-59754285D01*
X115500952Y-59706666D01*
X115643810Y-59706666D01*
X115834286Y-59754285D01*
X115929524Y-59801904D01*
X116024762Y-59897142D01*
X116072381Y-60040000D01*
X116072381Y-60278095D01*
X115167619Y-59325714D02*
X115120000Y-59278095D01*
X115072381Y-59182857D01*
X115072381Y-58944761D01*
X115120000Y-58849523D01*
X115167619Y-58801904D01*
X115262857Y-58754285D01*
X115358095Y-58754285D01*
X115500952Y-58801904D01*
X116072381Y-59373333D01*
X116072381Y-58754285D01*
X116072381Y-80278095D02*
X115072381Y-80278095D01*
X115072381Y-80040000D01*
X115120000Y-79897142D01*
X115215238Y-79801904D01*
X115310476Y-79754285D01*
X115500952Y-79706666D01*
X115643810Y-79706666D01*
X115834286Y-79754285D01*
X115929524Y-79801904D01*
X116024762Y-79897142D01*
X116072381Y-80040000D01*
X116072381Y-80278095D01*
X115072381Y-79373333D02*
X115072381Y-78754285D01*
X115453333Y-79087619D01*
X115453333Y-78944761D01*
X115500952Y-78849523D01*
X115548571Y-78801904D01*
X115643810Y-78754285D01*
X115881905Y-78754285D01*
X115977143Y-78801904D01*
X116024762Y-78849523D01*
X116072381Y-78944761D01*
X116072381Y-79230476D01*
X116024762Y-79325714D01*
X115977143Y-79373333D01*
X116072381Y-100278095D02*
X115072381Y-100278095D01*
X115072381Y-100040000D01*
X115120000Y-99897142D01*
X115215238Y-99801904D01*
X115310476Y-99754285D01*
X115500952Y-99706666D01*
X115643810Y-99706666D01*
X115834286Y-99754285D01*
X115929524Y-99801904D01*
X116024762Y-99897142D01*
X116072381Y-100040000D01*
X116072381Y-100278095D01*
X115405714Y-98849523D02*
X116072381Y-98849523D01*
X115024762Y-99087619D02*
X115739048Y-99325714D01*
X115739048Y-98706666D01*
X79095714Y-23652381D02*
X79095714Y-22652381D01*
X79476667Y-22652381D01*
X79571905Y-22700000D01*
X79619524Y-22747619D01*
X79667143Y-22842857D01*
X79667143Y-22985714D01*
X79619524Y-23080952D01*
X79571905Y-23128571D01*
X79476667Y-23176190D01*
X79095714Y-23176190D01*
X80619524Y-23652381D02*
X80048095Y-23652381D01*
X80333809Y-23652381D02*
X80333809Y-22652381D01*
X80238571Y-22795238D01*
X80143333Y-22890476D01*
X80048095Y-22938095D01*
X81000476Y-22747619D02*
X81048095Y-22700000D01*
X81143333Y-22652381D01*
X81381429Y-22652381D01*
X81476667Y-22700000D01*
X81524286Y-22747619D01*
X81571905Y-22842857D01*
X81571905Y-22938095D01*
X81524286Y-23080952D01*
X80952857Y-23652381D01*
X81571905Y-23652381D01*
X81212381Y-115464286D02*
X80212381Y-115464286D01*
X80212381Y-115083333D01*
X80260000Y-114988095D01*
X80307619Y-114940476D01*
X80402857Y-114892857D01*
X80545714Y-114892857D01*
X80640952Y-114940476D01*
X80688571Y-114988095D01*
X80736190Y-115083333D01*
X80736190Y-115464286D01*
X81212381Y-113940476D02*
X81212381Y-114511905D01*
X81212381Y-114226191D02*
X80212381Y-114226191D01*
X80355238Y-114321429D01*
X80450476Y-114416667D01*
X80498095Y-114511905D01*
X80545714Y-113083333D02*
X81212381Y-113083333D01*
X80164762Y-113321429D02*
X80879048Y-113559524D01*
X80879048Y-112940476D01*
X65412381Y-115314286D02*
X64412381Y-115314286D01*
X64412381Y-114933333D01*
X64460000Y-114838095D01*
X64507619Y-114790476D01*
X64602857Y-114742857D01*
X64745714Y-114742857D01*
X64840952Y-114790476D01*
X64888571Y-114838095D01*
X64936190Y-114933333D01*
X64936190Y-115314286D01*
X65412381Y-113790476D02*
X65412381Y-114361905D01*
X65412381Y-114076191D02*
X64412381Y-114076191D01*
X64555238Y-114171429D01*
X64650476Y-114266667D01*
X64698095Y-114361905D01*
X64412381Y-112885714D02*
X64412381Y-113361905D01*
X64888571Y-113409524D01*
X64840952Y-113361905D01*
X64793333Y-113266667D01*
X64793333Y-113028571D01*
X64840952Y-112933333D01*
X64888571Y-112885714D01*
X64983810Y-112838095D01*
X65221905Y-112838095D01*
X65317143Y-112885714D01*
X65364762Y-112933333D01*
X65412381Y-113028571D01*
X65412381Y-113266667D01*
X65364762Y-113361905D01*
X65317143Y-113409524D01*
X95238095Y-25522381D02*
X95238095Y-26331905D01*
X95285714Y-26427143D01*
X95333333Y-26474762D01*
X95428571Y-26522381D01*
X95619048Y-26522381D01*
X95714286Y-26474762D01*
X95761905Y-26427143D01*
X95809524Y-26331905D01*
X95809524Y-25522381D01*
X96809524Y-26522381D02*
X96238095Y-26522381D01*
X96523809Y-26522381D02*
X96523809Y-25522381D01*
X96428571Y-25665238D01*
X96333333Y-25760476D01*
X96238095Y-25808095D01*
X95238095Y-45522381D02*
X95238095Y-46331905D01*
X95285714Y-46427143D01*
X95333333Y-46474762D01*
X95428571Y-46522381D01*
X95619048Y-46522381D01*
X95714286Y-46474762D01*
X95761905Y-46427143D01*
X95809524Y-46331905D01*
X95809524Y-45522381D01*
X96238095Y-45617619D02*
X96285714Y-45570000D01*
X96380952Y-45522381D01*
X96619048Y-45522381D01*
X96714286Y-45570000D01*
X96761905Y-45617619D01*
X96809524Y-45712857D01*
X96809524Y-45808095D01*
X96761905Y-45950952D01*
X96190476Y-46522381D01*
X96809524Y-46522381D01*
X95238095Y-65522381D02*
X95238095Y-66331905D01*
X95285714Y-66427143D01*
X95333333Y-66474762D01*
X95428571Y-66522381D01*
X95619048Y-66522381D01*
X95714286Y-66474762D01*
X95761905Y-66427143D01*
X95809524Y-66331905D01*
X95809524Y-65522381D01*
X96190476Y-65522381D02*
X96809524Y-65522381D01*
X96476190Y-65903333D01*
X96619048Y-65903333D01*
X96714286Y-65950952D01*
X96761905Y-65998571D01*
X96809524Y-66093810D01*
X96809524Y-66331905D01*
X96761905Y-66427143D01*
X96714286Y-66474762D01*
X96619048Y-66522381D01*
X96333333Y-66522381D01*
X96238095Y-66474762D01*
X96190476Y-66427143D01*
X95238095Y-85522381D02*
X95238095Y-86331905D01*
X95285714Y-86427143D01*
X95333333Y-86474762D01*
X95428571Y-86522381D01*
X95619048Y-86522381D01*
X95714286Y-86474762D01*
X95761905Y-86427143D01*
X95809524Y-86331905D01*
X95809524Y-85522381D01*
X96714286Y-85855714D02*
X96714286Y-86522381D01*
X96476190Y-85474762D02*
X96238095Y-86189048D01*
X96857143Y-86189048D01*
X64745714Y-33402381D02*
X64745714Y-32402381D01*
X65126667Y-32402381D01*
X65221905Y-32450000D01*
X65269524Y-32497619D01*
X65317143Y-32592857D01*
X65317143Y-32735714D01*
X65269524Y-32830952D01*
X65221905Y-32878571D01*
X65126667Y-32926190D01*
X64745714Y-32926190D01*
X66269524Y-33402381D02*
X65698095Y-33402381D01*
X65983809Y-33402381D02*
X65983809Y-32402381D01*
X65888571Y-32545238D01*
X65793333Y-32640476D01*
X65698095Y-32688095D01*
X66602857Y-32402381D02*
X67221905Y-32402381D01*
X66888571Y-32783333D01*
X67031429Y-32783333D01*
X67126667Y-32830952D01*
X67174286Y-32878571D01*
X67221905Y-32973810D01*
X67221905Y-33211905D01*
X67174286Y-33307143D01*
X67126667Y-33354762D01*
X67031429Y-33402381D01*
X66745714Y-33402381D01*
X66650476Y-33354762D01*
X66602857Y-33307143D01*
M02*
