G04 #@! TF.FileFunction,Soldermask,Top*
%FSLAX46Y46*%
G04 Gerber Fmt 4.6, Leading zero omitted, Abs format (unit mm)*
G04 Created by KiCad (PCBNEW 4.0.5) date 05/01/17 10:10:01*
%MOMM*%
%LPD*%
G01*
G04 APERTURE LIST*
%ADD10C,0.100000*%
%ADD11C,3.600000*%
%ADD12R,1.920000X1.010000*%
%ADD13R,1.400000X3.600000*%
%ADD14R,2.127200X2.127200*%
%ADD15O,2.127200X2.127200*%
%ADD16R,2.200000X4.000000*%
%ADD17O,2.200000X4.000000*%
%ADD18R,2.100000X1.300000*%
%ADD19R,1.750000X0.800000*%
%ADD20O,1.350000X1.650000*%
%ADD21O,1.950000X1.400000*%
%ADD22R,2.432000X2.127200*%
%ADD23O,2.432000X2.127200*%
%ADD24R,1.900000X0.950000*%
%ADD25R,0.950000X1.900000*%
%ADD26C,2.749500*%
%ADD27R,2.000000X1.400000*%
%ADD28R,1.900000X1.900000*%
%ADD29R,2.700000X6.000000*%
%ADD30R,2.100000X2.100000*%
%ADD31O,2.100000X2.100000*%
%ADD32R,1.300000X2.100000*%
%ADD33R,1.950000X1.700000*%
%ADD34R,2.000000X2.000000*%
%ADD35O,2.000000X2.000000*%
%ADD36R,1.400000X2.000000*%
%ADD37R,4.900000X2.400000*%
%ADD38R,4.000000X2.200000*%
%ADD39O,4.000000X2.200000*%
%ADD40R,2.127200X2.432000*%
%ADD41O,2.127200X2.432000*%
%ADD42R,2.432000X2.432000*%
%ADD43O,2.432000X2.432000*%
%ADD44R,1.600000X1.300000*%
%ADD45R,0.800000X1.900000*%
%ADD46R,2.200000X2.200000*%
%ADD47O,2.200000X2.200000*%
%ADD48R,1.925000X2.180000*%
G04 APERTURE END LIST*
D10*
D11*
X125000000Y-113000000D03*
X35000000Y-113000000D03*
X125000000Y-22000000D03*
D12*
X95925000Y-112135000D03*
X95925000Y-110865000D03*
X89575000Y-110865000D03*
X89575000Y-112135000D03*
D13*
X107750000Y-113500000D03*
X102250000Y-113500000D03*
X107750000Y-108500000D03*
X102250000Y-108500000D03*
D14*
X50860000Y-68650000D03*
D15*
X53400000Y-68650000D03*
X50860000Y-71190000D03*
X53400000Y-71190000D03*
X50860000Y-73730000D03*
X53400000Y-73730000D03*
D16*
X114510000Y-22000000D03*
D17*
X118010000Y-22000000D03*
D18*
X71260000Y-33250000D03*
X71260000Y-30350000D03*
D19*
X33710000Y-29050000D03*
X33710000Y-29700000D03*
X33710000Y-30350000D03*
X33710000Y-31000000D03*
X33710000Y-31650000D03*
D20*
X33710000Y-27850000D03*
X33710000Y-32850000D03*
D21*
X31010000Y-26850000D03*
X31010000Y-33850000D03*
D18*
X95000000Y-80450000D03*
X95000000Y-77550000D03*
D22*
X32910000Y-52500000D03*
D23*
X32910000Y-55040000D03*
X32910000Y-57580000D03*
X32910000Y-60120000D03*
X32910000Y-62660000D03*
X32910000Y-65200000D03*
X32910000Y-67740000D03*
X32910000Y-70280000D03*
X32910000Y-72820000D03*
X32910000Y-75360000D03*
X32910000Y-77900000D03*
X32910000Y-80440000D03*
X32910000Y-82980000D03*
D24*
X60760000Y-58350000D03*
X60760000Y-59150000D03*
X60760000Y-59950000D03*
X60760000Y-60750000D03*
X60760000Y-61550000D03*
X60760000Y-62350000D03*
X60760000Y-63150000D03*
X60760000Y-63950000D03*
X60760000Y-64750000D03*
X60760000Y-65550000D03*
X60760000Y-66350000D03*
D25*
X62460000Y-68050000D03*
X63260000Y-68050000D03*
X64060000Y-68050000D03*
X64860000Y-68050000D03*
X65660000Y-68050000D03*
X66460000Y-68050000D03*
X67260000Y-68050000D03*
X68060000Y-68050000D03*
X68860000Y-68050000D03*
X69660000Y-68050000D03*
X70460000Y-68050000D03*
D24*
X72160000Y-66350000D03*
X72160000Y-65550000D03*
X72160000Y-64750000D03*
X72160000Y-63950000D03*
X72160000Y-63150000D03*
X72160000Y-62350000D03*
X72160000Y-61550000D03*
X72160000Y-60750000D03*
X72160000Y-59950000D03*
X72160000Y-59150000D03*
X72160000Y-58350000D03*
D25*
X70460000Y-56650000D03*
X69660000Y-56650000D03*
X68860000Y-56650000D03*
X68060000Y-56650000D03*
X67260000Y-56650000D03*
X66460000Y-56650000D03*
X65660000Y-56650000D03*
X64860000Y-56650000D03*
X64060000Y-56650000D03*
X63260000Y-56650000D03*
X62460000Y-56650000D03*
D26*
X123660640Y-27460000D03*
X123660640Y-32540000D03*
X108339360Y-27460000D03*
X108339360Y-32540000D03*
D27*
X46860000Y-31300000D03*
X46860000Y-34300000D03*
X49860000Y-31300000D03*
X49860000Y-34300000D03*
X71260000Y-26650000D03*
X71260000Y-23650000D03*
X54360000Y-61050000D03*
X54360000Y-58050000D03*
D28*
X55760000Y-36600000D03*
X55760000Y-39900000D03*
X64610000Y-93050000D03*
X64610000Y-96350000D03*
X68110000Y-93050000D03*
X68110000Y-96350000D03*
X48610000Y-104650000D03*
X48610000Y-107950000D03*
X98000000Y-37350000D03*
X98000000Y-40650000D03*
X98000000Y-57350000D03*
X98000000Y-60650000D03*
D29*
X39260000Y-40350000D03*
X31860000Y-40350000D03*
D30*
X37810000Y-94500000D03*
D31*
X40350000Y-94500000D03*
D30*
X37810000Y-89900000D03*
D31*
X40350000Y-89900000D03*
D18*
X92000000Y-40450000D03*
X92000000Y-37550000D03*
X95000000Y-40450000D03*
X95000000Y-37550000D03*
D32*
X106450000Y-24000000D03*
X103550000Y-24000000D03*
X94210000Y-106950000D03*
X91310000Y-106950000D03*
X41760000Y-32850000D03*
X38860000Y-32850000D03*
D18*
X55760000Y-31200000D03*
X55760000Y-34100000D03*
D32*
X41760000Y-27600000D03*
X38860000Y-27600000D03*
D18*
X92000000Y-60450000D03*
X92000000Y-57550000D03*
X95000000Y-60450000D03*
X95000000Y-57550000D03*
X71260000Y-42600000D03*
X71260000Y-45500000D03*
D32*
X106450000Y-44000000D03*
X103550000Y-44000000D03*
D18*
X77210000Y-26500000D03*
X77210000Y-23600000D03*
X77410000Y-33400000D03*
X77410000Y-30500000D03*
X92000000Y-80450000D03*
X92000000Y-77550000D03*
D32*
X106450000Y-64000000D03*
X103550000Y-64000000D03*
D18*
X64610000Y-87750000D03*
X64610000Y-90650000D03*
X68110000Y-87750000D03*
X68110000Y-90650000D03*
X44210000Y-104350000D03*
X44210000Y-101450000D03*
D32*
X106450000Y-84000000D03*
X103550000Y-84000000D03*
X31960000Y-94500000D03*
X34860000Y-94500000D03*
X31960000Y-89900000D03*
X34860000Y-89900000D03*
D18*
X48610000Y-99450000D03*
X48610000Y-102350000D03*
D33*
X60285000Y-41000000D03*
X68235000Y-41000000D03*
X60285000Y-45500000D03*
X68235000Y-45500000D03*
D34*
X40410000Y-103050000D03*
D35*
X32790000Y-103050000D03*
D28*
X98000000Y-77350000D03*
X98000000Y-80650000D03*
X98000000Y-97350000D03*
X98000000Y-100650000D03*
D18*
X92000000Y-100450000D03*
X92000000Y-97550000D03*
X95000000Y-100450000D03*
X95000000Y-97550000D03*
D36*
X71010000Y-80600000D03*
X68010000Y-80600000D03*
X61810000Y-80600000D03*
X64810000Y-80600000D03*
D37*
X70360000Y-76200000D03*
X61860000Y-76200000D03*
D28*
X47110000Y-92950000D03*
X47110000Y-96250000D03*
D18*
X47010000Y-87450000D03*
X47010000Y-90350000D03*
D26*
X123660640Y-47460000D03*
X123660640Y-52540000D03*
X108339360Y-47460000D03*
X108339360Y-52540000D03*
X123660640Y-67460000D03*
X123660640Y-72540000D03*
X108339360Y-67460000D03*
X108339360Y-72540000D03*
X123660640Y-87460000D03*
X123660640Y-92540000D03*
X108339360Y-87460000D03*
X108339360Y-92540000D03*
D38*
X125000000Y-61000000D03*
D39*
X125000000Y-57500000D03*
D38*
X125000000Y-81000000D03*
D39*
X125000000Y-77500000D03*
D16*
X118000000Y-112000000D03*
D17*
X114500000Y-112000000D03*
D38*
X125000000Y-41000000D03*
D39*
X125000000Y-37500000D03*
D38*
X125000000Y-101000000D03*
D39*
X125000000Y-97500000D03*
D40*
X63810000Y-20600000D03*
D41*
X61270000Y-20600000D03*
X58730000Y-20600000D03*
X56190000Y-20600000D03*
X53650000Y-20600000D03*
X51110000Y-20600000D03*
X48570000Y-20600000D03*
D42*
X74060000Y-20450000D03*
D43*
X71520000Y-20450000D03*
D44*
X74260000Y-26900000D03*
X74260000Y-23600000D03*
D27*
X52860000Y-31300000D03*
X52860000Y-34300000D03*
D45*
X75010000Y-29920000D03*
X74360000Y-29920000D03*
X73710000Y-29920000D03*
X73710000Y-32580000D03*
X75010000Y-32580000D03*
D46*
X112000000Y-37000000D03*
D47*
X112000000Y-39540000D03*
X112000000Y-42080000D03*
D46*
X112000000Y-57000000D03*
D47*
X112000000Y-59540000D03*
X112000000Y-62080000D03*
D46*
X112000000Y-77000000D03*
D47*
X112000000Y-79540000D03*
X112000000Y-82080000D03*
D46*
X112000000Y-97000000D03*
D47*
X112000000Y-99540000D03*
X112000000Y-102080000D03*
D30*
X79660000Y-20300000D03*
X77810000Y-114200000D03*
D31*
X75270000Y-114200000D03*
D30*
X70460000Y-114150000D03*
D31*
X67920000Y-114150000D03*
D48*
X91500000Y-28460000D03*
X100500000Y-33540000D03*
X91500000Y-31000000D03*
X100500000Y-31000000D03*
X91500000Y-33540000D03*
X100500000Y-28460000D03*
X91500000Y-48460000D03*
X100500000Y-53540000D03*
X91500000Y-51000000D03*
X100500000Y-51000000D03*
X91500000Y-53540000D03*
X100500000Y-48460000D03*
X91500000Y-68460000D03*
X100500000Y-73540000D03*
X91500000Y-71000000D03*
X100500000Y-71000000D03*
X91500000Y-73540000D03*
X100500000Y-68460000D03*
X91500000Y-88460000D03*
X100500000Y-93540000D03*
X91500000Y-91000000D03*
X100500000Y-91000000D03*
X91500000Y-93540000D03*
X100500000Y-88460000D03*
D30*
X66060000Y-30250000D03*
D11*
X35000000Y-21000000D03*
M02*
