G04 #@! TF.FileFunction,Paste,Top*
%FSLAX46Y46*%
G04 Gerber Fmt 4.6, Leading zero omitted, Abs format (unit mm)*
G04 Created by KiCad (PCBNEW 4.0.5) date 05/01/17 10:10:00*
%MOMM*%
%LPD*%
G01*
G04 APERTURE LIST*
%ADD10C,0.100000*%
%ADD11R,1.520000X0.610000*%
%ADD12R,1.000000X3.200000*%
%ADD13R,1.700000X0.900000*%
%ADD14R,1.350000X0.400000*%
%ADD15R,1.500000X0.550000*%
%ADD16R,0.550000X1.500000*%
%ADD17R,1.600000X1.000000*%
%ADD18R,1.500000X1.500000*%
%ADD19R,2.300000X5.600000*%
%ADD20R,0.900000X1.700000*%
%ADD21R,1.550000X1.300000*%
%ADD22R,1.000000X1.600000*%
%ADD23R,4.500000X2.000000*%
%ADD24R,1.200000X0.900000*%
%ADD25R,0.400000X1.500000*%
%ADD26R,1.525000X1.780000*%
G04 APERTURE END LIST*
D10*
D11*
X95925000Y-112135000D03*
X95925000Y-110865000D03*
X89575000Y-110865000D03*
X89575000Y-112135000D03*
D12*
X107750000Y-113500000D03*
X102250000Y-113500000D03*
X107750000Y-108500000D03*
X102250000Y-108500000D03*
D13*
X71260000Y-33250000D03*
X71260000Y-30350000D03*
D14*
X33710000Y-29050000D03*
X33710000Y-29700000D03*
X33710000Y-30350000D03*
X33710000Y-31000000D03*
X33710000Y-31650000D03*
D13*
X95000000Y-80450000D03*
X95000000Y-77550000D03*
D15*
X60760000Y-58350000D03*
X60760000Y-59150000D03*
X60760000Y-59950000D03*
X60760000Y-60750000D03*
X60760000Y-61550000D03*
X60760000Y-62350000D03*
X60760000Y-63150000D03*
X60760000Y-63950000D03*
X60760000Y-64750000D03*
X60760000Y-65550000D03*
X60760000Y-66350000D03*
D16*
X62460000Y-68050000D03*
X63260000Y-68050000D03*
X64060000Y-68050000D03*
X64860000Y-68050000D03*
X65660000Y-68050000D03*
X66460000Y-68050000D03*
X67260000Y-68050000D03*
X68060000Y-68050000D03*
X68860000Y-68050000D03*
X69660000Y-68050000D03*
X70460000Y-68050000D03*
D15*
X72160000Y-66350000D03*
X72160000Y-65550000D03*
X72160000Y-64750000D03*
X72160000Y-63950000D03*
X72160000Y-63150000D03*
X72160000Y-62350000D03*
X72160000Y-61550000D03*
X72160000Y-60750000D03*
X72160000Y-59950000D03*
X72160000Y-59150000D03*
X72160000Y-58350000D03*
D16*
X70460000Y-56650000D03*
X69660000Y-56650000D03*
X68860000Y-56650000D03*
X68060000Y-56650000D03*
X67260000Y-56650000D03*
X66460000Y-56650000D03*
X65660000Y-56650000D03*
X64860000Y-56650000D03*
X64060000Y-56650000D03*
X63260000Y-56650000D03*
X62460000Y-56650000D03*
D17*
X46860000Y-31300000D03*
X46860000Y-34300000D03*
X49860000Y-31300000D03*
X49860000Y-34300000D03*
X71260000Y-26650000D03*
X71260000Y-23650000D03*
X54360000Y-61050000D03*
X54360000Y-58050000D03*
D18*
X55760000Y-36600000D03*
X55760000Y-39900000D03*
X64610000Y-93050000D03*
X64610000Y-96350000D03*
X68110000Y-93050000D03*
X68110000Y-96350000D03*
X48610000Y-104650000D03*
X48610000Y-107950000D03*
X98000000Y-37350000D03*
X98000000Y-40650000D03*
X98000000Y-57350000D03*
X98000000Y-60650000D03*
D19*
X39260000Y-40350000D03*
X31860000Y-40350000D03*
D13*
X92000000Y-40450000D03*
X92000000Y-37550000D03*
X95000000Y-40450000D03*
X95000000Y-37550000D03*
D20*
X106450000Y-24000000D03*
X103550000Y-24000000D03*
X94210000Y-106950000D03*
X91310000Y-106950000D03*
X41760000Y-32850000D03*
X38860000Y-32850000D03*
D13*
X55760000Y-31200000D03*
X55760000Y-34100000D03*
D20*
X41760000Y-27600000D03*
X38860000Y-27600000D03*
D13*
X92000000Y-60450000D03*
X92000000Y-57550000D03*
X95000000Y-60450000D03*
X95000000Y-57550000D03*
X71260000Y-42600000D03*
X71260000Y-45500000D03*
D20*
X106450000Y-44000000D03*
X103550000Y-44000000D03*
D13*
X77210000Y-26500000D03*
X77210000Y-23600000D03*
X77410000Y-33400000D03*
X77410000Y-30500000D03*
X92000000Y-80450000D03*
X92000000Y-77550000D03*
D20*
X106450000Y-64000000D03*
X103550000Y-64000000D03*
D13*
X64610000Y-87750000D03*
X64610000Y-90650000D03*
X68110000Y-87750000D03*
X68110000Y-90650000D03*
X44210000Y-104350000D03*
X44210000Y-101450000D03*
D20*
X106450000Y-84000000D03*
X103550000Y-84000000D03*
X31960000Y-94500000D03*
X34860000Y-94500000D03*
X31960000Y-89900000D03*
X34860000Y-89900000D03*
D13*
X48610000Y-99450000D03*
X48610000Y-102350000D03*
D21*
X60285000Y-41000000D03*
X68235000Y-41000000D03*
X60285000Y-45500000D03*
X68235000Y-45500000D03*
D18*
X98000000Y-77350000D03*
X98000000Y-80650000D03*
X98000000Y-97350000D03*
X98000000Y-100650000D03*
D13*
X92000000Y-100450000D03*
X92000000Y-97550000D03*
X95000000Y-100450000D03*
X95000000Y-97550000D03*
D22*
X71010000Y-80600000D03*
X68010000Y-80600000D03*
X61810000Y-80600000D03*
X64810000Y-80600000D03*
D23*
X70360000Y-76200000D03*
X61860000Y-76200000D03*
D18*
X47110000Y-92950000D03*
X47110000Y-96250000D03*
D13*
X47010000Y-87450000D03*
X47010000Y-90350000D03*
D24*
X74260000Y-26900000D03*
X74260000Y-23600000D03*
D17*
X52860000Y-31300000D03*
X52860000Y-34300000D03*
D25*
X75010000Y-29920000D03*
X74360000Y-29920000D03*
X73710000Y-29920000D03*
X73710000Y-32580000D03*
X75010000Y-32580000D03*
D26*
X91500000Y-28460000D03*
X100500000Y-33540000D03*
X91500000Y-31000000D03*
X100500000Y-31000000D03*
X91500000Y-33540000D03*
X100500000Y-28460000D03*
X91500000Y-48460000D03*
X100500000Y-53540000D03*
X91500000Y-51000000D03*
X100500000Y-51000000D03*
X91500000Y-53540000D03*
X100500000Y-48460000D03*
X91500000Y-68460000D03*
X100500000Y-73540000D03*
X91500000Y-71000000D03*
X100500000Y-71000000D03*
X91500000Y-73540000D03*
X100500000Y-68460000D03*
X91500000Y-88460000D03*
X100500000Y-93540000D03*
X91500000Y-91000000D03*
X100500000Y-91000000D03*
X91500000Y-93540000D03*
X100500000Y-88460000D03*
M02*
